<svg width="160" height="160" viewBox="0 0 160 160" fill="none" xmlns="http://www.w3.org/2000/svg">
<g clip-path="url(#clip0_104_57)">
<g clip-path="url(#clip1_104_57)">
<path d="M106.667 20C108.3 20.0002 109.876 20.5997 111.096 21.6848C112.316 22.7698 113.096 24.265 113.287 25.8867L113.333 26.6667V33.3333H126.667C130.031 33.3323 133.27 34.6027 135.737 36.89C138.204 39.1772 139.714 42.3123 139.967 45.6667L140 46.6667V126.667C140.001 130.031 138.731 133.27 136.443 135.737C134.156 138.204 131.021 139.714 127.667 139.967L126.667 140H33.3333C29.9695 140.001 26.7296 138.731 24.263 136.443C21.7965 134.156 20.2856 131.021 20.0333 127.667L20 126.667V46.6667C19.9989 43.3028 21.2694 40.0629 23.5566 37.5963C25.8439 35.1298 28.979 33.619 32.3333 33.3667L33.3333 33.3333H46.6667V26.6667C46.6686 24.9675 47.3192 23.3331 48.4857 22.0975C49.6521 20.862 51.2464 20.1184 52.9426 20.0189C54.6389 19.9193 56.3092 20.4712 57.6122 21.5618C58.9152 22.6524 59.7526 24.1994 59.9533 25.8867L60 26.6667V33.3333H100V26.6667C100 24.8986 100.702 23.2029 101.953 21.9526C103.203 20.7024 104.899 20 106.667 20ZM126.667 80H33.3333V126.667H126.667V80ZM126.667 46.6667H33.3333V66.6667H126.667V46.6667Z" fill="#131313"/>
</g>
</g>
<defs>
<clipPath id="clip0_104_57">
<rect width="160" height="160" fill="white"/>
</clipPath>
<clipPath id="clip1_104_57">
<rect width="160" height="160" fill="white"/>
</clipPath>
</defs>
</svg>
