<svg width="160" height="160" viewBox="0 0 160 160" fill="none" xmlns="http://www.w3.org/2000/svg">
<g clip-path="url(#clip0_94_67)">
<path d="M80 40.0007C78.2319 40.0007 76.5362 40.703 75.286 41.9533C74.0357 43.2035 73.3333 44.8992 73.3333 46.6673V113.334C73.3333 115.102 74.0357 116.798 75.286 118.048C76.5362 119.298 78.2319 120.001 80 120.001C81.7681 120.001 83.4638 119.298 84.7141 118.048C85.9643 116.798 86.6667 115.102 86.6667 113.334V46.6673C86.6667 44.8992 85.9643 43.2035 84.7141 41.9533C83.4638 40.703 81.7681 40.0007 80 40.0007ZM46.6667 80.0007C44.8986 80.0007 43.2029 80.703 41.9526 81.9533C40.7024 83.2035 40 84.8992 40 86.6673V113.334C40 115.102 40.7024 116.798 41.9526 118.048C43.2029 119.298 44.8986 120.001 46.6667 120.001C48.4348 120.001 50.1305 119.298 51.3807 118.048C52.631 116.798 53.3333 115.102 53.3333 113.334V86.6673C53.3333 84.8992 52.631 83.2035 51.3807 81.9533C50.1305 80.703 48.4348 80.0007 46.6667 80.0007ZM113.333 66.6673C111.565 66.6673 109.87 67.3697 108.619 68.6199C107.369 69.8702 106.667 71.5659 106.667 73.334V113.334C106.667 115.102 107.369 116.798 108.619 118.048C109.87 119.298 111.565 120.001 113.333 120.001C115.101 120.001 116.797 119.298 118.047 118.048C119.298 116.798 120 115.102 120 113.334V73.334C120 71.5659 119.298 69.8702 118.047 68.6199C116.797 67.3697 115.101 66.6673 113.333 66.6673ZM126.667 13.334H33.3333C28.029 13.334 22.9419 15.4411 19.1912 19.1918C15.4405 22.9426 13.3333 28.0297 13.3333 33.334V126.667C13.3333 131.972 15.4405 137.059 19.1912 140.809C22.9419 144.56 28.029 146.667 33.3333 146.667H126.667C131.971 146.667 137.058 144.56 140.809 140.809C144.56 137.059 146.667 131.972 146.667 126.667V33.334C146.667 28.0297 144.56 22.9426 140.809 19.1918C137.058 15.4411 131.971 13.334 126.667 13.334ZM133.333 126.667C133.333 128.435 132.631 130.131 131.381 131.381C130.13 132.632 128.435 133.334 126.667 133.334H33.3333C31.5652 133.334 29.8695 132.632 28.6193 131.381C27.3691 130.131 26.6667 128.435 26.6667 126.667V33.334C26.6667 31.5659 27.3691 29.8702 28.6193 28.6199C29.8695 27.3697 31.5652 26.6673 33.3333 26.6673H126.667C128.435 26.6673 130.13 27.3697 131.381 28.6199C132.631 29.8702 133.333 31.5659 133.333 33.334V126.667Z" fill="#F4F4F4"/>
</g>
<defs>
<clipPath id="clip0_94_67">
<rect width="160" height="160" fill="white"/>
</clipPath>
</defs>
</svg>
