<svg width="160" height="160" viewBox="0 0 160 160" fill="none" xmlns="http://www.w3.org/2000/svg">
<g clip-path="url(#clip0_419_1527)">
<path d="M123.333 56.6673V123.334M123.333 123.334V146.667H36.6666V123.334M123.333 123.334H146.667V56.6673C146.667 46.6673 140 35.0007 130 26.6673C120 18.334 99.9999 13.334 99.9999 13.334H59.9999C59.9999 13.334 39.9999 18.334 29.9999 26.6673C19.9999 35.0007 13.3333 46.6673 13.3333 56.6673V123.334H36.6666M36.6666 123.334V56.6673" stroke="white" stroke-width="4" stroke-linecap="round" stroke-linejoin="round"/>
<path d="M100 13.334C100 18.6383 97.8929 23.7254 94.1421 27.4761C90.3914 31.2268 85.3043 33.334 80 33.334C74.6957 33.334 69.6086 31.2268 65.8579 27.4761C62.1071 23.7254 60 18.6383 60 13.334" stroke="white" stroke-width="4" stroke-linecap="round" stroke-linejoin="round"/>
</g>
<defs>
<clipPath id="clip0_419_1527">
<rect width="160" height="160" fill="white"/>
</clipPath>
</defs>
</svg>
