<svg width="160" height="160" viewBox="0 0 160 160" fill="none" xmlns="http://www.w3.org/2000/svg">
<g clip-path="url(#clip0_95_20)">
<path d="M33.3333 140C29.6667 140 26.5267 138.693 23.9133 136.08C21.3 133.467 19.9956 130.329 20 126.667V33.3333C20 29.6667 21.3067 26.5267 23.92 23.9133C26.5333 21.3 29.6711 19.9956 33.3333 20H126.667C130.333 20 133.473 21.3067 136.087 23.92C138.7 26.5333 140.004 29.6711 140 33.3333V126.667C140 130.333 138.693 133.473 136.08 136.087C133.467 138.7 130.329 140.004 126.667 140H33.3333ZM66.6667 126.667V86.6667H33.3333V126.667H66.6667ZM80 126.667H126.667V86.6667H80V126.667ZM33.3333 73.3333H126.667V33.3333H33.3333V73.3333Z" fill="black"/>
</g>
<defs>
<clipPath id="clip0_95_20">
<rect width="160" height="160" fill="white"/>
</clipPath>
</defs>
</svg>
