<svg width="160" height="160" viewBox="0 0 160 160" fill="none" xmlns="http://www.w3.org/2000/svg">
<g clip-path="url(#clip0_300_344)">
<path d="M96.6666 120.001C99.4444 120.001 101.807 119.027 103.753 117.081C105.7 115.134 106.671 112.774 106.667 110.001C106.667 107.223 105.693 104.861 103.747 102.914C101.8 100.967 99.44 99.9962 96.6666 100.001C93.8888 100.001 91.5266 100.974 89.58 102.921C87.6333 104.867 86.6622 107.227 86.6666 110.001C86.6666 112.778 87.64 115.141 89.5866 117.087C91.5333 119.034 93.8933 120.005 96.6666 120.001ZM58.3333 115.001C59.6666 116.334 61.2222 117.001 63 117.001C64.7777 117.001 66.3333 116.334 67.6666 115.001L101.667 81.0006C103 79.6673 103.667 78.1118 103.667 76.334C103.667 74.5562 103 73.0006 101.667 71.6673C100.333 70.334 98.7488 69.6673 96.9133 69.6673C95.0777 69.6673 93.4955 70.334 92.1666 71.6673L58.3333 105.501C57 106.834 56.3333 108.418 56.3333 110.254C56.3333 112.09 57 113.672 58.3333 115.001ZM63.3333 86.6673C66.1111 86.6673 68.4733 85.694 70.42 83.7473C72.3666 81.8007 73.3377 79.4406 73.3333 76.6673C73.3333 73.8895 72.36 71.5273 70.4133 69.5807C68.4666 67.634 66.1066 66.6629 63.3333 66.6673C60.5555 66.6673 58.1933 67.6406 56.2466 69.5873C54.3 71.534 53.3288 73.894 53.3333 76.6673C53.3333 79.4451 54.3066 81.8073 56.2533 83.754C58.2 85.7006 60.56 86.6718 63.3333 86.6673ZM80 146.667C65.8888 146.667 53.4711 141.752 42.7466 131.921C32.0222 122.09 26.6622 108.783 26.6666 92.0006C26.6666 81.4451 30.6666 70.0006 38.6666 57.6673C46.6666 45.334 58.7777 32.0007 75 17.6673C75.6666 17.1118 76.4444 16.6673 77.3333 16.334C78.2222 16.0007 79.1111 15.834 80 15.834C80.8888 15.834 81.7777 16.0007 82.6666 16.334C83.5555 16.6673 84.3333 17.1118 85 17.6673C101.222 32.0007 113.333 45.334 121.333 57.6673C129.333 70.0006 133.333 81.4451 133.333 92.0006C133.333 108.778 127.971 122.085 117.247 131.921C106.522 141.756 94.1066 146.672 80 146.667ZM80 133.334C91.2222 133.334 100.696 129.501 108.42 121.834C116.144 114.167 120.004 104.223 120 92.0006C120 84.1118 116.722 75.0829 110.167 64.914C103.611 54.7451 93.5555 43.4407 80 31.0007C66.4444 43.4451 56.3888 54.7518 49.8333 64.9207C43.2777 75.0895 40 84.1162 40 92.0006C40 104.223 43.8622 114.167 51.5866 121.834C59.3111 129.501 68.7822 133.334 80 133.334Z" fill="#131313"/>
</g>
<defs>
<clipPath id="clip0_300_344">
<rect width="160" height="160" fill="white"/>
</clipPath>
</defs>
</svg>
