<svg width="160" height="160" viewBox="0 0 160 160" fill="none" xmlns="http://www.w3.org/2000/svg">
<g clip-path="url(#clip0_416_1444)">
<path d="M79.9999 37.1609L76.3466 40.5743C76.8144 41.0749 77.38 41.474 78.0085 41.7469C78.6369 42.0198 79.3148 42.1606 79.9999 42.1606C80.6851 42.1606 81.3629 42.0198 81.9914 41.7469C82.6198 41.474 83.1855 41.0749 83.6533 40.5743L79.9999 37.1609ZM62.8933 125.308C53.2266 117.468 41.9466 107.181 33.1199 95.9209C24.1933 84.5409 18.3333 72.8543 18.3333 62.1209H8.33325C8.33325 76.2343 15.8666 90.1343 25.2466 102.094C34.7266 114.181 46.6466 125.001 56.5933 133.074L62.8933 125.308ZM18.3333 62.1209C18.3333 42.7543 26.7866 30.7876 37.2399 26.6876C47.6733 22.6009 62.2666 25.5209 76.3466 40.5743L83.6533 33.7476C67.7333 16.7209 48.9933 11.3476 33.5933 17.3743C18.2133 23.4009 8.33325 39.9476 8.33325 62.1209H18.3333ZM103.4 133.068C113.353 124.994 125.273 114.174 134.753 102.088C144.133 90.1276 151.667 76.2276 151.667 62.1076H141.667C141.667 72.8543 135.8 84.5343 126.88 95.9143C118.053 107.174 106.773 117.461 97.1066 125.301L103.4 133.068ZM151.667 62.1076C151.667 39.9409 141.787 23.3943 126.4 17.3743C111 11.3409 92.2666 16.7076 76.3466 33.7409L83.6533 40.5743C97.7333 25.5209 112.327 22.5943 122.76 26.6809C133.213 30.7743 141.667 42.7476 141.667 62.1076H151.667ZM56.5933 133.074C65.0599 139.954 70.9466 145.001 79.9999 145.001V135.001C75.1799 135.001 72.1799 132.841 62.8933 125.308L56.5933 133.074ZM97.1066 125.301C87.8199 132.834 84.8199 135.001 79.9999 135.001V145.001C89.0533 145.001 94.9399 139.954 103.407 133.074L97.1066 125.301Z" fill="#131313"/>
<path d="M123.333 60.0013H110M110 60.0013H96.6665M110 60.0013V46.668M110 60.0013V73.3346" stroke="#131313" stroke-width="4" stroke-linecap="round"/>
</g>
<defs>
<clipPath id="clip0_416_1444">
<rect width="160" height="160" fill="white"/>
</clipPath>
</defs>
</svg>
