<svg width="160" height="160" viewBox="0 0 160 160" fill="none" xmlns="http://www.w3.org/2000/svg">
<g clip-path="url(#clip0_95_14)">
<path d="M78.41 18.334H25C23.2319 18.334 21.5362 19.0364 20.2859 20.2866C19.0357 21.5368 18.3333 23.2325 18.3333 25.0007V135.001C18.3333 136.769 19.0357 138.464 20.2859 139.715C21.5362 140.965 23.2319 141.667 25 141.667H135C136.768 141.667 138.464 140.965 139.714 139.715C140.964 138.464 141.667 136.769 141.667 135.001V25.0007C141.667 23.2325 140.964 21.5368 139.714 20.2866C138.464 19.0364 136.768 18.334 135 18.334H118.507" stroke="#555555" stroke-width="4" stroke-linecap="round" stroke-linejoin="round"/>
<path d="M115.967 83.526L141.667 79.566M18.3333 98.5727L84.4 88.3893M59.6933 92.1993L47.2266 18.3327M98.46 11.2227C90.0137 11.2227 81.9134 14.5779 75.941 20.5503C69.9686 26.5227 66.6133 34.6231 66.6133 43.0693C66.6133 67.996 90.99 98.036 97.3033 105.403C97.4851 105.615 97.7109 105.785 97.9652 105.901C98.2194 106.018 98.496 106.077 98.7755 106.075C99.0551 106.074 99.3309 106.011 99.5838 105.892C99.8367 105.773 100.061 105.6 100.24 105.386C106.447 97.9993 130.307 67.9793 130.307 43.0727C130.307 38.8902 129.484 34.7486 127.883 30.8844C126.283 27.0202 123.937 23.5091 120.98 20.5515C118.023 17.5939 114.512 15.2478 110.648 13.6472C106.784 12.0465 102.642 11.2227 98.46 11.2227ZM98.46 54.9727C96.1064 54.9727 93.8056 54.2747 91.8487 52.9671C89.8918 51.6596 88.3665 49.801 87.4658 47.6266C86.5651 45.4521 86.3295 43.0595 86.7886 40.7511C87.2478 38.4427 88.3812 36.3223 90.0454 34.6581C91.7097 32.9938 93.83 31.8605 96.1384 31.4013C98.4468 30.9421 100.839 31.1778 103.014 32.0785C105.188 32.9792 107.047 34.5044 108.354 36.4614C109.662 38.4183 110.36 40.7191 110.36 43.0727C110.36 44.6354 110.052 46.1828 109.454 47.6266C108.856 49.0704 107.98 50.3822 106.875 51.4872C105.77 52.5922 104.458 53.4688 103.014 54.0668C101.57 54.6648 100.023 54.9727 98.46 54.9727Z" stroke="#555555" stroke-width="4" stroke-linecap="round" stroke-linejoin="round"/>
</g>
<defs>
<clipPath id="clip0_95_14">
<rect width="160" height="160" fill="white"/>
</clipPath>
</defs>
</svg>
