<svg width="160" height="160" viewBox="0 0 160 160" fill="none" xmlns="http://www.w3.org/2000/svg">
<g clip-path="url(#clip0_419_1515)">
<path d="M113.333 40.0007C120.697 40.0007 126.667 34.0311 126.667 26.6673C126.667 19.3035 120.697 13.334 113.333 13.334C105.97 13.334 100 19.3035 100 26.6673C100 34.0311 105.97 40.0007 113.333 40.0007Z" fill="#131313"/>
<path d="M105.18 73.1265C106.71 75.407 108.906 77.1613 111.467 78.1512C114.029 79.1411 116.834 79.3187 119.5 78.6598L141.607 73.1331L138.387 60.1998L116.28 65.7265L107.087 51.9465C105.122 49.0036 102.074 46.9569 98.6067 46.2531L72.9667 41.1198C70.0983 40.5441 67.1202 40.9288 64.4922 42.2145C61.8643 43.5002 59.7327 45.6152 58.4267 48.2331L47.3733 70.3398L59.3 76.3065L70.3533 54.1931L83.4667 56.8198L49.56 113.333H20V126.666H49.56C54.2133 126.666 58.5933 124.186 60.9933 120.193L73.78 98.8865L108.24 105.78L120.347 142.106L132.987 137.886L120.887 101.566C120.14 99.3366 118.819 97.3429 117.056 95.7863C115.293 94.2297 113.152 93.1651 110.847 92.6998L90.5867 88.6531L102.4 68.9598L105.18 73.1265Z" fill="#131313"/>
</g>
<defs>
<clipPath id="clip0_419_1515">
<rect width="160" height="160" fill="white"/>
</clipPath>
</defs>
</svg>
