<svg width="160" height="160" viewBox="0 0 160 160" fill="none" xmlns="http://www.w3.org/2000/svg">
<g clip-path="url(#clip0_300_327)">
<path d="M48.5715 131.428L54.2857 120M100 131.428L105.714 120M68.5715 154.285L74.2857 142.857M17.1429 154.285L22.8572 142.857M120 154.285L125.714 142.857M125.714 91.4283C129.775 91.4402 133.792 90.5864 137.496 88.9238C141.201 87.2611 144.509 84.8279 147.199 81.7863C149.89 78.7447 151.901 75.1645 153.098 71.2844C154.296 67.4044 154.653 63.3136 154.145 59.2847C153.638 55.2559 152.277 51.3815 150.154 47.92C148.031 44.4584 145.195 41.4891 141.834 39.21C138.473 36.9309 134.665 35.3944 130.664 34.7029C126.662 34.0114 122.559 34.1807 118.629 35.1997C116.344 26.7016 111.321 19.194 104.338 13.8399C97.354 8.4858 88.7998 5.58398 80 5.58398C71.2002 5.58398 62.646 8.4858 55.6625 13.8399C48.679 19.194 43.6559 26.7016 41.3715 35.1997C37.4407 34.1807 33.3378 34.0114 29.3364 34.7029C25.335 35.3944 21.527 36.9309 18.1661 39.21C14.8053 41.4891 11.9689 44.4584 9.84597 47.92C7.72305 51.3815 6.36239 55.2559 5.85469 59.2847C5.34699 63.3136 5.70391 67.4044 6.90167 71.2844C8.09943 75.1645 10.1105 78.7447 12.8008 81.7863C15.4912 84.8279 18.799 87.2611 22.5037 88.9238C26.2084 90.5864 30.225 91.4402 34.2857 91.4283H125.714Z" stroke="white" stroke-width="2" stroke-linecap="round" stroke-linejoin="round"/>
</g>
<defs>
<clipPath id="clip0_300_327">
<rect width="160" height="160" fill="white"/>
</clipPath>
</defs>
</svg>
