<svg width="160" height="160" viewBox="0 0 160 160" fill="none" xmlns="http://www.w3.org/2000/svg">
<g clip-path="url(#clip0_395_423)">
<path d="M125 10L117.93 17.07L130.86 30H105.41C94.5949 29.9913 83.8783 32.0552 73.84 36.08L52.445 44.635C43.5914 48.186 34.1392 50.0072 24.6 50H10V60H24.59C35.4051 60.0087 46.1217 57.9448 56.16 53.92L77.555 45.365C86.4086 41.814 95.8608 39.9928 105.4 40H130.85L117.92 52.93L125 60L150 35L125 10Z" fill="#131313"/>
<path d="M105 55L97.93 62.07L110.86 75H94.51C84.3152 74.9941 74.2031 76.8285 64.66 80.415L51.83 85.225C43.4105 88.3885 34.4892 90.0061 25.495 90H10V100H25.495C35.6881 100.005 45.7985 98.1709 55.34 94.585L68.17 89.775C76.5895 86.6115 85.5108 84.9939 94.505 85H110.855L97.93 97.93L105 105L130 80L105 55Z" fill="#131313"/>
<path d="M85 100L77.93 107.07L90.86 120H82.985C73.8472 119.998 64.7688 121.47 56.1 124.36L50.735 126.15C43.087 128.701 35.0773 130.001 27.015 130H10V140H27.015C36.1528 140.002 45.2312 138.53 53.9 135.64L59.265 133.85C66.913 131.299 74.9227 129.999 82.985 130H90.86L77.93 142.93L85 150L110 125L85 100Z" fill="#131313"/>
</g>
<defs>
<clipPath id="clip0_395_423">
<rect width="160" height="160" fill="white"/>
</clipPath>
</defs>
</svg>
