<svg width="160" height="160" viewBox="0 0 160 160" fill="none" xmlns="http://www.w3.org/2000/svg">
<g clip-path="url(#clip0_94_70)">
<path d="M103.333 93.3332H98.0667L96.2 91.5332C100.366 86.6929 103.411 80.9917 105.117 74.8373C106.823 68.6829 107.147 62.2275 106.067 55.9332C102.933 37.3998 87.4667 22.5998 68.8 20.3332C62.2374 19.5029 55.5719 20.185 49.3135 22.3271C43.0551 24.4692 37.3696 28.0146 32.6922 32.692C28.0148 37.3695 24.4694 43.0549 22.3273 49.3133C20.1851 55.5718 19.5031 62.2373 20.3333 68.7998C22.6 87.4665 37.4 102.933 55.9333 106.066C62.2277 107.147 68.683 106.823 74.8374 105.117C80.9918 103.411 86.6931 100.366 91.5333 96.1998L93.3333 98.0665V103.333L121.667 131.666C124.4 134.4 128.867 134.4 131.6 131.666C134.333 128.933 134.333 124.466 131.6 121.733L103.333 93.3332ZM63.3333 93.3332C46.7333 93.3332 33.3333 79.9332 33.3333 63.3332C33.3333 46.7332 46.7333 33.3332 63.3333 33.3332C79.9333 33.3332 93.3333 46.7332 93.3333 63.3332C93.3333 79.9332 79.9333 93.3332 63.3333 93.3332Z" fill="#555555"/>
</g>
<defs>
<clipPath id="clip0_94_70">
<rect width="160" height="160" fill="white"/>
</clipPath>
</defs>
</svg>
