<svg width="160" height="160" viewBox="0 0 160 160" fill="none" xmlns="http://www.w3.org/2000/svg">
<g clip-path="url(#clip0_419_1746)">
<path d="M96.7162 87.9157V37.1497C96.6801 32.5896 94.8728 28.222 91.6762 24.9697C89.9291 23.2383 87.8301 21.9029 85.5215 21.054C83.2129 20.2051 80.7488 19.8626 78.2962 20.0497C73.8563 20.4844 69.7446 22.5808 66.785 25.9187C63.8253 29.2567 62.2363 33.5897 62.3362 38.0497L62.3962 87.7297C58.0031 91.0293 54.6562 95.5271 52.7576 100.683C50.859 105.839 50.4895 111.433 51.6934 116.794C52.8973 122.154 55.6235 127.053 59.5444 130.902C63.4653 134.751 68.4141 137.386 73.7962 138.49C75.6751 138.848 77.5835 139.029 79.4962 139.03C87.0609 139.031 94.3171 136.031 99.6717 130.688C105.026 125.344 108.042 118.094 108.056 110.53C108.065 106.136 107.044 101.802 105.075 97.8746C103.105 93.9473 100.242 90.5364 96.7162 87.9157ZM93.8362 127.876C91.2303 130.009 88.1825 131.536 84.9135 132.345C81.6445 133.155 78.2364 133.227 74.9362 132.556C70.5563 131.683 66.5413 129.51 63.4157 126.321C60.2901 123.131 58.1992 119.072 57.4162 114.676C56.6362 110.552 57.0265 106.293 58.5429 102.38C60.0593 98.4669 62.6412 95.0567 65.9962 92.5357C66.7191 92.0011 67.3071 91.305 67.7134 90.5029C68.1197 89.7008 68.3329 88.8148 68.3362 87.9157V38.0497C68.2671 35.1176 69.2916 32.2647 71.2104 30.0465C73.1291 27.8283 75.8047 26.4036 78.7162 26.0497C78.9932 25.9999 79.2748 25.9798 79.5562 25.9897C82.5073 26.0179 85.3295 27.2027 87.4164 29.2895C89.5032 31.3764 90.688 34.1986 90.7162 37.1497V87.9157C90.7194 88.8148 90.9327 89.7008 91.3389 90.5029C91.7452 91.305 92.3332 92.0011 93.0562 92.5357C95.7829 94.5764 98.0097 97.2107 99.5679 100.239C101.126 103.268 101.975 106.611 102.05 110.016C102.125 113.421 101.425 116.798 100.002 119.893C98.5786 122.987 96.4702 125.717 93.8362 127.876Z" fill="#555555"/>
<path d="M90.8962 110.53C90.8962 113.537 89.7014 116.422 87.5748 118.548C85.4481 120.675 82.5637 121.87 79.5562 121.87C76.5486 121.87 73.6642 120.675 71.5376 118.548C69.4109 116.422 68.2162 113.537 68.2162 110.53C68.2003 108.05 69.0118 105.635 70.5223 103.668C72.0328 101.701 74.1561 100.294 76.5562 99.6697V39.9157C76.5562 39.1201 76.8722 38.357 77.4349 37.7944C77.9975 37.2318 78.7605 36.9157 79.5562 36.9157C80.3518 36.9157 81.1149 37.2318 81.6775 37.7944C82.2401 38.357 82.5562 39.1201 82.5562 39.9157V99.6757C84.9496 100.31 87.0657 101.719 88.5743 103.683C90.083 105.646 90.8994 108.054 90.8962 110.53Z" fill="#555555"/>
</g>
<defs>
<clipPath id="clip0_419_1746">
<rect width="160" height="160" fill="white"/>
</clipPath>
</defs>
</svg>
