<svg width="160" height="160" viewBox="0 0 160 160" fill="none" xmlns="http://www.w3.org/2000/svg">
<g clip-path="url(#clip0_419_1499)">
<g clip-path="url(#clip1_419_1499)">
<path fill-rule="evenodd" clip-rule="evenodd" d="M86.6666 20.0007C86.6666 18.2325 85.9642 16.5368 84.714 15.2866C83.4638 14.0364 81.7681 13.334 80 13.334C78.2318 13.334 76.5362 14.0364 75.2859 15.2866C74.0357 16.5368 73.3333 18.2325 73.3333 20.0007V20.374C58.9865 21.9774 45.6988 28.6996 35.9075 39.3076C26.1162 49.9157 20.4779 63.6983 20.0266 78.1273C19.9936 79.2381 20.1841 80.3442 20.5869 81.38C20.9897 82.4157 21.5965 83.3599 22.3714 84.1565C23.1462 84.9531 24.0732 85.5859 25.0974 86.0172C26.1216 86.4485 27.222 86.6696 28.3333 86.6673H73.3333V126.667C73.3333 129.294 73.8506 131.894 74.8557 134.321C75.8608 136.748 77.334 138.952 79.1912 140.809C81.0483 142.667 83.2531 144.14 85.6796 145.145C88.1061 146.15 90.7069 146.667 93.3333 146.667C95.9597 146.667 98.5604 146.15 100.987 145.145C103.413 144.14 105.618 142.667 107.475 140.809C109.333 138.952 110.806 136.748 111.811 134.321C112.816 131.894 113.333 129.294 113.333 126.667V120.001C113.333 118.233 112.631 116.537 111.381 115.287C110.13 114.036 108.435 113.334 106.667 113.334C104.899 113.334 103.203 114.036 101.953 115.287C100.702 116.537 100 118.233 100 120.001V126.667C100 128.435 99.2976 130.131 98.0473 131.381C96.7971 132.632 95.1014 133.334 93.3333 133.334C91.5652 133.334 89.8695 132.632 88.6192 131.381C87.369 130.131 86.6666 128.435 86.6666 126.667V86.6673H131.667C136.213 86.6673 140.12 82.9407 139.967 78.1273C139.516 63.6993 133.878 49.9175 124.088 39.3096C114.298 28.7017 101.012 21.9789 86.6666 20.374V20.0007ZM126.187 73.334H33.8133C35.4184 62.2293 40.9707 52.0747 49.453 44.7302C57.9354 37.3858 68.7799 33.3434 80 33.3434C91.2201 33.3434 102.065 37.3858 110.547 44.7302C119.029 52.0747 124.582 62.2293 126.187 73.334Z" fill="#555555"/>
</g>
</g>
<defs>
<clipPath id="clip0_419_1499">
<rect width="160" height="160" fill="white"/>
</clipPath>
<clipPath id="clip1_419_1499">
<rect width="160" height="160" fill="white"/>
</clipPath>
</defs>
</svg>
