<svg width="160" height="160" viewBox="0 0 160 160" fill="none" xmlns="http://www.w3.org/2000/svg">
<g clip-path="url(#clip0_353_161)">
<path d="M75.9322 20.339V4.0678C75.9322 2.98895 76.3608 1.95429 77.1236 1.19143C77.8865 0.42857 78.9212 0 80 0C81.0788 0 82.1135 0.42857 82.8764 1.19143C83.6392 1.95429 84.0678 2.98895 84.0678 4.0678V20.339C84.0678 21.4178 83.6392 22.4525 82.8764 23.2154C82.1135 23.9782 81.0788 24.4068 80 24.4068C78.9212 24.4068 77.8865 23.9782 77.1236 23.2154C76.3608 22.4525 75.9322 21.4178 75.9322 20.339ZM122.034 80C122.034 88.3135 119.569 96.4403 114.95 103.353C110.331 110.265 103.766 115.653 96.0857 118.834C88.405 122.016 79.9534 122.848 71.7996 121.226C63.6458 119.604 56.1561 115.601 50.2775 109.722C44.399 103.844 40.3957 96.3542 38.7738 88.2004C37.1519 80.0466 37.9843 71.595 41.1657 63.9143C44.3472 56.2336 49.7348 49.6688 56.6472 45.0501C63.5597 40.4313 71.6865 37.9661 80 37.9661C91.1442 37.9787 101.828 42.4113 109.709 50.2914C117.589 58.1716 122.021 68.8558 122.034 80ZM113.898 80C113.898 73.2955 111.91 66.7417 108.185 61.1671C104.461 55.5926 99.1664 51.2477 92.9723 48.682C86.7782 46.1164 79.9624 45.4451 73.3868 46.753C66.8111 48.061 60.771 51.2895 56.0303 56.0303C51.2895 60.771 48.061 66.8111 46.753 73.3868C45.4451 79.9624 46.1164 86.7782 48.682 92.9723C51.2477 99.1664 55.5926 104.461 61.1671 108.185C66.7417 111.91 73.2955 113.898 80 113.898C88.9871 113.888 97.603 110.313 103.958 103.958C110.313 97.603 113.888 88.9871 113.898 80ZM33.7356 39.4847C34.108 39.8844 34.5571 40.205 35.0561 40.4273C35.555 40.6496 36.0937 40.7692 36.6399 40.7788C37.1861 40.7884 37.7286 40.688 38.2351 40.4834C38.7416 40.2788 39.2017 39.9743 39.588 39.588C39.9743 39.2017 40.2788 38.7416 40.4834 38.2351C40.688 37.7286 40.7884 37.1861 40.7788 36.6399C40.7692 36.0937 40.6496 35.555 40.4273 35.0561C40.205 34.5571 39.8844 34.108 39.4847 33.7356L28.6373 22.8881C27.8662 22.1696 26.8463 21.7784 25.7924 21.797C24.7386 21.8156 23.7331 22.2425 22.9878 22.9878C22.2425 23.7331 21.8156 24.7386 21.797 25.7924C21.7784 26.8463 22.1696 27.8662 22.8881 28.6373L33.7356 39.4847ZM33.7356 120.515L22.8881 131.363C22.4885 131.735 22.1679 132.184 21.9456 132.683C21.7233 133.182 21.6037 133.721 21.5941 134.267C21.5844 134.813 21.6849 135.356 21.8895 135.862C22.0941 136.369 22.3986 136.829 22.7849 137.215C23.1711 137.601 23.6313 137.906 24.1378 138.111C24.6443 138.315 25.1868 138.416 25.733 138.406C26.2792 138.396 26.8178 138.277 27.3168 138.054C27.8158 137.832 28.2649 137.512 28.6373 137.112L39.4847 126.264C39.8844 125.892 40.205 125.443 40.4273 124.944C40.6496 124.445 40.7692 123.906 40.7788 123.36C40.7884 122.814 40.688 122.271 40.4834 121.765C40.2788 121.258 39.9743 120.798 39.588 120.412C39.2017 120.026 38.7416 119.721 38.2351 119.517C37.7286 119.312 37.1861 119.212 36.6399 119.221C36.0937 119.231 35.555 119.35 35.0561 119.573C34.5571 119.795 34.108 120.116 33.7356 120.515ZM123.39 40.678C124.468 40.677 125.502 40.2478 126.264 39.4847L137.112 28.6373C137.83 27.8662 138.222 26.8463 138.203 25.7924C138.184 24.7386 137.757 23.7331 137.012 22.9878C136.267 22.2425 135.261 21.8156 134.208 21.797C133.154 21.7784 132.134 22.1696 131.363 22.8881L120.515 33.7356C119.947 34.3045 119.56 35.029 119.404 35.8176C119.247 36.6062 119.327 37.4235 119.635 38.1664C119.943 38.9092 120.463 39.5443 121.132 39.9913C121.8 40.4383 122.586 40.6773 123.39 40.678ZM126.264 120.515C125.493 119.797 124.473 119.406 123.42 119.424C122.366 119.443 121.36 119.87 120.615 120.615C119.87 121.36 119.443 122.366 119.424 123.42C119.406 124.473 119.797 125.493 120.515 126.264L131.363 137.112C132.134 137.83 133.154 138.222 134.208 138.203C135.261 138.184 136.267 137.757 137.012 137.012C137.757 136.267 138.184 135.261 138.203 134.208C138.222 133.154 137.83 132.134 137.112 131.363L126.264 120.515ZM24.4068 80C24.4068 78.9212 23.9782 77.8865 23.2154 77.1236C22.4525 76.3608 21.4178 75.9322 20.339 75.9322H4.0678C2.98895 75.9322 1.95429 76.3608 1.19143 77.1236C0.42857 77.8865 0 78.9212 0 80C0 81.0788 0.42857 82.1135 1.19143 82.8764C1.95429 83.6392 2.98895 84.0678 4.0678 84.0678H20.339C21.4178 84.0678 22.4525 83.6392 23.2154 82.8764C23.9782 82.1135 24.4068 81.0788 24.4068 80ZM80 135.593C78.9212 135.593 77.8865 136.022 77.1236 136.785C76.3608 137.548 75.9322 138.582 75.9322 139.661V155.932C75.9322 157.011 76.3608 158.046 77.1236 158.809C77.8865 159.571 78.9212 160 80 160C81.0788 160 82.1135 159.571 82.8764 158.809C83.6392 158.046 84.0678 157.011 84.0678 155.932V139.661C84.0678 138.582 83.6392 137.548 82.8764 136.785C82.1135 136.022 81.0788 135.593 80 135.593ZM155.932 75.9322H139.661C138.582 75.9322 137.548 76.3608 136.785 77.1236C136.022 77.8865 135.593 78.9212 135.593 80C135.593 81.0788 136.022 82.1135 136.785 82.8764C137.548 83.6392 138.582 84.0678 139.661 84.0678H155.932C157.011 84.0678 158.046 83.6392 158.809 82.8764C159.571 82.1135 160 81.0788 160 80C160 78.9212 159.571 77.8865 158.809 77.1236C158.046 76.3608 157.011 75.9322 155.932 75.9322Z" fill="#555555"/>
</g>
<defs>
<clipPath id="clip0_353_161">
<rect width="160" height="160" fill="white"/>
</clipPath>
</defs>
</svg>
