<svg width="160" height="160" viewBox="0 0 160 160" fill="none" xmlns="http://www.w3.org/2000/svg">
<g clip-path="url(#clip0_395_406)">
<path d="M80 106.666C88.3333 106.666 95.4177 103.748 101.253 97.9127C107.089 92.0771 110.004 84.9949 110 76.666C110 68.3327 107.082 61.2482 101.247 55.4127C95.4111 49.5771 88.3288 46.6616 80 46.666C71.6666 46.666 64.5822 49.5838 58.7466 55.4194C52.9111 61.2549 49.9955 68.3371 50 76.666C50 84.9994 52.9177 92.0838 58.7533 97.9194C64.5888 103.755 71.6711 106.67 80 106.666ZM80 94.666C75 94.666 70.7488 92.9149 67.2466 89.4127C63.7444 85.9105 61.9955 81.6616 62 76.666C62 71.666 63.7511 67.4149 67.2533 63.9127C70.7555 60.4105 75.0044 58.6616 80 58.666C85 58.666 89.2511 60.4171 92.7533 63.9194C96.2555 67.4216 98.0044 71.6705 98 76.666C98 81.666 96.2511 85.9171 92.7533 89.4194C89.2555 92.9216 85.0044 94.6705 80 94.666ZM80 126.666C63.7777 126.666 49 122.137 35.6666 113.079C22.3333 104.022 12.6666 91.8838 6.66663 76.666C12.6666 61.4438 22.3333 49.3038 35.6666 40.246C49 31.1882 63.7777 26.6616 80 26.666C96.2222 26.666 111 31.1949 124.333 40.2527C137.667 49.3105 147.333 61.4482 153.333 76.666C147.333 91.8882 137.667 104.028 124.333 113.086C111 122.144 96.2222 126.67 80 126.666ZM80 113.333C92.5555 113.333 104.084 110.026 114.587 103.413C125.089 96.7994 133.116 87.8838 138.667 76.666C133.111 65.4438 125.082 56.526 114.58 49.9127C104.078 43.2994 92.5511 39.9949 80 39.9994C67.4444 39.9994 55.9155 43.306 45.4133 49.9194C34.9111 56.5327 26.8844 65.4482 21.3333 76.666C26.8888 87.8882 34.9177 96.806 45.42 103.419C55.9222 110.033 67.4489 113.337 80 113.333Z" fill="#131313"/>
</g>
<defs>
<clipPath id="clip0_395_406">
<rect width="160" height="160" fill="white"/>
</clipPath>
</defs>
</svg>
