<svg width="160" height="160" viewBox="0 0 160 160" fill="none" xmlns="http://www.w3.org/2000/svg">
<g clip-path="url(#clip0_353_193)">
<path d="M20 53.3333H63.3333C66.6297 53.3333 69.852 52.3559 72.5928 50.5245C75.3337 48.6931 77.4699 46.0902 78.7313 43.0447C79.9928 39.9993 80.3228 36.6482 79.6798 33.4152C79.0367 30.1822 77.4493 27.2124 75.1184 24.8816C72.7876 22.5507 69.8179 20.9633 66.5848 20.3203C63.3518 19.6772 60.0007 20.0072 56.9553 21.2687C53.9098 22.5301 51.3069 24.6664 49.4755 27.4072C47.6442 30.148 46.6667 33.3703 46.6667 36.6667V39.0467M26.6667 93.3333H123.333C127.948 93.3333 132.459 94.7018 136.297 97.2657C140.134 99.8296 143.124 103.474 144.891 107.737C146.657 112.001 147.119 116.693 146.218 121.219C145.318 125.745 143.096 129.903 139.832 133.166C136.569 136.429 132.412 138.651 127.885 139.552C123.359 140.452 118.668 139.99 114.404 138.224C110.14 136.458 106.496 133.467 103.932 129.63C101.368 125.793 100 121.282 100 116.667V113.333" stroke="#131313" stroke-width="4" stroke-linecap="round"/>
<path d="M13.3334 73.3327H123.333C127.948 73.3327 132.46 71.9642 136.297 69.4003C140.134 66.8364 143.125 63.1922 144.891 58.9286C146.657 54.665 147.119 49.9735 146.218 45.4473C145.318 40.921 143.096 36.7634 139.833 33.5002C136.569 30.237 132.412 28.0147 127.885 27.1144C123.359 26.214 118.668 26.6761 114.404 28.4422C110.14 30.2082 106.496 33.1989 103.932 37.0361C101.369 40.8732 100 45.3845 100 49.9994V53.3327" stroke="#131313" stroke-width="4" stroke-linecap="round"/>
</g>
<defs>
<clipPath id="clip0_353_193">
<rect width="160" height="160" fill="white"/>
</clipPath>
</defs>
</svg>
