<svg width="42" height="42" viewBox="0 0 42 42" fill="none" xmlns="http://www.w3.org/2000/svg">
<g filter="url(#filter0_d_124_71)">
<rect x="5" y="3" width="32" height="32" rx="4" fill="white"/>
<path d="M26.4167 16.0833V24.4167M26.4167 24.4167V27.3333H15.5833V24.4167M26.4167 24.4167H29.3333V16.0833C29.3333 14.8333 28.5 13.375 27.25 12.3333C26 11.2917 24.3333 10.6667 24.3333 10.6667H17.6667C17.6667 10.6667 16 11.2917 14.75 12.3333C13.5 13.375 12.6667 14.8333 12.6667 16.0833V24.4167H15.5833M15.5833 24.4167V16.0833" stroke="black" stroke-linecap="round" stroke-linejoin="round"/>
<path d="M21 16.0833V27.3333" stroke="black" stroke-linecap="round" stroke-linejoin="round"/>
<path d="M21 16.0833L17.6667 10.6667" stroke="black" stroke-linecap="round" stroke-linejoin="round"/>
<path d="M24.3333 10.6667L21 16.0833" stroke="black" stroke-linecap="round" stroke-linejoin="round"/>
</g>
<defs>
<filter id="filter0_d_124_71" x="0" y="0" width="42" height="42" filterUnits="userSpaceOnUse" color-interpolation-filters="sRGB">
<feFlood flood-opacity="0" result="BackgroundImageFix"/>
<feColorMatrix in="SourceAlpha" type="matrix" values="0 0 0 0 0 0 0 0 0 0 0 0 0 0 0 0 0 0 127 0" result="hardAlpha"/>
<feMorphology radius="1" operator="dilate" in="SourceAlpha" result="effect1_dropShadow_124_71"/>
<feOffset dy="2"/>
<feGaussianBlur stdDeviation="2"/>
<feComposite in2="hardAlpha" operator="out"/>
<feColorMatrix type="matrix" values="0 0 0 0 0 0 0 0 0 0 0 0 0 0 0 0 0 0 0.25 0"/>
<feBlend mode="normal" in2="BackgroundImageFix" result="effect1_dropShadow_124_71"/>
<feBlend mode="normal" in="SourceGraphic" in2="effect1_dropShadow_124_71" result="shape"/>
</filter>
</defs>
</svg>
