<svg xmlns="http://www.w3.org/2000/svg" viewBox="0 0 64 64"><g id="_17.sun" data-name="17.sun"><path d="M21.3,32.78c-.13.86-.32,2.28.91,2.31s1-1.23,1.07-2A1,1,0,0,0,21.3,32.78Z"/><path d="M24.34,30.22a7.21,7.21,0,0,1,7-3.25,1,1,0,0,0,1.12-.86c.13-1.19-1.24-1.22-2.09-1.21a9.14,9.14,0,0,0-7.74,4.24A1,1,0,0,0,24.34,30.22Z"/><path d="M31.5,19.12a1,1,0,0,0,1-1v-5a1,1,0,1,0-2,0v5A1,1,0,0,0,31.5,19.12Z"/><path d="M43.38,24a1,1,0,0,0,.71-.29l3.57-3.57c.93-.9-.51-2.34-1.42-1.41l-3.56,3.56A1,1,0,0,0,43.38,24Z"/><path d="M47.31,34.92a1,1,0,0,0,1,1h5a1,1,0,1,0,0-2h-5A1,1,0,0,0,47.31,34.92Z"/><path d="M10.65,35.92h5a1,1,0,0,0,0-2h-5A1,1,0,0,0,10.65,35.92Z"/><path d="M18.91,23.75c.9.93,2.34-.51,1.41-1.42l-3.56-3.56c-.9-.93-2.35.51-1.42,1.41Z"/><path d="M60.5,41.92H3.5a1,1,0,0,0,0,2h57A1,1,0,0,0,60.5,41.92Z"/><path d="M51.5,45.92h-39a1,1,0,0,0,0,2h39A1,1,0,0,0,51.5,45.92Z"/><path d="M44.5,49.92h-25a1,1,0,0,0,0,2h25A1,1,0,0,0,44.5,49.92Z"/><path d="M19.08,39.38a1,1,0,0,0,1.84-.76,12,12,0,1,1,22.16,0,1,1,0,0,0,.54,1.3c2.05.66,2.31-4.58,2.38-5.92A14,14,0,0,0,32,20C22.22,19.81,15.15,30.44,19.08,39.38Z"/></g></svg>