<svg width="727" height="266" viewBox="0 0 727 266" fill="none" xmlns="http://www.w3.org/2000/svg">
<path d="M96.8269 75.131C46.1875 75.131 1 97.0561 1 97.0561V228H724V47.2483C724 47.2483 700.503 31.8371 663.345 26.8464C596.371 17.851 587.023 83.5218 528.188 83.5219C484.972 83.5219 481.986 42.4879 424.364 38.7475C366.742 35.0072 340.749 129.238 247.858 128.176C178.272 127.38 135.96 75.131 96.8269 75.131Z" fill="url(#paint0_linear_263_80)"/>
<path d="M3 96.7648C3 96.7648 46.9341 75.0421 97.5176 75.0421C139.617 75.0421 178.873 127.197 248.382 127.991C341.171 129.051 367.135 34.9909 424.694 38.7245C482.253 42.458 485.235 83.4178 528.403 83.4178C587.174 83.4178 596.511 17.8657 663.412 26.8449C700.528 31.8265 724 47.2099 724 47.2099" stroke="#CCD5AE" stroke-width="5" stroke-linecap="round"/>
<path opacity="0.3" d="M3 80C3 63.9837 15.9837 51 32 51C48.0163 51 61 63.9837 61 80V228H3V80Z" fill="url(#paint1_linear_263_80)"/>
<path opacity="0.5" d="M26.3914 252.6V261H24.7954L20.6074 255.9V261H18.6874V252.6H20.2954L24.4714 257.7V252.6H26.3914ZM31.3188 261.096C30.6388 261.096 30.0268 260.956 29.4828 260.676C28.9468 260.388 28.5268 259.992 28.2228 259.488C27.9188 258.984 27.7668 258.412 27.7668 257.772C27.7668 257.132 27.9188 256.56 28.2228 256.056C28.5268 255.552 28.9468 255.16 29.4828 254.88C30.0268 254.592 30.6388 254.448 31.3188 254.448C31.9988 254.448 32.6068 254.592 33.1428 254.88C33.6788 255.16 34.0988 255.552 34.4028 256.056C34.7068 256.56 34.8588 257.132 34.8588 257.772C34.8588 258.412 34.7068 258.984 34.4028 259.488C34.0988 259.992 33.6788 260.388 33.1428 260.676C32.6068 260.956 31.9988 261.096 31.3188 261.096ZM31.3188 259.56C31.7988 259.56 32.1908 259.4 32.4948 259.08C32.8068 258.752 32.9628 258.316 32.9628 257.772C32.9628 257.228 32.8068 256.796 32.4948 256.476C32.1908 256.148 31.7988 255.984 31.3188 255.984C30.8388 255.984 30.4428 256.148 30.1308 256.476C29.8188 256.796 29.6628 257.228 29.6628 257.772C29.6628 258.316 29.8188 258.752 30.1308 259.08C30.4428 259.4 30.8388 259.56 31.3188 259.56ZM46.3023 254.544L43.9623 261H42.1623L40.7103 256.992L39.2103 261H37.4103L35.0823 254.544H36.8463L38.3703 258.912L39.9543 254.544H41.5383L43.0743 258.912L44.6463 254.544H46.3023Z" fill="#2E2E2E"/>
<path opacity="0.5" d="M92.0886 259.68V261H85.8966V259.956L89.2326 256.788C89.6086 256.428 89.8606 256.116 89.9886 255.852C90.1246 255.58 90.1926 255.312 90.1926 255.048C90.1926 254.656 90.0606 254.356 89.7966 254.148C89.5326 253.94 89.1446 253.836 88.6326 253.836C87.7766 253.836 87.1206 254.128 86.6646 254.712L85.5726 253.872C85.9006 253.432 86.3406 253.092 86.8926 252.852C87.4526 252.604 88.0766 252.48 88.7646 252.48C89.6766 252.48 90.4046 252.696 90.9486 253.128C91.4926 253.56 91.7646 254.148 91.7646 254.892C91.7646 255.348 91.6686 255.776 91.4766 256.176C91.2846 256.576 90.9166 257.032 90.3726 257.544L88.1286 259.68H92.0886ZM96.5649 256.068C97.3409 256.164 97.9329 256.428 98.3409 256.86C98.7489 257.292 98.9529 257.832 98.9529 258.48C98.9529 258.968 98.8289 259.412 98.5809 259.812C98.3329 260.212 97.9569 260.532 97.4529 260.772C96.9569 261.004 96.3489 261.12 95.6289 261.12C95.0289 261.12 94.4489 261.036 93.8889 260.868C93.3369 260.692 92.8649 260.452 92.4729 260.148L93.1449 258.936C93.4489 259.192 93.8169 259.396 94.2489 259.548C94.6889 259.692 95.1409 259.764 95.6049 259.764C96.1569 259.764 96.5889 259.652 96.9009 259.428C97.2209 259.196 97.3809 258.884 97.3809 258.492C97.3809 258.1 97.2289 257.796 96.9249 257.58C96.6289 257.356 96.1729 257.244 95.5569 257.244H94.7889V256.176L96.6969 253.908H92.8809V252.6H98.6049V253.644L96.5649 256.068ZM100.909 256.512C100.637 256.512 100.405 256.42 100.213 256.236C100.021 256.044 99.9253 255.804 99.9253 255.516C99.9253 255.22 100.017 254.98 100.201 254.796C100.393 254.612 100.629 254.52 100.909 254.52C101.189 254.52 101.421 254.612 101.605 254.796C101.797 254.98 101.893 255.22 101.893 255.516C101.893 255.804 101.797 256.044 101.605 256.236C101.413 256.42 101.181 256.512 100.909 256.512ZM100.909 261.084C100.637 261.084 100.405 260.992 100.213 260.808C100.021 260.616 99.9253 260.376 99.9253 260.088C99.9253 259.792 100.017 259.552 100.201 259.368C100.393 259.184 100.629 259.092 100.909 259.092C101.189 259.092 101.421 259.184 101.605 259.368C101.797 259.552 101.893 259.792 101.893 260.088C101.893 260.376 101.797 260.616 101.605 260.808C101.413 260.992 101.181 261.084 100.909 261.084ZM106.407 261.12C105.735 261.12 105.135 260.952 104.607 260.616C104.079 260.272 103.663 259.776 103.359 259.128C103.055 258.472 102.903 257.696 102.903 256.8C102.903 255.904 103.055 255.132 103.359 254.484C103.663 253.828 104.079 253.332 104.607 252.996C105.135 252.652 105.735 252.48 106.407 252.48C107.079 252.48 107.679 252.652 108.207 252.996C108.743 253.332 109.163 253.828 109.467 254.484C109.771 255.132 109.923 255.904 109.923 256.8C109.923 257.696 109.771 258.472 109.467 259.128C109.163 259.776 108.743 260.272 108.207 260.616C107.679 260.952 107.079 261.12 106.407 261.12ZM106.407 259.764C107.007 259.764 107.479 259.516 107.823 259.02C108.175 258.524 108.351 257.784 108.351 256.8C108.351 255.816 108.175 255.076 107.823 254.58C107.479 254.084 107.007 253.836 106.407 253.836C105.815 253.836 105.343 254.084 104.991 254.58C104.647 255.076 104.475 255.816 104.475 256.8C104.475 257.784 104.647 258.524 104.991 259.02C105.343 259.516 105.815 259.764 106.407 259.764ZM114.481 261.12C113.809 261.12 113.209 260.952 112.681 260.616C112.153 260.272 111.737 259.776 111.433 259.128C111.129 258.472 110.977 257.696 110.977 256.8C110.977 255.904 111.129 255.132 111.433 254.484C111.737 253.828 112.153 253.332 112.681 252.996C113.209 252.652 113.809 252.48 114.481 252.48C115.153 252.48 115.753 252.652 116.281 252.996C116.817 253.332 117.237 253.828 117.541 254.484C117.845 255.132 117.997 255.904 117.997 256.8C117.997 257.696 117.845 258.472 117.541 259.128C117.237 259.776 116.817 260.272 116.281 260.616C115.753 260.952 115.153 261.12 114.481 261.12ZM114.481 259.764C115.081 259.764 115.553 259.516 115.897 259.02C116.249 258.524 116.425 257.784 116.425 256.8C116.425 255.816 116.249 255.076 115.897 254.58C115.553 254.084 115.081 253.836 114.481 253.836C113.889 253.836 113.417 254.084 113.065 254.58C112.721 255.076 112.549 255.816 112.549 256.8C112.549 257.784 112.721 258.524 113.065 259.02C113.417 259.516 113.889 259.764 114.481 259.764Z" fill="#2E2E2E"/>
<path opacity="0.5" d="M148.2 261.12C147.528 261.12 146.928 260.952 146.4 260.616C145.872 260.272 145.456 259.776 145.152 259.128C144.848 258.472 144.696 257.696 144.696 256.8C144.696 255.904 144.848 255.132 145.152 254.484C145.456 253.828 145.872 253.332 146.4 252.996C146.928 252.652 147.528 252.48 148.2 252.48C148.872 252.48 149.472 252.652 150 252.996C150.536 253.332 150.956 253.828 151.26 254.484C151.564 255.132 151.716 255.904 151.716 256.8C151.716 257.696 151.564 258.472 151.26 259.128C150.956 259.776 150.536 260.272 150 260.616C149.472 260.952 148.872 261.12 148.2 261.12ZM148.2 259.764C148.8 259.764 149.272 259.516 149.616 259.02C149.968 258.524 150.144 257.784 150.144 256.8C150.144 255.816 149.968 255.076 149.616 254.58C149.272 254.084 148.8 253.836 148.2 253.836C147.608 253.836 147.136 254.084 146.784 254.58C146.44 255.076 146.268 255.816 146.268 256.8C146.268 257.784 146.44 258.524 146.784 259.02C147.136 259.516 147.608 259.764 148.2 259.764ZM155.616 252.6V261H154.056V253.908H152.28V252.6H155.616ZM158.218 256.512C157.946 256.512 157.714 256.42 157.522 256.236C157.33 256.044 157.234 255.804 157.234 255.516C157.234 255.22 157.326 254.98 157.51 254.796C157.702 254.612 157.938 254.52 158.218 254.52C158.498 254.52 158.73 254.612 158.914 254.796C159.106 254.98 159.202 255.22 159.202 255.516C159.202 255.804 159.106 256.044 158.914 256.236C158.722 256.42 158.49 256.512 158.218 256.512ZM158.218 261.084C157.946 261.084 157.714 260.992 157.522 260.808C157.33 260.616 157.234 260.376 157.234 260.088C157.234 259.792 157.326 259.552 157.51 259.368C157.702 259.184 157.938 259.092 158.218 259.092C158.498 259.092 158.73 259.184 158.914 259.368C159.106 259.552 159.202 259.792 159.202 260.088C159.202 260.376 159.106 260.616 158.914 260.808C158.722 260.992 158.49 261.084 158.218 261.084ZM163.716 261.12C163.044 261.12 162.444 260.952 161.916 260.616C161.388 260.272 160.972 259.776 160.668 259.128C160.364 258.472 160.212 257.696 160.212 256.8C160.212 255.904 160.364 255.132 160.668 254.484C160.972 253.828 161.388 253.332 161.916 252.996C162.444 252.652 163.044 252.48 163.716 252.48C164.388 252.48 164.988 252.652 165.516 252.996C166.052 253.332 166.472 253.828 166.776 254.484C167.08 255.132 167.232 255.904 167.232 256.8C167.232 257.696 167.08 258.472 166.776 259.128C166.472 259.776 166.052 260.272 165.516 260.616C164.988 260.952 164.388 261.12 163.716 261.12ZM163.716 259.764C164.316 259.764 164.788 259.516 165.132 259.02C165.484 258.524 165.66 257.784 165.66 256.8C165.66 255.816 165.484 255.076 165.132 254.58C164.788 254.084 164.316 253.836 163.716 253.836C163.124 253.836 162.652 254.084 162.3 254.58C161.956 255.076 161.784 255.816 161.784 256.8C161.784 257.784 161.956 258.524 162.3 259.02C162.652 259.516 163.124 259.764 163.716 259.764ZM171.79 261.12C171.118 261.12 170.518 260.952 169.99 260.616C169.462 260.272 169.046 259.776 168.742 259.128C168.438 258.472 168.286 257.696 168.286 256.8C168.286 255.904 168.438 255.132 168.742 254.484C169.046 253.828 169.462 253.332 169.99 252.996C170.518 252.652 171.118 252.48 171.79 252.48C172.462 252.48 173.062 252.652 173.59 252.996C174.126 253.332 174.546 253.828 174.85 254.484C175.154 255.132 175.306 255.904 175.306 256.8C175.306 257.696 175.154 258.472 174.85 259.128C174.546 259.776 174.126 260.272 173.59 260.616C173.062 260.952 172.462 261.12 171.79 261.12ZM171.79 259.764C172.39 259.764 172.862 259.516 173.206 259.02C173.558 258.524 173.734 257.784 173.734 256.8C173.734 255.816 173.558 255.076 173.206 254.58C172.862 254.084 172.39 253.836 171.79 253.836C171.198 253.836 170.726 254.084 170.374 254.58C170.03 255.076 169.858 255.816 169.858 256.8C169.858 257.784 170.03 258.524 170.374 259.02C170.726 259.516 171.198 259.764 171.79 259.764Z" fill="#2E2E2E"/>
<path opacity="0.5" d="M205.022 261.12C204.35 261.12 203.75 260.952 203.222 260.616C202.694 260.272 202.278 259.776 201.974 259.128C201.67 258.472 201.518 257.696 201.518 256.8C201.518 255.904 201.67 255.132 201.974 254.484C202.278 253.828 202.694 253.332 203.222 252.996C203.75 252.652 204.35 252.48 205.022 252.48C205.694 252.48 206.294 252.652 206.822 252.996C207.358 253.332 207.778 253.828 208.082 254.484C208.386 255.132 208.538 255.904 208.538 256.8C208.538 257.696 208.386 258.472 208.082 259.128C207.778 259.776 207.358 260.272 206.822 260.616C206.294 260.952 205.694 261.12 205.022 261.12ZM205.022 259.764C205.622 259.764 206.094 259.516 206.438 259.02C206.79 258.524 206.966 257.784 206.966 256.8C206.966 255.816 206.79 255.076 206.438 254.58C206.094 254.084 205.622 253.836 205.022 253.836C204.43 253.836 203.958 254.084 203.606 254.58C203.262 255.076 203.09 255.816 203.09 256.8C203.09 257.784 203.262 258.524 203.606 259.02C203.958 259.516 204.43 259.764 205.022 259.764ZM213.051 256.068C213.827 256.164 214.419 256.428 214.827 256.86C215.235 257.292 215.439 257.832 215.439 258.48C215.439 258.968 215.315 259.412 215.067 259.812C214.819 260.212 214.443 260.532 213.939 260.772C213.443 261.004 212.835 261.12 212.115 261.12C211.515 261.12 210.935 261.036 210.375 260.868C209.823 260.692 209.351 260.452 208.959 260.148L209.631 258.936C209.935 259.192 210.303 259.396 210.735 259.548C211.175 259.692 211.627 259.764 212.091 259.764C212.643 259.764 213.075 259.652 213.387 259.428C213.707 259.196 213.867 258.884 213.867 258.492C213.867 258.1 213.715 257.796 213.411 257.58C213.115 257.356 212.659 257.244 212.043 257.244H211.275V256.176L213.183 253.908H209.367V252.6H215.091V253.644L213.051 256.068ZM217.396 256.512C217.124 256.512 216.892 256.42 216.7 256.236C216.508 256.044 216.412 255.804 216.412 255.516C216.412 255.22 216.504 254.98 216.688 254.796C216.88 254.612 217.116 254.52 217.396 254.52C217.676 254.52 217.908 254.612 218.092 254.796C218.284 254.98 218.38 255.22 218.38 255.516C218.38 255.804 218.284 256.044 218.092 256.236C217.9 256.42 217.668 256.512 217.396 256.512ZM217.396 261.084C217.124 261.084 216.892 260.992 216.7 260.808C216.508 260.616 216.412 260.376 216.412 260.088C216.412 259.792 216.504 259.552 216.688 259.368C216.88 259.184 217.116 259.092 217.396 259.092C217.676 259.092 217.908 259.184 218.092 259.368C218.284 259.552 218.38 259.792 218.38 260.088C218.38 260.376 218.284 260.616 218.092 260.808C217.9 260.992 217.668 261.084 217.396 261.084ZM222.893 261.12C222.221 261.12 221.621 260.952 221.093 260.616C220.565 260.272 220.149 259.776 219.845 259.128C219.541 258.472 219.389 257.696 219.389 256.8C219.389 255.904 219.541 255.132 219.845 254.484C220.149 253.828 220.565 253.332 221.093 252.996C221.621 252.652 222.221 252.48 222.893 252.48C223.565 252.48 224.165 252.652 224.693 252.996C225.229 253.332 225.649 253.828 225.953 254.484C226.257 255.132 226.409 255.904 226.409 256.8C226.409 257.696 226.257 258.472 225.953 259.128C225.649 259.776 225.229 260.272 224.693 260.616C224.165 260.952 223.565 261.12 222.893 261.12ZM222.893 259.764C223.493 259.764 223.965 259.516 224.309 259.02C224.661 258.524 224.837 257.784 224.837 256.8C224.837 255.816 224.661 255.076 224.309 254.58C223.965 254.084 223.493 253.836 222.893 253.836C222.301 253.836 221.829 254.084 221.477 254.58C221.133 255.076 220.961 255.816 220.961 256.8C220.961 257.784 221.133 258.524 221.477 259.02C221.829 259.516 222.301 259.764 222.893 259.764ZM230.968 261.12C230.296 261.12 229.696 260.952 229.168 260.616C228.64 260.272 228.224 259.776 227.92 259.128C227.616 258.472 227.464 257.696 227.464 256.8C227.464 255.904 227.616 255.132 227.92 254.484C228.224 253.828 228.64 253.332 229.168 252.996C229.696 252.652 230.296 252.48 230.968 252.48C231.64 252.48 232.24 252.652 232.768 252.996C233.304 253.332 233.724 253.828 234.028 254.484C234.332 255.132 234.484 255.904 234.484 256.8C234.484 257.696 234.332 258.472 234.028 259.128C233.724 259.776 233.304 260.272 232.768 260.616C232.24 260.952 231.64 261.12 230.968 261.12ZM230.968 259.764C231.568 259.764 232.04 259.516 232.384 259.02C232.736 258.524 232.912 257.784 232.912 256.8C232.912 255.816 232.736 255.076 232.384 254.58C232.04 254.084 231.568 253.836 230.968 253.836C230.376 253.836 229.904 254.084 229.552 254.58C229.208 255.076 229.036 255.816 229.036 256.8C229.036 257.784 229.208 258.524 229.552 259.02C229.904 259.516 230.376 259.764 230.968 259.764Z" fill="#2E2E2E"/>
<path opacity="0.5" d="M262.952 261.12C262.28 261.12 261.68 260.952 261.152 260.616C260.624 260.272 260.208 259.776 259.904 259.128C259.6 258.472 259.448 257.696 259.448 256.8C259.448 255.904 259.6 255.132 259.904 254.484C260.208 253.828 260.624 253.332 261.152 252.996C261.68 252.652 262.28 252.48 262.952 252.48C263.624 252.48 264.224 252.652 264.752 252.996C265.288 253.332 265.708 253.828 266.012 254.484C266.316 255.132 266.468 255.904 266.468 256.8C266.468 257.696 266.316 258.472 266.012 259.128C265.708 259.776 265.288 260.272 264.752 260.616C264.224 260.952 263.624 261.12 262.952 261.12ZM262.952 259.764C263.552 259.764 264.024 259.516 264.368 259.02C264.72 258.524 264.896 257.784 264.896 256.8C264.896 255.816 264.72 255.076 264.368 254.58C264.024 254.084 263.552 253.836 262.952 253.836C262.36 253.836 261.888 254.084 261.536 254.58C261.192 255.076 261.02 255.816 261.02 256.8C261.02 257.784 261.192 258.524 261.536 259.02C261.888 259.516 262.36 259.764 262.952 259.764ZM270.15 255.852C271.334 255.852 272.21 256.084 272.778 256.548C273.346 257.004 273.63 257.628 273.63 258.42C273.63 258.924 273.506 259.38 273.258 259.788C273.01 260.196 272.638 260.52 272.142 260.76C271.646 261 271.034 261.12 270.306 261.12C269.706 261.12 269.126 261.036 268.566 260.868C268.006 260.692 267.534 260.452 267.15 260.148L267.81 258.936C268.122 259.192 268.494 259.396 268.926 259.548C269.366 259.692 269.818 259.764 270.282 259.764C270.834 259.764 271.266 259.652 271.578 259.428C271.898 259.196 272.058 258.88 272.058 258.48C272.058 258.048 271.886 257.724 271.542 257.508C271.206 257.284 270.626 257.172 269.802 257.172H267.774L268.206 252.6H273.138V253.908H269.526L269.346 255.852H270.15ZM275.466 256.512C275.194 256.512 274.962 256.42 274.77 256.236C274.578 256.044 274.482 255.804 274.482 255.516C274.482 255.22 274.574 254.98 274.758 254.796C274.95 254.612 275.186 254.52 275.466 254.52C275.746 254.52 275.978 254.612 276.162 254.796C276.354 254.98 276.45 255.22 276.45 255.516C276.45 255.804 276.354 256.044 276.162 256.236C275.97 256.42 275.738 256.512 275.466 256.512ZM275.466 261.084C275.194 261.084 274.962 260.992 274.77 260.808C274.578 260.616 274.482 260.376 274.482 260.088C274.482 259.792 274.574 259.552 274.758 259.368C274.95 259.184 275.186 259.092 275.466 259.092C275.746 259.092 275.978 259.184 276.162 259.368C276.354 259.552 276.45 259.792 276.45 260.088C276.45 260.376 276.354 260.616 276.162 260.808C275.97 260.992 275.738 261.084 275.466 261.084ZM280.964 261.12C280.292 261.12 279.692 260.952 279.164 260.616C278.636 260.272 278.22 259.776 277.916 259.128C277.612 258.472 277.46 257.696 277.46 256.8C277.46 255.904 277.612 255.132 277.916 254.484C278.22 253.828 278.636 253.332 279.164 252.996C279.692 252.652 280.292 252.48 280.964 252.48C281.636 252.48 282.236 252.652 282.764 252.996C283.3 253.332 283.72 253.828 284.024 254.484C284.328 255.132 284.48 255.904 284.48 256.8C284.48 257.696 284.328 258.472 284.024 259.128C283.72 259.776 283.3 260.272 282.764 260.616C282.236 260.952 281.636 261.12 280.964 261.12ZM280.964 259.764C281.564 259.764 282.036 259.516 282.38 259.02C282.732 258.524 282.908 257.784 282.908 256.8C282.908 255.816 282.732 255.076 282.38 254.58C282.036 254.084 281.564 253.836 280.964 253.836C280.372 253.836 279.9 254.084 279.548 254.58C279.204 255.076 279.032 255.816 279.032 256.8C279.032 257.784 279.204 258.524 279.548 259.02C279.9 259.516 280.372 259.764 280.964 259.764ZM289.038 261.12C288.366 261.12 287.766 260.952 287.238 260.616C286.71 260.272 286.294 259.776 285.99 259.128C285.686 258.472 285.534 257.696 285.534 256.8C285.534 255.904 285.686 255.132 285.99 254.484C286.294 253.828 286.71 253.332 287.238 252.996C287.766 252.652 288.366 252.48 289.038 252.48C289.71 252.48 290.31 252.652 290.838 252.996C291.374 253.332 291.794 253.828 292.098 254.484C292.402 255.132 292.554 255.904 292.554 256.8C292.554 257.696 292.402 258.472 292.098 259.128C291.794 259.776 291.374 260.272 290.838 260.616C290.31 260.952 289.71 261.12 289.038 261.12ZM289.038 259.764C289.638 259.764 290.11 259.516 290.454 259.02C290.806 258.524 290.982 257.784 290.982 256.8C290.982 255.816 290.806 255.076 290.454 254.58C290.11 254.084 289.638 253.836 289.038 253.836C288.446 253.836 287.974 254.084 287.622 254.58C287.278 255.076 287.106 255.816 287.106 256.8C287.106 257.784 287.278 258.524 287.622 259.02C287.974 259.516 288.446 259.764 289.038 259.764Z" fill="#2E2E2E"/>
<path opacity="0.5" d="M320.952 261.12C320.28 261.12 319.68 260.952 319.152 260.616C318.624 260.272 318.208 259.776 317.904 259.128C317.6 258.472 317.448 257.696 317.448 256.8C317.448 255.904 317.6 255.132 317.904 254.484C318.208 253.828 318.624 253.332 319.152 252.996C319.68 252.652 320.28 252.48 320.952 252.48C321.624 252.48 322.224 252.652 322.752 252.996C323.288 253.332 323.708 253.828 324.012 254.484C324.316 255.132 324.468 255.904 324.468 256.8C324.468 257.696 324.316 258.472 324.012 259.128C323.708 259.776 323.288 260.272 322.752 260.616C322.224 260.952 321.624 261.12 320.952 261.12ZM320.952 259.764C321.552 259.764 322.024 259.516 322.368 259.02C322.72 258.524 322.896 257.784 322.896 256.8C322.896 255.816 322.72 255.076 322.368 254.58C322.024 254.084 321.552 253.836 320.952 253.836C320.36 253.836 319.888 254.084 319.536 254.58C319.192 255.076 319.02 255.816 319.02 256.8C319.02 257.784 319.192 258.524 319.536 259.02C319.888 259.516 320.36 259.764 320.952 259.764ZM331.8 252.6V253.644L328.536 261H326.868L330.024 253.92H326.724V255.348H325.272V252.6H331.8ZM333.466 256.512C333.194 256.512 332.962 256.42 332.77 256.236C332.578 256.044 332.482 255.804 332.482 255.516C332.482 255.22 332.574 254.98 332.758 254.796C332.95 254.612 333.186 254.52 333.466 254.52C333.746 254.52 333.978 254.612 334.162 254.796C334.354 254.98 334.45 255.22 334.45 255.516C334.45 255.804 334.354 256.044 334.162 256.236C333.97 256.42 333.738 256.512 333.466 256.512ZM333.466 261.084C333.194 261.084 332.962 260.992 332.77 260.808C332.578 260.616 332.482 260.376 332.482 260.088C332.482 259.792 332.574 259.552 332.758 259.368C332.95 259.184 333.186 259.092 333.466 259.092C333.746 259.092 333.978 259.184 334.162 259.368C334.354 259.552 334.45 259.792 334.45 260.088C334.45 260.376 334.354 260.616 334.162 260.808C333.97 260.992 333.738 261.084 333.466 261.084ZM338.964 261.12C338.292 261.12 337.692 260.952 337.164 260.616C336.636 260.272 336.22 259.776 335.916 259.128C335.612 258.472 335.46 257.696 335.46 256.8C335.46 255.904 335.612 255.132 335.916 254.484C336.22 253.828 336.636 253.332 337.164 252.996C337.692 252.652 338.292 252.48 338.964 252.48C339.636 252.48 340.236 252.652 340.764 252.996C341.3 253.332 341.72 253.828 342.024 254.484C342.328 255.132 342.48 255.904 342.48 256.8C342.48 257.696 342.328 258.472 342.024 259.128C341.72 259.776 341.3 260.272 340.764 260.616C340.236 260.952 339.636 261.12 338.964 261.12ZM338.964 259.764C339.564 259.764 340.036 259.516 340.38 259.02C340.732 258.524 340.908 257.784 340.908 256.8C340.908 255.816 340.732 255.076 340.38 254.58C340.036 254.084 339.564 253.836 338.964 253.836C338.372 253.836 337.9 254.084 337.548 254.58C337.204 255.076 337.032 255.816 337.032 256.8C337.032 257.784 337.204 258.524 337.548 259.02C337.9 259.516 338.372 259.764 338.964 259.764ZM347.038 261.12C346.366 261.12 345.766 260.952 345.238 260.616C344.71 260.272 344.294 259.776 343.99 259.128C343.686 258.472 343.534 257.696 343.534 256.8C343.534 255.904 343.686 255.132 343.99 254.484C344.294 253.828 344.71 253.332 345.238 252.996C345.766 252.652 346.366 252.48 347.038 252.48C347.71 252.48 348.31 252.652 348.838 252.996C349.374 253.332 349.794 253.828 350.098 254.484C350.402 255.132 350.554 255.904 350.554 256.8C350.554 257.696 350.402 258.472 350.098 259.128C349.794 259.776 349.374 260.272 348.838 260.616C348.31 260.952 347.71 261.12 347.038 261.12ZM347.038 259.764C347.638 259.764 348.11 259.516 348.454 259.02C348.806 258.524 348.982 257.784 348.982 256.8C348.982 255.816 348.806 255.076 348.454 254.58C348.11 254.084 347.638 253.836 347.038 253.836C346.446 253.836 345.974 254.084 345.622 254.58C345.278 255.076 345.106 255.816 345.106 256.8C345.106 257.784 345.278 258.524 345.622 259.02C345.974 259.516 346.446 259.764 347.038 259.764Z" fill="#2E2E2E"/>
<path opacity="0.5" d="M378.694 261.12C378.022 261.12 377.422 260.952 376.894 260.616C376.366 260.272 375.95 259.776 375.646 259.128C375.342 258.472 375.19 257.696 375.19 256.8C375.19 255.904 375.342 255.132 375.646 254.484C375.95 253.828 376.366 253.332 376.894 252.996C377.422 252.652 378.022 252.48 378.694 252.48C379.366 252.48 379.966 252.652 380.494 252.996C381.03 253.332 381.45 253.828 381.754 254.484C382.058 255.132 382.21 255.904 382.21 256.8C382.21 257.696 382.058 258.472 381.754 259.128C381.45 259.776 381.03 260.272 380.494 260.616C379.966 260.952 379.366 261.12 378.694 261.12ZM378.694 259.764C379.294 259.764 379.766 259.516 380.11 259.02C380.462 258.524 380.638 257.784 380.638 256.8C380.638 255.816 380.462 255.076 380.11 254.58C379.766 254.084 379.294 253.836 378.694 253.836C378.102 253.836 377.63 254.084 377.278 254.58C376.934 255.076 376.762 255.816 376.762 256.8C376.762 257.784 376.934 258.524 377.278 259.02C377.63 259.516 378.102 259.764 378.694 259.764ZM386.096 252.48C387.248 252.48 388.14 252.84 388.772 253.56C389.412 254.28 389.732 255.312 389.732 256.656C389.732 257.6 389.56 258.408 389.216 259.08C388.872 259.744 388.388 260.252 387.764 260.604C387.148 260.948 386.432 261.12 385.616 261.12C385.184 261.12 384.776 261.076 384.392 260.988C384.016 260.892 383.688 260.756 383.408 260.58L383.984 259.404C384.4 259.676 384.932 259.812 385.58 259.812C386.388 259.812 387.02 259.564 387.476 259.068C387.932 258.572 388.16 257.856 388.16 256.92V256.908C387.912 257.196 387.596 257.416 387.212 257.568C386.828 257.712 386.396 257.784 385.916 257.784C385.364 257.784 384.868 257.68 384.428 257.472C383.988 257.256 383.644 256.952 383.396 256.56C383.148 256.168 383.024 255.716 383.024 255.204C383.024 254.66 383.16 254.184 383.432 253.776C383.704 253.36 384.072 253.04 384.536 252.816C385 252.592 385.52 252.48 386.096 252.48ZM386.216 256.56C386.72 256.56 387.128 256.424 387.44 256.152C387.76 255.88 387.92 255.536 387.92 255.12C387.92 254.712 387.764 254.376 387.452 254.112C387.148 253.84 386.724 253.704 386.18 253.704C385.692 253.704 385.296 253.836 384.992 254.1C384.688 254.356 384.536 254.7 384.536 255.132C384.536 255.572 384.688 255.92 384.992 256.176C385.296 256.432 385.704 256.56 386.216 256.56ZM391.724 256.512C391.452 256.512 391.22 256.42 391.028 256.236C390.836 256.044 390.74 255.804 390.74 255.516C390.74 255.22 390.832 254.98 391.016 254.796C391.208 254.612 391.444 254.52 391.724 254.52C392.004 254.52 392.236 254.612 392.42 254.796C392.612 254.98 392.708 255.22 392.708 255.516C392.708 255.804 392.612 256.044 392.42 256.236C392.228 256.42 391.996 256.512 391.724 256.512ZM391.724 261.084C391.452 261.084 391.22 260.992 391.028 260.808C390.836 260.616 390.74 260.376 390.74 260.088C390.74 259.792 390.832 259.552 391.016 259.368C391.208 259.184 391.444 259.092 391.724 259.092C392.004 259.092 392.236 259.184 392.42 259.368C392.612 259.552 392.708 259.792 392.708 260.088C392.708 260.376 392.612 260.616 392.42 260.808C392.228 260.992 391.996 261.084 391.724 261.084ZM397.221 261.12C396.549 261.12 395.949 260.952 395.421 260.616C394.893 260.272 394.477 259.776 394.173 259.128C393.869 258.472 393.717 257.696 393.717 256.8C393.717 255.904 393.869 255.132 394.173 254.484C394.477 253.828 394.893 253.332 395.421 252.996C395.949 252.652 396.549 252.48 397.221 252.48C397.893 252.48 398.493 252.652 399.021 252.996C399.557 253.332 399.977 253.828 400.281 254.484C400.585 255.132 400.737 255.904 400.737 256.8C400.737 257.696 400.585 258.472 400.281 259.128C399.977 259.776 399.557 260.272 399.021 260.616C398.493 260.952 397.893 261.12 397.221 261.12ZM397.221 259.764C397.821 259.764 398.293 259.516 398.637 259.02C398.989 258.524 399.165 257.784 399.165 256.8C399.165 255.816 398.989 255.076 398.637 254.58C398.293 254.084 397.821 253.836 397.221 253.836C396.629 253.836 396.157 254.084 395.805 254.58C395.461 255.076 395.289 255.816 395.289 256.8C395.289 257.784 395.461 258.524 395.805 259.02C396.157 259.516 396.629 259.764 397.221 259.764ZM405.296 261.12C404.624 261.12 404.024 260.952 403.496 260.616C402.968 260.272 402.552 259.776 402.248 259.128C401.944 258.472 401.792 257.696 401.792 256.8C401.792 255.904 401.944 255.132 402.248 254.484C402.552 253.828 402.968 253.332 403.496 252.996C404.024 252.652 404.624 252.48 405.296 252.48C405.968 252.48 406.568 252.652 407.096 252.996C407.632 253.332 408.052 253.828 408.356 254.484C408.66 255.132 408.812 255.904 408.812 256.8C408.812 257.696 408.66 258.472 408.356 259.128C408.052 259.776 407.632 260.272 407.096 260.616C406.568 260.952 405.968 261.12 405.296 261.12ZM405.296 259.764C405.896 259.764 406.368 259.516 406.712 259.02C407.064 258.524 407.24 257.784 407.24 256.8C407.24 255.816 407.064 255.076 406.712 254.58C406.368 254.084 405.896 253.836 405.296 253.836C404.704 253.836 404.232 254.084 403.88 254.58C403.536 255.076 403.364 255.816 403.364 256.8C403.364 257.784 403.536 258.524 403.88 259.02C404.232 259.516 404.704 259.764 405.296 259.764Z" fill="#2E2E2E"/>
<path opacity="0.5" d="M439.323 252.6V261H437.763V253.908H435.987V252.6H439.323ZM443.893 252.6V261H442.333V253.908H440.557V252.6H443.893ZM446.495 256.512C446.223 256.512 445.991 256.42 445.799 256.236C445.607 256.044 445.511 255.804 445.511 255.516C445.511 255.22 445.603 254.98 445.787 254.796C445.979 254.612 446.215 254.52 446.495 254.52C446.775 254.52 447.007 254.612 447.191 254.796C447.383 254.98 447.479 255.22 447.479 255.516C447.479 255.804 447.383 256.044 447.191 256.236C446.999 256.42 446.767 256.512 446.495 256.512ZM446.495 261.084C446.223 261.084 445.991 260.992 445.799 260.808C445.607 260.616 445.511 260.376 445.511 260.088C445.511 259.792 445.603 259.552 445.787 259.368C445.979 259.184 446.215 259.092 446.495 259.092C446.775 259.092 447.007 259.184 447.191 259.368C447.383 259.552 447.479 259.792 447.479 260.088C447.479 260.376 447.383 260.616 447.191 260.808C446.999 260.992 446.767 261.084 446.495 261.084ZM451.993 261.12C451.321 261.12 450.721 260.952 450.193 260.616C449.665 260.272 449.249 259.776 448.945 259.128C448.641 258.472 448.489 257.696 448.489 256.8C448.489 255.904 448.641 255.132 448.945 254.484C449.249 253.828 449.665 253.332 450.193 252.996C450.721 252.652 451.321 252.48 451.993 252.48C452.665 252.48 453.265 252.652 453.793 252.996C454.329 253.332 454.749 253.828 455.053 254.484C455.357 255.132 455.509 255.904 455.509 256.8C455.509 257.696 455.357 258.472 455.053 259.128C454.749 259.776 454.329 260.272 453.793 260.616C453.265 260.952 452.665 261.12 451.993 261.12ZM451.993 259.764C452.593 259.764 453.065 259.516 453.409 259.02C453.761 258.524 453.937 257.784 453.937 256.8C453.937 255.816 453.761 255.076 453.409 254.58C453.065 254.084 452.593 253.836 451.993 253.836C451.401 253.836 450.929 254.084 450.577 254.58C450.233 255.076 450.061 255.816 450.061 256.8C450.061 257.784 450.233 258.524 450.577 259.02C450.929 259.516 451.401 259.764 451.993 259.764ZM460.067 261.12C459.395 261.12 458.795 260.952 458.267 260.616C457.739 260.272 457.323 259.776 457.019 259.128C456.715 258.472 456.563 257.696 456.563 256.8C456.563 255.904 456.715 255.132 457.019 254.484C457.323 253.828 457.739 253.332 458.267 252.996C458.795 252.652 459.395 252.48 460.067 252.48C460.739 252.48 461.339 252.652 461.867 252.996C462.403 253.332 462.823 253.828 463.127 254.484C463.431 255.132 463.583 255.904 463.583 256.8C463.583 257.696 463.431 258.472 463.127 259.128C462.823 259.776 462.403 260.272 461.867 260.616C461.339 260.952 460.739 261.12 460.067 261.12ZM460.067 259.764C460.667 259.764 461.139 259.516 461.483 259.02C461.835 258.524 462.011 257.784 462.011 256.8C462.011 255.816 461.835 255.076 461.483 254.58C461.139 254.084 460.667 253.836 460.067 253.836C459.475 253.836 459.003 254.084 458.651 254.58C458.307 255.076 458.135 255.816 458.135 256.8C458.135 257.784 458.307 258.524 458.651 259.02C459.003 259.516 459.475 259.764 460.067 259.764Z" fill="#2E2E2E"/>
<path opacity="0.5" d="M496.116 252.6V261H494.556V253.908H492.78V252.6H496.116ZM501.358 256.068C502.134 256.164 502.726 256.428 503.134 256.86C503.542 257.292 503.746 257.832 503.746 258.48C503.746 258.968 503.622 259.412 503.374 259.812C503.126 260.212 502.75 260.532 502.246 260.772C501.75 261.004 501.142 261.12 500.422 261.12C499.822 261.12 499.242 261.036 498.682 260.868C498.13 260.692 497.658 260.452 497.266 260.148L497.938 258.936C498.242 259.192 498.61 259.396 499.042 259.548C499.482 259.692 499.934 259.764 500.398 259.764C500.95 259.764 501.382 259.652 501.694 259.428C502.014 259.196 502.174 258.884 502.174 258.492C502.174 258.1 502.022 257.796 501.718 257.58C501.422 257.356 500.966 257.244 500.35 257.244H499.582V256.176L501.49 253.908H497.674V252.6H503.398V253.644L501.358 256.068ZM505.702 256.512C505.43 256.512 505.198 256.42 505.006 256.236C504.814 256.044 504.718 255.804 504.718 255.516C504.718 255.22 504.81 254.98 504.994 254.796C505.186 254.612 505.422 254.52 505.702 254.52C505.982 254.52 506.214 254.612 506.398 254.796C506.59 254.98 506.686 255.22 506.686 255.516C506.686 255.804 506.59 256.044 506.398 256.236C506.206 256.42 505.974 256.512 505.702 256.512ZM505.702 261.084C505.43 261.084 505.198 260.992 505.006 260.808C504.814 260.616 504.718 260.376 504.718 260.088C504.718 259.792 504.81 259.552 504.994 259.368C505.186 259.184 505.422 259.092 505.702 259.092C505.982 259.092 506.214 259.184 506.398 259.368C506.59 259.552 506.686 259.792 506.686 260.088C506.686 260.376 506.59 260.616 506.398 260.808C506.206 260.992 505.974 261.084 505.702 261.084ZM511.2 261.12C510.528 261.12 509.928 260.952 509.4 260.616C508.872 260.272 508.456 259.776 508.152 259.128C507.848 258.472 507.696 257.696 507.696 256.8C507.696 255.904 507.848 255.132 508.152 254.484C508.456 253.828 508.872 253.332 509.4 252.996C509.928 252.652 510.528 252.48 511.2 252.48C511.872 252.48 512.472 252.652 513 252.996C513.536 253.332 513.956 253.828 514.26 254.484C514.564 255.132 514.716 255.904 514.716 256.8C514.716 257.696 514.564 258.472 514.26 259.128C513.956 259.776 513.536 260.272 513 260.616C512.472 260.952 511.872 261.12 511.2 261.12ZM511.2 259.764C511.8 259.764 512.272 259.516 512.616 259.02C512.968 258.524 513.144 257.784 513.144 256.8C513.144 255.816 512.968 255.076 512.616 254.58C512.272 254.084 511.8 253.836 511.2 253.836C510.608 253.836 510.136 254.084 509.784 254.58C509.44 255.076 509.268 255.816 509.268 256.8C509.268 257.784 509.44 258.524 509.784 259.02C510.136 259.516 510.608 259.764 511.2 259.764ZM519.274 261.12C518.602 261.12 518.002 260.952 517.474 260.616C516.946 260.272 516.53 259.776 516.226 259.128C515.922 258.472 515.77 257.696 515.77 256.8C515.77 255.904 515.922 255.132 516.226 254.484C516.53 253.828 516.946 253.332 517.474 252.996C518.002 252.652 518.602 252.48 519.274 252.48C519.946 252.48 520.546 252.652 521.074 252.996C521.61 253.332 522.03 253.828 522.334 254.484C522.638 255.132 522.79 255.904 522.79 256.8C522.79 257.696 522.638 258.472 522.334 259.128C522.03 259.776 521.61 260.272 521.074 260.616C520.546 260.952 519.946 261.12 519.274 261.12ZM519.274 259.764C519.874 259.764 520.346 259.516 520.69 259.02C521.042 258.524 521.218 257.784 521.218 256.8C521.218 255.816 521.042 255.076 520.69 254.58C520.346 254.084 519.874 253.836 519.274 253.836C518.682 253.836 518.21 254.084 517.858 254.58C517.514 255.076 517.342 255.816 517.342 256.8C517.342 257.784 517.514 258.524 517.858 259.02C518.21 259.516 518.682 259.764 519.274 259.764Z" fill="#2E2E2E"/>
<path opacity="0.5" d="M554.104 252.6V261H552.544V253.908H550.768V252.6H554.104ZM558.398 255.852C559.582 255.852 560.458 256.084 561.026 256.548C561.594 257.004 561.878 257.628 561.878 258.42C561.878 258.924 561.754 259.38 561.506 259.788C561.258 260.196 560.886 260.52 560.39 260.76C559.894 261 559.282 261.12 558.554 261.12C557.954 261.12 557.374 261.036 556.814 260.868C556.254 260.692 555.782 260.452 555.398 260.148L556.058 258.936C556.37 259.192 556.742 259.396 557.174 259.548C557.614 259.692 558.066 259.764 558.53 259.764C559.082 259.764 559.514 259.652 559.826 259.428C560.146 259.196 560.306 258.88 560.306 258.48C560.306 258.048 560.134 257.724 559.79 257.508C559.454 257.284 558.874 257.172 558.05 257.172H556.022L556.454 252.6H561.386V253.908H557.774L557.594 255.852H558.398ZM563.714 256.512C563.442 256.512 563.21 256.42 563.018 256.236C562.826 256.044 562.73 255.804 562.73 255.516C562.73 255.22 562.822 254.98 563.006 254.796C563.198 254.612 563.434 254.52 563.714 254.52C563.994 254.52 564.226 254.612 564.41 254.796C564.602 254.98 564.698 255.22 564.698 255.516C564.698 255.804 564.602 256.044 564.41 256.236C564.218 256.42 563.986 256.512 563.714 256.512ZM563.714 261.084C563.442 261.084 563.21 260.992 563.018 260.808C562.826 260.616 562.73 260.376 562.73 260.088C562.73 259.792 562.822 259.552 563.006 259.368C563.198 259.184 563.434 259.092 563.714 259.092C563.994 259.092 564.226 259.184 564.41 259.368C564.602 259.552 564.698 259.792 564.698 260.088C564.698 260.376 564.602 260.616 564.41 260.808C564.218 260.992 563.986 261.084 563.714 261.084ZM569.212 261.12C568.54 261.12 567.94 260.952 567.412 260.616C566.884 260.272 566.468 259.776 566.164 259.128C565.86 258.472 565.708 257.696 565.708 256.8C565.708 255.904 565.86 255.132 566.164 254.484C566.468 253.828 566.884 253.332 567.412 252.996C567.94 252.652 568.54 252.48 569.212 252.48C569.884 252.48 570.484 252.652 571.012 252.996C571.548 253.332 571.968 253.828 572.272 254.484C572.576 255.132 572.728 255.904 572.728 256.8C572.728 257.696 572.576 258.472 572.272 259.128C571.968 259.776 571.548 260.272 571.012 260.616C570.484 260.952 569.884 261.12 569.212 261.12ZM569.212 259.764C569.812 259.764 570.284 259.516 570.628 259.02C570.98 258.524 571.156 257.784 571.156 256.8C571.156 255.816 570.98 255.076 570.628 254.58C570.284 254.084 569.812 253.836 569.212 253.836C568.62 253.836 568.148 254.084 567.796 254.58C567.452 255.076 567.28 255.816 567.28 256.8C567.28 257.784 567.452 258.524 567.796 259.02C568.148 259.516 568.62 259.764 569.212 259.764ZM577.286 261.12C576.614 261.12 576.014 260.952 575.486 260.616C574.958 260.272 574.542 259.776 574.238 259.128C573.934 258.472 573.782 257.696 573.782 256.8C573.782 255.904 573.934 255.132 574.238 254.484C574.542 253.828 574.958 253.332 575.486 252.996C576.014 252.652 576.614 252.48 577.286 252.48C577.958 252.48 578.558 252.652 579.086 252.996C579.622 253.332 580.042 253.828 580.346 254.484C580.65 255.132 580.802 255.904 580.802 256.8C580.802 257.696 580.65 258.472 580.346 259.128C580.042 259.776 579.622 260.272 579.086 260.616C578.558 260.952 577.958 261.12 577.286 261.12ZM577.286 259.764C577.886 259.764 578.358 259.516 578.702 259.02C579.054 258.524 579.23 257.784 579.23 256.8C579.23 255.816 579.054 255.076 578.702 254.58C578.358 254.084 577.886 253.836 577.286 253.836C576.694 253.836 576.222 254.084 575.87 254.58C575.526 255.076 575.354 255.816 575.354 256.8C575.354 257.784 575.526 258.524 575.87 259.02C576.222 259.516 576.694 259.764 577.286 259.764Z" fill="#2E2E2E"/>
<path opacity="0.5" d="M612.075 252.6V261H610.515V253.908H608.739V252.6H612.075ZM620.077 252.6V253.644L616.813 261H615.145L618.301 253.92H615.001V255.348H613.549V252.6H620.077ZM621.743 256.512C621.471 256.512 621.239 256.42 621.047 256.236C620.855 256.044 620.759 255.804 620.759 255.516C620.759 255.22 620.851 254.98 621.035 254.796C621.227 254.612 621.463 254.52 621.743 254.52C622.023 254.52 622.255 254.612 622.439 254.796C622.631 254.98 622.727 255.22 622.727 255.516C622.727 255.804 622.631 256.044 622.439 256.236C622.247 256.42 622.015 256.512 621.743 256.512ZM621.743 261.084C621.471 261.084 621.239 260.992 621.047 260.808C620.855 260.616 620.759 260.376 620.759 260.088C620.759 259.792 620.851 259.552 621.035 259.368C621.227 259.184 621.463 259.092 621.743 259.092C622.023 259.092 622.255 259.184 622.439 259.368C622.631 259.552 622.727 259.792 622.727 260.088C622.727 260.376 622.631 260.616 622.439 260.808C622.247 260.992 622.015 261.084 621.743 261.084ZM627.241 261.12C626.569 261.12 625.969 260.952 625.441 260.616C624.913 260.272 624.497 259.776 624.193 259.128C623.889 258.472 623.737 257.696 623.737 256.8C623.737 255.904 623.889 255.132 624.193 254.484C624.497 253.828 624.913 253.332 625.441 252.996C625.969 252.652 626.569 252.48 627.241 252.48C627.913 252.48 628.513 252.652 629.041 252.996C629.577 253.332 629.997 253.828 630.301 254.484C630.605 255.132 630.757 255.904 630.757 256.8C630.757 257.696 630.605 258.472 630.301 259.128C629.997 259.776 629.577 260.272 629.041 260.616C628.513 260.952 627.913 261.12 627.241 261.12ZM627.241 259.764C627.841 259.764 628.313 259.516 628.657 259.02C629.009 258.524 629.185 257.784 629.185 256.8C629.185 255.816 629.009 255.076 628.657 254.58C628.313 254.084 627.841 253.836 627.241 253.836C626.649 253.836 626.177 254.084 625.825 254.58C625.481 255.076 625.309 255.816 625.309 256.8C625.309 257.784 625.481 258.524 625.825 259.02C626.177 259.516 626.649 259.764 627.241 259.764ZM635.315 261.12C634.643 261.12 634.043 260.952 633.515 260.616C632.987 260.272 632.571 259.776 632.267 259.128C631.963 258.472 631.811 257.696 631.811 256.8C631.811 255.904 631.963 255.132 632.267 254.484C632.571 253.828 632.987 253.332 633.515 252.996C634.043 252.652 634.643 252.48 635.315 252.48C635.987 252.48 636.587 252.652 637.115 252.996C637.651 253.332 638.071 253.828 638.375 254.484C638.679 255.132 638.831 255.904 638.831 256.8C638.831 257.696 638.679 258.472 638.375 259.128C638.071 259.776 637.651 260.272 637.115 260.616C636.587 260.952 635.987 261.12 635.315 261.12ZM635.315 259.764C635.915 259.764 636.387 259.516 636.731 259.02C637.083 258.524 637.259 257.784 637.259 256.8C637.259 255.816 637.083 255.076 636.731 254.58C636.387 254.084 635.915 253.836 635.315 253.836C634.723 253.836 634.251 254.084 633.899 254.58C633.555 255.076 633.383 255.816 633.383 256.8C633.383 257.784 633.555 258.524 633.899 259.02C634.251 259.516 634.723 259.764 635.315 259.764Z" fill="#2E2E2E"/>
<path opacity="0.5" d="M669.846 252.6V261H668.286V253.908H666.51V252.6H669.846ZM674.344 252.48C675.496 252.48 676.388 252.84 677.02 253.56C677.66 254.28 677.98 255.312 677.98 256.656C677.98 257.6 677.808 258.408 677.464 259.08C677.12 259.744 676.636 260.252 676.012 260.604C675.396 260.948 674.68 261.12 673.864 261.12C673.432 261.12 673.024 261.076 672.64 260.988C672.264 260.892 671.936 260.756 671.656 260.58L672.232 259.404C672.648 259.676 673.18 259.812 673.828 259.812C674.636 259.812 675.268 259.564 675.724 259.068C676.18 258.572 676.408 257.856 676.408 256.92V256.908C676.16 257.196 675.844 257.416 675.46 257.568C675.076 257.712 674.644 257.784 674.164 257.784C673.612 257.784 673.116 257.68 672.676 257.472C672.236 257.256 671.892 256.952 671.644 256.56C671.396 256.168 671.272 255.716 671.272 255.204C671.272 254.66 671.408 254.184 671.68 253.776C671.952 253.36 672.32 253.04 672.784 252.816C673.248 252.592 673.768 252.48 674.344 252.48ZM674.464 256.56C674.968 256.56 675.376 256.424 675.688 256.152C676.008 255.88 676.168 255.536 676.168 255.12C676.168 254.712 676.012 254.376 675.7 254.112C675.396 253.84 674.972 253.704 674.428 253.704C673.94 253.704 673.544 253.836 673.24 254.1C672.936 254.356 672.784 254.7 672.784 255.132C672.784 255.572 672.936 255.92 673.24 256.176C673.544 256.432 673.952 256.56 674.464 256.56ZM679.972 256.512C679.7 256.512 679.468 256.42 679.276 256.236C679.084 256.044 678.988 255.804 678.988 255.516C678.988 255.22 679.08 254.98 679.264 254.796C679.456 254.612 679.692 254.52 679.972 254.52C680.252 254.52 680.484 254.612 680.668 254.796C680.86 254.98 680.956 255.22 680.956 255.516C680.956 255.804 680.86 256.044 680.668 256.236C680.476 256.42 680.244 256.512 679.972 256.512ZM679.972 261.084C679.7 261.084 679.468 260.992 679.276 260.808C679.084 260.616 678.988 260.376 678.988 260.088C678.988 259.792 679.08 259.552 679.264 259.368C679.456 259.184 679.692 259.092 679.972 259.092C680.252 259.092 680.484 259.184 680.668 259.368C680.86 259.552 680.956 259.792 680.956 260.088C680.956 260.376 680.86 260.616 680.668 260.808C680.476 260.992 680.244 261.084 679.972 261.084ZM685.47 261.12C684.798 261.12 684.198 260.952 683.67 260.616C683.142 260.272 682.726 259.776 682.422 259.128C682.118 258.472 681.966 257.696 681.966 256.8C681.966 255.904 682.118 255.132 682.422 254.484C682.726 253.828 683.142 253.332 683.67 252.996C684.198 252.652 684.798 252.48 685.47 252.48C686.142 252.48 686.742 252.652 687.27 252.996C687.806 253.332 688.226 253.828 688.53 254.484C688.834 255.132 688.986 255.904 688.986 256.8C688.986 257.696 688.834 258.472 688.53 259.128C688.226 259.776 687.806 260.272 687.27 260.616C686.742 260.952 686.142 261.12 685.47 261.12ZM685.47 259.764C686.07 259.764 686.542 259.516 686.886 259.02C687.238 258.524 687.414 257.784 687.414 256.8C687.414 255.816 687.238 255.076 686.886 254.58C686.542 254.084 686.07 253.836 685.47 253.836C684.878 253.836 684.406 254.084 684.054 254.58C683.71 255.076 683.538 255.816 683.538 256.8C683.538 257.784 683.71 258.524 684.054 259.02C684.406 259.516 684.878 259.764 685.47 259.764ZM693.544 261.12C692.872 261.12 692.272 260.952 691.744 260.616C691.216 260.272 690.8 259.776 690.496 259.128C690.192 258.472 690.04 257.696 690.04 256.8C690.04 255.904 690.192 255.132 690.496 254.484C690.8 253.828 691.216 253.332 691.744 252.996C692.272 252.652 692.872 252.48 693.544 252.48C694.216 252.48 694.816 252.652 695.344 252.996C695.88 253.332 696.3 253.828 696.604 254.484C696.908 255.132 697.06 255.904 697.06 256.8C697.06 257.696 696.908 258.472 696.604 259.128C696.3 259.776 695.88 260.272 695.344 260.616C694.816 260.952 694.216 261.12 693.544 261.12ZM693.544 259.764C694.144 259.764 694.616 259.516 694.96 259.02C695.312 258.524 695.488 257.784 695.488 256.8C695.488 255.816 695.312 255.076 694.96 254.58C694.616 254.084 694.144 253.836 693.544 253.836C692.952 253.836 692.48 254.084 692.128 254.58C691.784 255.076 691.612 255.816 691.612 256.8C691.612 257.784 691.784 258.524 692.128 259.02C692.48 259.516 692.952 259.764 693.544 259.764Z" fill="#2E2E2E"/>
<path opacity="0.1" d="M1 228H724" stroke="#454459"/>
<path opacity="0.5" d="M24.3277 52.116V54H17.7877V52.512L20.9317 49.572C21.2357 49.284 21.4397 49.04 21.5437 48.84C21.6477 48.632 21.6997 48.424 21.6997 48.216C21.6997 47.944 21.6077 47.732 21.4237 47.58C21.2397 47.428 20.9717 47.352 20.6197 47.352C20.3077 47.352 20.0197 47.424 19.7557 47.568C19.4997 47.704 19.2877 47.904 19.1197 48.168L17.3557 47.184C17.6837 46.64 18.1437 46.212 18.7357 45.9C19.3277 45.588 20.0277 45.432 20.8357 45.432C21.4757 45.432 22.0397 45.536 22.5277 45.744C23.0237 45.952 23.4077 46.252 23.6797 46.644C23.9597 47.028 24.0997 47.476 24.0997 47.988C24.0997 48.444 23.9997 48.876 23.7997 49.284C23.6077 49.684 23.2317 50.14 22.6717 50.652L21.0877 52.116H24.3277ZM32.8807 52.392H31.6327V54H29.3167V52.392H24.8767V50.844L28.6447 45.6H31.1047L27.6847 50.508H29.3887V49.08H31.6327V50.508H32.8807V52.392ZM35.0878 49.704C34.6958 49.704 34.3318 49.612 33.9958 49.428C33.6678 49.236 33.4038 48.98 33.2038 48.66C33.0118 48.34 32.9158 47.984 32.9158 47.592C32.9158 47.2 33.0118 46.844 33.2038 46.524C33.4038 46.204 33.6678 45.952 33.9958 45.768C34.3318 45.576 34.6958 45.48 35.0878 45.48C35.4878 45.48 35.8518 45.576 36.1798 45.768C36.5158 45.952 36.7798 46.204 36.9718 46.524C37.1718 46.844 37.2718 47.2 37.2718 47.592C37.2718 47.984 37.1718 48.34 36.9718 48.66C36.7798 48.98 36.5158 49.236 36.1798 49.428C35.8518 49.612 35.4878 49.704 35.0878 49.704ZM35.0878 48.624C35.3838 48.624 35.6278 48.528 35.8198 48.336C36.0118 48.136 36.1078 47.888 36.1078 47.592C36.1078 47.304 36.0118 47.064 35.8198 46.872C35.6278 46.672 35.3838 46.572 35.0878 46.572C34.7998 46.572 34.5598 46.672 34.3678 46.872C34.1758 47.064 34.0798 47.304 34.0798 47.592C34.0798 47.888 34.1758 48.136 34.3678 48.336C34.5598 48.528 34.7998 48.624 35.0878 48.624ZM42.7409 54.168C41.8609 54.168 41.0689 53.984 40.3649 53.616C39.6689 53.24 39.1209 52.72 38.7209 52.056C38.3209 51.392 38.1209 50.64 38.1209 49.8C38.1209 48.96 38.3209 48.208 38.7209 47.544C39.1209 46.88 39.6689 46.364 40.3649 45.996C41.0689 45.62 41.8609 45.432 42.7409 45.432C43.5089 45.432 44.2009 45.568 44.8169 45.84C45.4329 46.112 45.9449 46.504 46.3529 47.016L44.8409 48.384C44.2969 47.728 43.6369 47.4 42.8609 47.4C42.4049 47.4 41.9969 47.5 41.6369 47.7C41.2849 47.9 41.0089 48.184 40.8089 48.552C40.6169 48.912 40.5209 49.328 40.5209 49.8C40.5209 50.272 40.6169 50.692 40.8089 51.06C41.0089 51.42 41.2849 51.7 41.6369 51.9C41.9969 52.1 42.4049 52.2 42.8609 52.2C43.6369 52.2 44.2969 51.872 44.8409 51.216L46.3529 52.584C45.9449 53.096 45.4329 53.488 44.8169 53.76C44.2009 54.032 43.5089 54.168 42.7409 54.168Z" fill="#2E2E2E"/>
<path opacity="0.5" d="M94.4977 49.116V51H87.9577V49.512L91.1017 46.572C91.4057 46.284 91.6097 46.04 91.7137 45.84C91.8177 45.632 91.8697 45.424 91.8697 45.216C91.8697 44.944 91.7777 44.732 91.5937 44.58C91.4097 44.428 91.1417 44.352 90.7897 44.352C90.4777 44.352 90.1897 44.424 89.9257 44.568C89.6697 44.704 89.4577 44.904 89.2897 45.168L87.5257 44.184C87.8537 43.64 88.3137 43.212 88.9057 42.9C89.4977 42.588 90.1977 42.432 91.0057 42.432C91.6457 42.432 92.2097 42.536 92.6977 42.744C93.1937 42.952 93.5777 43.252 93.8497 43.644C94.1297 44.028 94.2697 44.476 94.2697 44.988C94.2697 45.444 94.1697 45.876 93.9697 46.284C93.7777 46.684 93.4017 47.14 92.8417 47.652L91.2577 49.116H94.4977ZM99.4735 45.648C100.002 45.648 100.486 45.76 100.926 45.984C101.366 46.2 101.714 46.512 101.97 46.92C102.234 47.32 102.366 47.78 102.366 48.3C102.366 48.868 102.218 49.372 101.922 49.812C101.634 50.244 101.238 50.58 100.734 50.82C100.238 51.052 99.6815 51.168 99.0655 51.168C97.8655 51.168 96.9175 50.812 96.2215 50.1C95.5255 49.388 95.1775 48.364 95.1775 47.028C95.1775 46.068 95.3615 45.244 95.7295 44.556C96.1055 43.86 96.6295 43.332 97.3015 42.972C97.9735 42.612 98.7535 42.432 99.6415 42.432C100.122 42.432 100.578 42.484 101.01 42.588C101.442 42.692 101.81 42.844 102.114 43.044L101.25 44.748C100.842 44.46 100.326 44.316 99.7015 44.316C99.0935 44.316 98.6015 44.484 98.2255 44.82C97.8495 45.156 97.6335 45.64 97.5775 46.272C98.0575 45.856 98.6895 45.648 99.4735 45.648ZM98.9215 49.476C99.2575 49.476 99.5295 49.38 99.7375 49.188C99.9535 48.996 100.062 48.736 100.062 48.408C100.062 48.088 99.9535 47.832 99.7375 47.64C99.5295 47.448 99.2535 47.352 98.9095 47.352C98.5655 47.352 98.2855 47.452 98.0695 47.652C97.8535 47.844 97.7455 48.1 97.7455 48.42C97.7455 48.732 97.8495 48.988 98.0575 49.188C98.2735 49.38 98.5615 49.476 98.9215 49.476ZM104.918 46.704C104.526 46.704 104.162 46.612 103.826 46.428C103.498 46.236 103.234 45.98 103.034 45.66C102.842 45.34 102.746 44.984 102.746 44.592C102.746 44.2 102.842 43.844 103.034 43.524C103.234 43.204 103.498 42.952 103.826 42.768C104.162 42.576 104.526 42.48 104.918 42.48C105.318 42.48 105.682 42.576 106.01 42.768C106.346 42.952 106.61 43.204 106.802 43.524C107.002 43.844 107.102 44.2 107.102 44.592C107.102 44.984 107.002 45.34 106.802 45.66C106.61 45.98 106.346 46.236 106.01 46.428C105.682 46.612 105.318 46.704 104.918 46.704ZM104.918 45.624C105.214 45.624 105.458 45.528 105.65 45.336C105.842 45.136 105.938 44.888 105.938 44.592C105.938 44.304 105.842 44.064 105.65 43.872C105.458 43.672 105.214 43.572 104.918 43.572C104.63 43.572 104.39 43.672 104.198 43.872C104.006 44.064 103.91 44.304 103.91 44.592C103.91 44.888 104.006 45.136 104.198 45.336C104.39 45.528 104.63 45.624 104.918 45.624ZM112.571 51.168C111.691 51.168 110.899 50.984 110.195 50.616C109.499 50.24 108.951 49.72 108.551 49.056C108.151 48.392 107.951 47.64 107.951 46.8C107.951 45.96 108.151 45.208 108.551 44.544C108.951 43.88 109.499 43.364 110.195 42.996C110.899 42.62 111.691 42.432 112.571 42.432C113.339 42.432 114.031 42.568 114.647 42.84C115.263 43.112 115.775 43.504 116.183 44.016L114.671 45.384C114.127 44.728 113.467 44.4 112.691 44.4C112.235 44.4 111.827 44.5 111.467 44.7C111.115 44.9 110.839 45.184 110.639 45.552C110.447 45.912 110.351 46.328 110.351 46.8C110.351 47.272 110.447 47.692 110.639 48.06C110.839 48.42 111.115 48.7 111.467 48.9C111.827 49.1 112.235 49.2 112.691 49.2C113.467 49.2 114.127 48.872 114.671 48.216L116.183 49.584C115.775 50.096 115.263 50.488 114.647 50.76C114.031 51.032 113.339 51.168 112.571 51.168Z" fill="#2E2E2E"/>
<path opacity="0.5" d="M155.791 64.116V66H149.251V64.512L152.395 61.572C152.699 61.284 152.903 61.04 153.007 60.84C153.111 60.632 153.163 60.424 153.163 60.216C153.163 59.944 153.071 59.732 152.887 59.58C152.703 59.428 152.435 59.352 152.083 59.352C151.771 59.352 151.483 59.424 151.219 59.568C150.963 59.704 150.751 59.904 150.583 60.168L148.819 59.184C149.147 58.64 149.607 58.212 150.199 57.9C150.791 57.588 151.491 57.432 152.299 57.432C152.939 57.432 153.503 57.536 153.991 57.744C154.487 57.952 154.871 58.252 155.143 58.644C155.423 59.028 155.563 59.476 155.563 59.988C155.563 60.444 155.463 60.876 155.263 61.284C155.071 61.684 154.695 62.14 154.135 62.652L152.551 64.116H155.791ZM160.79 60.96C161.486 61.104 162.018 61.392 162.386 61.824C162.762 62.248 162.95 62.764 162.95 63.372C162.95 63.868 162.814 64.328 162.542 64.752C162.278 65.176 161.87 65.52 161.318 65.784C160.774 66.04 160.098 66.168 159.29 66.168C158.698 66.168 158.11 66.096 157.526 65.952C156.95 65.808 156.45 65.604 156.026 65.34L156.89 63.552C157.218 63.776 157.586 63.948 157.994 64.068C158.41 64.188 158.818 64.248 159.218 64.248C159.626 64.248 159.95 64.172 160.19 64.02C160.43 63.868 160.55 63.652 160.55 63.372C160.55 62.828 160.122 62.556 159.266 62.556H158.27V61.056L159.77 59.436H156.458V57.6H162.53V59.088L160.79 60.96ZM165.625 61.704C165.233 61.704 164.869 61.612 164.533 61.428C164.205 61.236 163.941 60.98 163.741 60.66C163.549 60.34 163.453 59.984 163.453 59.592C163.453 59.2 163.549 58.844 163.741 58.524C163.941 58.204 164.205 57.952 164.533 57.768C164.869 57.576 165.233 57.48 165.625 57.48C166.025 57.48 166.389 57.576 166.717 57.768C167.053 57.952 167.317 58.204 167.509 58.524C167.709 58.844 167.809 59.2 167.809 59.592C167.809 59.984 167.709 60.34 167.509 60.66C167.317 60.98 167.053 61.236 166.717 61.428C166.389 61.612 166.025 61.704 165.625 61.704ZM165.625 60.624C165.921 60.624 166.165 60.528 166.357 60.336C166.549 60.136 166.645 59.888 166.645 59.592C166.645 59.304 166.549 59.064 166.357 58.872C166.165 58.672 165.921 58.572 165.625 58.572C165.337 58.572 165.097 58.672 164.905 58.872C164.713 59.064 164.617 59.304 164.617 59.592C164.617 59.888 164.713 60.136 164.905 60.336C165.097 60.528 165.337 60.624 165.625 60.624ZM173.278 66.168C172.398 66.168 171.606 65.984 170.902 65.616C170.206 65.24 169.658 64.72 169.258 64.056C168.858 63.392 168.658 62.64 168.658 61.8C168.658 60.96 168.858 60.208 169.258 59.544C169.658 58.88 170.206 58.364 170.902 57.996C171.606 57.62 172.398 57.432 173.278 57.432C174.046 57.432 174.738 57.568 175.354 57.84C175.97 58.112 176.482 58.504 176.89 59.016L175.378 60.384C174.834 59.728 174.174 59.4 173.398 59.4C172.942 59.4 172.534 59.5 172.174 59.7C171.822 59.9 171.546 60.184 171.346 60.552C171.154 60.912 171.058 61.328 171.058 61.8C171.058 62.272 171.154 62.692 171.346 63.06C171.546 63.42 171.822 63.7 172.174 63.9C172.534 64.1 172.942 64.2 173.398 64.2C174.174 64.2 174.834 63.872 175.378 63.216L176.89 64.584C176.482 65.096 175.97 65.488 175.354 65.76C174.738 66.032 174.046 66.168 173.278 66.168Z" fill="#2E2E2E"/>
<path opacity="0.5" d="M208.572 84.6V93H206.196V86.436H204.636V84.6H208.572ZM215.884 88.572C216.268 88.796 216.564 89.072 216.772 89.4C216.98 89.728 217.084 90.104 217.084 90.528C217.084 91.056 216.932 91.52 216.628 91.92C216.324 92.32 215.896 92.628 215.344 92.844C214.792 93.06 214.156 93.168 213.436 93.168C212.716 93.168 212.08 93.06 211.528 92.844C210.976 92.628 210.548 92.32 210.244 91.92C209.94 91.52 209.788 91.056 209.788 90.528C209.788 90.104 209.892 89.728 210.1 89.4C210.308 89.072 210.604 88.796 210.988 88.572C210.7 88.372 210.476 88.128 210.316 87.84C210.164 87.552 210.088 87.232 210.088 86.88C210.088 86.392 210.228 85.964 210.508 85.596C210.788 85.22 211.18 84.932 211.684 84.732C212.196 84.532 212.78 84.432 213.436 84.432C214.092 84.432 214.672 84.532 215.176 84.732C215.688 84.932 216.084 85.22 216.364 85.596C216.644 85.964 216.784 86.392 216.784 86.88C216.784 87.232 216.704 87.552 216.544 87.84C216.392 88.128 216.172 88.372 215.884 88.572ZM213.436 86.1C213.14 86.1 212.9 86.18 212.716 86.34C212.532 86.492 212.44 86.708 212.44 86.988C212.44 87.26 212.528 87.476 212.704 87.636C212.888 87.788 213.132 87.864 213.436 87.864C213.74 87.864 213.984 87.788 214.168 87.636C214.352 87.476 214.444 87.26 214.444 86.988C214.444 86.708 214.352 86.492 214.168 86.34C213.984 86.18 213.74 86.1 213.436 86.1ZM213.436 91.5C213.82 91.5 214.124 91.408 214.348 91.224C214.58 91.032 214.696 90.776 214.696 90.456C214.696 90.136 214.58 89.884 214.348 89.7C214.124 89.508 213.82 89.412 213.436 89.412C213.052 89.412 212.744 89.508 212.512 89.7C212.288 89.884 212.176 90.136 212.176 90.456C212.176 90.776 212.288 91.032 212.512 91.224C212.744 91.408 213.052 91.5 213.436 91.5ZM219.951 88.704C219.559 88.704 219.195 88.612 218.859 88.428C218.531 88.236 218.267 87.98 218.067 87.66C217.875 87.34 217.779 86.984 217.779 86.592C217.779 86.2 217.875 85.844 218.067 85.524C218.267 85.204 218.531 84.952 218.859 84.768C219.195 84.576 219.559 84.48 219.951 84.48C220.351 84.48 220.715 84.576 221.043 84.768C221.379 84.952 221.643 85.204 221.835 85.524C222.035 85.844 222.135 86.2 222.135 86.592C222.135 86.984 222.035 87.34 221.835 87.66C221.643 87.98 221.379 88.236 221.043 88.428C220.715 88.612 220.351 88.704 219.951 88.704ZM219.951 87.624C220.247 87.624 220.491 87.528 220.683 87.336C220.875 87.136 220.971 86.888 220.971 86.592C220.971 86.304 220.875 86.064 220.683 85.872C220.491 85.672 220.247 85.572 219.951 85.572C219.663 85.572 219.423 85.672 219.231 85.872C219.039 86.064 218.943 86.304 218.943 86.592C218.943 86.888 219.039 87.136 219.231 87.336C219.423 87.528 219.663 87.624 219.951 87.624ZM227.604 93.168C226.724 93.168 225.932 92.984 225.228 92.616C224.532 92.24 223.984 91.72 223.584 91.056C223.184 90.392 222.984 89.64 222.984 88.8C222.984 87.96 223.184 87.208 223.584 86.544C223.984 85.88 224.532 85.364 225.228 84.996C225.932 84.62 226.724 84.432 227.604 84.432C228.372 84.432 229.064 84.568 229.68 84.84C230.296 85.112 230.808 85.504 231.216 86.016L229.704 87.384C229.16 86.728 228.5 86.4 227.724 86.4C227.268 86.4 226.86 86.5 226.5 86.7C226.148 86.9 225.872 87.184 225.672 87.552C225.48 87.912 225.384 88.328 225.384 88.8C225.384 89.272 225.48 89.692 225.672 90.06C225.872 90.42 226.148 90.7 226.5 90.9C226.86 91.1 227.268 91.2 227.724 91.2C228.5 91.2 229.16 90.872 229.704 90.216L231.216 91.584C230.808 92.096 230.296 92.488 229.68 92.76C229.064 93.032 228.372 93.168 227.604 93.168Z" fill="#2E2E2E"/>
<path opacity="0.5" d="M272.211 78.116V80H265.671V78.512L268.815 75.572C269.119 75.284 269.323 75.04 269.427 74.84C269.531 74.632 269.583 74.424 269.583 74.216C269.583 73.944 269.491 73.732 269.307 73.58C269.123 73.428 268.855 73.352 268.503 73.352C268.191 73.352 267.903 73.424 267.639 73.568C267.383 73.704 267.171 73.904 267.003 74.168L265.239 73.184C265.567 72.64 266.027 72.212 266.619 71.9C267.211 71.588 267.911 71.432 268.719 71.432C269.359 71.432 269.923 71.536 270.411 71.744C270.907 71.952 271.291 72.252 271.563 72.644C271.843 73.028 271.983 73.476 271.983 73.988C271.983 74.444 271.883 74.876 271.683 75.284C271.491 75.684 271.115 76.14 270.555 76.652L268.971 78.116H272.211ZM276.598 80.168C275.878 80.168 275.238 79.996 274.678 79.652C274.118 79.308 273.678 78.808 273.358 78.152C273.046 77.488 272.89 76.704 272.89 75.8C272.89 74.896 273.046 74.116 273.358 73.46C273.678 72.796 274.118 72.292 274.678 71.948C275.238 71.604 275.878 71.432 276.598 71.432C277.31 71.432 277.946 71.604 278.506 71.948C279.066 72.292 279.502 72.796 279.814 73.46C280.134 74.116 280.294 74.896 280.294 75.8C280.294 76.704 280.134 77.488 279.814 78.152C279.502 78.808 279.066 79.308 278.506 79.652C277.946 79.996 277.31 80.168 276.598 80.168ZM276.598 78.224C276.998 78.224 277.314 78.032 277.546 77.648C277.786 77.256 277.906 76.64 277.906 75.8C277.906 74.96 277.786 74.348 277.546 73.964C277.314 73.572 276.998 73.376 276.598 73.376C276.19 73.376 275.866 73.572 275.626 73.964C275.394 74.348 275.278 74.96 275.278 75.8C275.278 76.64 275.394 77.256 275.626 77.648C275.866 78.032 276.19 78.224 276.598 78.224ZM283.205 75.704C282.813 75.704 282.449 75.612 282.113 75.428C281.785 75.236 281.521 74.98 281.321 74.66C281.129 74.34 281.033 73.984 281.033 73.592C281.033 73.2 281.129 72.844 281.321 72.524C281.521 72.204 281.785 71.952 282.113 71.768C282.449 71.576 282.813 71.48 283.205 71.48C283.605 71.48 283.969 71.576 284.297 71.768C284.633 71.952 284.897 72.204 285.089 72.524C285.289 72.844 285.389 73.2 285.389 73.592C285.389 73.984 285.289 74.34 285.089 74.66C284.897 74.98 284.633 75.236 284.297 75.428C283.969 75.612 283.605 75.704 283.205 75.704ZM283.205 74.624C283.501 74.624 283.745 74.528 283.937 74.336C284.129 74.136 284.225 73.888 284.225 73.592C284.225 73.304 284.129 73.064 283.937 72.872C283.745 72.672 283.501 72.572 283.205 72.572C282.917 72.572 282.677 72.672 282.485 72.872C282.293 73.064 282.197 73.304 282.197 73.592C282.197 73.888 282.293 74.136 282.485 74.336C282.677 74.528 282.917 74.624 283.205 74.624ZM290.858 80.168C289.978 80.168 289.186 79.984 288.482 79.616C287.786 79.24 287.238 78.72 286.838 78.056C286.438 77.392 286.238 76.64 286.238 75.8C286.238 74.96 286.438 74.208 286.838 73.544C287.238 72.88 287.786 72.364 288.482 71.996C289.186 71.62 289.978 71.432 290.858 71.432C291.626 71.432 292.318 71.568 292.934 71.84C293.55 72.112 294.062 72.504 294.47 73.016L292.958 74.384C292.414 73.728 291.754 73.4 290.978 73.4C290.522 73.4 290.114 73.5 289.754 73.7C289.402 73.9 289.126 74.184 288.926 74.552C288.734 74.912 288.638 75.328 288.638 75.8C288.638 76.272 288.734 76.692 288.926 77.06C289.126 77.42 289.402 77.7 289.754 77.9C290.114 78.1 290.522 78.2 290.978 78.2C291.754 78.2 292.414 77.872 292.958 77.216L294.47 78.584C294.062 79.096 293.55 79.488 292.934 79.76C292.318 80.032 291.626 80.168 290.858 80.168Z" fill="#2E2E2E"/>
<path opacity="0.5" d="M326.726 58.116V60H320.186V58.512L323.33 55.572C323.634 55.284 323.838 55.04 323.942 54.84C324.046 54.632 324.098 54.424 324.098 54.216C324.098 53.944 324.006 53.732 323.822 53.58C323.638 53.428 323.37 53.352 323.018 53.352C322.706 53.352 322.418 53.424 322.154 53.568C321.898 53.704 321.686 53.904 321.518 54.168L319.754 53.184C320.082 52.64 320.542 52.212 321.134 51.9C321.726 51.588 322.426 51.432 323.234 51.432C323.874 51.432 324.438 51.536 324.926 51.744C325.422 51.952 325.806 52.252 326.078 52.644C326.358 53.028 326.498 53.476 326.498 53.988C326.498 54.444 326.398 54.876 326.198 55.284C326.006 55.684 325.63 56.14 325.07 56.652L323.486 58.116H326.726ZM333.91 58.116V60H327.37V58.512L330.514 55.572C330.818 55.284 331.022 55.04 331.126 54.84C331.23 54.632 331.282 54.424 331.282 54.216C331.282 53.944 331.19 53.732 331.006 53.58C330.822 53.428 330.554 53.352 330.202 53.352C329.89 53.352 329.602 53.424 329.338 53.568C329.082 53.704 328.87 53.904 328.702 54.168L326.938 53.184C327.266 52.64 327.726 52.212 328.318 51.9C328.91 51.588 329.61 51.432 330.418 51.432C331.058 51.432 331.622 51.536 332.11 51.744C332.606 51.952 332.99 52.252 333.262 52.644C333.542 53.028 333.682 53.476 333.682 53.988C333.682 54.444 333.582 54.876 333.382 55.284C333.19 55.684 332.814 56.14 332.254 56.652L330.67 58.116H333.91ZM336.689 55.704C336.297 55.704 335.933 55.612 335.597 55.428C335.269 55.236 335.005 54.98 334.805 54.66C334.613 54.34 334.517 53.984 334.517 53.592C334.517 53.2 334.613 52.844 334.805 52.524C335.005 52.204 335.269 51.952 335.597 51.768C335.933 51.576 336.297 51.48 336.689 51.48C337.089 51.48 337.453 51.576 337.781 51.768C338.117 51.952 338.381 52.204 338.573 52.524C338.773 52.844 338.873 53.2 338.873 53.592C338.873 53.984 338.773 54.34 338.573 54.66C338.381 54.98 338.117 55.236 337.781 55.428C337.453 55.612 337.089 55.704 336.689 55.704ZM336.689 54.624C336.985 54.624 337.229 54.528 337.421 54.336C337.613 54.136 337.709 53.888 337.709 53.592C337.709 53.304 337.613 53.064 337.421 52.872C337.229 52.672 336.985 52.572 336.689 52.572C336.401 52.572 336.161 52.672 335.969 52.872C335.777 53.064 335.681 53.304 335.681 53.592C335.681 53.888 335.777 54.136 335.969 54.336C336.161 54.528 336.401 54.624 336.689 54.624ZM344.342 60.168C343.462 60.168 342.67 59.984 341.966 59.616C341.27 59.24 340.722 58.72 340.322 58.056C339.922 57.392 339.722 56.64 339.722 55.8C339.722 54.96 339.922 54.208 340.322 53.544C340.722 52.88 341.27 52.364 341.966 51.996C342.67 51.62 343.462 51.432 344.342 51.432C345.11 51.432 345.802 51.568 346.418 51.84C347.034 52.112 347.546 52.504 347.954 53.016L346.442 54.384C345.898 53.728 345.238 53.4 344.462 53.4C344.006 53.4 343.598 53.5 343.238 53.7C342.886 53.9 342.61 54.184 342.41 54.552C342.218 54.912 342.122 55.328 342.122 55.8C342.122 56.272 342.218 56.692 342.41 57.06C342.61 57.42 342.886 57.7 343.238 57.9C343.598 58.1 344.006 58.2 344.462 58.2C345.238 58.2 345.898 57.872 346.442 57.216L347.954 58.584C347.546 59.096 347.034 59.488 346.418 59.76C345.802 60.032 345.11 60.168 344.342 60.168Z" fill="#2E2E2E"/>
<path opacity="0.5" d="M381.997 20.96C382.693 21.104 383.225 21.392 383.593 21.824C383.969 22.248 384.157 22.764 384.157 23.372C384.157 23.868 384.021 24.328 383.749 24.752C383.485 25.176 383.077 25.52 382.525 25.784C381.981 26.04 381.305 26.168 380.497 26.168C379.905 26.168 379.317 26.096 378.733 25.952C378.157 25.808 377.657 25.604 377.233 25.34L378.097 23.552C378.425 23.776 378.793 23.948 379.201 24.068C379.617 24.188 380.025 24.248 380.425 24.248C380.833 24.248 381.157 24.172 381.397 24.02C381.637 23.868 381.757 23.652 381.757 23.372C381.757 22.828 381.329 22.556 380.473 22.556H379.477V21.056L380.977 19.436H377.665V17.6H383.737V19.088L381.997 20.96ZM388.628 26.168C387.908 26.168 387.268 25.996 386.708 25.652C386.148 25.308 385.708 24.808 385.388 24.152C385.076 23.488 384.92 22.704 384.92 21.8C384.92 20.896 385.076 20.116 385.388 19.46C385.708 18.796 386.148 18.292 386.708 17.948C387.268 17.604 387.908 17.432 388.628 17.432C389.34 17.432 389.976 17.604 390.536 17.948C391.096 18.292 391.532 18.796 391.844 19.46C392.164 20.116 392.324 20.896 392.324 21.8C392.324 22.704 392.164 23.488 391.844 24.152C391.532 24.808 391.096 25.308 390.536 25.652C389.976 25.996 389.34 26.168 388.628 26.168ZM388.628 24.224C389.028 24.224 389.344 24.032 389.576 23.648C389.816 23.256 389.936 22.64 389.936 21.8C389.936 20.96 389.816 20.348 389.576 19.964C389.344 19.572 389.028 19.376 388.628 19.376C388.22 19.376 387.896 19.572 387.656 19.964C387.424 20.348 387.308 20.96 387.308 21.8C387.308 22.64 387.424 23.256 387.656 23.648C387.896 24.032 388.22 24.224 388.628 24.224ZM395.234 21.704C394.842 21.704 394.478 21.612 394.142 21.428C393.814 21.236 393.55 20.98 393.35 20.66C393.158 20.34 393.062 19.984 393.062 19.592C393.062 19.2 393.158 18.844 393.35 18.524C393.55 18.204 393.814 17.952 394.142 17.768C394.478 17.576 394.842 17.48 395.234 17.48C395.634 17.48 395.998 17.576 396.326 17.768C396.662 17.952 396.926 18.204 397.118 18.524C397.318 18.844 397.418 19.2 397.418 19.592C397.418 19.984 397.318 20.34 397.118 20.66C396.926 20.98 396.662 21.236 396.326 21.428C395.998 21.612 395.634 21.704 395.234 21.704ZM395.234 20.624C395.53 20.624 395.774 20.528 395.966 20.336C396.158 20.136 396.254 19.888 396.254 19.592C396.254 19.304 396.158 19.064 395.966 18.872C395.774 18.672 395.53 18.572 395.234 18.572C394.946 18.572 394.706 18.672 394.514 18.872C394.322 19.064 394.226 19.304 394.226 19.592C394.226 19.888 394.322 20.136 394.514 20.336C394.706 20.528 394.946 20.624 395.234 20.624ZM402.887 26.168C402.007 26.168 401.215 25.984 400.511 25.616C399.815 25.24 399.267 24.72 398.867 24.056C398.467 23.392 398.267 22.64 398.267 21.8C398.267 20.96 398.467 20.208 398.867 19.544C399.267 18.88 399.815 18.364 400.511 17.996C401.215 17.62 402.007 17.432 402.887 17.432C403.655 17.432 404.347 17.568 404.963 17.84C405.579 18.112 406.091 18.504 406.499 19.016L404.987 20.384C404.443 19.728 403.783 19.4 403.007 19.4C402.551 19.4 402.143 19.5 401.783 19.7C401.431 19.9 401.155 20.184 400.955 20.552C400.763 20.912 400.667 21.328 400.667 21.8C400.667 22.272 400.763 22.692 400.955 23.06C401.155 23.42 401.431 23.7 401.783 23.9C402.143 24.1 402.551 24.2 403.007 24.2C403.783 24.2 404.443 23.872 404.987 23.216L406.499 24.584C406.091 25.096 405.579 25.488 404.963 25.76C404.347 26.032 403.655 26.168 402.887 26.168Z" fill="#2E2E2E"/>
<path opacity="0.5" d="M614.548 6.96C615.244 7.104 615.776 7.392 616.144 7.824C616.52 8.248 616.708 8.764 616.708 9.372C616.708 9.868 616.572 10.328 616.3 10.752C616.036 11.176 615.628 11.52 615.076 11.784C614.532 12.04 613.856 12.168 613.048 12.168C612.456 12.168 611.868 12.096 611.284 11.952C610.708 11.808 610.208 11.604 609.784 11.34L610.648 9.552C610.976 9.776 611.344 9.948 611.752 10.068C612.168 10.188 612.576 10.248 612.976 10.248C613.384 10.248 613.708 10.172 613.948 10.02C614.188 9.868 614.308 9.652 614.308 9.372C614.308 8.828 613.88 8.556 613.024 8.556H612.028V7.056L613.528 5.436H610.216V3.6H616.288V5.088L614.548 6.96ZM623.904 10.116V12H617.364V10.512L620.508 7.572C620.812 7.284 621.016 7.04 621.12 6.84C621.224 6.632 621.276 6.424 621.276 6.216C621.276 5.944 621.184 5.732 621 5.58C620.816 5.428 620.548 5.352 620.196 5.352C619.884 5.352 619.596 5.424 619.332 5.568C619.076 5.704 618.864 5.904 618.696 6.168L616.932 5.184C617.26 4.64 617.72 4.212 618.312 3.9C618.904 3.588 619.604 3.432 620.412 3.432C621.052 3.432 621.616 3.536 622.104 3.744C622.6 3.952 622.984 4.252 623.256 4.644C623.536 5.028 623.676 5.476 623.676 5.988C623.676 6.444 623.576 6.876 623.376 7.284C623.184 7.684 622.808 8.14 622.248 8.652L620.664 10.116H623.904ZM626.684 7.704C626.292 7.704 625.928 7.612 625.592 7.428C625.264 7.236 625 6.98 624.8 6.66C624.608 6.34 624.512 5.984 624.512 5.592C624.512 5.2 624.608 4.844 624.8 4.524C625 4.204 625.264 3.952 625.592 3.768C625.928 3.576 626.292 3.48 626.684 3.48C627.084 3.48 627.448 3.576 627.776 3.768C628.112 3.952 628.376 4.204 628.568 4.524C628.768 4.844 628.868 5.2 628.868 5.592C628.868 5.984 628.768 6.34 628.568 6.66C628.376 6.98 628.112 7.236 627.776 7.428C627.448 7.612 627.084 7.704 626.684 7.704ZM626.684 6.624C626.98 6.624 627.224 6.528 627.416 6.336C627.608 6.136 627.704 5.888 627.704 5.592C627.704 5.304 627.608 5.064 627.416 4.872C627.224 4.672 626.98 4.572 626.684 4.572C626.396 4.572 626.156 4.672 625.964 4.872C625.772 5.064 625.676 5.304 625.676 5.592C625.676 5.888 625.772 6.136 625.964 6.336C626.156 6.528 626.396 6.624 626.684 6.624ZM634.337 12.168C633.457 12.168 632.665 11.984 631.961 11.616C631.265 11.24 630.717 10.72 630.317 10.056C629.917 9.392 629.717 8.64 629.717 7.8C629.717 6.96 629.917 6.208 630.317 5.544C630.717 4.88 631.265 4.364 631.961 3.996C632.665 3.62 633.457 3.432 634.337 3.432C635.105 3.432 635.797 3.568 636.413 3.84C637.029 4.112 637.541 4.504 637.949 5.016L636.437 6.384C635.893 5.728 635.233 5.4 634.457 5.4C634.001 5.4 633.593 5.5 633.233 5.7C632.881 5.9 632.605 6.184 632.405 6.552C632.213 6.912 632.117 7.328 632.117 7.8C632.117 8.272 632.213 8.692 632.405 9.06C632.605 9.42 632.881 9.7 633.233 9.9C633.593 10.1 634.001 10.2 634.457 10.2C635.233 10.2 635.893 9.872 636.437 9.216L637.949 10.584C637.541 11.096 637.029 11.488 636.413 11.76C635.797 12.032 635.105 12.168 634.337 12.168Z" fill="#2E2E2E"/>
<path opacity="0.5" d="M673.679 12.96C674.375 13.104 674.907 13.392 675.275 13.824C675.651 14.248 675.839 14.764 675.839 15.372C675.839 15.868 675.703 16.328 675.431 16.752C675.167 17.176 674.759 17.52 674.207 17.784C673.663 18.04 672.987 18.168 672.179 18.168C671.587 18.168 670.999 18.096 670.415 17.952C669.839 17.808 669.339 17.604 668.915 17.34L669.779 15.552C670.107 15.776 670.475 15.948 670.883 16.068C671.299 16.188 671.707 16.248 672.107 16.248C672.515 16.248 672.839 16.172 673.079 16.02C673.319 15.868 673.439 15.652 673.439 15.372C673.439 14.828 673.011 14.556 672.155 14.556H671.159V13.056L672.659 11.436H669.347V9.6H675.419V11.088L673.679 12.96ZM680.201 9.6V18H677.825V11.436H676.265V9.6H680.201ZM683.553 13.704C683.161 13.704 682.797 13.612 682.461 13.428C682.133 13.236 681.869 12.98 681.669 12.66C681.477 12.34 681.381 11.984 681.381 11.592C681.381 11.2 681.477 10.844 681.669 10.524C681.869 10.204 682.133 9.952 682.461 9.768C682.797 9.576 683.161 9.48 683.553 9.48C683.953 9.48 684.317 9.576 684.645 9.768C684.981 9.952 685.245 10.204 685.437 10.524C685.637 10.844 685.737 11.2 685.737 11.592C685.737 11.984 685.637 12.34 685.437 12.66C685.245 12.98 684.981 13.236 684.645 13.428C684.317 13.612 683.953 13.704 683.553 13.704ZM683.553 12.624C683.849 12.624 684.093 12.528 684.285 12.336C684.477 12.136 684.573 11.888 684.573 11.592C684.573 11.304 684.477 11.064 684.285 10.872C684.093 10.672 683.849 10.572 683.553 10.572C683.265 10.572 683.025 10.672 682.833 10.872C682.641 11.064 682.545 11.304 682.545 11.592C682.545 11.888 682.641 12.136 682.833 12.336C683.025 12.528 683.265 12.624 683.553 12.624ZM691.206 18.168C690.326 18.168 689.534 17.984 688.83 17.616C688.134 17.24 687.586 16.72 687.186 16.056C686.786 15.392 686.586 14.64 686.586 13.8C686.586 12.96 686.786 12.208 687.186 11.544C687.586 10.88 688.134 10.364 688.83 9.996C689.534 9.62 690.326 9.432 691.206 9.432C691.974 9.432 692.666 9.568 693.282 9.84C693.898 10.112 694.41 10.504 694.818 11.016L693.306 12.384C692.762 11.728 692.102 11.4 691.326 11.4C690.87 11.4 690.462 11.5 690.102 11.7C689.75 11.9 689.474 12.184 689.274 12.552C689.082 12.912 688.986 13.328 688.986 13.8C688.986 14.272 689.082 14.692 689.274 15.06C689.474 15.42 689.75 15.7 690.102 15.9C690.462 16.1 690.87 16.2 691.326 16.2C692.102 16.2 692.762 15.872 693.306 15.216L694.818 16.584C694.41 17.096 693.898 17.488 693.282 17.76C692.666 18.032 691.974 18.168 691.206 18.168Z" fill="#2E2E2E"/>
<path opacity="0.5" d="M442.304 27.116V29H435.764V27.512L438.908 24.572C439.212 24.284 439.416 24.04 439.52 23.84C439.624 23.632 439.676 23.424 439.676 23.216C439.676 22.944 439.584 22.732 439.4 22.58C439.216 22.428 438.948 22.352 438.596 22.352C438.284 22.352 437.996 22.424 437.732 22.568C437.476 22.704 437.264 22.904 437.096 23.168L435.332 22.184C435.66 21.64 436.12 21.212 436.712 20.9C437.304 20.588 438.004 20.432 438.812 20.432C439.452 20.432 440.016 20.536 440.504 20.744C441 20.952 441.384 21.252 441.656 21.644C441.936 22.028 442.076 22.476 442.076 22.988C442.076 23.444 441.976 23.876 441.776 24.284C441.584 24.684 441.208 25.14 440.648 25.652L439.064 27.116H442.304ZM449.044 24.572C449.428 24.796 449.724 25.072 449.932 25.4C450.14 25.728 450.244 26.104 450.244 26.528C450.244 27.056 450.092 27.52 449.788 27.92C449.484 28.32 449.056 28.628 448.504 28.844C447.952 29.06 447.316 29.168 446.596 29.168C445.876 29.168 445.24 29.06 444.688 28.844C444.136 28.628 443.708 28.32 443.404 27.92C443.1 27.52 442.948 27.056 442.948 26.528C442.948 26.104 443.052 25.728 443.26 25.4C443.468 25.072 443.764 24.796 444.148 24.572C443.86 24.372 443.636 24.128 443.476 23.84C443.324 23.552 443.248 23.232 443.248 22.88C443.248 22.392 443.388 21.964 443.668 21.596C443.948 21.22 444.34 20.932 444.844 20.732C445.356 20.532 445.94 20.432 446.596 20.432C447.252 20.432 447.832 20.532 448.336 20.732C448.848 20.932 449.244 21.22 449.524 21.596C449.804 21.964 449.944 22.392 449.944 22.88C449.944 23.232 449.864 23.552 449.704 23.84C449.552 24.128 449.332 24.372 449.044 24.572ZM446.596 22.1C446.3 22.1 446.06 22.18 445.876 22.34C445.692 22.492 445.6 22.708 445.6 22.988C445.6 23.26 445.688 23.476 445.864 23.636C446.048 23.788 446.292 23.864 446.596 23.864C446.9 23.864 447.144 23.788 447.328 23.636C447.512 23.476 447.604 23.26 447.604 22.988C447.604 22.708 447.512 22.492 447.328 22.34C447.144 22.18 446.9 22.1 446.596 22.1ZM446.596 27.5C446.98 27.5 447.284 27.408 447.508 27.224C447.74 27.032 447.856 26.776 447.856 26.456C447.856 26.136 447.74 25.884 447.508 25.7C447.284 25.508 446.98 25.412 446.596 25.412C446.212 25.412 445.904 25.508 445.672 25.7C445.448 25.884 445.336 26.136 445.336 26.456C445.336 26.776 445.448 27.032 445.672 27.224C445.904 27.408 446.212 27.5 446.596 27.5ZM453.111 24.704C452.719 24.704 452.355 24.612 452.019 24.428C451.691 24.236 451.427 23.98 451.227 23.66C451.035 23.34 450.939 22.984 450.939 22.592C450.939 22.2 451.035 21.844 451.227 21.524C451.427 21.204 451.691 20.952 452.019 20.768C452.355 20.576 452.719 20.48 453.111 20.48C453.511 20.48 453.875 20.576 454.203 20.768C454.539 20.952 454.803 21.204 454.995 21.524C455.195 21.844 455.295 22.2 455.295 22.592C455.295 22.984 455.195 23.34 454.995 23.66C454.803 23.98 454.539 24.236 454.203 24.428C453.875 24.612 453.511 24.704 453.111 24.704ZM453.111 23.624C453.407 23.624 453.651 23.528 453.843 23.336C454.035 23.136 454.131 22.888 454.131 22.592C454.131 22.304 454.035 22.064 453.843 21.872C453.651 21.672 453.407 21.572 453.111 21.572C452.823 21.572 452.583 21.672 452.391 21.872C452.199 22.064 452.103 22.304 452.103 22.592C452.103 22.888 452.199 23.136 452.391 23.336C452.583 23.528 452.823 23.624 453.111 23.624ZM460.764 29.168C459.884 29.168 459.092 28.984 458.388 28.616C457.692 28.24 457.144 27.72 456.744 27.056C456.344 26.392 456.144 25.64 456.144 24.8C456.144 23.96 456.344 23.208 456.744 22.544C457.144 21.88 457.692 21.364 458.388 20.996C459.092 20.62 459.884 20.432 460.764 20.432C461.532 20.432 462.224 20.568 462.84 20.84C463.456 21.112 463.968 21.504 464.376 22.016L462.864 23.384C462.32 22.728 461.66 22.4 460.884 22.4C460.428 22.4 460.02 22.5 459.66 22.7C459.308 22.9 459.032 23.184 458.832 23.552C458.64 23.912 458.544 24.328 458.544 24.8C458.544 25.272 458.64 25.692 458.832 26.06C459.032 26.42 459.308 26.7 459.66 26.9C460.02 27.1 460.428 27.2 460.884 27.2C461.66 27.2 462.32 26.872 462.864 26.216L464.376 27.584C463.968 28.096 463.456 28.488 462.84 28.76C462.224 29.032 461.532 29.168 460.764 29.168Z" fill="#2E2E2E"/>
<path opacity="0.5" d="M500.457 41.116V43H493.917V41.512L497.061 38.572C497.365 38.284 497.569 38.04 497.673 37.84C497.777 37.632 497.829 37.424 497.829 37.216C497.829 36.944 497.737 36.732 497.553 36.58C497.369 36.428 497.101 36.352 496.749 36.352C496.437 36.352 496.149 36.424 495.885 36.568C495.629 36.704 495.417 36.904 495.249 37.168L493.485 36.184C493.813 35.64 494.273 35.212 494.865 34.9C495.457 34.588 496.157 34.432 496.965 34.432C497.605 34.432 498.169 34.536 498.657 34.744C499.153 34.952 499.537 35.252 499.809 35.644C500.089 36.028 500.229 36.476 500.229 36.988C500.229 37.444 500.129 37.876 499.929 38.284C499.737 38.684 499.361 39.14 498.801 39.652L497.217 41.116H500.457ZM507.965 34.6V36.088L505.001 43H502.409L505.241 36.484H503.033V37.78H501.005V34.6H507.965ZM510.959 38.704C510.567 38.704 510.203 38.612 509.867 38.428C509.539 38.236 509.275 37.98 509.075 37.66C508.883 37.34 508.787 36.984 508.787 36.592C508.787 36.2 508.883 35.844 509.075 35.524C509.275 35.204 509.539 34.952 509.867 34.768C510.203 34.576 510.567 34.48 510.959 34.48C511.359 34.48 511.723 34.576 512.051 34.768C512.387 34.952 512.651 35.204 512.843 35.524C513.043 35.844 513.143 36.2 513.143 36.592C513.143 36.984 513.043 37.34 512.843 37.66C512.651 37.98 512.387 38.236 512.051 38.428C511.723 38.612 511.359 38.704 510.959 38.704ZM510.959 37.624C511.255 37.624 511.499 37.528 511.691 37.336C511.883 37.136 511.979 36.888 511.979 36.592C511.979 36.304 511.883 36.064 511.691 35.872C511.499 35.672 511.255 35.572 510.959 35.572C510.671 35.572 510.431 35.672 510.239 35.872C510.047 36.064 509.951 36.304 509.951 36.592C509.951 36.888 510.047 37.136 510.239 37.336C510.431 37.528 510.671 37.624 510.959 37.624ZM518.612 43.168C517.732 43.168 516.94 42.984 516.236 42.616C515.54 42.24 514.992 41.72 514.592 41.056C514.192 40.392 513.992 39.64 513.992 38.8C513.992 37.96 514.192 37.208 514.592 36.544C514.992 35.88 515.54 35.364 516.236 34.996C516.94 34.62 517.732 34.432 518.612 34.432C519.38 34.432 520.072 34.568 520.688 34.84C521.304 35.112 521.816 35.504 522.224 36.016L520.712 37.384C520.168 36.728 519.508 36.4 518.732 36.4C518.276 36.4 517.868 36.5 517.508 36.7C517.156 36.9 516.88 37.184 516.68 37.552C516.488 37.912 516.392 38.328 516.392 38.8C516.392 39.272 516.488 39.692 516.68 40.06C516.88 40.42 517.156 40.7 517.508 40.9C517.868 41.1 518.276 41.2 518.732 41.2C519.508 41.2 520.168 40.872 520.712 40.216L522.224 41.584C521.816 42.096 521.304 42.488 520.688 42.76C520.072 43.032 519.38 43.168 518.612 43.168Z" fill="#2E2E2E"/>
<path opacity="0.5" d="M558.416 36.116V38H551.876V36.512L555.02 33.572C555.324 33.284 555.528 33.04 555.632 32.84C555.736 32.632 555.788 32.424 555.788 32.216C555.788 31.944 555.696 31.732 555.512 31.58C555.328 31.428 555.06 31.352 554.708 31.352C554.396 31.352 554.108 31.424 553.844 31.568C553.588 31.704 553.376 31.904 553.208 32.168L551.444 31.184C551.772 30.64 552.232 30.212 552.824 29.9C553.416 29.588 554.116 29.432 554.924 29.432C555.564 29.432 556.128 29.536 556.616 29.744C557.112 29.952 557.496 30.252 557.768 30.644C558.048 31.028 558.188 31.476 558.188 31.988C558.188 32.444 558.088 32.876 557.888 33.284C557.696 33.684 557.32 34.14 556.76 34.652L555.176 36.116H558.416ZM562.179 29.432C563.387 29.432 564.339 29.788 565.035 30.5C565.731 31.212 566.079 32.236 566.079 33.572C566.079 34.532 565.891 35.36 565.515 36.056C565.147 36.744 564.623 37.268 563.943 37.628C563.271 37.988 562.491 38.168 561.603 38.168C561.131 38.168 560.679 38.112 560.247 38C559.815 37.896 559.447 37.748 559.143 37.556L560.007 35.852C560.415 36.14 560.931 36.284 561.555 36.284C562.155 36.284 562.639 36.12 563.007 35.792C563.383 35.456 563.603 34.972 563.667 34.34C563.187 34.748 562.559 34.952 561.783 34.952C561.255 34.952 560.771 34.844 560.331 34.628C559.891 34.404 559.539 34.092 559.275 33.692C559.019 33.284 558.891 32.82 558.891 32.3C558.891 31.732 559.035 31.232 559.323 30.8C559.619 30.36 560.015 30.024 560.511 29.792C561.015 29.552 561.571 29.432 562.179 29.432ZM562.347 33.248C562.691 33.248 562.971 33.152 563.187 32.96C563.403 32.76 563.511 32.5 563.511 32.18C563.511 31.868 563.403 31.616 563.187 31.424C562.979 31.224 562.695 31.124 562.335 31.124C561.999 31.124 561.723 31.22 561.507 31.412C561.299 31.604 561.195 31.864 561.195 32.192C561.195 32.512 561.299 32.768 561.507 32.96C561.723 33.152 562.003 33.248 562.347 33.248ZM569 33.704C568.608 33.704 568.244 33.612 567.908 33.428C567.58 33.236 567.316 32.98 567.116 32.66C566.924 32.34 566.828 31.984 566.828 31.592C566.828 31.2 566.924 30.844 567.116 30.524C567.316 30.204 567.58 29.952 567.908 29.768C568.244 29.576 568.608 29.48 569 29.48C569.4 29.48 569.764 29.576 570.092 29.768C570.428 29.952 570.692 30.204 570.884 30.524C571.084 30.844 571.184 31.2 571.184 31.592C571.184 31.984 571.084 32.34 570.884 32.66C570.692 32.98 570.428 33.236 570.092 33.428C569.764 33.612 569.4 33.704 569 33.704ZM569 32.624C569.296 32.624 569.54 32.528 569.732 32.336C569.924 32.136 570.02 31.888 570.02 31.592C570.02 31.304 569.924 31.064 569.732 30.872C569.54 30.672 569.296 30.572 569 30.572C568.712 30.572 568.472 30.672 568.28 30.872C568.088 31.064 567.992 31.304 567.992 31.592C567.992 31.888 568.088 32.136 568.28 32.336C568.472 32.528 568.712 32.624 569 32.624ZM576.653 38.168C575.773 38.168 574.981 37.984 574.277 37.616C573.581 37.24 573.033 36.72 572.633 36.056C572.233 35.392 572.033 34.64 572.033 33.8C572.033 32.96 572.233 32.208 572.633 31.544C573.033 30.88 573.581 30.364 574.277 29.996C574.981 29.62 575.773 29.432 576.653 29.432C577.421 29.432 578.113 29.568 578.729 29.84C579.345 30.112 579.857 30.504 580.265 31.016L578.753 32.384C578.209 31.728 577.549 31.4 576.773 31.4C576.317 31.4 575.909 31.5 575.549 31.7C575.197 31.9 574.921 32.184 574.721 32.552C574.529 32.912 574.433 33.328 574.433 33.8C574.433 34.272 574.529 34.692 574.721 35.06C574.921 35.42 575.197 35.7 575.549 35.9C575.909 36.1 576.317 36.2 576.773 36.2C577.549 36.2 578.209 35.872 578.753 35.216L580.265 36.584C579.857 37.096 579.345 37.488 578.729 37.76C578.113 38.032 577.421 38.168 576.653 38.168Z" fill="#2E2E2E"/>
<defs>
<linearGradient id="paint0_linear_263_80" x1="362.5" y1="26" x2="362.5" y2="228" gradientUnits="userSpaceOnUse">
<stop stop-color="white"/>
<stop offset="1" stop-color="#E9EDC9"/>
</linearGradient>
<linearGradient id="paint1_linear_263_80" x1="32" y1="51" x2="32" y2="228" gradientUnits="userSpaceOnUse">
<stop stop-color="#CCD5AE" stop-opacity="0"/>
<stop offset="0.758333" stop-color="#CDD5AE"/>
</linearGradient>
</defs>
</svg>
