<svg width="1001" height="266" viewBox="0 0 1001 266" fill="none" xmlns="http://www.w3.org/2000/svg">
<path d="M132.276 75.131C62.375 75.131 0 97.0561 0 97.0561V228H998V47.2483C998 47.2483 965.565 31.8371 914.274 26.8464C821.826 17.851 808.922 83.5218 727.708 83.5219C668.055 83.5219 663.934 42.4879 584.395 38.7475C504.855 35.0072 468.976 129.238 340.753 128.176C244.699 127.38 186.293 75.131 132.276 75.131Z" fill="url(#paint0_linear_296_103)"/>
<path d="M2.76074 96.7648C2.76074 96.7648 63.4055 75.0421 133.229 75.0421C191.341 75.0421 245.528 127.197 341.477 127.991C469.558 129.051 505.398 34.9909 584.85 38.7245C664.302 42.458 668.418 83.4178 728.006 83.4178C809.131 83.4178 822.02 17.8657 914.367 26.8449C965.601 31.8265 998 47.2099 998 47.2099" stroke="#CCD5AE" stroke-width="5" stroke-linecap="round"/>
<path opacity="0.3" d="M2.76074 80C2.76074 63.9837 15.7445 51 31.7607 51H53.8216C69.8379 51 82.8216 63.9837 82.8216 80V228H2.76074V80Z" fill="url(#paint1_linear_296_103)"/>
<path opacity="0.5" d="M37.5173 252.6V261H35.9213L31.7333 255.9V261H29.8133V252.6H31.4213L35.5973 257.7V252.6H37.5173ZM42.4447 261.096C41.7647 261.096 41.1527 260.956 40.6087 260.676C40.0727 260.388 39.6527 259.992 39.3487 259.488C39.0447 258.984 38.8927 258.412 38.8927 257.772C38.8927 257.132 39.0447 256.56 39.3487 256.056C39.6527 255.552 40.0727 255.16 40.6087 254.88C41.1527 254.592 41.7647 254.448 42.4447 254.448C43.1247 254.448 43.7327 254.592 44.2687 254.88C44.8047 255.16 45.2247 255.552 45.5287 256.056C45.8327 256.56 45.9847 257.132 45.9847 257.772C45.9847 258.412 45.8327 258.984 45.5287 259.488C45.2247 259.992 44.8047 260.388 44.2687 260.676C43.7327 260.956 43.1247 261.096 42.4447 261.096ZM42.4447 259.56C42.9247 259.56 43.3167 259.4 43.6207 259.08C43.9327 258.752 44.0887 258.316 44.0887 257.772C44.0887 257.228 43.9327 256.796 43.6207 256.476C43.3167 256.148 42.9247 255.984 42.4447 255.984C41.9647 255.984 41.5687 256.148 41.2567 256.476C40.9447 256.796 40.7887 257.228 40.7887 257.772C40.7887 258.316 40.9447 258.752 41.2567 259.08C41.5687 259.4 41.9647 259.56 42.4447 259.56ZM57.4282 254.544L55.0882 261H53.2882L51.8362 256.992L50.3362 261H48.5362L46.2082 254.544H47.9722L49.4962 258.912L51.0802 254.544H52.6642L54.2002 258.912L55.7722 254.544H57.4282Z" fill="#2E2E2E"/>
<path opacity="0.5" d="M125.214 259.68V261H119.022V259.956L122.358 256.788C122.734 256.428 122.986 256.116 123.114 255.852C123.25 255.58 123.318 255.312 123.318 255.048C123.318 254.656 123.186 254.356 122.922 254.148C122.658 253.94 122.27 253.836 121.758 253.836C120.902 253.836 120.246 254.128 119.79 254.712L118.698 253.872C119.026 253.432 119.466 253.092 120.018 252.852C120.578 252.604 121.202 252.48 121.89 252.48C122.802 252.48 123.53 252.696 124.074 253.128C124.618 253.56 124.89 254.148 124.89 254.892C124.89 255.348 124.794 255.776 124.602 256.176C124.41 256.576 124.042 257.032 123.498 257.544L121.254 259.68H125.214ZM129.691 256.068C130.467 256.164 131.059 256.428 131.467 256.86C131.875 257.292 132.079 257.832 132.079 258.48C132.079 258.968 131.955 259.412 131.707 259.812C131.459 260.212 131.083 260.532 130.579 260.772C130.083 261.004 129.475 261.12 128.755 261.12C128.155 261.12 127.575 261.036 127.015 260.868C126.463 260.692 125.991 260.452 125.599 260.148L126.271 258.936C126.575 259.192 126.943 259.396 127.375 259.548C127.815 259.692 128.267 259.764 128.731 259.764C129.283 259.764 129.715 259.652 130.027 259.428C130.347 259.196 130.507 258.884 130.507 258.492C130.507 258.1 130.355 257.796 130.051 257.58C129.755 257.356 129.299 257.244 128.683 257.244H127.915V256.176L129.823 253.908H126.007V252.6H131.731V253.644L129.691 256.068ZM134.035 256.512C133.763 256.512 133.531 256.42 133.339 256.236C133.147 256.044 133.051 255.804 133.051 255.516C133.051 255.22 133.143 254.98 133.327 254.796C133.519 254.612 133.755 254.52 134.035 254.52C134.315 254.52 134.547 254.612 134.731 254.796C134.923 254.98 135.019 255.22 135.019 255.516C135.019 255.804 134.923 256.044 134.731 256.236C134.539 256.42 134.307 256.512 134.035 256.512ZM134.035 261.084C133.763 261.084 133.531 260.992 133.339 260.808C133.147 260.616 133.051 260.376 133.051 260.088C133.051 259.792 133.143 259.552 133.327 259.368C133.519 259.184 133.755 259.092 134.035 259.092C134.315 259.092 134.547 259.184 134.731 259.368C134.923 259.552 135.019 259.792 135.019 260.088C135.019 260.376 134.923 260.616 134.731 260.808C134.539 260.992 134.307 261.084 134.035 261.084ZM139.533 261.12C138.861 261.12 138.261 260.952 137.733 260.616C137.205 260.272 136.789 259.776 136.485 259.128C136.181 258.472 136.029 257.696 136.029 256.8C136.029 255.904 136.181 255.132 136.485 254.484C136.789 253.828 137.205 253.332 137.733 252.996C138.261 252.652 138.861 252.48 139.533 252.48C140.205 252.48 140.805 252.652 141.333 252.996C141.869 253.332 142.289 253.828 142.593 254.484C142.897 255.132 143.049 255.904 143.049 256.8C143.049 257.696 142.897 258.472 142.593 259.128C142.289 259.776 141.869 260.272 141.333 260.616C140.805 260.952 140.205 261.12 139.533 261.12ZM139.533 259.764C140.133 259.764 140.605 259.516 140.949 259.02C141.301 258.524 141.477 257.784 141.477 256.8C141.477 255.816 141.301 255.076 140.949 254.58C140.605 254.084 140.133 253.836 139.533 253.836C138.941 253.836 138.469 254.084 138.117 254.58C137.773 255.076 137.601 255.816 137.601 256.8C137.601 257.784 137.773 258.524 138.117 259.02C138.469 259.516 138.941 259.764 139.533 259.764ZM147.607 261.12C146.935 261.12 146.335 260.952 145.807 260.616C145.279 260.272 144.863 259.776 144.559 259.128C144.255 258.472 144.103 257.696 144.103 256.8C144.103 255.904 144.255 255.132 144.559 254.484C144.863 253.828 145.279 253.332 145.807 252.996C146.335 252.652 146.935 252.48 147.607 252.48C148.279 252.48 148.879 252.652 149.407 252.996C149.943 253.332 150.363 253.828 150.667 254.484C150.971 255.132 151.123 255.904 151.123 256.8C151.123 257.696 150.971 258.472 150.667 259.128C150.363 259.776 149.943 260.272 149.407 260.616C148.879 260.952 148.279 261.12 147.607 261.12ZM147.607 259.764C148.207 259.764 148.679 259.516 149.023 259.02C149.375 258.524 149.551 257.784 149.551 256.8C149.551 255.816 149.375 255.076 149.023 254.58C148.679 254.084 148.207 253.836 147.607 253.836C147.015 253.836 146.543 254.084 146.191 254.58C145.847 255.076 145.675 255.816 145.675 256.8C145.675 257.784 145.847 258.524 146.191 259.02C146.543 259.516 147.015 259.764 147.607 259.764Z" fill="#2E2E2E"/>
<path opacity="0.5" d="M203.326 261.12C202.654 261.12 202.054 260.952 201.526 260.616C200.998 260.272 200.582 259.776 200.278 259.128C199.974 258.472 199.822 257.696 199.822 256.8C199.822 255.904 199.974 255.132 200.278 254.484C200.582 253.828 200.998 253.332 201.526 252.996C202.054 252.652 202.654 252.48 203.326 252.48C203.998 252.48 204.598 252.652 205.126 252.996C205.662 253.332 206.082 253.828 206.386 254.484C206.69 255.132 206.842 255.904 206.842 256.8C206.842 257.696 206.69 258.472 206.386 259.128C206.082 259.776 205.662 260.272 205.126 260.616C204.598 260.952 203.998 261.12 203.326 261.12ZM203.326 259.764C203.926 259.764 204.398 259.516 204.742 259.02C205.094 258.524 205.27 257.784 205.27 256.8C205.27 255.816 205.094 255.076 204.742 254.58C204.398 254.084 203.926 253.836 203.326 253.836C202.734 253.836 202.262 254.084 201.91 254.58C201.566 255.076 201.394 255.816 201.394 256.8C201.394 257.784 201.566 258.524 201.91 259.02C202.262 259.516 202.734 259.764 203.326 259.764ZM210.741 252.6V261H209.181V253.908H207.405V252.6H210.741ZM213.344 256.512C213.072 256.512 212.84 256.42 212.648 256.236C212.456 256.044 212.36 255.804 212.36 255.516C212.36 255.22 212.452 254.98 212.636 254.796C212.828 254.612 213.064 254.52 213.344 254.52C213.624 254.52 213.856 254.612 214.04 254.796C214.232 254.98 214.328 255.22 214.328 255.516C214.328 255.804 214.232 256.044 214.04 256.236C213.848 256.42 213.616 256.512 213.344 256.512ZM213.344 261.084C213.072 261.084 212.84 260.992 212.648 260.808C212.456 260.616 212.36 260.376 212.36 260.088C212.36 259.792 212.452 259.552 212.636 259.368C212.828 259.184 213.064 259.092 213.344 259.092C213.624 259.092 213.856 259.184 214.04 259.368C214.232 259.552 214.328 259.792 214.328 260.088C214.328 260.376 214.232 260.616 214.04 260.808C213.848 260.992 213.616 261.084 213.344 261.084ZM218.841 261.12C218.169 261.12 217.569 260.952 217.041 260.616C216.513 260.272 216.097 259.776 215.793 259.128C215.489 258.472 215.337 257.696 215.337 256.8C215.337 255.904 215.489 255.132 215.793 254.484C216.097 253.828 216.513 253.332 217.041 252.996C217.569 252.652 218.169 252.48 218.841 252.48C219.513 252.48 220.113 252.652 220.641 252.996C221.177 253.332 221.597 253.828 221.901 254.484C222.205 255.132 222.357 255.904 222.357 256.8C222.357 257.696 222.205 258.472 221.901 259.128C221.597 259.776 221.177 260.272 220.641 260.616C220.113 260.952 219.513 261.12 218.841 261.12ZM218.841 259.764C219.441 259.764 219.913 259.516 220.257 259.02C220.609 258.524 220.785 257.784 220.785 256.8C220.785 255.816 220.609 255.076 220.257 254.58C219.913 254.084 219.441 253.836 218.841 253.836C218.249 253.836 217.777 254.084 217.425 254.58C217.081 255.076 216.909 255.816 216.909 256.8C216.909 257.784 217.081 258.524 217.425 259.02C217.777 259.516 218.249 259.764 218.841 259.764ZM226.916 261.12C226.244 261.12 225.644 260.952 225.116 260.616C224.588 260.272 224.172 259.776 223.868 259.128C223.564 258.472 223.412 257.696 223.412 256.8C223.412 255.904 223.564 255.132 223.868 254.484C224.172 253.828 224.588 253.332 225.116 252.996C225.644 252.652 226.244 252.48 226.916 252.48C227.588 252.48 228.188 252.652 228.716 252.996C229.252 253.332 229.672 253.828 229.976 254.484C230.28 255.132 230.432 255.904 230.432 256.8C230.432 257.696 230.28 258.472 229.976 259.128C229.672 259.776 229.252 260.272 228.716 260.616C228.188 260.952 227.588 261.12 226.916 261.12ZM226.916 259.764C227.516 259.764 227.988 259.516 228.332 259.02C228.684 258.524 228.86 257.784 228.86 256.8C228.86 255.816 228.684 255.076 228.332 254.58C227.988 254.084 227.516 253.836 226.916 253.836C226.324 253.836 225.852 254.084 225.5 254.58C225.156 255.076 224.984 255.816 224.984 256.8C224.984 257.784 225.156 258.524 225.5 259.02C225.852 259.516 226.324 259.764 226.916 259.764Z" fill="#2E2E2E"/>
<path opacity="0.5" d="M282.148 261.12C281.476 261.12 280.876 260.952 280.348 260.616C279.82 260.272 279.404 259.776 279.1 259.128C278.796 258.472 278.644 257.696 278.644 256.8C278.644 255.904 278.796 255.132 279.1 254.484C279.404 253.828 279.82 253.332 280.348 252.996C280.876 252.652 281.476 252.48 282.148 252.48C282.82 252.48 283.42 252.652 283.948 252.996C284.484 253.332 284.904 253.828 285.208 254.484C285.512 255.132 285.664 255.904 285.664 256.8C285.664 257.696 285.512 258.472 285.208 259.128C284.904 259.776 284.484 260.272 283.948 260.616C283.42 260.952 282.82 261.12 282.148 261.12ZM282.148 259.764C282.748 259.764 283.22 259.516 283.564 259.02C283.916 258.524 284.092 257.784 284.092 256.8C284.092 255.816 283.916 255.076 283.564 254.58C283.22 254.084 282.748 253.836 282.148 253.836C281.556 253.836 281.084 254.084 280.732 254.58C280.388 255.076 280.216 255.816 280.216 256.8C280.216 257.784 280.388 258.524 280.732 259.02C281.084 259.516 281.556 259.764 282.148 259.764ZM290.177 256.068C290.953 256.164 291.545 256.428 291.953 256.86C292.361 257.292 292.565 257.832 292.565 258.48C292.565 258.968 292.441 259.412 292.193 259.812C291.945 260.212 291.569 260.532 291.065 260.772C290.569 261.004 289.961 261.12 289.241 261.12C288.641 261.12 288.061 261.036 287.501 260.868C286.949 260.692 286.477 260.452 286.085 260.148L286.757 258.936C287.061 259.192 287.429 259.396 287.861 259.548C288.301 259.692 288.753 259.764 289.217 259.764C289.769 259.764 290.201 259.652 290.513 259.428C290.833 259.196 290.993 258.884 290.993 258.492C290.993 258.1 290.841 257.796 290.537 257.58C290.241 257.356 289.785 257.244 289.169 257.244H288.401V256.176L290.309 253.908H286.493V252.6H292.217V253.644L290.177 256.068ZM294.522 256.512C294.25 256.512 294.018 256.42 293.826 256.236C293.634 256.044 293.538 255.804 293.538 255.516C293.538 255.22 293.63 254.98 293.814 254.796C294.006 254.612 294.242 254.52 294.522 254.52C294.802 254.52 295.034 254.612 295.218 254.796C295.41 254.98 295.506 255.22 295.506 255.516C295.506 255.804 295.41 256.044 295.218 256.236C295.026 256.42 294.794 256.512 294.522 256.512ZM294.522 261.084C294.25 261.084 294.018 260.992 293.826 260.808C293.634 260.616 293.538 260.376 293.538 260.088C293.538 259.792 293.63 259.552 293.814 259.368C294.006 259.184 294.242 259.092 294.522 259.092C294.802 259.092 295.034 259.184 295.218 259.368C295.41 259.552 295.506 259.792 295.506 260.088C295.506 260.376 295.41 260.616 295.218 260.808C295.026 260.992 294.794 261.084 294.522 261.084ZM300.019 261.12C299.347 261.12 298.747 260.952 298.219 260.616C297.691 260.272 297.275 259.776 296.971 259.128C296.667 258.472 296.515 257.696 296.515 256.8C296.515 255.904 296.667 255.132 296.971 254.484C297.275 253.828 297.691 253.332 298.219 252.996C298.747 252.652 299.347 252.48 300.019 252.48C300.691 252.48 301.291 252.652 301.819 252.996C302.355 253.332 302.775 253.828 303.079 254.484C303.383 255.132 303.535 255.904 303.535 256.8C303.535 257.696 303.383 258.472 303.079 259.128C302.775 259.776 302.355 260.272 301.819 260.616C301.291 260.952 300.691 261.12 300.019 261.12ZM300.019 259.764C300.619 259.764 301.091 259.516 301.435 259.02C301.787 258.524 301.963 257.784 301.963 256.8C301.963 255.816 301.787 255.076 301.435 254.58C301.091 254.084 300.619 253.836 300.019 253.836C299.427 253.836 298.955 254.084 298.603 254.58C298.259 255.076 298.087 255.816 298.087 256.8C298.087 257.784 298.259 258.524 298.603 259.02C298.955 259.516 299.427 259.764 300.019 259.764ZM308.093 261.12C307.421 261.12 306.821 260.952 306.293 260.616C305.765 260.272 305.349 259.776 305.045 259.128C304.741 258.472 304.589 257.696 304.589 256.8C304.589 255.904 304.741 255.132 305.045 254.484C305.349 253.828 305.765 253.332 306.293 252.996C306.821 252.652 307.421 252.48 308.093 252.48C308.765 252.48 309.365 252.652 309.893 252.996C310.429 253.332 310.849 253.828 311.153 254.484C311.457 255.132 311.609 255.904 311.609 256.8C311.609 257.696 311.457 258.472 311.153 259.128C310.849 259.776 310.429 260.272 309.893 260.616C309.365 260.952 308.765 261.12 308.093 261.12ZM308.093 259.764C308.693 259.764 309.165 259.516 309.509 259.02C309.861 258.524 310.037 257.784 310.037 256.8C310.037 255.816 309.861 255.076 309.509 254.58C309.165 254.084 308.693 253.836 308.093 253.836C307.501 253.836 307.029 254.084 306.677 254.58C306.333 255.076 306.161 255.816 306.161 256.8C306.161 257.784 306.333 258.524 306.677 259.02C307.029 259.516 307.501 259.764 308.093 259.764Z" fill="#2E2E2E"/>
<path opacity="0.5" d="M362.078 261.12C361.406 261.12 360.806 260.952 360.278 260.616C359.75 260.272 359.334 259.776 359.03 259.128C358.726 258.472 358.574 257.696 358.574 256.8C358.574 255.904 358.726 255.132 359.03 254.484C359.334 253.828 359.75 253.332 360.278 252.996C360.806 252.652 361.406 252.48 362.078 252.48C362.75 252.48 363.35 252.652 363.878 252.996C364.414 253.332 364.834 253.828 365.138 254.484C365.442 255.132 365.594 255.904 365.594 256.8C365.594 257.696 365.442 258.472 365.138 259.128C364.834 259.776 364.414 260.272 363.878 260.616C363.35 260.952 362.75 261.12 362.078 261.12ZM362.078 259.764C362.678 259.764 363.15 259.516 363.494 259.02C363.846 258.524 364.022 257.784 364.022 256.8C364.022 255.816 363.846 255.076 363.494 254.58C363.15 254.084 362.678 253.836 362.078 253.836C361.486 253.836 361.014 254.084 360.662 254.58C360.318 255.076 360.146 255.816 360.146 256.8C360.146 257.784 360.318 258.524 360.662 259.02C361.014 259.516 361.486 259.764 362.078 259.764ZM369.276 255.852C370.46 255.852 371.336 256.084 371.904 256.548C372.472 257.004 372.756 257.628 372.756 258.42C372.756 258.924 372.632 259.38 372.384 259.788C372.136 260.196 371.764 260.52 371.268 260.76C370.772 261 370.16 261.12 369.432 261.12C368.832 261.12 368.252 261.036 367.692 260.868C367.132 260.692 366.66 260.452 366.276 260.148L366.936 258.936C367.248 259.192 367.62 259.396 368.052 259.548C368.492 259.692 368.944 259.764 369.408 259.764C369.96 259.764 370.392 259.652 370.704 259.428C371.024 259.196 371.184 258.88 371.184 258.48C371.184 258.048 371.012 257.724 370.668 257.508C370.332 257.284 369.752 257.172 368.928 257.172H366.9L367.332 252.6H372.264V253.908H368.652L368.472 255.852H369.276ZM374.592 256.512C374.32 256.512 374.088 256.42 373.896 256.236C373.704 256.044 373.608 255.804 373.608 255.516C373.608 255.22 373.7 254.98 373.884 254.796C374.076 254.612 374.312 254.52 374.592 254.52C374.872 254.52 375.104 254.612 375.288 254.796C375.48 254.98 375.576 255.22 375.576 255.516C375.576 255.804 375.48 256.044 375.288 256.236C375.096 256.42 374.864 256.512 374.592 256.512ZM374.592 261.084C374.32 261.084 374.088 260.992 373.896 260.808C373.704 260.616 373.608 260.376 373.608 260.088C373.608 259.792 373.7 259.552 373.884 259.368C374.076 259.184 374.312 259.092 374.592 259.092C374.872 259.092 375.104 259.184 375.288 259.368C375.48 259.552 375.576 259.792 375.576 260.088C375.576 260.376 375.48 260.616 375.288 260.808C375.096 260.992 374.864 261.084 374.592 261.084ZM380.09 261.12C379.418 261.12 378.818 260.952 378.29 260.616C377.762 260.272 377.346 259.776 377.042 259.128C376.738 258.472 376.586 257.696 376.586 256.8C376.586 255.904 376.738 255.132 377.042 254.484C377.346 253.828 377.762 253.332 378.29 252.996C378.818 252.652 379.418 252.48 380.09 252.48C380.762 252.48 381.362 252.652 381.89 252.996C382.426 253.332 382.846 253.828 383.15 254.484C383.454 255.132 383.606 255.904 383.606 256.8C383.606 257.696 383.454 258.472 383.15 259.128C382.846 259.776 382.426 260.272 381.89 260.616C381.362 260.952 380.762 261.12 380.09 261.12ZM380.09 259.764C380.69 259.764 381.162 259.516 381.506 259.02C381.858 258.524 382.034 257.784 382.034 256.8C382.034 255.816 381.858 255.076 381.506 254.58C381.162 254.084 380.69 253.836 380.09 253.836C379.498 253.836 379.026 254.084 378.674 254.58C378.33 255.076 378.158 255.816 378.158 256.8C378.158 257.784 378.33 258.524 378.674 259.02C379.026 259.516 379.498 259.764 380.09 259.764ZM388.164 261.12C387.492 261.12 386.892 260.952 386.364 260.616C385.836 260.272 385.42 259.776 385.116 259.128C384.812 258.472 384.66 257.696 384.66 256.8C384.66 255.904 384.812 255.132 385.116 254.484C385.42 253.828 385.836 253.332 386.364 252.996C386.892 252.652 387.492 252.48 388.164 252.48C388.836 252.48 389.436 252.652 389.964 252.996C390.5 253.332 390.92 253.828 391.224 254.484C391.528 255.132 391.68 255.904 391.68 256.8C391.68 257.696 391.528 258.472 391.224 259.128C390.92 259.776 390.5 260.272 389.964 260.616C389.436 260.952 388.836 261.12 388.164 261.12ZM388.164 259.764C388.764 259.764 389.236 259.516 389.58 259.02C389.932 258.524 390.108 257.784 390.108 256.8C390.108 255.816 389.932 255.076 389.58 254.58C389.236 254.084 388.764 253.836 388.164 253.836C387.572 253.836 387.1 254.084 386.748 254.58C386.404 255.076 386.232 255.816 386.232 256.8C386.232 257.784 386.404 258.524 386.748 259.02C387.1 259.516 387.572 259.764 388.164 259.764Z" fill="#2E2E2E"/>
<path opacity="0.5" d="M442.078 261.12C441.406 261.12 440.806 260.952 440.278 260.616C439.75 260.272 439.334 259.776 439.03 259.128C438.726 258.472 438.574 257.696 438.574 256.8C438.574 255.904 438.726 255.132 439.03 254.484C439.334 253.828 439.75 253.332 440.278 252.996C440.806 252.652 441.406 252.48 442.078 252.48C442.75 252.48 443.35 252.652 443.878 252.996C444.414 253.332 444.834 253.828 445.138 254.484C445.442 255.132 445.594 255.904 445.594 256.8C445.594 257.696 445.442 258.472 445.138 259.128C444.834 259.776 444.414 260.272 443.878 260.616C443.35 260.952 442.75 261.12 442.078 261.12ZM442.078 259.764C442.678 259.764 443.15 259.516 443.494 259.02C443.846 258.524 444.022 257.784 444.022 256.8C444.022 255.816 443.846 255.076 443.494 254.58C443.15 254.084 442.678 253.836 442.078 253.836C441.486 253.836 441.014 254.084 440.662 254.58C440.318 255.076 440.146 255.816 440.146 256.8C440.146 257.784 440.318 258.524 440.662 259.02C441.014 259.516 441.486 259.764 442.078 259.764ZM452.925 252.6V253.644L449.661 261H447.993L451.149 253.92H447.849V255.348H446.397V252.6H452.925ZM454.592 256.512C454.32 256.512 454.088 256.42 453.896 256.236C453.704 256.044 453.608 255.804 453.608 255.516C453.608 255.22 453.7 254.98 453.884 254.796C454.076 254.612 454.312 254.52 454.592 254.52C454.872 254.52 455.104 254.612 455.288 254.796C455.48 254.98 455.576 255.22 455.576 255.516C455.576 255.804 455.48 256.044 455.288 256.236C455.096 256.42 454.864 256.512 454.592 256.512ZM454.592 261.084C454.32 261.084 454.088 260.992 453.896 260.808C453.704 260.616 453.608 260.376 453.608 260.088C453.608 259.792 453.7 259.552 453.884 259.368C454.076 259.184 454.312 259.092 454.592 259.092C454.872 259.092 455.104 259.184 455.288 259.368C455.48 259.552 455.576 259.792 455.576 260.088C455.576 260.376 455.48 260.616 455.288 260.808C455.096 260.992 454.864 261.084 454.592 261.084ZM460.09 261.12C459.418 261.12 458.818 260.952 458.29 260.616C457.762 260.272 457.346 259.776 457.042 259.128C456.738 258.472 456.586 257.696 456.586 256.8C456.586 255.904 456.738 255.132 457.042 254.484C457.346 253.828 457.762 253.332 458.29 252.996C458.818 252.652 459.418 252.48 460.09 252.48C460.762 252.48 461.362 252.652 461.89 252.996C462.426 253.332 462.846 253.828 463.15 254.484C463.454 255.132 463.606 255.904 463.606 256.8C463.606 257.696 463.454 258.472 463.15 259.128C462.846 259.776 462.426 260.272 461.89 260.616C461.362 260.952 460.762 261.12 460.09 261.12ZM460.09 259.764C460.69 259.764 461.162 259.516 461.506 259.02C461.858 258.524 462.034 257.784 462.034 256.8C462.034 255.816 461.858 255.076 461.506 254.58C461.162 254.084 460.69 253.836 460.09 253.836C459.498 253.836 459.026 254.084 458.674 254.58C458.33 255.076 458.158 255.816 458.158 256.8C458.158 257.784 458.33 258.524 458.674 259.02C459.026 259.516 459.498 259.764 460.09 259.764ZM468.164 261.12C467.492 261.12 466.892 260.952 466.364 260.616C465.836 260.272 465.42 259.776 465.116 259.128C464.812 258.472 464.66 257.696 464.66 256.8C464.66 255.904 464.812 255.132 465.116 254.484C465.42 253.828 465.836 253.332 466.364 252.996C466.892 252.652 467.492 252.48 468.164 252.48C468.836 252.48 469.436 252.652 469.964 252.996C470.5 253.332 470.92 253.828 471.224 254.484C471.528 255.132 471.68 255.904 471.68 256.8C471.68 257.696 471.528 258.472 471.224 259.128C470.92 259.776 470.5 260.272 469.964 260.616C469.436 260.952 468.836 261.12 468.164 261.12ZM468.164 259.764C468.764 259.764 469.236 259.516 469.58 259.02C469.932 258.524 470.108 257.784 470.108 256.8C470.108 255.816 469.932 255.076 469.58 254.58C469.236 254.084 468.764 253.836 468.164 253.836C467.572 253.836 467.1 254.084 466.748 254.58C466.404 255.076 466.232 255.816 466.232 256.8C466.232 257.784 466.404 258.524 466.748 259.02C467.1 259.516 467.572 259.764 468.164 259.764Z" fill="#2E2E2E"/>
<path opacity="0.5" d="M521.82 261.12C521.148 261.12 520.548 260.952 520.02 260.616C519.492 260.272 519.076 259.776 518.772 259.128C518.468 258.472 518.316 257.696 518.316 256.8C518.316 255.904 518.468 255.132 518.772 254.484C519.076 253.828 519.492 253.332 520.02 252.996C520.548 252.652 521.148 252.48 521.82 252.48C522.492 252.48 523.092 252.652 523.62 252.996C524.156 253.332 524.576 253.828 524.88 254.484C525.184 255.132 525.336 255.904 525.336 256.8C525.336 257.696 525.184 258.472 524.88 259.128C524.576 259.776 524.156 260.272 523.62 260.616C523.092 260.952 522.492 261.12 521.82 261.12ZM521.82 259.764C522.42 259.764 522.892 259.516 523.236 259.02C523.588 258.524 523.764 257.784 523.764 256.8C523.764 255.816 523.588 255.076 523.236 254.58C522.892 254.084 522.42 253.836 521.82 253.836C521.228 253.836 520.756 254.084 520.404 254.58C520.06 255.076 519.888 255.816 519.888 256.8C519.888 257.784 520.06 258.524 520.404 259.02C520.756 259.516 521.228 259.764 521.82 259.764ZM529.222 252.48C530.374 252.48 531.266 252.84 531.898 253.56C532.538 254.28 532.858 255.312 532.858 256.656C532.858 257.6 532.686 258.408 532.342 259.08C531.998 259.744 531.514 260.252 530.89 260.604C530.274 260.948 529.558 261.12 528.742 261.12C528.31 261.12 527.902 261.076 527.518 260.988C527.142 260.892 526.814 260.756 526.534 260.58L527.11 259.404C527.526 259.676 528.058 259.812 528.706 259.812C529.514 259.812 530.146 259.564 530.602 259.068C531.058 258.572 531.286 257.856 531.286 256.92V256.908C531.038 257.196 530.722 257.416 530.338 257.568C529.954 257.712 529.522 257.784 529.042 257.784C528.49 257.784 527.994 257.68 527.554 257.472C527.114 257.256 526.77 256.952 526.522 256.56C526.274 256.168 526.15 255.716 526.15 255.204C526.15 254.66 526.286 254.184 526.558 253.776C526.83 253.36 527.198 253.04 527.662 252.816C528.126 252.592 528.646 252.48 529.222 252.48ZM529.342 256.56C529.846 256.56 530.254 256.424 530.566 256.152C530.886 255.88 531.046 255.536 531.046 255.12C531.046 254.712 530.89 254.376 530.578 254.112C530.274 253.84 529.85 253.704 529.306 253.704C528.818 253.704 528.422 253.836 528.118 254.1C527.814 254.356 527.662 254.7 527.662 255.132C527.662 255.572 527.814 255.92 528.118 256.176C528.422 256.432 528.83 256.56 529.342 256.56ZM534.85 256.512C534.578 256.512 534.346 256.42 534.154 256.236C533.962 256.044 533.866 255.804 533.866 255.516C533.866 255.22 533.958 254.98 534.142 254.796C534.334 254.612 534.57 254.52 534.85 254.52C535.13 254.52 535.362 254.612 535.546 254.796C535.738 254.98 535.834 255.22 535.834 255.516C535.834 255.804 535.738 256.044 535.546 256.236C535.354 256.42 535.122 256.512 534.85 256.512ZM534.85 261.084C534.578 261.084 534.346 260.992 534.154 260.808C533.962 260.616 533.866 260.376 533.866 260.088C533.866 259.792 533.958 259.552 534.142 259.368C534.334 259.184 534.57 259.092 534.85 259.092C535.13 259.092 535.362 259.184 535.546 259.368C535.738 259.552 535.834 259.792 535.834 260.088C535.834 260.376 535.738 260.616 535.546 260.808C535.354 260.992 535.122 261.084 534.85 261.084ZM540.347 261.12C539.675 261.12 539.075 260.952 538.547 260.616C538.019 260.272 537.603 259.776 537.299 259.128C536.995 258.472 536.843 257.696 536.843 256.8C536.843 255.904 536.995 255.132 537.299 254.484C537.603 253.828 538.019 253.332 538.547 252.996C539.075 252.652 539.675 252.48 540.347 252.48C541.019 252.48 541.619 252.652 542.147 252.996C542.683 253.332 543.103 253.828 543.407 254.484C543.711 255.132 543.863 255.904 543.863 256.8C543.863 257.696 543.711 258.472 543.407 259.128C543.103 259.776 542.683 260.272 542.147 260.616C541.619 260.952 541.019 261.12 540.347 261.12ZM540.347 259.764C540.947 259.764 541.419 259.516 541.763 259.02C542.115 258.524 542.291 257.784 542.291 256.8C542.291 255.816 542.115 255.076 541.763 254.58C541.419 254.084 540.947 253.836 540.347 253.836C539.755 253.836 539.283 254.084 538.931 254.58C538.587 255.076 538.415 255.816 538.415 256.8C538.415 257.784 538.587 258.524 538.931 259.02C539.283 259.516 539.755 259.764 540.347 259.764ZM548.422 261.12C547.75 261.12 547.15 260.952 546.622 260.616C546.094 260.272 545.678 259.776 545.374 259.128C545.07 258.472 544.918 257.696 544.918 256.8C544.918 255.904 545.07 255.132 545.374 254.484C545.678 253.828 546.094 253.332 546.622 252.996C547.15 252.652 547.75 252.48 548.422 252.48C549.094 252.48 549.694 252.652 550.222 252.996C550.758 253.332 551.178 253.828 551.482 254.484C551.786 255.132 551.938 255.904 551.938 256.8C551.938 257.696 551.786 258.472 551.482 259.128C551.178 259.776 550.758 260.272 550.222 260.616C549.694 260.952 549.094 261.12 548.422 261.12ZM548.422 259.764C549.022 259.764 549.494 259.516 549.838 259.02C550.19 258.524 550.366 257.784 550.366 256.8C550.366 255.816 550.19 255.076 549.838 254.58C549.494 254.084 549.022 253.836 548.422 253.836C547.83 253.836 547.358 254.084 547.006 254.58C546.662 255.076 546.49 255.816 546.49 256.8C546.49 257.784 546.662 258.524 547.006 259.02C547.358 259.516 547.83 259.764 548.422 259.764Z" fill="#2E2E2E"/>
<path opacity="0.5" d="M604.448 252.6V261H602.888V253.908H601.112V252.6H604.448ZM609.019 252.6V261H607.459V253.908H605.683V252.6H609.019ZM611.621 256.512C611.349 256.512 611.117 256.42 610.925 256.236C610.733 256.044 610.637 255.804 610.637 255.516C610.637 255.22 610.729 254.98 610.913 254.796C611.105 254.612 611.341 254.52 611.621 254.52C611.901 254.52 612.133 254.612 612.317 254.796C612.509 254.98 612.605 255.22 612.605 255.516C612.605 255.804 612.509 256.044 612.317 256.236C612.125 256.42 611.893 256.512 611.621 256.512ZM611.621 261.084C611.349 261.084 611.117 260.992 610.925 260.808C610.733 260.616 610.637 260.376 610.637 260.088C610.637 259.792 610.729 259.552 610.913 259.368C611.105 259.184 611.341 259.092 611.621 259.092C611.901 259.092 612.133 259.184 612.317 259.368C612.509 259.552 612.605 259.792 612.605 260.088C612.605 260.376 612.509 260.616 612.317 260.808C612.125 260.992 611.893 261.084 611.621 261.084ZM617.119 261.12C616.447 261.12 615.847 260.952 615.319 260.616C614.791 260.272 614.375 259.776 614.071 259.128C613.767 258.472 613.615 257.696 613.615 256.8C613.615 255.904 613.767 255.132 614.071 254.484C614.375 253.828 614.791 253.332 615.319 252.996C615.847 252.652 616.447 252.48 617.119 252.48C617.791 252.48 618.391 252.652 618.919 252.996C619.455 253.332 619.875 253.828 620.179 254.484C620.483 255.132 620.635 255.904 620.635 256.8C620.635 257.696 620.483 258.472 620.179 259.128C619.875 259.776 619.455 260.272 618.919 260.616C618.391 260.952 617.791 261.12 617.119 261.12ZM617.119 259.764C617.719 259.764 618.191 259.516 618.535 259.02C618.887 258.524 619.063 257.784 619.063 256.8C619.063 255.816 618.887 255.076 618.535 254.58C618.191 254.084 617.719 253.836 617.119 253.836C616.527 253.836 616.055 254.084 615.703 254.58C615.359 255.076 615.187 255.816 615.187 256.8C615.187 257.784 615.359 258.524 615.703 259.02C616.055 259.516 616.527 259.764 617.119 259.764ZM625.193 261.12C624.521 261.12 623.921 260.952 623.393 260.616C622.865 260.272 622.449 259.776 622.145 259.128C621.841 258.472 621.689 257.696 621.689 256.8C621.689 255.904 621.841 255.132 622.145 254.484C622.449 253.828 622.865 253.332 623.393 252.996C623.921 252.652 624.521 252.48 625.193 252.48C625.865 252.48 626.465 252.652 626.993 252.996C627.529 253.332 627.949 253.828 628.253 254.484C628.557 255.132 628.709 255.904 628.709 256.8C628.709 257.696 628.557 258.472 628.253 259.128C627.949 259.776 627.529 260.272 626.993 260.616C626.465 260.952 625.865 261.12 625.193 261.12ZM625.193 259.764C625.793 259.764 626.265 259.516 626.609 259.02C626.961 258.524 627.137 257.784 627.137 256.8C627.137 255.816 626.961 255.076 626.609 254.58C626.265 254.084 625.793 253.836 625.193 253.836C624.601 253.836 624.129 254.084 623.777 254.58C623.433 255.076 623.261 255.816 623.261 256.8C623.261 257.784 623.433 258.524 623.777 259.02C624.129 259.516 624.601 259.764 625.193 259.764Z" fill="#2E2E2E"/>
<path opacity="0.5" d="M683.241 252.6V261H681.681V253.908H679.905V252.6H683.241ZM688.484 256.068C689.26 256.164 689.852 256.428 690.26 256.86C690.668 257.292 690.872 257.832 690.872 258.48C690.872 258.968 690.748 259.412 690.5 259.812C690.252 260.212 689.876 260.532 689.372 260.772C688.876 261.004 688.268 261.12 687.548 261.12C686.948 261.12 686.368 261.036 685.808 260.868C685.256 260.692 684.784 260.452 684.392 260.148L685.064 258.936C685.368 259.192 685.736 259.396 686.168 259.548C686.608 259.692 687.06 259.764 687.524 259.764C688.076 259.764 688.508 259.652 688.82 259.428C689.14 259.196 689.3 258.884 689.3 258.492C689.3 258.1 689.148 257.796 688.844 257.58C688.548 257.356 688.092 257.244 687.476 257.244H686.708V256.176L688.616 253.908H684.8V252.6H690.524V253.644L688.484 256.068ZM692.828 256.512C692.556 256.512 692.324 256.42 692.132 256.236C691.94 256.044 691.844 255.804 691.844 255.516C691.844 255.22 691.936 254.98 692.12 254.796C692.312 254.612 692.548 254.52 692.828 254.52C693.108 254.52 693.34 254.612 693.524 254.796C693.716 254.98 693.812 255.22 693.812 255.516C693.812 255.804 693.716 256.044 693.524 256.236C693.332 256.42 693.1 256.512 692.828 256.512ZM692.828 261.084C692.556 261.084 692.324 260.992 692.132 260.808C691.94 260.616 691.844 260.376 691.844 260.088C691.844 259.792 691.936 259.552 692.12 259.368C692.312 259.184 692.548 259.092 692.828 259.092C693.108 259.092 693.34 259.184 693.524 259.368C693.716 259.552 693.812 259.792 693.812 260.088C693.812 260.376 693.716 260.616 693.524 260.808C693.332 260.992 693.1 261.084 692.828 261.084ZM698.326 261.12C697.654 261.12 697.054 260.952 696.526 260.616C695.998 260.272 695.582 259.776 695.278 259.128C694.974 258.472 694.822 257.696 694.822 256.8C694.822 255.904 694.974 255.132 695.278 254.484C695.582 253.828 695.998 253.332 696.526 252.996C697.054 252.652 697.654 252.48 698.326 252.48C698.998 252.48 699.598 252.652 700.126 252.996C700.662 253.332 701.082 253.828 701.386 254.484C701.69 255.132 701.842 255.904 701.842 256.8C701.842 257.696 701.69 258.472 701.386 259.128C701.082 259.776 700.662 260.272 700.126 260.616C699.598 260.952 698.998 261.12 698.326 261.12ZM698.326 259.764C698.926 259.764 699.398 259.516 699.742 259.02C700.094 258.524 700.27 257.784 700.27 256.8C700.27 255.816 700.094 255.076 699.742 254.58C699.398 254.084 698.926 253.836 698.326 253.836C697.734 253.836 697.262 254.084 696.91 254.58C696.566 255.076 696.394 255.816 696.394 256.8C696.394 257.784 696.566 258.524 696.91 259.02C697.262 259.516 697.734 259.764 698.326 259.764ZM706.4 261.12C705.728 261.12 705.128 260.952 704.6 260.616C704.072 260.272 703.656 259.776 703.352 259.128C703.048 258.472 702.896 257.696 702.896 256.8C702.896 255.904 703.048 255.132 703.352 254.484C703.656 253.828 704.072 253.332 704.6 252.996C705.128 252.652 705.728 252.48 706.4 252.48C707.072 252.48 707.672 252.652 708.2 252.996C708.736 253.332 709.156 253.828 709.46 254.484C709.764 255.132 709.916 255.904 709.916 256.8C709.916 257.696 709.764 258.472 709.46 259.128C709.156 259.776 708.736 260.272 708.2 260.616C707.672 260.952 707.072 261.12 706.4 261.12ZM706.4 259.764C707 259.764 707.472 259.516 707.816 259.02C708.168 258.524 708.344 257.784 708.344 256.8C708.344 255.816 708.168 255.076 707.816 254.58C707.472 254.084 707 253.836 706.4 253.836C705.808 253.836 705.336 254.084 704.984 254.58C704.64 255.076 704.468 255.816 704.468 256.8C704.468 257.784 704.64 258.524 704.984 259.02C705.336 259.516 705.808 259.764 706.4 259.764Z" fill="#2E2E2E"/>
<path opacity="0.5" d="M763.23 252.6V261H761.67V253.908H759.894V252.6H763.23ZM767.524 255.852C768.708 255.852 769.584 256.084 770.152 256.548C770.72 257.004 771.004 257.628 771.004 258.42C771.004 258.924 770.88 259.38 770.632 259.788C770.384 260.196 770.012 260.52 769.516 260.76C769.02 261 768.408 261.12 767.68 261.12C767.08 261.12 766.5 261.036 765.94 260.868C765.38 260.692 764.908 260.452 764.524 260.148L765.184 258.936C765.496 259.192 765.868 259.396 766.3 259.548C766.74 259.692 767.192 259.764 767.656 259.764C768.208 259.764 768.64 259.652 768.952 259.428C769.272 259.196 769.432 258.88 769.432 258.48C769.432 258.048 769.26 257.724 768.916 257.508C768.58 257.284 768 257.172 767.176 257.172H765.148L765.58 252.6H770.512V253.908H766.9L766.72 255.852H767.524ZM772.84 256.512C772.568 256.512 772.336 256.42 772.144 256.236C771.952 256.044 771.856 255.804 771.856 255.516C771.856 255.22 771.948 254.98 772.132 254.796C772.324 254.612 772.56 254.52 772.84 254.52C773.12 254.52 773.352 254.612 773.536 254.796C773.728 254.98 773.824 255.22 773.824 255.516C773.824 255.804 773.728 256.044 773.536 256.236C773.344 256.42 773.112 256.512 772.84 256.512ZM772.84 261.084C772.568 261.084 772.336 260.992 772.144 260.808C771.952 260.616 771.856 260.376 771.856 260.088C771.856 259.792 771.948 259.552 772.132 259.368C772.324 259.184 772.56 259.092 772.84 259.092C773.12 259.092 773.352 259.184 773.536 259.368C773.728 259.552 773.824 259.792 773.824 260.088C773.824 260.376 773.728 260.616 773.536 260.808C773.344 260.992 773.112 261.084 772.84 261.084ZM778.338 261.12C777.666 261.12 777.066 260.952 776.538 260.616C776.01 260.272 775.594 259.776 775.29 259.128C774.986 258.472 774.834 257.696 774.834 256.8C774.834 255.904 774.986 255.132 775.29 254.484C775.594 253.828 776.01 253.332 776.538 252.996C777.066 252.652 777.666 252.48 778.338 252.48C779.01 252.48 779.61 252.652 780.138 252.996C780.674 253.332 781.094 253.828 781.398 254.484C781.702 255.132 781.854 255.904 781.854 256.8C781.854 257.696 781.702 258.472 781.398 259.128C781.094 259.776 780.674 260.272 780.138 260.616C779.61 260.952 779.01 261.12 778.338 261.12ZM778.338 259.764C778.938 259.764 779.41 259.516 779.754 259.02C780.106 258.524 780.282 257.784 780.282 256.8C780.282 255.816 780.106 255.076 779.754 254.58C779.41 254.084 778.938 253.836 778.338 253.836C777.746 253.836 777.274 254.084 776.922 254.58C776.578 255.076 776.406 255.816 776.406 256.8C776.406 257.784 776.578 258.524 776.922 259.02C777.274 259.516 777.746 259.764 778.338 259.764ZM786.412 261.12C785.74 261.12 785.14 260.952 784.612 260.616C784.084 260.272 783.668 259.776 783.364 259.128C783.06 258.472 782.908 257.696 782.908 256.8C782.908 255.904 783.06 255.132 783.364 254.484C783.668 253.828 784.084 253.332 784.612 252.996C785.14 252.652 785.74 252.48 786.412 252.48C787.084 252.48 787.684 252.652 788.212 252.996C788.748 253.332 789.168 253.828 789.472 254.484C789.776 255.132 789.928 255.904 789.928 256.8C789.928 257.696 789.776 258.472 789.472 259.128C789.168 259.776 788.748 260.272 788.212 260.616C787.684 260.952 787.084 261.12 786.412 261.12ZM786.412 259.764C787.012 259.764 787.484 259.516 787.828 259.02C788.18 258.524 788.356 257.784 788.356 256.8C788.356 255.816 788.18 255.076 787.828 254.58C787.484 254.084 787.012 253.836 786.412 253.836C785.82 253.836 785.348 254.084 784.996 254.58C784.652 255.076 784.48 255.816 784.48 256.8C784.48 257.784 784.652 258.524 784.996 259.02C785.348 259.516 785.82 259.764 786.412 259.764Z" fill="#2E2E2E"/>
<path opacity="0.5" d="M843.2 252.6V261H841.64V253.908H839.864V252.6H843.2ZM851.203 252.6V253.644L847.939 261H846.271L849.427 253.92H846.127V255.348H844.675V252.6H851.203ZM852.869 256.512C852.597 256.512 852.365 256.42 852.173 256.236C851.981 256.044 851.885 255.804 851.885 255.516C851.885 255.22 851.977 254.98 852.161 254.796C852.353 254.612 852.589 254.52 852.869 254.52C853.149 254.52 853.381 254.612 853.565 254.796C853.757 254.98 853.853 255.22 853.853 255.516C853.853 255.804 853.757 256.044 853.565 256.236C853.373 256.42 853.141 256.512 852.869 256.512ZM852.869 261.084C852.597 261.084 852.365 260.992 852.173 260.808C851.981 260.616 851.885 260.376 851.885 260.088C851.885 259.792 851.977 259.552 852.161 259.368C852.353 259.184 852.589 259.092 852.869 259.092C853.149 259.092 853.381 259.184 853.565 259.368C853.757 259.552 853.853 259.792 853.853 260.088C853.853 260.376 853.757 260.616 853.565 260.808C853.373 260.992 853.141 261.084 852.869 261.084ZM858.367 261.12C857.695 261.12 857.095 260.952 856.567 260.616C856.039 260.272 855.623 259.776 855.319 259.128C855.015 258.472 854.863 257.696 854.863 256.8C854.863 255.904 855.015 255.132 855.319 254.484C855.623 253.828 856.039 253.332 856.567 252.996C857.095 252.652 857.695 252.48 858.367 252.48C859.039 252.48 859.639 252.652 860.167 252.996C860.703 253.332 861.123 253.828 861.427 254.484C861.731 255.132 861.883 255.904 861.883 256.8C861.883 257.696 861.731 258.472 861.427 259.128C861.123 259.776 860.703 260.272 860.167 260.616C859.639 260.952 859.039 261.12 858.367 261.12ZM858.367 259.764C858.967 259.764 859.439 259.516 859.783 259.02C860.135 258.524 860.311 257.784 860.311 256.8C860.311 255.816 860.135 255.076 859.783 254.58C859.439 254.084 858.967 253.836 858.367 253.836C857.775 253.836 857.303 254.084 856.951 254.58C856.607 255.076 856.435 255.816 856.435 256.8C856.435 257.784 856.607 258.524 856.951 259.02C857.303 259.516 857.775 259.764 858.367 259.764ZM866.441 261.12C865.769 261.12 865.169 260.952 864.641 260.616C864.113 260.272 863.697 259.776 863.393 259.128C863.089 258.472 862.937 257.696 862.937 256.8C862.937 255.904 863.089 255.132 863.393 254.484C863.697 253.828 864.113 253.332 864.641 252.996C865.169 252.652 865.769 252.48 866.441 252.48C867.113 252.48 867.713 252.652 868.241 252.996C868.777 253.332 869.197 253.828 869.501 254.484C869.805 255.132 869.957 255.904 869.957 256.8C869.957 257.696 869.805 258.472 869.501 259.128C869.197 259.776 868.777 260.272 868.241 260.616C867.713 260.952 867.113 261.12 866.441 261.12ZM866.441 259.764C867.041 259.764 867.513 259.516 867.857 259.02C868.209 258.524 868.385 257.784 868.385 256.8C868.385 255.816 868.209 255.076 867.857 254.58C867.513 254.084 867.041 253.836 866.441 253.836C865.849 253.836 865.377 254.084 865.025 254.58C864.681 255.076 864.509 255.816 864.509 256.8C864.509 257.784 864.681 258.524 865.025 259.02C865.377 259.516 865.849 259.764 866.441 259.764Z" fill="#2E2E2E"/>
<path opacity="0.5" d="M922.972 252.6V261H921.412V253.908H919.636V252.6H922.972ZM927.47 252.48C928.622 252.48 929.514 252.84 930.146 253.56C930.786 254.28 931.106 255.312 931.106 256.656C931.106 257.6 930.934 258.408 930.59 259.08C930.246 259.744 929.762 260.252 929.138 260.604C928.522 260.948 927.806 261.12 926.99 261.12C926.558 261.12 926.15 261.076 925.766 260.988C925.39 260.892 925.062 260.756 924.782 260.58L925.358 259.404C925.774 259.676 926.306 259.812 926.954 259.812C927.762 259.812 928.394 259.564 928.85 259.068C929.306 258.572 929.534 257.856 929.534 256.92V256.908C929.286 257.196 928.97 257.416 928.586 257.568C928.202 257.712 927.77 257.784 927.29 257.784C926.738 257.784 926.242 257.68 925.802 257.472C925.362 257.256 925.018 256.952 924.77 256.56C924.522 256.168 924.398 255.716 924.398 255.204C924.398 254.66 924.534 254.184 924.806 253.776C925.078 253.36 925.446 253.04 925.91 252.816C926.374 252.592 926.894 252.48 927.47 252.48ZM927.59 256.56C928.094 256.56 928.502 256.424 928.814 256.152C929.134 255.88 929.294 255.536 929.294 255.12C929.294 254.712 929.138 254.376 928.826 254.112C928.522 253.84 928.098 253.704 927.554 253.704C927.066 253.704 926.67 253.836 926.366 254.1C926.062 254.356 925.91 254.7 925.91 255.132C925.91 255.572 926.062 255.92 926.366 256.176C926.67 256.432 927.078 256.56 927.59 256.56ZM933.098 256.512C932.826 256.512 932.594 256.42 932.402 256.236C932.21 256.044 932.114 255.804 932.114 255.516C932.114 255.22 932.206 254.98 932.39 254.796C932.582 254.612 932.818 254.52 933.098 254.52C933.378 254.52 933.61 254.612 933.794 254.796C933.986 254.98 934.082 255.22 934.082 255.516C934.082 255.804 933.986 256.044 933.794 256.236C933.602 256.42 933.37 256.512 933.098 256.512ZM933.098 261.084C932.826 261.084 932.594 260.992 932.402 260.808C932.21 260.616 932.114 260.376 932.114 260.088C932.114 259.792 932.206 259.552 932.39 259.368C932.582 259.184 932.818 259.092 933.098 259.092C933.378 259.092 933.61 259.184 933.794 259.368C933.986 259.552 934.082 259.792 934.082 260.088C934.082 260.376 933.986 260.616 933.794 260.808C933.602 260.992 933.37 261.084 933.098 261.084ZM938.595 261.12C937.923 261.12 937.323 260.952 936.795 260.616C936.267 260.272 935.851 259.776 935.547 259.128C935.243 258.472 935.091 257.696 935.091 256.8C935.091 255.904 935.243 255.132 935.547 254.484C935.851 253.828 936.267 253.332 936.795 252.996C937.323 252.652 937.923 252.48 938.595 252.48C939.267 252.48 939.867 252.652 940.395 252.996C940.931 253.332 941.351 253.828 941.655 254.484C941.959 255.132 942.111 255.904 942.111 256.8C942.111 257.696 941.959 258.472 941.655 259.128C941.351 259.776 940.931 260.272 940.395 260.616C939.867 260.952 939.267 261.12 938.595 261.12ZM938.595 259.764C939.195 259.764 939.667 259.516 940.011 259.02C940.363 258.524 940.539 257.784 940.539 256.8C940.539 255.816 940.363 255.076 940.011 254.58C939.667 254.084 939.195 253.836 938.595 253.836C938.003 253.836 937.531 254.084 937.179 254.58C936.835 255.076 936.663 255.816 936.663 256.8C936.663 257.784 936.835 258.524 937.179 259.02C937.531 259.516 938.003 259.764 938.595 259.764ZM946.67 261.12C945.998 261.12 945.398 260.952 944.87 260.616C944.342 260.272 943.926 259.776 943.622 259.128C943.318 258.472 943.166 257.696 943.166 256.8C943.166 255.904 943.318 255.132 943.622 254.484C943.926 253.828 944.342 253.332 944.87 252.996C945.398 252.652 945.998 252.48 946.67 252.48C947.342 252.48 947.942 252.652 948.47 252.996C949.006 253.332 949.426 253.828 949.73 254.484C950.034 255.132 950.186 255.904 950.186 256.8C950.186 257.696 950.034 258.472 949.73 259.128C949.426 259.776 949.006 260.272 948.47 260.616C947.942 260.952 947.342 261.12 946.67 261.12ZM946.67 259.764C947.27 259.764 947.742 259.516 948.086 259.02C948.438 258.524 948.614 257.784 948.614 256.8C948.614 255.816 948.438 255.076 948.086 254.58C947.742 254.084 947.27 253.836 946.67 253.836C946.078 253.836 945.606 254.084 945.254 254.58C944.91 255.076 944.738 255.816 944.738 256.8C944.738 257.784 944.91 258.524 945.254 259.02C945.606 259.516 946.078 259.764 946.67 259.764Z" fill="#2E2E2E"/>
<path opacity="0.1" d="M0 228H998" stroke="#454459"/>
<path opacity="0.5" d="M35.1189 52.116V54H28.5789V52.512L31.7229 49.572C32.0269 49.284 32.2309 49.04 32.3349 48.84C32.4389 48.632 32.4909 48.424 32.4909 48.216C32.4909 47.944 32.3989 47.732 32.2149 47.58C32.0309 47.428 31.7629 47.352 31.4109 47.352C31.0989 47.352 30.8109 47.424 30.5469 47.568C30.2909 47.704 30.0789 47.904 29.9109 48.168L28.1469 47.184C28.4749 46.64 28.9349 46.212 29.5269 45.9C30.1189 45.588 30.8189 45.432 31.6269 45.432C32.2669 45.432 32.8309 45.536 33.3189 45.744C33.8149 45.952 34.1989 46.252 34.4709 46.644C34.7509 47.028 34.8909 47.476 34.8909 47.988C34.8909 48.444 34.7909 48.876 34.5909 49.284C34.3989 49.684 34.0229 50.14 33.4629 50.652L31.8789 52.116H35.1189ZM43.6719 52.392H42.4239V54H40.1079V52.392H35.6679V50.844L39.4359 45.6H41.8959L38.4759 50.508H40.1799V49.08H42.4239V50.508H43.6719V52.392ZM45.8789 49.704C45.4869 49.704 45.1229 49.612 44.7869 49.428C44.4589 49.236 44.1949 48.98 43.9949 48.66C43.8029 48.34 43.7069 47.984 43.7069 47.592C43.7069 47.2 43.8029 46.844 43.9949 46.524C44.1949 46.204 44.4589 45.952 44.7869 45.768C45.1229 45.576 45.4869 45.48 45.8789 45.48C46.2789 45.48 46.6429 45.576 46.9709 45.768C47.3069 45.952 47.5709 46.204 47.7629 46.524C47.9629 46.844 48.0629 47.2 48.0629 47.592C48.0629 47.984 47.9629 48.34 47.7629 48.66C47.5709 48.98 47.3069 49.236 46.9709 49.428C46.6429 49.612 46.2789 49.704 45.8789 49.704ZM45.8789 48.624C46.1749 48.624 46.4189 48.528 46.6109 48.336C46.8029 48.136 46.8989 47.888 46.8989 47.592C46.8989 47.304 46.8029 47.064 46.6109 46.872C46.4189 46.672 46.1749 46.572 45.8789 46.572C45.5909 46.572 45.3509 46.672 45.1589 46.872C44.9669 47.064 44.8709 47.304 44.8709 47.592C44.8709 47.888 44.9669 48.136 45.1589 48.336C45.3509 48.528 45.5909 48.624 45.8789 48.624ZM53.532 54.168C52.652 54.168 51.86 53.984 51.156 53.616C50.46 53.24 49.912 52.72 49.512 52.056C49.112 51.392 48.912 50.64 48.912 49.8C48.912 48.96 49.112 48.208 49.512 47.544C49.912 46.88 50.46 46.364 51.156 45.996C51.86 45.62 52.652 45.432 53.532 45.432C54.3 45.432 54.992 45.568 55.608 45.84C56.224 46.112 56.736 46.504 57.144 47.016L55.632 48.384C55.088 47.728 54.428 47.4 53.652 47.4C53.196 47.4 52.788 47.5 52.428 47.7C52.076 47.9 51.8 48.184 51.6 48.552C51.408 48.912 51.312 49.328 51.312 49.8C51.312 50.272 51.408 50.692 51.6 51.06C51.8 51.42 52.076 51.7 52.428 51.9C52.788 52.1 53.196 52.2 53.652 52.2C54.428 52.2 55.088 51.872 55.632 51.216L57.144 52.584C56.736 53.096 56.224 53.488 55.608 53.76C54.992 54.032 54.3 54.168 53.532 54.168Z" fill="#2E2E2E"/>
<path opacity="0.5" d="M131.914 49.116V51H125.374V49.512L128.518 46.572C128.822 46.284 129.026 46.04 129.13 45.84C129.234 45.632 129.286 45.424 129.286 45.216C129.286 44.944 129.194 44.732 129.01 44.58C128.826 44.428 128.558 44.352 128.206 44.352C127.894 44.352 127.606 44.424 127.342 44.568C127.086 44.704 126.874 44.904 126.706 45.168L124.942 44.184C125.27 43.64 125.73 43.212 126.322 42.9C126.914 42.588 127.614 42.432 128.422 42.432C129.062 42.432 129.626 42.536 130.114 42.744C130.61 42.952 130.994 43.252 131.266 43.644C131.546 44.028 131.686 44.476 131.686 44.988C131.686 45.444 131.586 45.876 131.386 46.284C131.194 46.684 130.818 47.14 130.258 47.652L128.674 49.116H131.914ZM136.89 45.648C137.418 45.648 137.902 45.76 138.342 45.984C138.782 46.2 139.13 46.512 139.386 46.92C139.65 47.32 139.782 47.78 139.782 48.3C139.782 48.868 139.634 49.372 139.338 49.812C139.05 50.244 138.654 50.58 138.15 50.82C137.654 51.052 137.098 51.168 136.482 51.168C135.282 51.168 134.334 50.812 133.638 50.1C132.942 49.388 132.594 48.364 132.594 47.028C132.594 46.068 132.778 45.244 133.146 44.556C133.522 43.86 134.046 43.332 134.718 42.972C135.39 42.612 136.17 42.432 137.058 42.432C137.538 42.432 137.994 42.484 138.426 42.588C138.858 42.692 139.226 42.844 139.53 43.044L138.666 44.748C138.258 44.46 137.742 44.316 137.118 44.316C136.51 44.316 136.018 44.484 135.642 44.82C135.266 45.156 135.05 45.64 134.994 46.272C135.474 45.856 136.106 45.648 136.89 45.648ZM136.338 49.476C136.674 49.476 136.946 49.38 137.154 49.188C137.37 48.996 137.478 48.736 137.478 48.408C137.478 48.088 137.37 47.832 137.154 47.64C136.946 47.448 136.67 47.352 136.326 47.352C135.982 47.352 135.702 47.452 135.486 47.652C135.27 47.844 135.162 48.1 135.162 48.42C135.162 48.732 135.266 48.988 135.474 49.188C135.69 49.38 135.978 49.476 136.338 49.476ZM142.334 46.704C141.942 46.704 141.578 46.612 141.242 46.428C140.914 46.236 140.65 45.98 140.45 45.66C140.258 45.34 140.162 44.984 140.162 44.592C140.162 44.2 140.258 43.844 140.45 43.524C140.65 43.204 140.914 42.952 141.242 42.768C141.578 42.576 141.942 42.48 142.334 42.48C142.734 42.48 143.098 42.576 143.426 42.768C143.762 42.952 144.026 43.204 144.218 43.524C144.418 43.844 144.518 44.2 144.518 44.592C144.518 44.984 144.418 45.34 144.218 45.66C144.026 45.98 143.762 46.236 143.426 46.428C143.098 46.612 142.734 46.704 142.334 46.704ZM142.334 45.624C142.63 45.624 142.874 45.528 143.066 45.336C143.258 45.136 143.354 44.888 143.354 44.592C143.354 44.304 143.258 44.064 143.066 43.872C142.874 43.672 142.63 43.572 142.334 43.572C142.046 43.572 141.806 43.672 141.614 43.872C141.422 44.064 141.326 44.304 141.326 44.592C141.326 44.888 141.422 45.136 141.614 45.336C141.806 45.528 142.046 45.624 142.334 45.624ZM149.987 51.168C149.107 51.168 148.315 50.984 147.611 50.616C146.915 50.24 146.367 49.72 145.967 49.056C145.567 48.392 145.367 47.64 145.367 46.8C145.367 45.96 145.567 45.208 145.967 44.544C146.367 43.88 146.915 43.364 147.611 42.996C148.315 42.62 149.107 42.432 149.987 42.432C150.755 42.432 151.447 42.568 152.063 42.84C152.679 43.112 153.191 43.504 153.599 44.016L152.087 45.384C151.543 44.728 150.883 44.4 150.107 44.4C149.651 44.4 149.243 44.5 148.883 44.7C148.531 44.9 148.255 45.184 148.055 45.552C147.863 45.912 147.767 46.328 147.767 46.8C147.767 47.272 147.863 47.692 148.055 48.06C148.255 48.42 148.531 48.7 148.883 48.9C149.243 49.1 149.651 49.2 150.107 49.2C150.883 49.2 151.543 48.872 152.087 48.216L153.599 49.584C153.191 50.096 152.679 50.488 152.063 50.76C151.447 51.032 150.755 51.168 149.987 51.168Z" fill="#2E2E2E"/>
<path opacity="0.5" d="M216.409 64.116V66H209.869V64.512L213.013 61.572C213.317 61.284 213.521 61.04 213.625 60.84C213.729 60.632 213.781 60.424 213.781 60.216C213.781 59.944 213.689 59.732 213.505 59.58C213.321 59.428 213.053 59.352 212.701 59.352C212.389 59.352 212.101 59.424 211.837 59.568C211.581 59.704 211.369 59.904 211.201 60.168L209.437 59.184C209.765 58.64 210.225 58.212 210.817 57.9C211.409 57.588 212.109 57.432 212.917 57.432C213.557 57.432 214.121 57.536 214.609 57.744C215.105 57.952 215.489 58.252 215.761 58.644C216.041 59.028 216.181 59.476 216.181 59.988C216.181 60.444 216.081 60.876 215.881 61.284C215.689 61.684 215.313 62.14 214.753 62.652L213.169 64.116H216.409ZM221.408 60.96C222.104 61.104 222.636 61.392 223.004 61.824C223.38 62.248 223.568 62.764 223.568 63.372C223.568 63.868 223.432 64.328 223.16 64.752C222.896 65.176 222.488 65.52 221.936 65.784C221.392 66.04 220.716 66.168 219.908 66.168C219.316 66.168 218.728 66.096 218.144 65.952C217.568 65.808 217.068 65.604 216.644 65.34L217.508 63.552C217.836 63.776 218.204 63.948 218.612 64.068C219.028 64.188 219.436 64.248 219.836 64.248C220.244 64.248 220.568 64.172 220.808 64.02C221.048 63.868 221.168 63.652 221.168 63.372C221.168 62.828 220.74 62.556 219.884 62.556H218.888V61.056L220.388 59.436H217.076V57.6H223.148V59.088L221.408 60.96ZM226.243 61.704C225.851 61.704 225.487 61.612 225.151 61.428C224.823 61.236 224.559 60.98 224.359 60.66C224.167 60.34 224.071 59.984 224.071 59.592C224.071 59.2 224.167 58.844 224.359 58.524C224.559 58.204 224.823 57.952 225.151 57.768C225.487 57.576 225.851 57.48 226.243 57.48C226.643 57.48 227.007 57.576 227.335 57.768C227.671 57.952 227.935 58.204 228.127 58.524C228.327 58.844 228.427 59.2 228.427 59.592C228.427 59.984 228.327 60.34 228.127 60.66C227.935 60.98 227.671 61.236 227.335 61.428C227.007 61.612 226.643 61.704 226.243 61.704ZM226.243 60.624C226.539 60.624 226.783 60.528 226.975 60.336C227.167 60.136 227.263 59.888 227.263 59.592C227.263 59.304 227.167 59.064 226.975 58.872C226.783 58.672 226.539 58.572 226.243 58.572C225.955 58.572 225.715 58.672 225.523 58.872C225.331 59.064 225.235 59.304 225.235 59.592C225.235 59.888 225.331 60.136 225.523 60.336C225.715 60.528 225.955 60.624 226.243 60.624ZM233.896 66.168C233.016 66.168 232.224 65.984 231.52 65.616C230.824 65.24 230.276 64.72 229.876 64.056C229.476 63.392 229.276 62.64 229.276 61.8C229.276 60.96 229.476 60.208 229.876 59.544C230.276 58.88 230.824 58.364 231.52 57.996C232.224 57.62 233.016 57.432 233.896 57.432C234.664 57.432 235.356 57.568 235.972 57.84C236.588 58.112 237.1 58.504 237.508 59.016L235.996 60.384C235.452 59.728 234.792 59.4 234.016 59.4C233.56 59.4 233.152 59.5 232.792 59.7C232.44 59.9 232.164 60.184 231.964 60.552C231.772 60.912 231.676 61.328 231.676 61.8C231.676 62.272 231.772 62.692 231.964 63.06C232.164 63.42 232.44 63.7 232.792 63.9C233.152 64.1 233.56 64.2 234.016 64.2C234.792 64.2 235.452 63.872 235.996 63.216L237.508 64.584C237.1 65.096 236.588 65.488 235.972 65.76C235.356 66.032 234.664 66.168 233.896 66.168Z" fill="#2E2E2E"/>
<path opacity="0.5" d="M290.11 84.6V93H287.734V86.436H286.174V84.6H290.11ZM297.422 88.572C297.806 88.796 298.102 89.072 298.31 89.4C298.518 89.728 298.622 90.104 298.622 90.528C298.622 91.056 298.47 91.52 298.166 91.92C297.862 92.32 297.434 92.628 296.882 92.844C296.33 93.06 295.694 93.168 294.974 93.168C294.254 93.168 293.618 93.06 293.066 92.844C292.514 92.628 292.086 92.32 291.782 91.92C291.478 91.52 291.326 91.056 291.326 90.528C291.326 90.104 291.43 89.728 291.638 89.4C291.846 89.072 292.142 88.796 292.526 88.572C292.238 88.372 292.014 88.128 291.854 87.84C291.702 87.552 291.626 87.232 291.626 86.88C291.626 86.392 291.766 85.964 292.046 85.596C292.326 85.22 292.718 84.932 293.222 84.732C293.734 84.532 294.318 84.432 294.974 84.432C295.63 84.432 296.21 84.532 296.714 84.732C297.226 84.932 297.622 85.22 297.902 85.596C298.182 85.964 298.322 86.392 298.322 86.88C298.322 87.232 298.242 87.552 298.082 87.84C297.93 88.128 297.71 88.372 297.422 88.572ZM294.974 86.1C294.678 86.1 294.438 86.18 294.254 86.34C294.07 86.492 293.978 86.708 293.978 86.988C293.978 87.26 294.066 87.476 294.242 87.636C294.426 87.788 294.67 87.864 294.974 87.864C295.278 87.864 295.522 87.788 295.706 87.636C295.89 87.476 295.982 87.26 295.982 86.988C295.982 86.708 295.89 86.492 295.706 86.34C295.522 86.18 295.278 86.1 294.974 86.1ZM294.974 91.5C295.358 91.5 295.662 91.408 295.886 91.224C296.118 91.032 296.234 90.776 296.234 90.456C296.234 90.136 296.118 89.884 295.886 89.7C295.662 89.508 295.358 89.412 294.974 89.412C294.59 89.412 294.282 89.508 294.05 89.7C293.826 89.884 293.714 90.136 293.714 90.456C293.714 90.776 293.826 91.032 294.05 91.224C294.282 91.408 294.59 91.5 294.974 91.5ZM301.489 88.704C301.097 88.704 300.733 88.612 300.397 88.428C300.069 88.236 299.805 87.98 299.605 87.66C299.413 87.34 299.317 86.984 299.317 86.592C299.317 86.2 299.413 85.844 299.605 85.524C299.805 85.204 300.069 84.952 300.397 84.768C300.733 84.576 301.097 84.48 301.489 84.48C301.889 84.48 302.253 84.576 302.581 84.768C302.917 84.952 303.181 85.204 303.373 85.524C303.573 85.844 303.673 86.2 303.673 86.592C303.673 86.984 303.573 87.34 303.373 87.66C303.181 87.98 302.917 88.236 302.581 88.428C302.253 88.612 301.889 88.704 301.489 88.704ZM301.489 87.624C301.785 87.624 302.029 87.528 302.221 87.336C302.413 87.136 302.509 86.888 302.509 86.592C302.509 86.304 302.413 86.064 302.221 85.872C302.029 85.672 301.785 85.572 301.489 85.572C301.201 85.572 300.961 85.672 300.769 85.872C300.577 86.064 300.481 86.304 300.481 86.592C300.481 86.888 300.577 87.136 300.769 87.336C300.961 87.528 301.201 87.624 301.489 87.624ZM309.142 93.168C308.262 93.168 307.47 92.984 306.766 92.616C306.07 92.24 305.522 91.72 305.122 91.056C304.722 90.392 304.522 89.64 304.522 88.8C304.522 87.96 304.722 87.208 305.122 86.544C305.522 85.88 306.07 85.364 306.766 84.996C307.47 84.62 308.262 84.432 309.142 84.432C309.91 84.432 310.602 84.568 311.218 84.84C311.834 85.112 312.346 85.504 312.754 86.016L311.242 87.384C310.698 86.728 310.038 86.4 309.262 86.4C308.806 86.4 308.398 86.5 308.038 86.7C307.686 86.9 307.41 87.184 307.21 87.552C307.018 87.912 306.922 88.328 306.922 88.8C306.922 89.272 307.018 89.692 307.21 90.06C307.41 90.42 307.686 90.7 308.038 90.9C308.398 91.1 308.806 91.2 309.262 91.2C310.038 91.2 310.698 90.872 311.242 90.216L312.754 91.584C312.346 92.096 311.834 92.488 311.218 92.76C310.602 93.032 309.91 93.168 309.142 93.168Z" fill="#2E2E2E"/>
<path opacity="0.5" d="M377.331 78.116V80H370.791V78.512L373.935 75.572C374.239 75.284 374.443 75.04 374.547 74.84C374.651 74.632 374.703 74.424 374.703 74.216C374.703 73.944 374.611 73.732 374.427 73.58C374.243 73.428 373.975 73.352 373.623 73.352C373.311 73.352 373.023 73.424 372.759 73.568C372.503 73.704 372.291 73.904 372.123 74.168L370.359 73.184C370.687 72.64 371.147 72.212 371.739 71.9C372.331 71.588 373.031 71.432 373.839 71.432C374.479 71.432 375.043 71.536 375.531 71.744C376.027 71.952 376.411 72.252 376.683 72.644C376.963 73.028 377.103 73.476 377.103 73.988C377.103 74.444 377.003 74.876 376.803 75.284C376.611 75.684 376.235 76.14 375.675 76.652L374.091 78.116H377.331ZM381.719 80.168C380.999 80.168 380.359 79.996 379.799 79.652C379.239 79.308 378.799 78.808 378.479 78.152C378.167 77.488 378.011 76.704 378.011 75.8C378.011 74.896 378.167 74.116 378.479 73.46C378.799 72.796 379.239 72.292 379.799 71.948C380.359 71.604 380.999 71.432 381.719 71.432C382.431 71.432 383.067 71.604 383.627 71.948C384.187 72.292 384.623 72.796 384.935 73.46C385.255 74.116 385.415 74.896 385.415 75.8C385.415 76.704 385.255 77.488 384.935 78.152C384.623 78.808 384.187 79.308 383.627 79.652C383.067 79.996 382.431 80.168 381.719 80.168ZM381.719 78.224C382.119 78.224 382.435 78.032 382.667 77.648C382.907 77.256 383.027 76.64 383.027 75.8C383.027 74.96 382.907 74.348 382.667 73.964C382.435 73.572 382.119 73.376 381.719 73.376C381.311 73.376 380.987 73.572 380.747 73.964C380.515 74.348 380.399 74.96 380.399 75.8C380.399 76.64 380.515 77.256 380.747 77.648C380.987 78.032 381.311 78.224 381.719 78.224ZM388.325 75.704C387.933 75.704 387.569 75.612 387.233 75.428C386.905 75.236 386.641 74.98 386.441 74.66C386.249 74.34 386.153 73.984 386.153 73.592C386.153 73.2 386.249 72.844 386.441 72.524C386.641 72.204 386.905 71.952 387.233 71.768C387.569 71.576 387.933 71.48 388.325 71.48C388.725 71.48 389.089 71.576 389.417 71.768C389.753 71.952 390.017 72.204 390.209 72.524C390.409 72.844 390.509 73.2 390.509 73.592C390.509 73.984 390.409 74.34 390.209 74.66C390.017 74.98 389.753 75.236 389.417 75.428C389.089 75.612 388.725 75.704 388.325 75.704ZM388.325 74.624C388.621 74.624 388.865 74.528 389.057 74.336C389.249 74.136 389.345 73.888 389.345 73.592C389.345 73.304 389.249 73.064 389.057 72.872C388.865 72.672 388.621 72.572 388.325 72.572C388.037 72.572 387.797 72.672 387.605 72.872C387.413 73.064 387.317 73.304 387.317 73.592C387.317 73.888 387.413 74.136 387.605 74.336C387.797 74.528 388.037 74.624 388.325 74.624ZM395.978 80.168C395.098 80.168 394.306 79.984 393.602 79.616C392.906 79.24 392.358 78.72 391.958 78.056C391.558 77.392 391.358 76.64 391.358 75.8C391.358 74.96 391.558 74.208 391.958 73.544C392.358 72.88 392.906 72.364 393.602 71.996C394.306 71.62 395.098 71.432 395.978 71.432C396.746 71.432 397.438 71.568 398.054 71.84C398.67 72.112 399.182 72.504 399.59 73.016L398.078 74.384C397.534 73.728 396.874 73.4 396.098 73.4C395.642 73.4 395.234 73.5 394.874 73.7C394.522 73.9 394.246 74.184 394.046 74.552C393.854 74.912 393.758 75.328 393.758 75.8C393.758 76.272 393.854 76.692 394.046 77.06C394.246 77.42 394.522 77.7 394.874 77.9C395.234 78.1 395.642 78.2 396.098 78.2C396.874 78.2 397.534 77.872 398.078 77.216L399.59 78.584C399.182 79.096 398.67 79.488 398.054 79.76C397.438 80.032 396.746 80.168 395.978 80.168Z" fill="#2E2E2E"/>
<path opacity="0.5" d="M452.386 58.116V60H445.846V58.512L448.99 55.572C449.294 55.284 449.498 55.04 449.602 54.84C449.706 54.632 449.758 54.424 449.758 54.216C449.758 53.944 449.666 53.732 449.482 53.58C449.298 53.428 449.03 53.352 448.678 53.352C448.366 53.352 448.078 53.424 447.814 53.568C447.558 53.704 447.346 53.904 447.178 54.168L445.414 53.184C445.742 52.64 446.202 52.212 446.794 51.9C447.386 51.588 448.086 51.432 448.894 51.432C449.534 51.432 450.098 51.536 450.586 51.744C451.082 51.952 451.466 52.252 451.738 52.644C452.018 53.028 452.158 53.476 452.158 53.988C452.158 54.444 452.058 54.876 451.858 55.284C451.666 55.684 451.29 56.14 450.73 56.652L449.146 58.116H452.386ZM459.57 58.116V60H453.03V58.512L456.174 55.572C456.478 55.284 456.682 55.04 456.786 54.84C456.89 54.632 456.942 54.424 456.942 54.216C456.942 53.944 456.85 53.732 456.666 53.58C456.482 53.428 456.214 53.352 455.862 53.352C455.55 53.352 455.262 53.424 454.998 53.568C454.742 53.704 454.53 53.904 454.362 54.168L452.598 53.184C452.926 52.64 453.386 52.212 453.978 51.9C454.57 51.588 455.27 51.432 456.078 51.432C456.718 51.432 457.282 51.536 457.77 51.744C458.266 51.952 458.65 52.252 458.922 52.644C459.202 53.028 459.342 53.476 459.342 53.988C459.342 54.444 459.242 54.876 459.042 55.284C458.85 55.684 458.474 56.14 457.914 56.652L456.33 58.116H459.57ZM462.349 55.704C461.957 55.704 461.593 55.612 461.257 55.428C460.929 55.236 460.665 54.98 460.465 54.66C460.273 54.34 460.177 53.984 460.177 53.592C460.177 53.2 460.273 52.844 460.465 52.524C460.665 52.204 460.929 51.952 461.257 51.768C461.593 51.576 461.957 51.48 462.349 51.48C462.749 51.48 463.113 51.576 463.441 51.768C463.777 51.952 464.041 52.204 464.233 52.524C464.433 52.844 464.533 53.2 464.533 53.592C464.533 53.984 464.433 54.34 464.233 54.66C464.041 54.98 463.777 55.236 463.441 55.428C463.113 55.612 462.749 55.704 462.349 55.704ZM462.349 54.624C462.645 54.624 462.889 54.528 463.081 54.336C463.273 54.136 463.369 53.888 463.369 53.592C463.369 53.304 463.273 53.064 463.081 52.872C462.889 52.672 462.645 52.572 462.349 52.572C462.061 52.572 461.821 52.672 461.629 52.872C461.437 53.064 461.341 53.304 461.341 53.592C461.341 53.888 461.437 54.136 461.629 54.336C461.821 54.528 462.061 54.624 462.349 54.624ZM470.002 60.168C469.122 60.168 468.33 59.984 467.626 59.616C466.93 59.24 466.382 58.72 465.982 58.056C465.582 57.392 465.382 56.64 465.382 55.8C465.382 54.96 465.582 54.208 465.982 53.544C466.382 52.88 466.93 52.364 467.626 51.996C468.33 51.62 469.122 51.432 470.002 51.432C470.77 51.432 471.462 51.568 472.078 51.84C472.694 52.112 473.206 52.504 473.614 53.016L472.102 54.384C471.558 53.728 470.898 53.4 470.122 53.4C469.666 53.4 469.258 53.5 468.898 53.7C468.546 53.9 468.27 54.184 468.07 54.552C467.878 54.912 467.782 55.328 467.782 55.8C467.782 56.272 467.878 56.692 468.07 57.06C468.27 57.42 468.546 57.7 468.898 57.9C469.258 58.1 469.666 58.2 470.122 58.2C470.898 58.2 471.558 57.872 472.102 57.216L473.614 58.584C473.206 59.096 472.694 59.488 472.078 59.76C471.462 60.032 470.77 60.168 470.002 60.168Z" fill="#2E2E2E"/>
<path opacity="0.5" d="M529.718 20.96C530.414 21.104 530.946 21.392 531.314 21.824C531.69 22.248 531.878 22.764 531.878 23.372C531.878 23.868 531.742 24.328 531.47 24.752C531.206 25.176 530.798 25.52 530.246 25.784C529.702 26.04 529.026 26.168 528.218 26.168C527.626 26.168 527.038 26.096 526.454 25.952C525.878 25.808 525.378 25.604 524.954 25.34L525.818 23.552C526.146 23.776 526.514 23.948 526.922 24.068C527.338 24.188 527.746 24.248 528.146 24.248C528.554 24.248 528.878 24.172 529.118 24.02C529.358 23.868 529.478 23.652 529.478 23.372C529.478 22.828 529.05 22.556 528.194 22.556H527.198V21.056L528.698 19.436H525.386V17.6H531.458V19.088L529.718 20.96ZM536.348 26.168C535.628 26.168 534.988 25.996 534.428 25.652C533.868 25.308 533.428 24.808 533.108 24.152C532.796 23.488 532.64 22.704 532.64 21.8C532.64 20.896 532.796 20.116 533.108 19.46C533.428 18.796 533.868 18.292 534.428 17.948C534.988 17.604 535.628 17.432 536.348 17.432C537.06 17.432 537.696 17.604 538.256 17.948C538.816 18.292 539.252 18.796 539.564 19.46C539.884 20.116 540.044 20.896 540.044 21.8C540.044 22.704 539.884 23.488 539.564 24.152C539.252 24.808 538.816 25.308 538.256 25.652C537.696 25.996 537.06 26.168 536.348 26.168ZM536.348 24.224C536.748 24.224 537.064 24.032 537.296 23.648C537.536 23.256 537.656 22.64 537.656 21.8C537.656 20.96 537.536 20.348 537.296 19.964C537.064 19.572 536.748 19.376 536.348 19.376C535.94 19.376 535.616 19.572 535.376 19.964C535.144 20.348 535.028 20.96 535.028 21.8C535.028 22.64 535.144 23.256 535.376 23.648C535.616 24.032 535.94 24.224 536.348 24.224ZM542.955 21.704C542.563 21.704 542.199 21.612 541.863 21.428C541.535 21.236 541.271 20.98 541.071 20.66C540.879 20.34 540.783 19.984 540.783 19.592C540.783 19.2 540.879 18.844 541.071 18.524C541.271 18.204 541.535 17.952 541.863 17.768C542.199 17.576 542.563 17.48 542.955 17.48C543.355 17.48 543.719 17.576 544.047 17.768C544.383 17.952 544.647 18.204 544.839 18.524C545.039 18.844 545.139 19.2 545.139 19.592C545.139 19.984 545.039 20.34 544.839 20.66C544.647 20.98 544.383 21.236 544.047 21.428C543.719 21.612 543.355 21.704 542.955 21.704ZM542.955 20.624C543.251 20.624 543.495 20.528 543.687 20.336C543.879 20.136 543.975 19.888 543.975 19.592C543.975 19.304 543.879 19.064 543.687 18.872C543.495 18.672 543.251 18.572 542.955 18.572C542.667 18.572 542.427 18.672 542.235 18.872C542.043 19.064 541.947 19.304 541.947 19.592C541.947 19.888 542.043 20.136 542.235 20.336C542.427 20.528 542.667 20.624 542.955 20.624ZM550.608 26.168C549.728 26.168 548.936 25.984 548.232 25.616C547.536 25.24 546.988 24.72 546.588 24.056C546.188 23.392 545.988 22.64 545.988 21.8C545.988 20.96 546.188 20.208 546.588 19.544C546.988 18.88 547.536 18.364 548.232 17.996C548.936 17.62 549.728 17.432 550.608 17.432C551.376 17.432 552.068 17.568 552.684 17.84C553.3 18.112 553.812 18.504 554.22 19.016L552.708 20.384C552.164 19.728 551.504 19.4 550.728 19.4C550.272 19.4 549.864 19.5 549.504 19.7C549.152 19.9 548.876 20.184 548.676 20.552C548.484 20.912 548.388 21.328 548.388 21.8C548.388 22.272 548.484 22.692 548.676 23.06C548.876 23.42 549.152 23.7 549.504 23.9C549.864 24.1 550.272 24.2 550.728 24.2C551.504 24.2 552.164 23.872 552.708 23.216L554.22 24.584C553.812 25.096 553.3 25.488 552.684 25.76C552.068 26.032 551.376 26.168 550.608 26.168Z" fill="#2E2E2E"/>
<path opacity="0.5" d="M850.512 6.96C851.208 7.104 851.74 7.392 852.108 7.824C852.484 8.248 852.672 8.764 852.672 9.372C852.672 9.868 852.536 10.328 852.264 10.752C852 11.176 851.592 11.52 851.04 11.784C850.496 12.04 849.82 12.168 849.012 12.168C848.42 12.168 847.832 12.096 847.248 11.952C846.672 11.808 846.172 11.604 845.748 11.34L846.612 9.552C846.94 9.776 847.308 9.948 847.716 10.068C848.132 10.188 848.54 10.248 848.94 10.248C849.348 10.248 849.672 10.172 849.912 10.02C850.152 9.868 850.272 9.652 850.272 9.372C850.272 8.828 849.844 8.556 848.988 8.556H847.992V7.056L849.492 5.436H846.18V3.6H852.252V5.088L850.512 6.96ZM859.868 10.116V12H853.328V10.512L856.472 7.572C856.776 7.284 856.98 7.04 857.084 6.84C857.188 6.632 857.24 6.424 857.24 6.216C857.24 5.944 857.148 5.732 856.964 5.58C856.78 5.428 856.512 5.352 856.16 5.352C855.848 5.352 855.56 5.424 855.296 5.568C855.04 5.704 854.828 5.904 854.66 6.168L852.896 5.184C853.224 4.64 853.684 4.212 854.276 3.9C854.868 3.588 855.568 3.432 856.376 3.432C857.016 3.432 857.58 3.536 858.068 3.744C858.564 3.952 858.948 4.252 859.22 4.644C859.5 5.028 859.64 5.476 859.64 5.988C859.64 6.444 859.54 6.876 859.34 7.284C859.148 7.684 858.772 8.14 858.212 8.652L856.628 10.116H859.868ZM862.647 7.704C862.255 7.704 861.891 7.612 861.555 7.428C861.227 7.236 860.963 6.98 860.763 6.66C860.571 6.34 860.475 5.984 860.475 5.592C860.475 5.2 860.571 4.844 860.763 4.524C860.963 4.204 861.227 3.952 861.555 3.768C861.891 3.576 862.255 3.48 862.647 3.48C863.047 3.48 863.411 3.576 863.739 3.768C864.075 3.952 864.339 4.204 864.531 4.524C864.731 4.844 864.831 5.2 864.831 5.592C864.831 5.984 864.731 6.34 864.531 6.66C864.339 6.98 864.075 7.236 863.739 7.428C863.411 7.612 863.047 7.704 862.647 7.704ZM862.647 6.624C862.943 6.624 863.187 6.528 863.379 6.336C863.571 6.136 863.667 5.888 863.667 5.592C863.667 5.304 863.571 5.064 863.379 4.872C863.187 4.672 862.943 4.572 862.647 4.572C862.359 4.572 862.119 4.672 861.927 4.872C861.735 5.064 861.639 5.304 861.639 5.592C861.639 5.888 861.735 6.136 861.927 6.336C862.119 6.528 862.359 6.624 862.647 6.624ZM870.301 12.168C869.421 12.168 868.629 11.984 867.925 11.616C867.229 11.24 866.681 10.72 866.281 10.056C865.881 9.392 865.681 8.64 865.681 7.8C865.681 6.96 865.881 6.208 866.281 5.544C866.681 4.88 867.229 4.364 867.925 3.996C868.629 3.62 869.421 3.432 870.301 3.432C871.069 3.432 871.761 3.568 872.377 3.84C872.993 4.112 873.505 4.504 873.913 5.016L872.401 6.384C871.857 5.728 871.197 5.4 870.421 5.4C869.965 5.4 869.557 5.5 869.197 5.7C868.845 5.9 868.569 6.184 868.369 6.552C868.177 6.912 868.081 7.328 868.081 7.8C868.081 8.272 868.177 8.692 868.369 9.06C868.569 9.42 868.845 9.7 869.197 9.9C869.557 10.1 869.965 10.2 870.421 10.2C871.197 10.2 871.857 9.872 872.401 9.216L873.913 10.584C873.505 11.096 872.993 11.488 872.377 11.76C871.761 12.032 871.069 12.168 870.301 12.168Z" fill="#2E2E2E"/>
<path opacity="0.5" d="M931.704 12.96C932.4 13.104 932.932 13.392 933.3 13.824C933.676 14.248 933.864 14.764 933.864 15.372C933.864 15.868 933.728 16.328 933.456 16.752C933.192 17.176 932.784 17.52 932.232 17.784C931.688 18.04 931.012 18.168 930.204 18.168C929.612 18.168 929.024 18.096 928.44 17.952C927.864 17.808 927.364 17.604 926.94 17.34L927.804 15.552C928.132 15.776 928.5 15.948 928.908 16.068C929.324 16.188 929.732 16.248 930.132 16.248C930.54 16.248 930.864 16.172 931.104 16.02C931.344 15.868 931.464 15.652 931.464 15.372C931.464 14.828 931.036 14.556 930.18 14.556H929.184V13.056L930.684 11.436H927.372V9.6H933.444V11.088L931.704 12.96ZM938.226 9.6V18H935.85V11.436H934.29V9.6H938.226ZM941.578 13.704C941.186 13.704 940.822 13.612 940.486 13.428C940.158 13.236 939.894 12.98 939.694 12.66C939.502 12.34 939.406 11.984 939.406 11.592C939.406 11.2 939.502 10.844 939.694 10.524C939.894 10.204 940.158 9.952 940.486 9.768C940.822 9.576 941.186 9.48 941.578 9.48C941.978 9.48 942.342 9.576 942.67 9.768C943.006 9.952 943.27 10.204 943.462 10.524C943.662 10.844 943.762 11.2 943.762 11.592C943.762 11.984 943.662 12.34 943.462 12.66C943.27 12.98 943.006 13.236 942.67 13.428C942.342 13.612 941.978 13.704 941.578 13.704ZM941.578 12.624C941.874 12.624 942.118 12.528 942.31 12.336C942.502 12.136 942.598 11.888 942.598 11.592C942.598 11.304 942.502 11.064 942.31 10.872C942.118 10.672 941.874 10.572 941.578 10.572C941.29 10.572 941.05 10.672 940.858 10.872C940.666 11.064 940.57 11.304 940.57 11.592C940.57 11.888 940.666 12.136 940.858 12.336C941.05 12.528 941.29 12.624 941.578 12.624ZM949.231 18.168C948.351 18.168 947.559 17.984 946.855 17.616C946.159 17.24 945.611 16.72 945.211 16.056C944.811 15.392 944.611 14.64 944.611 13.8C944.611 12.96 944.811 12.208 945.211 11.544C945.611 10.88 946.159 10.364 946.855 9.996C947.559 9.62 948.351 9.432 949.231 9.432C949.999 9.432 950.691 9.568 951.307 9.84C951.923 10.112 952.435 10.504 952.843 11.016L951.331 12.384C950.787 11.728 950.127 11.4 949.351 11.4C948.895 11.4 948.487 11.5 948.127 11.7C947.775 11.9 947.499 12.184 947.299 12.552C947.107 12.912 947.011 13.328 947.011 13.8C947.011 14.272 947.107 14.692 947.299 15.06C947.499 15.42 947.775 15.7 948.127 15.9C948.487 16.1 948.895 16.2 949.351 16.2C950.127 16.2 950.787 15.872 951.331 15.216L952.843 16.584C952.435 17.096 951.923 17.488 951.307 17.76C950.691 18.032 949.999 18.168 949.231 18.168Z" fill="#2E2E2E"/>
<path opacity="0.5" d="M612.086 27.116V29H605.546V27.512L608.69 24.572C608.994 24.284 609.198 24.04 609.302 23.84C609.406 23.632 609.458 23.424 609.458 23.216C609.458 22.944 609.366 22.732 609.182 22.58C608.998 22.428 608.73 22.352 608.378 22.352C608.066 22.352 607.778 22.424 607.514 22.568C607.258 22.704 607.046 22.904 606.878 23.168L605.114 22.184C605.442 21.64 605.902 21.212 606.494 20.9C607.086 20.588 607.786 20.432 608.594 20.432C609.234 20.432 609.798 20.536 610.286 20.744C610.782 20.952 611.166 21.252 611.438 21.644C611.718 22.028 611.858 22.476 611.858 22.988C611.858 23.444 611.758 23.876 611.558 24.284C611.366 24.684 610.99 25.14 610.43 25.652L608.846 27.116H612.086ZM618.825 24.572C619.209 24.796 619.505 25.072 619.713 25.4C619.921 25.728 620.025 26.104 620.025 26.528C620.025 27.056 619.873 27.52 619.569 27.92C619.265 28.32 618.837 28.628 618.285 28.844C617.733 29.06 617.097 29.168 616.377 29.168C615.657 29.168 615.021 29.06 614.469 28.844C613.917 28.628 613.489 28.32 613.185 27.92C612.881 27.52 612.729 27.056 612.729 26.528C612.729 26.104 612.833 25.728 613.041 25.4C613.249 25.072 613.545 24.796 613.929 24.572C613.641 24.372 613.417 24.128 613.257 23.84C613.105 23.552 613.029 23.232 613.029 22.88C613.029 22.392 613.169 21.964 613.449 21.596C613.729 21.22 614.121 20.932 614.625 20.732C615.137 20.532 615.721 20.432 616.377 20.432C617.033 20.432 617.613 20.532 618.117 20.732C618.629 20.932 619.025 21.22 619.305 21.596C619.585 21.964 619.725 22.392 619.725 22.88C619.725 23.232 619.645 23.552 619.485 23.84C619.333 24.128 619.113 24.372 618.825 24.572ZM616.377 22.1C616.081 22.1 615.841 22.18 615.657 22.34C615.473 22.492 615.381 22.708 615.381 22.988C615.381 23.26 615.469 23.476 615.645 23.636C615.829 23.788 616.073 23.864 616.377 23.864C616.681 23.864 616.925 23.788 617.109 23.636C617.293 23.476 617.385 23.26 617.385 22.988C617.385 22.708 617.293 22.492 617.109 22.34C616.925 22.18 616.681 22.1 616.377 22.1ZM616.377 27.5C616.761 27.5 617.065 27.408 617.289 27.224C617.521 27.032 617.637 26.776 617.637 26.456C617.637 26.136 617.521 25.884 617.289 25.7C617.065 25.508 616.761 25.412 616.377 25.412C615.993 25.412 615.685 25.508 615.453 25.7C615.229 25.884 615.117 26.136 615.117 26.456C615.117 26.776 615.229 27.032 615.453 27.224C615.685 27.408 615.993 27.5 616.377 27.5ZM622.893 24.704C622.501 24.704 622.137 24.612 621.801 24.428C621.473 24.236 621.209 23.98 621.009 23.66C620.817 23.34 620.721 22.984 620.721 22.592C620.721 22.2 620.817 21.844 621.009 21.524C621.209 21.204 621.473 20.952 621.801 20.768C622.137 20.576 622.501 20.48 622.893 20.48C623.293 20.48 623.657 20.576 623.985 20.768C624.321 20.952 624.585 21.204 624.777 21.524C624.977 21.844 625.077 22.2 625.077 22.592C625.077 22.984 624.977 23.34 624.777 23.66C624.585 23.98 624.321 24.236 623.985 24.428C623.657 24.612 623.293 24.704 622.893 24.704ZM622.893 23.624C623.189 23.624 623.433 23.528 623.625 23.336C623.817 23.136 623.913 22.888 623.913 22.592C623.913 22.304 623.817 22.064 623.625 21.872C623.433 21.672 623.189 21.572 622.893 21.572C622.605 21.572 622.365 21.672 622.173 21.872C621.981 22.064 621.885 22.304 621.885 22.592C621.885 22.888 621.981 23.136 622.173 23.336C622.365 23.528 622.605 23.624 622.893 23.624ZM630.546 29.168C629.666 29.168 628.874 28.984 628.17 28.616C627.474 28.24 626.926 27.72 626.526 27.056C626.126 26.392 625.926 25.64 625.926 24.8C625.926 23.96 626.126 23.208 626.526 22.544C626.926 21.88 627.474 21.364 628.17 20.996C628.874 20.62 629.666 20.432 630.546 20.432C631.314 20.432 632.006 20.568 632.622 20.84C633.238 21.112 633.75 21.504 634.158 22.016L632.646 23.384C632.102 22.728 631.442 22.4 630.666 22.4C630.21 22.4 629.802 22.5 629.442 22.7C629.09 22.9 628.814 23.184 628.614 23.552C628.422 23.912 628.326 24.328 628.326 24.8C628.326 25.272 628.422 25.692 628.614 26.06C628.814 26.42 629.09 26.7 629.442 26.9C629.802 27.1 630.21 27.2 630.666 27.2C631.442 27.2 632.102 26.872 632.646 26.216L634.158 27.584C633.75 28.096 633.238 28.488 632.622 28.76C632.006 29.032 631.314 29.168 630.546 29.168Z" fill="#2E2E2E"/>
<path opacity="0.5" d="M692.299 41.116V43H685.759V41.512L688.903 38.572C689.207 38.284 689.411 38.04 689.515 37.84C689.619 37.632 689.671 37.424 689.671 37.216C689.671 36.944 689.579 36.732 689.395 36.58C689.211 36.428 688.943 36.352 688.591 36.352C688.279 36.352 687.991 36.424 687.727 36.568C687.471 36.704 687.259 36.904 687.091 37.168L685.327 36.184C685.655 35.64 686.115 35.212 686.707 34.9C687.299 34.588 687.999 34.432 688.807 34.432C689.447 34.432 690.011 34.536 690.499 34.744C690.995 34.952 691.379 35.252 691.651 35.644C691.931 36.028 692.071 36.476 692.071 36.988C692.071 37.444 691.971 37.876 691.771 38.284C691.579 38.684 691.203 39.14 690.643 39.652L689.059 41.116H692.299ZM699.807 34.6V36.088L696.843 43H694.251L697.083 36.484H694.875V37.78H692.847V34.6H699.807ZM702.801 38.704C702.409 38.704 702.045 38.612 701.709 38.428C701.381 38.236 701.117 37.98 700.917 37.66C700.725 37.34 700.629 36.984 700.629 36.592C700.629 36.2 700.725 35.844 700.917 35.524C701.117 35.204 701.381 34.952 701.709 34.768C702.045 34.576 702.409 34.48 702.801 34.48C703.201 34.48 703.565 34.576 703.893 34.768C704.229 34.952 704.493 35.204 704.685 35.524C704.885 35.844 704.985 36.2 704.985 36.592C704.985 36.984 704.885 37.34 704.685 37.66C704.493 37.98 704.229 38.236 703.893 38.428C703.565 38.612 703.201 38.704 702.801 38.704ZM702.801 37.624C703.097 37.624 703.341 37.528 703.533 37.336C703.725 37.136 703.821 36.888 703.821 36.592C703.821 36.304 703.725 36.064 703.533 35.872C703.341 35.672 703.097 35.572 702.801 35.572C702.513 35.572 702.273 35.672 702.081 35.872C701.889 36.064 701.793 36.304 701.793 36.592C701.793 36.888 701.889 37.136 702.081 37.336C702.273 37.528 702.513 37.624 702.801 37.624ZM710.454 43.168C709.574 43.168 708.782 42.984 708.078 42.616C707.382 42.24 706.834 41.72 706.434 41.056C706.034 40.392 705.834 39.64 705.834 38.8C705.834 37.96 706.034 37.208 706.434 36.544C706.834 35.88 707.382 35.364 708.078 34.996C708.782 34.62 709.574 34.432 710.454 34.432C711.222 34.432 711.914 34.568 712.53 34.84C713.146 35.112 713.658 35.504 714.066 36.016L712.554 37.384C712.01 36.728 711.35 36.4 710.574 36.4C710.118 36.4 709.71 36.5 709.35 36.7C708.998 36.9 708.722 37.184 708.522 37.552C708.33 37.912 708.234 38.328 708.234 38.8C708.234 39.272 708.33 39.692 708.522 40.06C708.722 40.42 708.998 40.7 709.35 40.9C709.71 41.1 710.118 41.2 710.574 41.2C711.35 41.2 712.01 40.872 712.554 40.216L714.066 41.584C713.658 42.096 713.146 42.488 712.53 42.76C711.914 43.032 711.222 43.168 710.454 43.168Z" fill="#2E2E2E"/>
<path opacity="0.5" d="M772.319 36.116V38H765.779V36.512L768.923 33.572C769.227 33.284 769.431 33.04 769.535 32.84C769.639 32.632 769.691 32.424 769.691 32.216C769.691 31.944 769.599 31.732 769.415 31.58C769.231 31.428 768.963 31.352 768.611 31.352C768.299 31.352 768.011 31.424 767.747 31.568C767.491 31.704 767.279 31.904 767.111 32.168L765.347 31.184C765.675 30.64 766.135 30.212 766.727 29.9C767.319 29.588 768.019 29.432 768.827 29.432C769.467 29.432 770.031 29.536 770.519 29.744C771.015 29.952 771.399 30.252 771.671 30.644C771.951 31.028 772.091 31.476 772.091 31.988C772.091 32.444 771.991 32.876 771.791 33.284C771.599 33.684 771.223 34.14 770.663 34.652L769.079 36.116H772.319ZM776.082 29.432C777.29 29.432 778.242 29.788 778.938 30.5C779.634 31.212 779.982 32.236 779.982 33.572C779.982 34.532 779.794 35.36 779.418 36.056C779.05 36.744 778.526 37.268 777.846 37.628C777.174 37.988 776.394 38.168 775.506 38.168C775.034 38.168 774.582 38.112 774.15 38C773.718 37.896 773.35 37.748 773.046 37.556L773.91 35.852C774.318 36.14 774.834 36.284 775.458 36.284C776.058 36.284 776.542 36.12 776.91 35.792C777.286 35.456 777.506 34.972 777.57 34.34C777.09 34.748 776.462 34.952 775.686 34.952C775.158 34.952 774.674 34.844 774.234 34.628C773.794 34.404 773.442 34.092 773.178 33.692C772.922 33.284 772.794 32.82 772.794 32.3C772.794 31.732 772.938 31.232 773.226 30.8C773.522 30.36 773.918 30.024 774.414 29.792C774.918 29.552 775.474 29.432 776.082 29.432ZM776.25 33.248C776.594 33.248 776.874 33.152 777.09 32.96C777.306 32.76 777.414 32.5 777.414 32.18C777.414 31.868 777.306 31.616 777.09 31.424C776.882 31.224 776.598 31.124 776.238 31.124C775.902 31.124 775.626 31.22 775.41 31.412C775.202 31.604 775.098 31.864 775.098 32.192C775.098 32.512 775.202 32.768 775.41 32.96C775.626 33.152 775.906 33.248 776.25 33.248ZM782.903 33.704C782.511 33.704 782.147 33.612 781.811 33.428C781.483 33.236 781.219 32.98 781.019 32.66C780.827 32.34 780.731 31.984 780.731 31.592C780.731 31.2 780.827 30.844 781.019 30.524C781.219 30.204 781.483 29.952 781.811 29.768C782.147 29.576 782.511 29.48 782.903 29.48C783.303 29.48 783.667 29.576 783.995 29.768C784.331 29.952 784.595 30.204 784.787 30.524C784.987 30.844 785.087 31.2 785.087 31.592C785.087 31.984 784.987 32.34 784.787 32.66C784.595 32.98 784.331 33.236 783.995 33.428C783.667 33.612 783.303 33.704 782.903 33.704ZM782.903 32.624C783.199 32.624 783.443 32.528 783.635 32.336C783.827 32.136 783.923 31.888 783.923 31.592C783.923 31.304 783.827 31.064 783.635 30.872C783.443 30.672 783.199 30.572 782.903 30.572C782.615 30.572 782.375 30.672 782.183 30.872C781.991 31.064 781.895 31.304 781.895 31.592C781.895 31.888 781.991 32.136 782.183 32.336C782.375 32.528 782.615 32.624 782.903 32.624ZM790.556 38.168C789.676 38.168 788.884 37.984 788.18 37.616C787.484 37.24 786.936 36.72 786.536 36.056C786.136 35.392 785.936 34.64 785.936 33.8C785.936 32.96 786.136 32.208 786.536 31.544C786.936 30.88 787.484 30.364 788.18 29.996C788.884 29.62 789.676 29.432 790.556 29.432C791.324 29.432 792.016 29.568 792.632 29.84C793.248 30.112 793.76 30.504 794.168 31.016L792.656 32.384C792.112 31.728 791.452 31.4 790.676 31.4C790.22 31.4 789.812 31.5 789.452 31.7C789.1 31.9 788.824 32.184 788.624 32.552C788.432 32.912 788.336 33.328 788.336 33.8C788.336 34.272 788.432 34.692 788.624 35.06C788.824 35.42 789.1 35.7 789.452 35.9C789.812 36.1 790.22 36.2 790.676 36.2C791.452 36.2 792.112 35.872 792.656 35.216L794.168 36.584C793.76 37.096 793.248 37.488 792.632 37.76C792.016 38.032 791.324 38.168 790.556 38.168Z" fill="#2E2E2E"/>
<defs>
<linearGradient id="paint0_linear_296_103" x1="499" y1="26" x2="499" y2="228" gradientUnits="userSpaceOnUse">
<stop stop-color="white"/>
<stop offset="1" stop-color="#E9EDC9"/>
</linearGradient>
<linearGradient id="paint1_linear_296_103" x1="42.7912" y1="51" x2="42.7912" y2="228" gradientUnits="userSpaceOnUse">
<stop stop-color="#CCD5AE" stop-opacity="0"/>
<stop offset="0.758333" stop-color="#CDD5AE"/>
</linearGradient>
</defs>
</svg>
