<svg width="771" height="358" viewBox="0 0 771 358" fill="none" xmlns="http://www.w3.org/2000/svg">
<rect width="771" height="358" rx="12" fill="white"/>
<path d="M119.827 144.131C69.1875 144.131 24 166.056 24 166.056V297H747V116.248C747 116.248 723.503 100.837 686.345 95.8464C619.371 86.851 610.023 152.522 551.188 152.522C507.972 152.522 504.986 111.488 447.364 107.748C389.742 104.007 363.749 198.238 270.858 197.176C201.272 196.38 158.96 144.131 119.827 144.131Z" fill="url(#paint0_linear_102_30)"/>
<path d="M26 165.765C26 165.765 69.9341 144.042 120.518 144.042C162.617 144.042 201.873 196.197 271.382 196.991C364.171 198.051 390.135 103.991 447.694 107.724C505.253 111.458 508.235 152.418 551.403 152.418C610.174 152.418 619.511 86.8657 686.412 95.8449C723.528 100.827 747 116.21 747 116.21" stroke="#CCD5AE" stroke-width="5" stroke-linecap="round"/>
<path opacity="0.3" d="M26 149C26 132.984 38.9837 120 55 120C71.0163 120 84 132.984 84 149V297H26V149Z" fill="url(#paint1_linear_102_30)"/>
<path opacity="0.5" d="M49.3914 321.6V330H47.7954L43.6074 324.9V330H41.6874V321.6H43.2954L47.4714 326.7V321.6H49.3914ZM54.3188 330.096C53.6388 330.096 53.0268 329.956 52.4828 329.676C51.9468 329.388 51.5268 328.992 51.2228 328.488C50.9188 327.984 50.7668 327.412 50.7668 326.772C50.7668 326.132 50.9188 325.56 51.2228 325.056C51.5268 324.552 51.9468 324.16 52.4828 323.88C53.0268 323.592 53.6388 323.448 54.3188 323.448C54.9988 323.448 55.6068 323.592 56.1428 323.88C56.6788 324.16 57.0988 324.552 57.4028 325.056C57.7068 325.56 57.8588 326.132 57.8588 326.772C57.8588 327.412 57.7068 327.984 57.4028 328.488C57.0988 328.992 56.6788 329.388 56.1428 329.676C55.6068 329.956 54.9988 330.096 54.3188 330.096ZM54.3188 328.56C54.7988 328.56 55.1908 328.4 55.4948 328.08C55.8068 327.752 55.9628 327.316 55.9628 326.772C55.9628 326.228 55.8068 325.796 55.4948 325.476C55.1908 325.148 54.7988 324.984 54.3188 324.984C53.8388 324.984 53.4428 325.148 53.1308 325.476C52.8188 325.796 52.6628 326.228 52.6628 326.772C52.6628 327.316 52.8188 327.752 53.1308 328.08C53.4428 328.4 53.8388 328.56 54.3188 328.56ZM69.3023 323.544L66.9623 330H65.1623L63.7103 325.992L62.2103 330H60.4103L58.0823 323.544H59.8463L61.3703 327.912L62.9543 323.544H64.5383L66.0743 327.912L67.6463 323.544H69.3023Z" fill="#2E2E2E"/>
<path opacity="0.5" d="M115.089 328.68V330H108.897V328.956L112.233 325.788C112.609 325.428 112.861 325.116 112.989 324.852C113.125 324.58 113.193 324.312 113.193 324.048C113.193 323.656 113.061 323.356 112.797 323.148C112.533 322.94 112.145 322.836 111.633 322.836C110.777 322.836 110.121 323.128 109.665 323.712L108.573 322.872C108.901 322.432 109.341 322.092 109.893 321.852C110.453 321.604 111.077 321.48 111.765 321.48C112.677 321.48 113.405 321.696 113.949 322.128C114.493 322.56 114.765 323.148 114.765 323.892C114.765 324.348 114.669 324.776 114.477 325.176C114.285 325.576 113.917 326.032 113.373 326.544L111.129 328.68H115.089ZM119.565 325.068C120.341 325.164 120.933 325.428 121.341 325.86C121.749 326.292 121.953 326.832 121.953 327.48C121.953 327.968 121.829 328.412 121.581 328.812C121.333 329.212 120.957 329.532 120.453 329.772C119.957 330.004 119.349 330.12 118.629 330.12C118.029 330.12 117.449 330.036 116.889 329.868C116.337 329.692 115.865 329.452 115.473 329.148L116.145 327.936C116.449 328.192 116.817 328.396 117.249 328.548C117.689 328.692 118.141 328.764 118.605 328.764C119.157 328.764 119.589 328.652 119.901 328.428C120.221 328.196 120.381 327.884 120.381 327.492C120.381 327.1 120.229 326.796 119.925 326.58C119.629 326.356 119.173 326.244 118.557 326.244H117.789V325.176L119.697 322.908H115.881V321.6H121.605V322.644L119.565 325.068ZM123.909 325.512C123.637 325.512 123.405 325.42 123.213 325.236C123.021 325.044 122.925 324.804 122.925 324.516C122.925 324.22 123.017 323.98 123.201 323.796C123.393 323.612 123.629 323.52 123.909 323.52C124.189 323.52 124.421 323.612 124.605 323.796C124.797 323.98 124.893 324.22 124.893 324.516C124.893 324.804 124.797 325.044 124.605 325.236C124.413 325.42 124.181 325.512 123.909 325.512ZM123.909 330.084C123.637 330.084 123.405 329.992 123.213 329.808C123.021 329.616 122.925 329.376 122.925 329.088C122.925 328.792 123.017 328.552 123.201 328.368C123.393 328.184 123.629 328.092 123.909 328.092C124.189 328.092 124.421 328.184 124.605 328.368C124.797 328.552 124.893 328.792 124.893 329.088C124.893 329.376 124.797 329.616 124.605 329.808C124.413 329.992 124.181 330.084 123.909 330.084ZM129.407 330.12C128.735 330.12 128.135 329.952 127.607 329.616C127.079 329.272 126.663 328.776 126.359 328.128C126.055 327.472 125.903 326.696 125.903 325.8C125.903 324.904 126.055 324.132 126.359 323.484C126.663 322.828 127.079 322.332 127.607 321.996C128.135 321.652 128.735 321.48 129.407 321.48C130.079 321.48 130.679 321.652 131.207 321.996C131.743 322.332 132.163 322.828 132.467 323.484C132.771 324.132 132.923 324.904 132.923 325.8C132.923 326.696 132.771 327.472 132.467 328.128C132.163 328.776 131.743 329.272 131.207 329.616C130.679 329.952 130.079 330.12 129.407 330.12ZM129.407 328.764C130.007 328.764 130.479 328.516 130.823 328.02C131.175 327.524 131.351 326.784 131.351 325.8C131.351 324.816 131.175 324.076 130.823 323.58C130.479 323.084 130.007 322.836 129.407 322.836C128.815 322.836 128.343 323.084 127.991 323.58C127.647 324.076 127.475 324.816 127.475 325.8C127.475 326.784 127.647 327.524 127.991 328.02C128.343 328.516 128.815 328.764 129.407 328.764ZM137.481 330.12C136.809 330.12 136.209 329.952 135.681 329.616C135.153 329.272 134.737 328.776 134.433 328.128C134.129 327.472 133.977 326.696 133.977 325.8C133.977 324.904 134.129 324.132 134.433 323.484C134.737 322.828 135.153 322.332 135.681 321.996C136.209 321.652 136.809 321.48 137.481 321.48C138.153 321.48 138.753 321.652 139.281 321.996C139.817 322.332 140.237 322.828 140.541 323.484C140.845 324.132 140.997 324.904 140.997 325.8C140.997 326.696 140.845 327.472 140.541 328.128C140.237 328.776 139.817 329.272 139.281 329.616C138.753 329.952 138.153 330.12 137.481 330.12ZM137.481 328.764C138.081 328.764 138.553 328.516 138.897 328.02C139.249 327.524 139.425 326.784 139.425 325.8C139.425 324.816 139.249 324.076 138.897 323.58C138.553 323.084 138.081 322.836 137.481 322.836C136.889 322.836 136.417 323.084 136.065 323.58C135.721 324.076 135.549 324.816 135.549 325.8C135.549 326.784 135.721 327.524 136.065 328.02C136.417 328.516 136.889 328.764 137.481 328.764Z" fill="#2E2E2E"/>
<path opacity="0.5" d="M171.2 330.12C170.528 330.12 169.928 329.952 169.4 329.616C168.872 329.272 168.456 328.776 168.152 328.128C167.848 327.472 167.696 326.696 167.696 325.8C167.696 324.904 167.848 324.132 168.152 323.484C168.456 322.828 168.872 322.332 169.4 321.996C169.928 321.652 170.528 321.48 171.2 321.48C171.872 321.48 172.472 321.652 173 321.996C173.536 322.332 173.956 322.828 174.26 323.484C174.564 324.132 174.716 324.904 174.716 325.8C174.716 326.696 174.564 327.472 174.26 328.128C173.956 328.776 173.536 329.272 173 329.616C172.472 329.952 171.872 330.12 171.2 330.12ZM171.2 328.764C171.8 328.764 172.272 328.516 172.616 328.02C172.968 327.524 173.144 326.784 173.144 325.8C173.144 324.816 172.968 324.076 172.616 323.58C172.272 323.084 171.8 322.836 171.2 322.836C170.608 322.836 170.136 323.084 169.784 323.58C169.44 324.076 169.268 324.816 169.268 325.8C169.268 326.784 169.44 327.524 169.784 328.02C170.136 328.516 170.608 328.764 171.2 328.764ZM178.616 321.6V330H177.056V322.908H175.28V321.6H178.616ZM181.218 325.512C180.946 325.512 180.714 325.42 180.522 325.236C180.33 325.044 180.234 324.804 180.234 324.516C180.234 324.22 180.326 323.98 180.51 323.796C180.702 323.612 180.938 323.52 181.218 323.52C181.498 323.52 181.73 323.612 181.914 323.796C182.106 323.98 182.202 324.22 182.202 324.516C182.202 324.804 182.106 325.044 181.914 325.236C181.722 325.42 181.49 325.512 181.218 325.512ZM181.218 330.084C180.946 330.084 180.714 329.992 180.522 329.808C180.33 329.616 180.234 329.376 180.234 329.088C180.234 328.792 180.326 328.552 180.51 328.368C180.702 328.184 180.938 328.092 181.218 328.092C181.498 328.092 181.73 328.184 181.914 328.368C182.106 328.552 182.202 328.792 182.202 329.088C182.202 329.376 182.106 329.616 181.914 329.808C181.722 329.992 181.49 330.084 181.218 330.084ZM186.716 330.12C186.044 330.12 185.444 329.952 184.916 329.616C184.388 329.272 183.972 328.776 183.668 328.128C183.364 327.472 183.212 326.696 183.212 325.8C183.212 324.904 183.364 324.132 183.668 323.484C183.972 322.828 184.388 322.332 184.916 321.996C185.444 321.652 186.044 321.48 186.716 321.48C187.388 321.48 187.988 321.652 188.516 321.996C189.052 322.332 189.472 322.828 189.776 323.484C190.08 324.132 190.232 324.904 190.232 325.8C190.232 326.696 190.08 327.472 189.776 328.128C189.472 328.776 189.052 329.272 188.516 329.616C187.988 329.952 187.388 330.12 186.716 330.12ZM186.716 328.764C187.316 328.764 187.788 328.516 188.132 328.02C188.484 327.524 188.66 326.784 188.66 325.8C188.66 324.816 188.484 324.076 188.132 323.58C187.788 323.084 187.316 322.836 186.716 322.836C186.124 322.836 185.652 323.084 185.3 323.58C184.956 324.076 184.784 324.816 184.784 325.8C184.784 326.784 184.956 327.524 185.3 328.02C185.652 328.516 186.124 328.764 186.716 328.764ZM194.79 330.12C194.118 330.12 193.518 329.952 192.99 329.616C192.462 329.272 192.046 328.776 191.742 328.128C191.438 327.472 191.286 326.696 191.286 325.8C191.286 324.904 191.438 324.132 191.742 323.484C192.046 322.828 192.462 322.332 192.99 321.996C193.518 321.652 194.118 321.48 194.79 321.48C195.462 321.48 196.062 321.652 196.59 321.996C197.126 322.332 197.546 322.828 197.85 323.484C198.154 324.132 198.306 324.904 198.306 325.8C198.306 326.696 198.154 327.472 197.85 328.128C197.546 328.776 197.126 329.272 196.59 329.616C196.062 329.952 195.462 330.12 194.79 330.12ZM194.79 328.764C195.39 328.764 195.862 328.516 196.206 328.02C196.558 327.524 196.734 326.784 196.734 325.8C196.734 324.816 196.558 324.076 196.206 323.58C195.862 323.084 195.39 322.836 194.79 322.836C194.198 322.836 193.726 323.084 193.374 323.58C193.03 324.076 192.858 324.816 192.858 325.8C192.858 326.784 193.03 327.524 193.374 328.02C193.726 328.516 194.198 328.764 194.79 328.764Z" fill="#2E2E2E"/>
<path opacity="0.5" d="M228.022 330.12C227.35 330.12 226.75 329.952 226.222 329.616C225.694 329.272 225.278 328.776 224.974 328.128C224.67 327.472 224.518 326.696 224.518 325.8C224.518 324.904 224.67 324.132 224.974 323.484C225.278 322.828 225.694 322.332 226.222 321.996C226.75 321.652 227.35 321.48 228.022 321.48C228.694 321.48 229.294 321.652 229.822 321.996C230.358 322.332 230.778 322.828 231.082 323.484C231.386 324.132 231.538 324.904 231.538 325.8C231.538 326.696 231.386 327.472 231.082 328.128C230.778 328.776 230.358 329.272 229.822 329.616C229.294 329.952 228.694 330.12 228.022 330.12ZM228.022 328.764C228.622 328.764 229.094 328.516 229.438 328.02C229.79 327.524 229.966 326.784 229.966 325.8C229.966 324.816 229.79 324.076 229.438 323.58C229.094 323.084 228.622 322.836 228.022 322.836C227.43 322.836 226.958 323.084 226.606 323.58C226.262 324.076 226.09 324.816 226.09 325.8C226.09 326.784 226.262 327.524 226.606 328.02C226.958 328.516 227.43 328.764 228.022 328.764ZM236.051 325.068C236.827 325.164 237.419 325.428 237.827 325.86C238.235 326.292 238.439 326.832 238.439 327.48C238.439 327.968 238.315 328.412 238.067 328.812C237.819 329.212 237.443 329.532 236.939 329.772C236.443 330.004 235.835 330.12 235.115 330.12C234.515 330.12 233.935 330.036 233.375 329.868C232.823 329.692 232.351 329.452 231.959 329.148L232.631 327.936C232.935 328.192 233.303 328.396 233.735 328.548C234.175 328.692 234.627 328.764 235.091 328.764C235.643 328.764 236.075 328.652 236.387 328.428C236.707 328.196 236.867 327.884 236.867 327.492C236.867 327.1 236.715 326.796 236.411 326.58C236.115 326.356 235.659 326.244 235.043 326.244H234.275V325.176L236.183 322.908H232.367V321.6H238.091V322.644L236.051 325.068ZM240.396 325.512C240.124 325.512 239.892 325.42 239.7 325.236C239.508 325.044 239.412 324.804 239.412 324.516C239.412 324.22 239.504 323.98 239.688 323.796C239.88 323.612 240.116 323.52 240.396 323.52C240.676 323.52 240.908 323.612 241.092 323.796C241.284 323.98 241.38 324.22 241.38 324.516C241.38 324.804 241.284 325.044 241.092 325.236C240.9 325.42 240.668 325.512 240.396 325.512ZM240.396 330.084C240.124 330.084 239.892 329.992 239.7 329.808C239.508 329.616 239.412 329.376 239.412 329.088C239.412 328.792 239.504 328.552 239.688 328.368C239.88 328.184 240.116 328.092 240.396 328.092C240.676 328.092 240.908 328.184 241.092 328.368C241.284 328.552 241.38 328.792 241.38 329.088C241.38 329.376 241.284 329.616 241.092 329.808C240.9 329.992 240.668 330.084 240.396 330.084ZM245.893 330.12C245.221 330.12 244.621 329.952 244.093 329.616C243.565 329.272 243.149 328.776 242.845 328.128C242.541 327.472 242.389 326.696 242.389 325.8C242.389 324.904 242.541 324.132 242.845 323.484C243.149 322.828 243.565 322.332 244.093 321.996C244.621 321.652 245.221 321.48 245.893 321.48C246.565 321.48 247.165 321.652 247.693 321.996C248.229 322.332 248.649 322.828 248.953 323.484C249.257 324.132 249.409 324.904 249.409 325.8C249.409 326.696 249.257 327.472 248.953 328.128C248.649 328.776 248.229 329.272 247.693 329.616C247.165 329.952 246.565 330.12 245.893 330.12ZM245.893 328.764C246.493 328.764 246.965 328.516 247.309 328.02C247.661 327.524 247.837 326.784 247.837 325.8C247.837 324.816 247.661 324.076 247.309 323.58C246.965 323.084 246.493 322.836 245.893 322.836C245.301 322.836 244.829 323.084 244.477 323.58C244.133 324.076 243.961 324.816 243.961 325.8C243.961 326.784 244.133 327.524 244.477 328.02C244.829 328.516 245.301 328.764 245.893 328.764ZM253.968 330.12C253.296 330.12 252.696 329.952 252.168 329.616C251.64 329.272 251.224 328.776 250.92 328.128C250.616 327.472 250.464 326.696 250.464 325.8C250.464 324.904 250.616 324.132 250.92 323.484C251.224 322.828 251.64 322.332 252.168 321.996C252.696 321.652 253.296 321.48 253.968 321.48C254.64 321.48 255.24 321.652 255.768 321.996C256.304 322.332 256.724 322.828 257.028 323.484C257.332 324.132 257.484 324.904 257.484 325.8C257.484 326.696 257.332 327.472 257.028 328.128C256.724 328.776 256.304 329.272 255.768 329.616C255.24 329.952 254.64 330.12 253.968 330.12ZM253.968 328.764C254.568 328.764 255.04 328.516 255.384 328.02C255.736 327.524 255.912 326.784 255.912 325.8C255.912 324.816 255.736 324.076 255.384 323.58C255.04 323.084 254.568 322.836 253.968 322.836C253.376 322.836 252.904 323.084 252.552 323.58C252.208 324.076 252.036 324.816 252.036 325.8C252.036 326.784 252.208 327.524 252.552 328.02C252.904 328.516 253.376 328.764 253.968 328.764Z" fill="#2E2E2E"/>
<path opacity="0.5" d="M285.952 330.12C285.28 330.12 284.68 329.952 284.152 329.616C283.624 329.272 283.208 328.776 282.904 328.128C282.6 327.472 282.448 326.696 282.448 325.8C282.448 324.904 282.6 324.132 282.904 323.484C283.208 322.828 283.624 322.332 284.152 321.996C284.68 321.652 285.28 321.48 285.952 321.48C286.624 321.48 287.224 321.652 287.752 321.996C288.288 322.332 288.708 322.828 289.012 323.484C289.316 324.132 289.468 324.904 289.468 325.8C289.468 326.696 289.316 327.472 289.012 328.128C288.708 328.776 288.288 329.272 287.752 329.616C287.224 329.952 286.624 330.12 285.952 330.12ZM285.952 328.764C286.552 328.764 287.024 328.516 287.368 328.02C287.72 327.524 287.896 326.784 287.896 325.8C287.896 324.816 287.72 324.076 287.368 323.58C287.024 323.084 286.552 322.836 285.952 322.836C285.36 322.836 284.888 323.084 284.536 323.58C284.192 324.076 284.02 324.816 284.02 325.8C284.02 326.784 284.192 327.524 284.536 328.02C284.888 328.516 285.36 328.764 285.952 328.764ZM293.15 324.852C294.334 324.852 295.21 325.084 295.778 325.548C296.346 326.004 296.63 326.628 296.63 327.42C296.63 327.924 296.506 328.38 296.258 328.788C296.01 329.196 295.638 329.52 295.142 329.76C294.646 330 294.034 330.12 293.306 330.12C292.706 330.12 292.126 330.036 291.566 329.868C291.006 329.692 290.534 329.452 290.15 329.148L290.81 327.936C291.122 328.192 291.494 328.396 291.926 328.548C292.366 328.692 292.818 328.764 293.282 328.764C293.834 328.764 294.266 328.652 294.578 328.428C294.898 328.196 295.058 327.88 295.058 327.48C295.058 327.048 294.886 326.724 294.542 326.508C294.206 326.284 293.626 326.172 292.802 326.172H290.774L291.206 321.6H296.138V322.908H292.526L292.346 324.852H293.15ZM298.466 325.512C298.194 325.512 297.962 325.42 297.77 325.236C297.578 325.044 297.482 324.804 297.482 324.516C297.482 324.22 297.574 323.98 297.758 323.796C297.95 323.612 298.186 323.52 298.466 323.52C298.746 323.52 298.978 323.612 299.162 323.796C299.354 323.98 299.45 324.22 299.45 324.516C299.45 324.804 299.354 325.044 299.162 325.236C298.97 325.42 298.738 325.512 298.466 325.512ZM298.466 330.084C298.194 330.084 297.962 329.992 297.77 329.808C297.578 329.616 297.482 329.376 297.482 329.088C297.482 328.792 297.574 328.552 297.758 328.368C297.95 328.184 298.186 328.092 298.466 328.092C298.746 328.092 298.978 328.184 299.162 328.368C299.354 328.552 299.45 328.792 299.45 329.088C299.45 329.376 299.354 329.616 299.162 329.808C298.97 329.992 298.738 330.084 298.466 330.084ZM303.964 330.12C303.292 330.12 302.692 329.952 302.164 329.616C301.636 329.272 301.22 328.776 300.916 328.128C300.612 327.472 300.46 326.696 300.46 325.8C300.46 324.904 300.612 324.132 300.916 323.484C301.22 322.828 301.636 322.332 302.164 321.996C302.692 321.652 303.292 321.48 303.964 321.48C304.636 321.48 305.236 321.652 305.764 321.996C306.3 322.332 306.72 322.828 307.024 323.484C307.328 324.132 307.48 324.904 307.48 325.8C307.48 326.696 307.328 327.472 307.024 328.128C306.72 328.776 306.3 329.272 305.764 329.616C305.236 329.952 304.636 330.12 303.964 330.12ZM303.964 328.764C304.564 328.764 305.036 328.516 305.38 328.02C305.732 327.524 305.908 326.784 305.908 325.8C305.908 324.816 305.732 324.076 305.38 323.58C305.036 323.084 304.564 322.836 303.964 322.836C303.372 322.836 302.9 323.084 302.548 323.58C302.204 324.076 302.032 324.816 302.032 325.8C302.032 326.784 302.204 327.524 302.548 328.02C302.9 328.516 303.372 328.764 303.964 328.764ZM312.038 330.12C311.366 330.12 310.766 329.952 310.238 329.616C309.71 329.272 309.294 328.776 308.99 328.128C308.686 327.472 308.534 326.696 308.534 325.8C308.534 324.904 308.686 324.132 308.99 323.484C309.294 322.828 309.71 322.332 310.238 321.996C310.766 321.652 311.366 321.48 312.038 321.48C312.71 321.48 313.31 321.652 313.838 321.996C314.374 322.332 314.794 322.828 315.098 323.484C315.402 324.132 315.554 324.904 315.554 325.8C315.554 326.696 315.402 327.472 315.098 328.128C314.794 328.776 314.374 329.272 313.838 329.616C313.31 329.952 312.71 330.12 312.038 330.12ZM312.038 328.764C312.638 328.764 313.11 328.516 313.454 328.02C313.806 327.524 313.982 326.784 313.982 325.8C313.982 324.816 313.806 324.076 313.454 323.58C313.11 323.084 312.638 322.836 312.038 322.836C311.446 322.836 310.974 323.084 310.622 323.58C310.278 324.076 310.106 324.816 310.106 325.8C310.106 326.784 310.278 327.524 310.622 328.02C310.974 328.516 311.446 328.764 312.038 328.764Z" fill="#2E2E2E"/>
<path opacity="0.5" d="M343.952 330.12C343.28 330.12 342.68 329.952 342.152 329.616C341.624 329.272 341.208 328.776 340.904 328.128C340.6 327.472 340.448 326.696 340.448 325.8C340.448 324.904 340.6 324.132 340.904 323.484C341.208 322.828 341.624 322.332 342.152 321.996C342.68 321.652 343.28 321.48 343.952 321.48C344.624 321.48 345.224 321.652 345.752 321.996C346.288 322.332 346.708 322.828 347.012 323.484C347.316 324.132 347.468 324.904 347.468 325.8C347.468 326.696 347.316 327.472 347.012 328.128C346.708 328.776 346.288 329.272 345.752 329.616C345.224 329.952 344.624 330.12 343.952 330.12ZM343.952 328.764C344.552 328.764 345.024 328.516 345.368 328.02C345.72 327.524 345.896 326.784 345.896 325.8C345.896 324.816 345.72 324.076 345.368 323.58C345.024 323.084 344.552 322.836 343.952 322.836C343.36 322.836 342.888 323.084 342.536 323.58C342.192 324.076 342.02 324.816 342.02 325.8C342.02 326.784 342.192 327.524 342.536 328.02C342.888 328.516 343.36 328.764 343.952 328.764ZM354.8 321.6V322.644L351.536 330H349.868L353.024 322.92H349.724V324.348H348.272V321.6H354.8ZM356.466 325.512C356.194 325.512 355.962 325.42 355.77 325.236C355.578 325.044 355.482 324.804 355.482 324.516C355.482 324.22 355.574 323.98 355.758 323.796C355.95 323.612 356.186 323.52 356.466 323.52C356.746 323.52 356.978 323.612 357.162 323.796C357.354 323.98 357.45 324.22 357.45 324.516C357.45 324.804 357.354 325.044 357.162 325.236C356.97 325.42 356.738 325.512 356.466 325.512ZM356.466 330.084C356.194 330.084 355.962 329.992 355.77 329.808C355.578 329.616 355.482 329.376 355.482 329.088C355.482 328.792 355.574 328.552 355.758 328.368C355.95 328.184 356.186 328.092 356.466 328.092C356.746 328.092 356.978 328.184 357.162 328.368C357.354 328.552 357.45 328.792 357.45 329.088C357.45 329.376 357.354 329.616 357.162 329.808C356.97 329.992 356.738 330.084 356.466 330.084ZM361.964 330.12C361.292 330.12 360.692 329.952 360.164 329.616C359.636 329.272 359.22 328.776 358.916 328.128C358.612 327.472 358.46 326.696 358.46 325.8C358.46 324.904 358.612 324.132 358.916 323.484C359.22 322.828 359.636 322.332 360.164 321.996C360.692 321.652 361.292 321.48 361.964 321.48C362.636 321.48 363.236 321.652 363.764 321.996C364.3 322.332 364.72 322.828 365.024 323.484C365.328 324.132 365.48 324.904 365.48 325.8C365.48 326.696 365.328 327.472 365.024 328.128C364.72 328.776 364.3 329.272 363.764 329.616C363.236 329.952 362.636 330.12 361.964 330.12ZM361.964 328.764C362.564 328.764 363.036 328.516 363.38 328.02C363.732 327.524 363.908 326.784 363.908 325.8C363.908 324.816 363.732 324.076 363.38 323.58C363.036 323.084 362.564 322.836 361.964 322.836C361.372 322.836 360.9 323.084 360.548 323.58C360.204 324.076 360.032 324.816 360.032 325.8C360.032 326.784 360.204 327.524 360.548 328.02C360.9 328.516 361.372 328.764 361.964 328.764ZM370.038 330.12C369.366 330.12 368.766 329.952 368.238 329.616C367.71 329.272 367.294 328.776 366.99 328.128C366.686 327.472 366.534 326.696 366.534 325.8C366.534 324.904 366.686 324.132 366.99 323.484C367.294 322.828 367.71 322.332 368.238 321.996C368.766 321.652 369.366 321.48 370.038 321.48C370.71 321.48 371.31 321.652 371.838 321.996C372.374 322.332 372.794 322.828 373.098 323.484C373.402 324.132 373.554 324.904 373.554 325.8C373.554 326.696 373.402 327.472 373.098 328.128C372.794 328.776 372.374 329.272 371.838 329.616C371.31 329.952 370.71 330.12 370.038 330.12ZM370.038 328.764C370.638 328.764 371.11 328.516 371.454 328.02C371.806 327.524 371.982 326.784 371.982 325.8C371.982 324.816 371.806 324.076 371.454 323.58C371.11 323.084 370.638 322.836 370.038 322.836C369.446 322.836 368.974 323.084 368.622 323.58C368.278 324.076 368.106 324.816 368.106 325.8C368.106 326.784 368.278 327.524 368.622 328.02C368.974 328.516 369.446 328.764 370.038 328.764Z" fill="#2E2E2E"/>
<path opacity="0.5" d="M401.694 330.12C401.022 330.12 400.422 329.952 399.894 329.616C399.366 329.272 398.95 328.776 398.646 328.128C398.342 327.472 398.19 326.696 398.19 325.8C398.19 324.904 398.342 324.132 398.646 323.484C398.95 322.828 399.366 322.332 399.894 321.996C400.422 321.652 401.022 321.48 401.694 321.48C402.366 321.48 402.966 321.652 403.494 321.996C404.03 322.332 404.45 322.828 404.754 323.484C405.058 324.132 405.21 324.904 405.21 325.8C405.21 326.696 405.058 327.472 404.754 328.128C404.45 328.776 404.03 329.272 403.494 329.616C402.966 329.952 402.366 330.12 401.694 330.12ZM401.694 328.764C402.294 328.764 402.766 328.516 403.11 328.02C403.462 327.524 403.638 326.784 403.638 325.8C403.638 324.816 403.462 324.076 403.11 323.58C402.766 323.084 402.294 322.836 401.694 322.836C401.102 322.836 400.63 323.084 400.278 323.58C399.934 324.076 399.762 324.816 399.762 325.8C399.762 326.784 399.934 327.524 400.278 328.02C400.63 328.516 401.102 328.764 401.694 328.764ZM409.096 321.48C410.248 321.48 411.14 321.84 411.772 322.56C412.412 323.28 412.732 324.312 412.732 325.656C412.732 326.6 412.56 327.408 412.216 328.08C411.872 328.744 411.388 329.252 410.764 329.604C410.148 329.948 409.432 330.12 408.616 330.12C408.184 330.12 407.776 330.076 407.392 329.988C407.016 329.892 406.688 329.756 406.408 329.58L406.984 328.404C407.4 328.676 407.932 328.812 408.58 328.812C409.388 328.812 410.02 328.564 410.476 328.068C410.932 327.572 411.16 326.856 411.16 325.92V325.908C410.912 326.196 410.596 326.416 410.212 326.568C409.828 326.712 409.396 326.784 408.916 326.784C408.364 326.784 407.868 326.68 407.428 326.472C406.988 326.256 406.644 325.952 406.396 325.56C406.148 325.168 406.024 324.716 406.024 324.204C406.024 323.66 406.16 323.184 406.432 322.776C406.704 322.36 407.072 322.04 407.536 321.816C408 321.592 408.52 321.48 409.096 321.48ZM409.216 325.56C409.72 325.56 410.128 325.424 410.44 325.152C410.76 324.88 410.92 324.536 410.92 324.12C410.92 323.712 410.764 323.376 410.452 323.112C410.148 322.84 409.724 322.704 409.18 322.704C408.692 322.704 408.296 322.836 407.992 323.1C407.688 323.356 407.536 323.7 407.536 324.132C407.536 324.572 407.688 324.92 407.992 325.176C408.296 325.432 408.704 325.56 409.216 325.56ZM414.724 325.512C414.452 325.512 414.22 325.42 414.028 325.236C413.836 325.044 413.74 324.804 413.74 324.516C413.74 324.22 413.832 323.98 414.016 323.796C414.208 323.612 414.444 323.52 414.724 323.52C415.004 323.52 415.236 323.612 415.42 323.796C415.612 323.98 415.708 324.22 415.708 324.516C415.708 324.804 415.612 325.044 415.42 325.236C415.228 325.42 414.996 325.512 414.724 325.512ZM414.724 330.084C414.452 330.084 414.22 329.992 414.028 329.808C413.836 329.616 413.74 329.376 413.74 329.088C413.74 328.792 413.832 328.552 414.016 328.368C414.208 328.184 414.444 328.092 414.724 328.092C415.004 328.092 415.236 328.184 415.42 328.368C415.612 328.552 415.708 328.792 415.708 329.088C415.708 329.376 415.612 329.616 415.42 329.808C415.228 329.992 414.996 330.084 414.724 330.084ZM420.221 330.12C419.549 330.12 418.949 329.952 418.421 329.616C417.893 329.272 417.477 328.776 417.173 328.128C416.869 327.472 416.717 326.696 416.717 325.8C416.717 324.904 416.869 324.132 417.173 323.484C417.477 322.828 417.893 322.332 418.421 321.996C418.949 321.652 419.549 321.48 420.221 321.48C420.893 321.48 421.493 321.652 422.021 321.996C422.557 322.332 422.977 322.828 423.281 323.484C423.585 324.132 423.737 324.904 423.737 325.8C423.737 326.696 423.585 327.472 423.281 328.128C422.977 328.776 422.557 329.272 422.021 329.616C421.493 329.952 420.893 330.12 420.221 330.12ZM420.221 328.764C420.821 328.764 421.293 328.516 421.637 328.02C421.989 327.524 422.165 326.784 422.165 325.8C422.165 324.816 421.989 324.076 421.637 323.58C421.293 323.084 420.821 322.836 420.221 322.836C419.629 322.836 419.157 323.084 418.805 323.58C418.461 324.076 418.289 324.816 418.289 325.8C418.289 326.784 418.461 327.524 418.805 328.02C419.157 328.516 419.629 328.764 420.221 328.764ZM428.296 330.12C427.624 330.12 427.024 329.952 426.496 329.616C425.968 329.272 425.552 328.776 425.248 328.128C424.944 327.472 424.792 326.696 424.792 325.8C424.792 324.904 424.944 324.132 425.248 323.484C425.552 322.828 425.968 322.332 426.496 321.996C427.024 321.652 427.624 321.48 428.296 321.48C428.968 321.48 429.568 321.652 430.096 321.996C430.632 322.332 431.052 322.828 431.356 323.484C431.66 324.132 431.812 324.904 431.812 325.8C431.812 326.696 431.66 327.472 431.356 328.128C431.052 328.776 430.632 329.272 430.096 329.616C429.568 329.952 428.968 330.12 428.296 330.12ZM428.296 328.764C428.896 328.764 429.368 328.516 429.712 328.02C430.064 327.524 430.24 326.784 430.24 325.8C430.24 324.816 430.064 324.076 429.712 323.58C429.368 323.084 428.896 322.836 428.296 322.836C427.704 322.836 427.232 323.084 426.88 323.58C426.536 324.076 426.364 324.816 426.364 325.8C426.364 326.784 426.536 327.524 426.88 328.02C427.232 328.516 427.704 328.764 428.296 328.764Z" fill="#2E2E2E"/>
<path opacity="0.5" d="M462.323 321.6V330H460.763V322.908H458.987V321.6H462.323ZM466.893 321.6V330H465.333V322.908H463.557V321.6H466.893ZM469.495 325.512C469.223 325.512 468.991 325.42 468.799 325.236C468.607 325.044 468.511 324.804 468.511 324.516C468.511 324.22 468.603 323.98 468.787 323.796C468.979 323.612 469.215 323.52 469.495 323.52C469.775 323.52 470.007 323.612 470.191 323.796C470.383 323.98 470.479 324.22 470.479 324.516C470.479 324.804 470.383 325.044 470.191 325.236C469.999 325.42 469.767 325.512 469.495 325.512ZM469.495 330.084C469.223 330.084 468.991 329.992 468.799 329.808C468.607 329.616 468.511 329.376 468.511 329.088C468.511 328.792 468.603 328.552 468.787 328.368C468.979 328.184 469.215 328.092 469.495 328.092C469.775 328.092 470.007 328.184 470.191 328.368C470.383 328.552 470.479 328.792 470.479 329.088C470.479 329.376 470.383 329.616 470.191 329.808C469.999 329.992 469.767 330.084 469.495 330.084ZM474.993 330.12C474.321 330.12 473.721 329.952 473.193 329.616C472.665 329.272 472.249 328.776 471.945 328.128C471.641 327.472 471.489 326.696 471.489 325.8C471.489 324.904 471.641 324.132 471.945 323.484C472.249 322.828 472.665 322.332 473.193 321.996C473.721 321.652 474.321 321.48 474.993 321.48C475.665 321.48 476.265 321.652 476.793 321.996C477.329 322.332 477.749 322.828 478.053 323.484C478.357 324.132 478.509 324.904 478.509 325.8C478.509 326.696 478.357 327.472 478.053 328.128C477.749 328.776 477.329 329.272 476.793 329.616C476.265 329.952 475.665 330.12 474.993 330.12ZM474.993 328.764C475.593 328.764 476.065 328.516 476.409 328.02C476.761 327.524 476.937 326.784 476.937 325.8C476.937 324.816 476.761 324.076 476.409 323.58C476.065 323.084 475.593 322.836 474.993 322.836C474.401 322.836 473.929 323.084 473.577 323.58C473.233 324.076 473.061 324.816 473.061 325.8C473.061 326.784 473.233 327.524 473.577 328.02C473.929 328.516 474.401 328.764 474.993 328.764ZM483.067 330.12C482.395 330.12 481.795 329.952 481.267 329.616C480.739 329.272 480.323 328.776 480.019 328.128C479.715 327.472 479.563 326.696 479.563 325.8C479.563 324.904 479.715 324.132 480.019 323.484C480.323 322.828 480.739 322.332 481.267 321.996C481.795 321.652 482.395 321.48 483.067 321.48C483.739 321.48 484.339 321.652 484.867 321.996C485.403 322.332 485.823 322.828 486.127 323.484C486.431 324.132 486.583 324.904 486.583 325.8C486.583 326.696 486.431 327.472 486.127 328.128C485.823 328.776 485.403 329.272 484.867 329.616C484.339 329.952 483.739 330.12 483.067 330.12ZM483.067 328.764C483.667 328.764 484.139 328.516 484.483 328.02C484.835 327.524 485.011 326.784 485.011 325.8C485.011 324.816 484.835 324.076 484.483 323.58C484.139 323.084 483.667 322.836 483.067 322.836C482.475 322.836 482.003 323.084 481.651 323.58C481.307 324.076 481.135 324.816 481.135 325.8C481.135 326.784 481.307 327.524 481.651 328.02C482.003 328.516 482.475 328.764 483.067 328.764Z" fill="#2E2E2E"/>
<path opacity="0.5" d="M519.116 321.6V330H517.556V322.908H515.78V321.6H519.116ZM524.358 325.068C525.134 325.164 525.726 325.428 526.134 325.86C526.542 326.292 526.746 326.832 526.746 327.48C526.746 327.968 526.622 328.412 526.374 328.812C526.126 329.212 525.75 329.532 525.246 329.772C524.75 330.004 524.142 330.12 523.422 330.12C522.822 330.12 522.242 330.036 521.682 329.868C521.13 329.692 520.658 329.452 520.266 329.148L520.938 327.936C521.242 328.192 521.61 328.396 522.042 328.548C522.482 328.692 522.934 328.764 523.398 328.764C523.95 328.764 524.382 328.652 524.694 328.428C525.014 328.196 525.174 327.884 525.174 327.492C525.174 327.1 525.022 326.796 524.718 326.58C524.422 326.356 523.966 326.244 523.35 326.244H522.582V325.176L524.49 322.908H520.674V321.6H526.398V322.644L524.358 325.068ZM528.702 325.512C528.43 325.512 528.198 325.42 528.006 325.236C527.814 325.044 527.718 324.804 527.718 324.516C527.718 324.22 527.81 323.98 527.994 323.796C528.186 323.612 528.422 323.52 528.702 323.52C528.982 323.52 529.214 323.612 529.398 323.796C529.59 323.98 529.686 324.22 529.686 324.516C529.686 324.804 529.59 325.044 529.398 325.236C529.206 325.42 528.974 325.512 528.702 325.512ZM528.702 330.084C528.43 330.084 528.198 329.992 528.006 329.808C527.814 329.616 527.718 329.376 527.718 329.088C527.718 328.792 527.81 328.552 527.994 328.368C528.186 328.184 528.422 328.092 528.702 328.092C528.982 328.092 529.214 328.184 529.398 328.368C529.59 328.552 529.686 328.792 529.686 329.088C529.686 329.376 529.59 329.616 529.398 329.808C529.206 329.992 528.974 330.084 528.702 330.084ZM534.2 330.12C533.528 330.12 532.928 329.952 532.4 329.616C531.872 329.272 531.456 328.776 531.152 328.128C530.848 327.472 530.696 326.696 530.696 325.8C530.696 324.904 530.848 324.132 531.152 323.484C531.456 322.828 531.872 322.332 532.4 321.996C532.928 321.652 533.528 321.48 534.2 321.48C534.872 321.48 535.472 321.652 536 321.996C536.536 322.332 536.956 322.828 537.26 323.484C537.564 324.132 537.716 324.904 537.716 325.8C537.716 326.696 537.564 327.472 537.26 328.128C536.956 328.776 536.536 329.272 536 329.616C535.472 329.952 534.872 330.12 534.2 330.12ZM534.2 328.764C534.8 328.764 535.272 328.516 535.616 328.02C535.968 327.524 536.144 326.784 536.144 325.8C536.144 324.816 535.968 324.076 535.616 323.58C535.272 323.084 534.8 322.836 534.2 322.836C533.608 322.836 533.136 323.084 532.784 323.58C532.44 324.076 532.268 324.816 532.268 325.8C532.268 326.784 532.44 327.524 532.784 328.02C533.136 328.516 533.608 328.764 534.2 328.764ZM542.274 330.12C541.602 330.12 541.002 329.952 540.474 329.616C539.946 329.272 539.53 328.776 539.226 328.128C538.922 327.472 538.77 326.696 538.77 325.8C538.77 324.904 538.922 324.132 539.226 323.484C539.53 322.828 539.946 322.332 540.474 321.996C541.002 321.652 541.602 321.48 542.274 321.48C542.946 321.48 543.546 321.652 544.074 321.996C544.61 322.332 545.03 322.828 545.334 323.484C545.638 324.132 545.79 324.904 545.79 325.8C545.79 326.696 545.638 327.472 545.334 328.128C545.03 328.776 544.61 329.272 544.074 329.616C543.546 329.952 542.946 330.12 542.274 330.12ZM542.274 328.764C542.874 328.764 543.346 328.516 543.69 328.02C544.042 327.524 544.218 326.784 544.218 325.8C544.218 324.816 544.042 324.076 543.69 323.58C543.346 323.084 542.874 322.836 542.274 322.836C541.682 322.836 541.21 323.084 540.858 323.58C540.514 324.076 540.342 324.816 540.342 325.8C540.342 326.784 540.514 327.524 540.858 328.02C541.21 328.516 541.682 328.764 542.274 328.764Z" fill="#2E2E2E"/>
<path opacity="0.5" d="M577.104 321.6V330H575.544V322.908H573.768V321.6H577.104ZM581.398 324.852C582.582 324.852 583.458 325.084 584.026 325.548C584.594 326.004 584.878 326.628 584.878 327.42C584.878 327.924 584.754 328.38 584.506 328.788C584.258 329.196 583.886 329.52 583.39 329.76C582.894 330 582.282 330.12 581.554 330.12C580.954 330.12 580.374 330.036 579.814 329.868C579.254 329.692 578.782 329.452 578.398 329.148L579.058 327.936C579.37 328.192 579.742 328.396 580.174 328.548C580.614 328.692 581.066 328.764 581.53 328.764C582.082 328.764 582.514 328.652 582.826 328.428C583.146 328.196 583.306 327.88 583.306 327.48C583.306 327.048 583.134 326.724 582.79 326.508C582.454 326.284 581.874 326.172 581.05 326.172H579.022L579.454 321.6H584.386V322.908H580.774L580.594 324.852H581.398ZM586.714 325.512C586.442 325.512 586.21 325.42 586.018 325.236C585.826 325.044 585.73 324.804 585.73 324.516C585.73 324.22 585.822 323.98 586.006 323.796C586.198 323.612 586.434 323.52 586.714 323.52C586.994 323.52 587.226 323.612 587.41 323.796C587.602 323.98 587.698 324.22 587.698 324.516C587.698 324.804 587.602 325.044 587.41 325.236C587.218 325.42 586.986 325.512 586.714 325.512ZM586.714 330.084C586.442 330.084 586.21 329.992 586.018 329.808C585.826 329.616 585.73 329.376 585.73 329.088C585.73 328.792 585.822 328.552 586.006 328.368C586.198 328.184 586.434 328.092 586.714 328.092C586.994 328.092 587.226 328.184 587.41 328.368C587.602 328.552 587.698 328.792 587.698 329.088C587.698 329.376 587.602 329.616 587.41 329.808C587.218 329.992 586.986 330.084 586.714 330.084ZM592.212 330.12C591.54 330.12 590.94 329.952 590.412 329.616C589.884 329.272 589.468 328.776 589.164 328.128C588.86 327.472 588.708 326.696 588.708 325.8C588.708 324.904 588.86 324.132 589.164 323.484C589.468 322.828 589.884 322.332 590.412 321.996C590.94 321.652 591.54 321.48 592.212 321.48C592.884 321.48 593.484 321.652 594.012 321.996C594.548 322.332 594.968 322.828 595.272 323.484C595.576 324.132 595.728 324.904 595.728 325.8C595.728 326.696 595.576 327.472 595.272 328.128C594.968 328.776 594.548 329.272 594.012 329.616C593.484 329.952 592.884 330.12 592.212 330.12ZM592.212 328.764C592.812 328.764 593.284 328.516 593.628 328.02C593.98 327.524 594.156 326.784 594.156 325.8C594.156 324.816 593.98 324.076 593.628 323.58C593.284 323.084 592.812 322.836 592.212 322.836C591.62 322.836 591.148 323.084 590.796 323.58C590.452 324.076 590.28 324.816 590.28 325.8C590.28 326.784 590.452 327.524 590.796 328.02C591.148 328.516 591.62 328.764 592.212 328.764ZM600.286 330.12C599.614 330.12 599.014 329.952 598.486 329.616C597.958 329.272 597.542 328.776 597.238 328.128C596.934 327.472 596.782 326.696 596.782 325.8C596.782 324.904 596.934 324.132 597.238 323.484C597.542 322.828 597.958 322.332 598.486 321.996C599.014 321.652 599.614 321.48 600.286 321.48C600.958 321.48 601.558 321.652 602.086 321.996C602.622 322.332 603.042 322.828 603.346 323.484C603.65 324.132 603.802 324.904 603.802 325.8C603.802 326.696 603.65 327.472 603.346 328.128C603.042 328.776 602.622 329.272 602.086 329.616C601.558 329.952 600.958 330.12 600.286 330.12ZM600.286 328.764C600.886 328.764 601.358 328.516 601.702 328.02C602.054 327.524 602.23 326.784 602.23 325.8C602.23 324.816 602.054 324.076 601.702 323.58C601.358 323.084 600.886 322.836 600.286 322.836C599.694 322.836 599.222 323.084 598.87 323.58C598.526 324.076 598.354 324.816 598.354 325.8C598.354 326.784 598.526 327.524 598.87 328.02C599.222 328.516 599.694 328.764 600.286 328.764Z" fill="#2E2E2E"/>
<path opacity="0.5" d="M635.075 321.6V330H633.515V322.908H631.739V321.6H635.075ZM643.077 321.6V322.644L639.813 330H638.145L641.301 322.92H638.001V324.348H636.549V321.6H643.077ZM644.743 325.512C644.471 325.512 644.239 325.42 644.047 325.236C643.855 325.044 643.759 324.804 643.759 324.516C643.759 324.22 643.851 323.98 644.035 323.796C644.227 323.612 644.463 323.52 644.743 323.52C645.023 323.52 645.255 323.612 645.439 323.796C645.631 323.98 645.727 324.22 645.727 324.516C645.727 324.804 645.631 325.044 645.439 325.236C645.247 325.42 645.015 325.512 644.743 325.512ZM644.743 330.084C644.471 330.084 644.239 329.992 644.047 329.808C643.855 329.616 643.759 329.376 643.759 329.088C643.759 328.792 643.851 328.552 644.035 328.368C644.227 328.184 644.463 328.092 644.743 328.092C645.023 328.092 645.255 328.184 645.439 328.368C645.631 328.552 645.727 328.792 645.727 329.088C645.727 329.376 645.631 329.616 645.439 329.808C645.247 329.992 645.015 330.084 644.743 330.084ZM650.241 330.12C649.569 330.12 648.969 329.952 648.441 329.616C647.913 329.272 647.497 328.776 647.193 328.128C646.889 327.472 646.737 326.696 646.737 325.8C646.737 324.904 646.889 324.132 647.193 323.484C647.497 322.828 647.913 322.332 648.441 321.996C648.969 321.652 649.569 321.48 650.241 321.48C650.913 321.48 651.513 321.652 652.041 321.996C652.577 322.332 652.997 322.828 653.301 323.484C653.605 324.132 653.757 324.904 653.757 325.8C653.757 326.696 653.605 327.472 653.301 328.128C652.997 328.776 652.577 329.272 652.041 329.616C651.513 329.952 650.913 330.12 650.241 330.12ZM650.241 328.764C650.841 328.764 651.313 328.516 651.657 328.02C652.009 327.524 652.185 326.784 652.185 325.8C652.185 324.816 652.009 324.076 651.657 323.58C651.313 323.084 650.841 322.836 650.241 322.836C649.649 322.836 649.177 323.084 648.825 323.58C648.481 324.076 648.309 324.816 648.309 325.8C648.309 326.784 648.481 327.524 648.825 328.02C649.177 328.516 649.649 328.764 650.241 328.764ZM658.315 330.12C657.643 330.12 657.043 329.952 656.515 329.616C655.987 329.272 655.571 328.776 655.267 328.128C654.963 327.472 654.811 326.696 654.811 325.8C654.811 324.904 654.963 324.132 655.267 323.484C655.571 322.828 655.987 322.332 656.515 321.996C657.043 321.652 657.643 321.48 658.315 321.48C658.987 321.48 659.587 321.652 660.115 321.996C660.651 322.332 661.071 322.828 661.375 323.484C661.679 324.132 661.831 324.904 661.831 325.8C661.831 326.696 661.679 327.472 661.375 328.128C661.071 328.776 660.651 329.272 660.115 329.616C659.587 329.952 658.987 330.12 658.315 330.12ZM658.315 328.764C658.915 328.764 659.387 328.516 659.731 328.02C660.083 327.524 660.259 326.784 660.259 325.8C660.259 324.816 660.083 324.076 659.731 323.58C659.387 323.084 658.915 322.836 658.315 322.836C657.723 322.836 657.251 323.084 656.899 323.58C656.555 324.076 656.383 324.816 656.383 325.8C656.383 326.784 656.555 327.524 656.899 328.02C657.251 328.516 657.723 328.764 658.315 328.764Z" fill="#2E2E2E"/>
<path opacity="0.5" d="M692.846 321.6V330H691.286V322.908H689.51V321.6H692.846ZM697.344 321.48C698.496 321.48 699.388 321.84 700.02 322.56C700.66 323.28 700.98 324.312 700.98 325.656C700.98 326.6 700.808 327.408 700.464 328.08C700.12 328.744 699.636 329.252 699.012 329.604C698.396 329.948 697.68 330.12 696.864 330.12C696.432 330.12 696.024 330.076 695.64 329.988C695.264 329.892 694.936 329.756 694.656 329.58L695.232 328.404C695.648 328.676 696.18 328.812 696.828 328.812C697.636 328.812 698.268 328.564 698.724 328.068C699.18 327.572 699.408 326.856 699.408 325.92V325.908C699.16 326.196 698.844 326.416 698.46 326.568C698.076 326.712 697.644 326.784 697.164 326.784C696.612 326.784 696.116 326.68 695.676 326.472C695.236 326.256 694.892 325.952 694.644 325.56C694.396 325.168 694.272 324.716 694.272 324.204C694.272 323.66 694.408 323.184 694.68 322.776C694.952 322.36 695.32 322.04 695.784 321.816C696.248 321.592 696.768 321.48 697.344 321.48ZM697.464 325.56C697.968 325.56 698.376 325.424 698.688 325.152C699.008 324.88 699.168 324.536 699.168 324.12C699.168 323.712 699.012 323.376 698.7 323.112C698.396 322.84 697.972 322.704 697.428 322.704C696.94 322.704 696.544 322.836 696.24 323.1C695.936 323.356 695.784 323.7 695.784 324.132C695.784 324.572 695.936 324.92 696.24 325.176C696.544 325.432 696.952 325.56 697.464 325.56ZM702.972 325.512C702.7 325.512 702.468 325.42 702.276 325.236C702.084 325.044 701.988 324.804 701.988 324.516C701.988 324.22 702.08 323.98 702.264 323.796C702.456 323.612 702.692 323.52 702.972 323.52C703.252 323.52 703.484 323.612 703.668 323.796C703.86 323.98 703.956 324.22 703.956 324.516C703.956 324.804 703.86 325.044 703.668 325.236C703.476 325.42 703.244 325.512 702.972 325.512ZM702.972 330.084C702.7 330.084 702.468 329.992 702.276 329.808C702.084 329.616 701.988 329.376 701.988 329.088C701.988 328.792 702.08 328.552 702.264 328.368C702.456 328.184 702.692 328.092 702.972 328.092C703.252 328.092 703.484 328.184 703.668 328.368C703.86 328.552 703.956 328.792 703.956 329.088C703.956 329.376 703.86 329.616 703.668 329.808C703.476 329.992 703.244 330.084 702.972 330.084ZM708.47 330.12C707.798 330.12 707.198 329.952 706.67 329.616C706.142 329.272 705.726 328.776 705.422 328.128C705.118 327.472 704.966 326.696 704.966 325.8C704.966 324.904 705.118 324.132 705.422 323.484C705.726 322.828 706.142 322.332 706.67 321.996C707.198 321.652 707.798 321.48 708.47 321.48C709.142 321.48 709.742 321.652 710.27 321.996C710.806 322.332 711.226 322.828 711.53 323.484C711.834 324.132 711.986 324.904 711.986 325.8C711.986 326.696 711.834 327.472 711.53 328.128C711.226 328.776 710.806 329.272 710.27 329.616C709.742 329.952 709.142 330.12 708.47 330.12ZM708.47 328.764C709.07 328.764 709.542 328.516 709.886 328.02C710.238 327.524 710.414 326.784 710.414 325.8C710.414 324.816 710.238 324.076 709.886 323.58C709.542 323.084 709.07 322.836 708.47 322.836C707.878 322.836 707.406 323.084 707.054 323.58C706.71 324.076 706.538 324.816 706.538 325.8C706.538 326.784 706.71 327.524 707.054 328.02C707.406 328.516 707.878 328.764 708.47 328.764ZM716.544 330.12C715.872 330.12 715.272 329.952 714.744 329.616C714.216 329.272 713.8 328.776 713.496 328.128C713.192 327.472 713.04 326.696 713.04 325.8C713.04 324.904 713.192 324.132 713.496 323.484C713.8 322.828 714.216 322.332 714.744 321.996C715.272 321.652 715.872 321.48 716.544 321.48C717.216 321.48 717.816 321.652 718.344 321.996C718.88 322.332 719.3 322.828 719.604 323.484C719.908 324.132 720.06 324.904 720.06 325.8C720.06 326.696 719.908 327.472 719.604 328.128C719.3 328.776 718.88 329.272 718.344 329.616C717.816 329.952 717.216 330.12 716.544 330.12ZM716.544 328.764C717.144 328.764 717.616 328.516 717.96 328.02C718.312 327.524 718.488 326.784 718.488 325.8C718.488 324.816 718.312 324.076 717.96 323.58C717.616 323.084 717.144 322.836 716.544 322.836C715.952 322.836 715.48 323.084 715.128 323.58C714.784 324.076 714.612 324.816 714.612 325.8C714.612 326.784 714.784 327.524 715.128 328.02C715.48 328.516 715.952 328.764 716.544 328.764Z" fill="#2E2E2E"/>
<path opacity="0.1" d="M24 297H747" stroke="#454459"/>
<path d="M51.384 34.2L45.888 51H41.712L38.016 39.624L34.2 51H30.048L24.528 34.2H28.56L32.352 46.008L36.312 34.2H39.912L43.752 46.104L47.664 34.2H51.384ZM64.9776 44.592C64.9776 44.64 64.9536 44.976 64.9056 45.6H55.1376C55.3136 46.4 55.7296 47.032 56.3856 47.496C57.0416 47.96 57.8576 48.192 58.8336 48.192C59.5056 48.192 60.0976 48.096 60.6096 47.904C61.1376 47.696 61.6256 47.376 62.0736 46.944L64.0656 49.104C62.8496 50.496 61.0736 51.192 58.7376 51.192C57.2816 51.192 55.9936 50.912 54.8736 50.352C53.7536 49.776 52.8896 48.984 52.2816 47.976C51.6736 46.968 51.3696 45.824 51.3696 44.544C51.3696 43.28 51.6656 42.144 52.2576 41.136C52.8656 40.112 53.6896 39.32 54.7296 38.76C55.7856 38.184 56.9616 37.896 58.2576 37.896C59.5216 37.896 60.6656 38.168 61.6896 38.712C62.7136 39.256 63.5136 40.04 64.0896 41.064C64.6816 42.072 64.9776 43.248 64.9776 44.592ZM58.2816 40.728C57.4336 40.728 56.7216 40.968 56.1456 41.448C55.5696 41.928 55.2176 42.584 55.0896 43.416H61.4496C61.3216 42.6 60.9696 41.952 60.3936 41.472C59.8176 40.976 59.1136 40.728 58.2816 40.728ZM72.3266 37.896C74.3266 37.896 75.8626 38.376 76.9346 39.336C78.0066 40.28 78.5426 41.712 78.5426 43.632V51H75.0386V49.392C74.3346 50.592 73.0226 51.192 71.1026 51.192C70.1106 51.192 69.2466 51.024 68.5106 50.688C67.7906 50.352 67.2386 49.888 66.8546 49.296C66.4706 48.704 66.2786 48.032 66.2786 47.28C66.2786 46.08 66.7266 45.136 67.6226 44.448C68.5346 43.76 69.9346 43.416 71.8226 43.416H74.7986C74.7986 42.6 74.5506 41.976 74.0546 41.544C73.5586 41.096 72.8146 40.872 71.8226 40.872C71.1346 40.872 70.4546 40.984 69.7826 41.208C69.1266 41.416 68.5666 41.704 68.1026 42.072L66.7586 39.456C67.4626 38.96 68.3026 38.576 69.2786 38.304C70.2706 38.032 71.2866 37.896 72.3266 37.896ZM72.0386 48.672C72.6786 48.672 73.2466 48.528 73.7426 48.24C74.2386 47.936 74.5906 47.496 74.7986 46.92V45.6H72.2306C70.6946 45.6 69.9266 46.104 69.9266 47.112C69.9266 47.592 70.1106 47.976 70.4786 48.264C70.8626 48.536 71.3826 48.672 72.0386 48.672ZM90.2591 50.376C89.8911 50.648 89.4351 50.856 88.8911 51C88.3631 51.128 87.8031 51.192 87.2111 51.192C85.6751 51.192 84.4831 50.8 83.6351 50.016C82.8031 49.232 82.3871 48.08 82.3871 46.56V41.256H80.3951V38.376H82.3871V35.232H86.1311V38.376H89.3471V41.256H86.1311V46.512C86.1311 47.056 86.2671 47.48 86.5391 47.784C86.8271 48.072 87.2271 48.216 87.7391 48.216C88.3311 48.216 88.8351 48.056 89.2511 47.736L90.2591 50.376ZM100.209 37.896C101.809 37.896 103.097 38.376 104.073 39.336C105.065 40.296 105.561 41.72 105.561 43.608V51H101.817V44.184C101.817 43.16 101.593 42.4 101.145 41.904C100.697 41.392 100.049 41.136 99.2008 41.136C98.2568 41.136 97.5048 41.432 96.9448 42.024C96.3848 42.6 96.1048 43.464 96.1048 44.616V51H92.3608V33.192H96.1048V39.432C96.6008 38.936 97.2008 38.56 97.9048 38.304C98.6088 38.032 99.3768 37.896 100.209 37.896ZM121.743 44.592C121.743 44.64 121.719 44.976 121.671 45.6H111.903C112.079 46.4 112.495 47.032 113.151 47.496C113.807 47.96 114.623 48.192 115.599 48.192C116.271 48.192 116.863 48.096 117.375 47.904C117.903 47.696 118.391 47.376 118.839 46.944L120.831 49.104C119.615 50.496 117.839 51.192 115.503 51.192C114.047 51.192 112.759 50.912 111.639 50.352C110.519 49.776 109.655 48.984 109.047 47.976C108.439 46.968 108.135 45.824 108.135 44.544C108.135 43.28 108.431 42.144 109.023 41.136C109.631 40.112 110.455 39.32 111.495 38.76C112.551 38.184 113.727 37.896 115.023 37.896C116.287 37.896 117.431 38.168 118.455 38.712C119.479 39.256 120.279 40.04 120.855 41.064C121.447 42.072 121.743 43.248 121.743 44.592ZM115.047 40.728C114.199 40.728 113.487 40.968 112.911 41.448C112.335 41.928 111.983 42.584 111.855 43.416H118.215C118.087 42.6 117.735 41.952 117.159 41.472C116.583 40.976 115.879 40.728 115.047 40.728ZM127.812 39.792C128.26 39.168 128.86 38.696 129.612 38.376C130.38 38.056 131.26 37.896 132.252 37.896V41.352C131.836 41.32 131.556 41.304 131.412 41.304C130.34 41.304 129.5 41.608 128.892 42.216C128.284 42.808 127.98 43.704 127.98 44.904V51H124.236V38.088H127.812V39.792ZM152.985 42.336H156.537V49.152C155.625 49.84 154.569 50.368 153.369 50.736C152.169 51.104 150.961 51.288 149.745 51.288C148.001 51.288 146.433 50.92 145.041 50.184C143.649 49.432 142.553 48.4 141.753 47.088C140.969 45.76 140.577 44.264 140.577 42.6C140.577 40.936 140.969 39.448 141.753 38.136C142.553 36.808 143.657 35.776 145.065 35.04C146.473 34.288 148.057 33.912 149.817 33.912C151.289 33.912 152.625 34.16 153.825 34.656C155.025 35.152 156.033 35.872 156.849 36.816L154.353 39.12C153.153 37.856 151.705 37.224 150.009 37.224C148.937 37.224 147.985 37.448 147.153 37.896C146.321 38.344 145.673 38.976 145.209 39.792C144.745 40.608 144.513 41.544 144.513 42.6C144.513 43.64 144.745 44.568 145.209 45.384C145.673 46.2 146.313 46.84 147.129 47.304C147.961 47.752 148.905 47.976 149.961 47.976C151.081 47.976 152.089 47.736 152.985 47.256V42.336ZM163.46 39.792C163.908 39.168 164.508 38.696 165.26 38.376C166.028 38.056 166.908 37.896 167.9 37.896V41.352C167.484 41.32 167.204 41.304 167.06 41.304C165.988 41.304 165.148 41.608 164.54 42.216C163.932 42.808 163.628 43.704 163.628 44.904V51H159.884V38.088H163.46V39.792ZM175.264 37.896C177.264 37.896 178.8 38.376 179.872 39.336C180.944 40.28 181.48 41.712 181.48 43.632V51H177.976V49.392C177.272 50.592 175.96 51.192 174.04 51.192C173.048 51.192 172.184 51.024 171.448 50.688C170.728 50.352 170.176 49.888 169.792 49.296C169.408 48.704 169.216 48.032 169.216 47.28C169.216 46.08 169.664 45.136 170.56 44.448C171.472 43.76 172.872 43.416 174.76 43.416H177.736C177.736 42.6 177.488 41.976 176.992 41.544C176.496 41.096 175.752 40.872 174.76 40.872C174.072 40.872 173.392 40.984 172.72 41.208C172.064 41.416 171.504 41.704 171.04 42.072L169.696 39.456C170.4 38.96 171.24 38.576 172.216 38.304C173.208 38.032 174.224 37.896 175.264 37.896ZM174.976 48.672C175.616 48.672 176.184 48.528 176.68 48.24C177.176 47.936 177.528 47.496 177.736 46.92V45.6H175.168C173.632 45.6 172.864 46.104 172.864 47.112C172.864 47.592 173.048 47.976 173.416 48.264C173.8 48.536 174.32 48.672 174.976 48.672ZM192.501 37.896C193.701 37.896 194.789 38.176 195.765 38.736C196.757 39.28 197.533 40.056 198.093 41.064C198.653 42.056 198.933 43.216 198.933 44.544C198.933 45.872 198.653 47.04 198.093 48.048C197.533 49.04 196.757 49.816 195.765 50.376C194.789 50.92 193.701 51.192 192.501 51.192C190.853 51.192 189.557 50.672 188.613 49.632V55.656H184.869V38.088H188.445V39.576C189.373 38.456 190.725 37.896 192.501 37.896ZM191.853 48.12C192.813 48.12 193.597 47.8 194.205 47.16C194.829 46.504 195.141 45.632 195.141 44.544C195.141 43.456 194.829 42.592 194.205 41.952C193.597 41.296 192.813 40.968 191.853 40.968C190.893 40.968 190.101 41.296 189.477 41.952C188.869 42.592 188.565 43.456 188.565 44.544C188.565 45.632 188.869 46.504 189.477 47.16C190.101 47.8 190.893 48.12 191.853 48.12ZM209.287 37.896C210.887 37.896 212.175 38.376 213.151 39.336C214.143 40.296 214.639 41.72 214.639 43.608V51H210.895V44.184C210.895 43.16 210.671 42.4 210.223 41.904C209.775 41.392 209.127 41.136 208.279 41.136C207.335 41.136 206.583 41.432 206.023 42.024C205.463 42.6 205.183 43.464 205.183 44.616V51H201.439V33.192H205.183V39.432C205.679 38.936 206.279 38.56 206.983 38.304C207.687 38.032 208.455 37.896 209.287 37.896Z" fill="black"/>
<path opacity="0.5" d="M47.3277 121.116V123H40.7877V121.512L43.9317 118.572C44.2357 118.284 44.4397 118.04 44.5437 117.84C44.6477 117.632 44.6997 117.424 44.6997 117.216C44.6997 116.944 44.6077 116.732 44.4237 116.58C44.2397 116.428 43.9717 116.352 43.6197 116.352C43.3077 116.352 43.0197 116.424 42.7557 116.568C42.4997 116.704 42.2877 116.904 42.1197 117.168L40.3557 116.184C40.6837 115.64 41.1437 115.212 41.7357 114.9C42.3277 114.588 43.0277 114.432 43.8357 114.432C44.4757 114.432 45.0397 114.536 45.5277 114.744C46.0237 114.952 46.4077 115.252 46.6797 115.644C46.9597 116.028 47.0997 116.476 47.0997 116.988C47.0997 117.444 46.9997 117.876 46.7997 118.284C46.6077 118.684 46.2317 119.14 45.6717 119.652L44.0877 121.116H47.3277ZM55.8807 121.392H54.6327V123H52.3167V121.392H47.8767V119.844L51.6447 114.6H54.1047L50.6847 119.508H52.3887V118.08H54.6327V119.508H55.8807V121.392ZM58.0878 118.704C57.6958 118.704 57.3318 118.612 56.9958 118.428C56.6678 118.236 56.4038 117.98 56.2038 117.66C56.0118 117.34 55.9158 116.984 55.9158 116.592C55.9158 116.2 56.0118 115.844 56.2038 115.524C56.4038 115.204 56.6678 114.952 56.9958 114.768C57.3318 114.576 57.6958 114.48 58.0878 114.48C58.4878 114.48 58.8518 114.576 59.1798 114.768C59.5158 114.952 59.7798 115.204 59.9718 115.524C60.1718 115.844 60.2718 116.2 60.2718 116.592C60.2718 116.984 60.1718 117.34 59.9718 117.66C59.7798 117.98 59.5158 118.236 59.1798 118.428C58.8518 118.612 58.4878 118.704 58.0878 118.704ZM58.0878 117.624C58.3838 117.624 58.6278 117.528 58.8198 117.336C59.0118 117.136 59.1078 116.888 59.1078 116.592C59.1078 116.304 59.0118 116.064 58.8198 115.872C58.6278 115.672 58.3838 115.572 58.0878 115.572C57.7998 115.572 57.5598 115.672 57.3678 115.872C57.1758 116.064 57.0798 116.304 57.0798 116.592C57.0798 116.888 57.1758 117.136 57.3678 117.336C57.5598 117.528 57.7998 117.624 58.0878 117.624ZM65.7409 123.168C64.8609 123.168 64.0689 122.984 63.3649 122.616C62.6689 122.24 62.1209 121.72 61.7209 121.056C61.3209 120.392 61.1209 119.64 61.1209 118.8C61.1209 117.96 61.3209 117.208 61.7209 116.544C62.1209 115.88 62.6689 115.364 63.3649 114.996C64.0689 114.62 64.8609 114.432 65.7409 114.432C66.5089 114.432 67.2009 114.568 67.8169 114.84C68.4329 115.112 68.9449 115.504 69.3529 116.016L67.8409 117.384C67.2969 116.728 66.6369 116.4 65.8609 116.4C65.4049 116.4 64.9969 116.5 64.6369 116.7C64.2849 116.9 64.0089 117.184 63.8089 117.552C63.6169 117.912 63.5209 118.328 63.5209 118.8C63.5209 119.272 63.6169 119.692 63.8089 120.06C64.0089 120.42 64.2849 120.7 64.6369 120.9C64.9969 121.1 65.4049 121.2 65.8609 121.2C66.6369 121.2 67.2969 120.872 67.8409 120.216L69.3529 121.584C68.9449 122.096 68.4329 122.488 67.8169 122.76C67.2009 123.032 66.5089 123.168 65.7409 123.168Z" fill="#2E2E2E"/>
<path opacity="0.5" d="M117.498 118.116V120H110.958V118.512L114.102 115.572C114.406 115.284 114.61 115.04 114.714 114.84C114.818 114.632 114.87 114.424 114.87 114.216C114.87 113.944 114.778 113.732 114.594 113.58C114.41 113.428 114.142 113.352 113.79 113.352C113.478 113.352 113.19 113.424 112.926 113.568C112.67 113.704 112.458 113.904 112.29 114.168L110.526 113.184C110.854 112.64 111.314 112.212 111.906 111.9C112.498 111.588 113.198 111.432 114.006 111.432C114.646 111.432 115.21 111.536 115.698 111.744C116.194 111.952 116.578 112.252 116.85 112.644C117.13 113.028 117.27 113.476 117.27 113.988C117.27 114.444 117.17 114.876 116.97 115.284C116.778 115.684 116.402 116.14 115.842 116.652L114.258 118.116H117.498ZM122.474 114.648C123.002 114.648 123.486 114.76 123.926 114.984C124.366 115.2 124.714 115.512 124.97 115.92C125.234 116.32 125.366 116.78 125.366 117.3C125.366 117.868 125.218 118.372 124.922 118.812C124.634 119.244 124.238 119.58 123.734 119.82C123.238 120.052 122.682 120.168 122.066 120.168C120.866 120.168 119.918 119.812 119.222 119.1C118.526 118.388 118.178 117.364 118.178 116.028C118.178 115.068 118.362 114.244 118.73 113.556C119.106 112.86 119.63 112.332 120.302 111.972C120.974 111.612 121.754 111.432 122.642 111.432C123.122 111.432 123.578 111.484 124.01 111.588C124.442 111.692 124.81 111.844 125.114 112.044L124.25 113.748C123.842 113.46 123.326 113.316 122.702 113.316C122.094 113.316 121.602 113.484 121.226 113.82C120.85 114.156 120.634 114.64 120.578 115.272C121.058 114.856 121.69 114.648 122.474 114.648ZM121.922 118.476C122.258 118.476 122.53 118.38 122.738 118.188C122.954 117.996 123.062 117.736 123.062 117.408C123.062 117.088 122.954 116.832 122.738 116.64C122.53 116.448 122.254 116.352 121.91 116.352C121.566 116.352 121.286 116.452 121.07 116.652C120.854 116.844 120.746 117.1 120.746 117.42C120.746 117.732 120.85 117.988 121.058 118.188C121.274 118.38 121.562 118.476 121.922 118.476ZM127.918 115.704C127.526 115.704 127.162 115.612 126.826 115.428C126.498 115.236 126.234 114.98 126.034 114.66C125.842 114.34 125.746 113.984 125.746 113.592C125.746 113.2 125.842 112.844 126.034 112.524C126.234 112.204 126.498 111.952 126.826 111.768C127.162 111.576 127.526 111.48 127.918 111.48C128.318 111.48 128.682 111.576 129.01 111.768C129.346 111.952 129.61 112.204 129.802 112.524C130.002 112.844 130.102 113.2 130.102 113.592C130.102 113.984 130.002 114.34 129.802 114.66C129.61 114.98 129.346 115.236 129.01 115.428C128.682 115.612 128.318 115.704 127.918 115.704ZM127.918 114.624C128.214 114.624 128.458 114.528 128.65 114.336C128.842 114.136 128.938 113.888 128.938 113.592C128.938 113.304 128.842 113.064 128.65 112.872C128.458 112.672 128.214 112.572 127.918 112.572C127.63 112.572 127.39 112.672 127.198 112.872C127.006 113.064 126.91 113.304 126.91 113.592C126.91 113.888 127.006 114.136 127.198 114.336C127.39 114.528 127.63 114.624 127.918 114.624ZM135.571 120.168C134.691 120.168 133.899 119.984 133.195 119.616C132.499 119.24 131.951 118.72 131.551 118.056C131.151 117.392 130.951 116.64 130.951 115.8C130.951 114.96 131.151 114.208 131.551 113.544C131.951 112.88 132.499 112.364 133.195 111.996C133.899 111.62 134.691 111.432 135.571 111.432C136.339 111.432 137.031 111.568 137.647 111.84C138.263 112.112 138.775 112.504 139.183 113.016L137.671 114.384C137.127 113.728 136.467 113.4 135.691 113.4C135.235 113.4 134.827 113.5 134.467 113.7C134.115 113.9 133.839 114.184 133.639 114.552C133.447 114.912 133.351 115.328 133.351 115.8C133.351 116.272 133.447 116.692 133.639 117.06C133.839 117.42 134.115 117.7 134.467 117.9C134.827 118.1 135.235 118.2 135.691 118.2C136.467 118.2 137.127 117.872 137.671 117.216L139.183 118.584C138.775 119.096 138.263 119.488 137.647 119.76C137.031 120.032 136.339 120.168 135.571 120.168Z" fill="#2E2E2E"/>
<path opacity="0.5" d="M178.791 133.116V135H172.251V133.512L175.395 130.572C175.699 130.284 175.903 130.04 176.007 129.84C176.111 129.632 176.163 129.424 176.163 129.216C176.163 128.944 176.071 128.732 175.887 128.58C175.703 128.428 175.435 128.352 175.083 128.352C174.771 128.352 174.483 128.424 174.219 128.568C173.963 128.704 173.751 128.904 173.583 129.168L171.819 128.184C172.147 127.64 172.607 127.212 173.199 126.9C173.791 126.588 174.491 126.432 175.299 126.432C175.939 126.432 176.503 126.536 176.991 126.744C177.487 126.952 177.871 127.252 178.143 127.644C178.423 128.028 178.563 128.476 178.563 128.988C178.563 129.444 178.463 129.876 178.263 130.284C178.071 130.684 177.695 131.14 177.135 131.652L175.551 133.116H178.791ZM183.79 129.96C184.486 130.104 185.018 130.392 185.386 130.824C185.762 131.248 185.95 131.764 185.95 132.372C185.95 132.868 185.814 133.328 185.542 133.752C185.278 134.176 184.87 134.52 184.318 134.784C183.774 135.04 183.098 135.168 182.29 135.168C181.698 135.168 181.11 135.096 180.526 134.952C179.95 134.808 179.45 134.604 179.026 134.34L179.89 132.552C180.218 132.776 180.586 132.948 180.994 133.068C181.41 133.188 181.818 133.248 182.218 133.248C182.626 133.248 182.95 133.172 183.19 133.02C183.43 132.868 183.55 132.652 183.55 132.372C183.55 131.828 183.122 131.556 182.266 131.556H181.27V130.056L182.77 128.436H179.458V126.6H185.53V128.088L183.79 129.96ZM188.625 130.704C188.233 130.704 187.869 130.612 187.533 130.428C187.205 130.236 186.941 129.98 186.741 129.66C186.549 129.34 186.453 128.984 186.453 128.592C186.453 128.2 186.549 127.844 186.741 127.524C186.941 127.204 187.205 126.952 187.533 126.768C187.869 126.576 188.233 126.48 188.625 126.48C189.025 126.48 189.389 126.576 189.717 126.768C190.053 126.952 190.317 127.204 190.509 127.524C190.709 127.844 190.809 128.2 190.809 128.592C190.809 128.984 190.709 129.34 190.509 129.66C190.317 129.98 190.053 130.236 189.717 130.428C189.389 130.612 189.025 130.704 188.625 130.704ZM188.625 129.624C188.921 129.624 189.165 129.528 189.357 129.336C189.549 129.136 189.645 128.888 189.645 128.592C189.645 128.304 189.549 128.064 189.357 127.872C189.165 127.672 188.921 127.572 188.625 127.572C188.337 127.572 188.097 127.672 187.905 127.872C187.713 128.064 187.617 128.304 187.617 128.592C187.617 128.888 187.713 129.136 187.905 129.336C188.097 129.528 188.337 129.624 188.625 129.624ZM196.278 135.168C195.398 135.168 194.606 134.984 193.902 134.616C193.206 134.24 192.658 133.72 192.258 133.056C191.858 132.392 191.658 131.64 191.658 130.8C191.658 129.96 191.858 129.208 192.258 128.544C192.658 127.88 193.206 127.364 193.902 126.996C194.606 126.62 195.398 126.432 196.278 126.432C197.046 126.432 197.738 126.568 198.354 126.84C198.97 127.112 199.482 127.504 199.89 128.016L198.378 129.384C197.834 128.728 197.174 128.4 196.398 128.4C195.942 128.4 195.534 128.5 195.174 128.7C194.822 128.9 194.546 129.184 194.346 129.552C194.154 129.912 194.058 130.328 194.058 130.8C194.058 131.272 194.154 131.692 194.346 132.06C194.546 132.42 194.822 132.7 195.174 132.9C195.534 133.1 195.942 133.2 196.398 133.2C197.174 133.2 197.834 132.872 198.378 132.216L199.89 133.584C199.482 134.096 198.97 134.488 198.354 134.76C197.738 135.032 197.046 135.168 196.278 135.168Z" fill="#2E2E2E"/>
<path opacity="0.5" d="M231.572 153.6V162H229.196V155.436H227.636V153.6H231.572ZM238.884 157.572C239.268 157.796 239.564 158.072 239.772 158.4C239.98 158.728 240.084 159.104 240.084 159.528C240.084 160.056 239.932 160.52 239.628 160.92C239.324 161.32 238.896 161.628 238.344 161.844C237.792 162.06 237.156 162.168 236.436 162.168C235.716 162.168 235.08 162.06 234.528 161.844C233.976 161.628 233.548 161.32 233.244 160.92C232.94 160.52 232.788 160.056 232.788 159.528C232.788 159.104 232.892 158.728 233.1 158.4C233.308 158.072 233.604 157.796 233.988 157.572C233.7 157.372 233.476 157.128 233.316 156.84C233.164 156.552 233.088 156.232 233.088 155.88C233.088 155.392 233.228 154.964 233.508 154.596C233.788 154.22 234.18 153.932 234.684 153.732C235.196 153.532 235.78 153.432 236.436 153.432C237.092 153.432 237.672 153.532 238.176 153.732C238.688 153.932 239.084 154.22 239.364 154.596C239.644 154.964 239.784 155.392 239.784 155.88C239.784 156.232 239.704 156.552 239.544 156.84C239.392 157.128 239.172 157.372 238.884 157.572ZM236.436 155.1C236.14 155.1 235.9 155.18 235.716 155.34C235.532 155.492 235.44 155.708 235.44 155.988C235.44 156.26 235.528 156.476 235.704 156.636C235.888 156.788 236.132 156.864 236.436 156.864C236.74 156.864 236.984 156.788 237.168 156.636C237.352 156.476 237.444 156.26 237.444 155.988C237.444 155.708 237.352 155.492 237.168 155.34C236.984 155.18 236.74 155.1 236.436 155.1ZM236.436 160.5C236.82 160.5 237.124 160.408 237.348 160.224C237.58 160.032 237.696 159.776 237.696 159.456C237.696 159.136 237.58 158.884 237.348 158.7C237.124 158.508 236.82 158.412 236.436 158.412C236.052 158.412 235.744 158.508 235.512 158.7C235.288 158.884 235.176 159.136 235.176 159.456C235.176 159.776 235.288 160.032 235.512 160.224C235.744 160.408 236.052 160.5 236.436 160.5ZM242.951 157.704C242.559 157.704 242.195 157.612 241.859 157.428C241.531 157.236 241.267 156.98 241.067 156.66C240.875 156.34 240.779 155.984 240.779 155.592C240.779 155.2 240.875 154.844 241.067 154.524C241.267 154.204 241.531 153.952 241.859 153.768C242.195 153.576 242.559 153.48 242.951 153.48C243.351 153.48 243.715 153.576 244.043 153.768C244.379 153.952 244.643 154.204 244.835 154.524C245.035 154.844 245.135 155.2 245.135 155.592C245.135 155.984 245.035 156.34 244.835 156.66C244.643 156.98 244.379 157.236 244.043 157.428C243.715 157.612 243.351 157.704 242.951 157.704ZM242.951 156.624C243.247 156.624 243.491 156.528 243.683 156.336C243.875 156.136 243.971 155.888 243.971 155.592C243.971 155.304 243.875 155.064 243.683 154.872C243.491 154.672 243.247 154.572 242.951 154.572C242.663 154.572 242.423 154.672 242.231 154.872C242.039 155.064 241.943 155.304 241.943 155.592C241.943 155.888 242.039 156.136 242.231 156.336C242.423 156.528 242.663 156.624 242.951 156.624ZM250.604 162.168C249.724 162.168 248.932 161.984 248.228 161.616C247.532 161.24 246.984 160.72 246.584 160.056C246.184 159.392 245.984 158.64 245.984 157.8C245.984 156.96 246.184 156.208 246.584 155.544C246.984 154.88 247.532 154.364 248.228 153.996C248.932 153.62 249.724 153.432 250.604 153.432C251.372 153.432 252.064 153.568 252.68 153.84C253.296 154.112 253.808 154.504 254.216 155.016L252.704 156.384C252.16 155.728 251.5 155.4 250.724 155.4C250.268 155.4 249.86 155.5 249.5 155.7C249.148 155.9 248.872 156.184 248.672 156.552C248.48 156.912 248.384 157.328 248.384 157.8C248.384 158.272 248.48 158.692 248.672 159.06C248.872 159.42 249.148 159.7 249.5 159.9C249.86 160.1 250.268 160.2 250.724 160.2C251.5 160.2 252.16 159.872 252.704 159.216L254.216 160.584C253.808 161.096 253.296 161.488 252.68 161.76C252.064 162.032 251.372 162.168 250.604 162.168Z" fill="#2E2E2E"/>
<path opacity="0.5" d="M295.211 147.116V149H288.671V147.512L291.815 144.572C292.119 144.284 292.323 144.04 292.427 143.84C292.531 143.632 292.583 143.424 292.583 143.216C292.583 142.944 292.491 142.732 292.307 142.58C292.123 142.428 291.855 142.352 291.503 142.352C291.191 142.352 290.903 142.424 290.639 142.568C290.383 142.704 290.171 142.904 290.003 143.168L288.239 142.184C288.567 141.64 289.027 141.212 289.619 140.9C290.211 140.588 290.911 140.432 291.719 140.432C292.359 140.432 292.923 140.536 293.411 140.744C293.907 140.952 294.291 141.252 294.563 141.644C294.843 142.028 294.983 142.476 294.983 142.988C294.983 143.444 294.883 143.876 294.683 144.284C294.491 144.684 294.115 145.14 293.555 145.652L291.971 147.116H295.211ZM299.598 149.168C298.878 149.168 298.238 148.996 297.678 148.652C297.118 148.308 296.678 147.808 296.358 147.152C296.046 146.488 295.89 145.704 295.89 144.8C295.89 143.896 296.046 143.116 296.358 142.46C296.678 141.796 297.118 141.292 297.678 140.948C298.238 140.604 298.878 140.432 299.598 140.432C300.31 140.432 300.946 140.604 301.506 140.948C302.066 141.292 302.502 141.796 302.814 142.46C303.134 143.116 303.294 143.896 303.294 144.8C303.294 145.704 303.134 146.488 302.814 147.152C302.502 147.808 302.066 148.308 301.506 148.652C300.946 148.996 300.31 149.168 299.598 149.168ZM299.598 147.224C299.998 147.224 300.314 147.032 300.546 146.648C300.786 146.256 300.906 145.64 300.906 144.8C300.906 143.96 300.786 143.348 300.546 142.964C300.314 142.572 299.998 142.376 299.598 142.376C299.19 142.376 298.866 142.572 298.626 142.964C298.394 143.348 298.278 143.96 298.278 144.8C298.278 145.64 298.394 146.256 298.626 146.648C298.866 147.032 299.19 147.224 299.598 147.224ZM306.205 144.704C305.813 144.704 305.449 144.612 305.113 144.428C304.785 144.236 304.521 143.98 304.321 143.66C304.129 143.34 304.033 142.984 304.033 142.592C304.033 142.2 304.129 141.844 304.321 141.524C304.521 141.204 304.785 140.952 305.113 140.768C305.449 140.576 305.813 140.48 306.205 140.48C306.605 140.48 306.969 140.576 307.297 140.768C307.633 140.952 307.897 141.204 308.089 141.524C308.289 141.844 308.389 142.2 308.389 142.592C308.389 142.984 308.289 143.34 308.089 143.66C307.897 143.98 307.633 144.236 307.297 144.428C306.969 144.612 306.605 144.704 306.205 144.704ZM306.205 143.624C306.501 143.624 306.745 143.528 306.937 143.336C307.129 143.136 307.225 142.888 307.225 142.592C307.225 142.304 307.129 142.064 306.937 141.872C306.745 141.672 306.501 141.572 306.205 141.572C305.917 141.572 305.677 141.672 305.485 141.872C305.293 142.064 305.197 142.304 305.197 142.592C305.197 142.888 305.293 143.136 305.485 143.336C305.677 143.528 305.917 143.624 306.205 143.624ZM313.858 149.168C312.978 149.168 312.186 148.984 311.482 148.616C310.786 148.24 310.238 147.72 309.838 147.056C309.438 146.392 309.238 145.64 309.238 144.8C309.238 143.96 309.438 143.208 309.838 142.544C310.238 141.88 310.786 141.364 311.482 140.996C312.186 140.62 312.978 140.432 313.858 140.432C314.626 140.432 315.318 140.568 315.934 140.84C316.55 141.112 317.062 141.504 317.47 142.016L315.958 143.384C315.414 142.728 314.754 142.4 313.978 142.4C313.522 142.4 313.114 142.5 312.754 142.7C312.402 142.9 312.126 143.184 311.926 143.552C311.734 143.912 311.638 144.328 311.638 144.8C311.638 145.272 311.734 145.692 311.926 146.06C312.126 146.42 312.402 146.7 312.754 146.9C313.114 147.1 313.522 147.2 313.978 147.2C314.754 147.2 315.414 146.872 315.958 146.216L317.47 147.584C317.062 148.096 316.55 148.488 315.934 148.76C315.318 149.032 314.626 149.168 313.858 149.168Z" fill="#2E2E2E"/>
<path opacity="0.5" d="M349.726 127.116V129H343.186V127.512L346.33 124.572C346.634 124.284 346.838 124.04 346.942 123.84C347.046 123.632 347.098 123.424 347.098 123.216C347.098 122.944 347.006 122.732 346.822 122.58C346.638 122.428 346.37 122.352 346.018 122.352C345.706 122.352 345.418 122.424 345.154 122.568C344.898 122.704 344.686 122.904 344.518 123.168L342.754 122.184C343.082 121.64 343.542 121.212 344.134 120.9C344.726 120.588 345.426 120.432 346.234 120.432C346.874 120.432 347.438 120.536 347.926 120.744C348.422 120.952 348.806 121.252 349.078 121.644C349.358 122.028 349.498 122.476 349.498 122.988C349.498 123.444 349.398 123.876 349.198 124.284C349.006 124.684 348.63 125.14 348.07 125.652L346.486 127.116H349.726ZM356.91 127.116V129H350.37V127.512L353.514 124.572C353.818 124.284 354.022 124.04 354.126 123.84C354.23 123.632 354.282 123.424 354.282 123.216C354.282 122.944 354.19 122.732 354.006 122.58C353.822 122.428 353.554 122.352 353.202 122.352C352.89 122.352 352.602 122.424 352.338 122.568C352.082 122.704 351.87 122.904 351.702 123.168L349.938 122.184C350.266 121.64 350.726 121.212 351.318 120.9C351.91 120.588 352.61 120.432 353.418 120.432C354.058 120.432 354.622 120.536 355.11 120.744C355.606 120.952 355.99 121.252 356.262 121.644C356.542 122.028 356.682 122.476 356.682 122.988C356.682 123.444 356.582 123.876 356.382 124.284C356.19 124.684 355.814 125.14 355.254 125.652L353.67 127.116H356.91ZM359.689 124.704C359.297 124.704 358.933 124.612 358.597 124.428C358.269 124.236 358.005 123.98 357.805 123.66C357.613 123.34 357.517 122.984 357.517 122.592C357.517 122.2 357.613 121.844 357.805 121.524C358.005 121.204 358.269 120.952 358.597 120.768C358.933 120.576 359.297 120.48 359.689 120.48C360.089 120.48 360.453 120.576 360.781 120.768C361.117 120.952 361.381 121.204 361.573 121.524C361.773 121.844 361.873 122.2 361.873 122.592C361.873 122.984 361.773 123.34 361.573 123.66C361.381 123.98 361.117 124.236 360.781 124.428C360.453 124.612 360.089 124.704 359.689 124.704ZM359.689 123.624C359.985 123.624 360.229 123.528 360.421 123.336C360.613 123.136 360.709 122.888 360.709 122.592C360.709 122.304 360.613 122.064 360.421 121.872C360.229 121.672 359.985 121.572 359.689 121.572C359.401 121.572 359.161 121.672 358.969 121.872C358.777 122.064 358.681 122.304 358.681 122.592C358.681 122.888 358.777 123.136 358.969 123.336C359.161 123.528 359.401 123.624 359.689 123.624ZM367.342 129.168C366.462 129.168 365.67 128.984 364.966 128.616C364.27 128.24 363.722 127.72 363.322 127.056C362.922 126.392 362.722 125.64 362.722 124.8C362.722 123.96 362.922 123.208 363.322 122.544C363.722 121.88 364.27 121.364 364.966 120.996C365.67 120.62 366.462 120.432 367.342 120.432C368.11 120.432 368.802 120.568 369.418 120.84C370.034 121.112 370.546 121.504 370.954 122.016L369.442 123.384C368.898 122.728 368.238 122.4 367.462 122.4C367.006 122.4 366.598 122.5 366.238 122.7C365.886 122.9 365.61 123.184 365.41 123.552C365.218 123.912 365.122 124.328 365.122 124.8C365.122 125.272 365.218 125.692 365.41 126.06C365.61 126.42 365.886 126.7 366.238 126.9C366.598 127.1 367.006 127.2 367.462 127.2C368.238 127.2 368.898 126.872 369.442 126.216L370.954 127.584C370.546 128.096 370.034 128.488 369.418 128.76C368.802 129.032 368.11 129.168 367.342 129.168Z" fill="#2E2E2E"/>
<path opacity="0.5" d="M404.997 89.96C405.693 90.104 406.225 90.392 406.593 90.824C406.969 91.248 407.157 91.764 407.157 92.372C407.157 92.868 407.021 93.328 406.749 93.752C406.485 94.176 406.077 94.52 405.525 94.784C404.981 95.04 404.305 95.168 403.497 95.168C402.905 95.168 402.317 95.096 401.733 94.952C401.157 94.808 400.657 94.604 400.233 94.34L401.097 92.552C401.425 92.776 401.793 92.948 402.201 93.068C402.617 93.188 403.025 93.248 403.425 93.248C403.833 93.248 404.157 93.172 404.397 93.02C404.637 92.868 404.757 92.652 404.757 92.372C404.757 91.828 404.329 91.556 403.473 91.556H402.477V90.056L403.977 88.436H400.665V86.6H406.737V88.088L404.997 89.96ZM411.628 95.168C410.908 95.168 410.268 94.996 409.708 94.652C409.148 94.308 408.708 93.808 408.388 93.152C408.076 92.488 407.92 91.704 407.92 90.8C407.92 89.896 408.076 89.116 408.388 88.46C408.708 87.796 409.148 87.292 409.708 86.948C410.268 86.604 410.908 86.432 411.628 86.432C412.34 86.432 412.976 86.604 413.536 86.948C414.096 87.292 414.532 87.796 414.844 88.46C415.164 89.116 415.324 89.896 415.324 90.8C415.324 91.704 415.164 92.488 414.844 93.152C414.532 93.808 414.096 94.308 413.536 94.652C412.976 94.996 412.34 95.168 411.628 95.168ZM411.628 93.224C412.028 93.224 412.344 93.032 412.576 92.648C412.816 92.256 412.936 91.64 412.936 90.8C412.936 89.96 412.816 89.348 412.576 88.964C412.344 88.572 412.028 88.376 411.628 88.376C411.22 88.376 410.896 88.572 410.656 88.964C410.424 89.348 410.308 89.96 410.308 90.8C410.308 91.64 410.424 92.256 410.656 92.648C410.896 93.032 411.22 93.224 411.628 93.224ZM418.234 90.704C417.842 90.704 417.478 90.612 417.142 90.428C416.814 90.236 416.55 89.98 416.35 89.66C416.158 89.34 416.062 88.984 416.062 88.592C416.062 88.2 416.158 87.844 416.35 87.524C416.55 87.204 416.814 86.952 417.142 86.768C417.478 86.576 417.842 86.48 418.234 86.48C418.634 86.48 418.998 86.576 419.326 86.768C419.662 86.952 419.926 87.204 420.118 87.524C420.318 87.844 420.418 88.2 420.418 88.592C420.418 88.984 420.318 89.34 420.118 89.66C419.926 89.98 419.662 90.236 419.326 90.428C418.998 90.612 418.634 90.704 418.234 90.704ZM418.234 89.624C418.53 89.624 418.774 89.528 418.966 89.336C419.158 89.136 419.254 88.888 419.254 88.592C419.254 88.304 419.158 88.064 418.966 87.872C418.774 87.672 418.53 87.572 418.234 87.572C417.946 87.572 417.706 87.672 417.514 87.872C417.322 88.064 417.226 88.304 417.226 88.592C417.226 88.888 417.322 89.136 417.514 89.336C417.706 89.528 417.946 89.624 418.234 89.624ZM425.887 95.168C425.007 95.168 424.215 94.984 423.511 94.616C422.815 94.24 422.267 93.72 421.867 93.056C421.467 92.392 421.267 91.64 421.267 90.8C421.267 89.96 421.467 89.208 421.867 88.544C422.267 87.88 422.815 87.364 423.511 86.996C424.215 86.62 425.007 86.432 425.887 86.432C426.655 86.432 427.347 86.568 427.963 86.84C428.579 87.112 429.091 87.504 429.499 88.016L427.987 89.384C427.443 88.728 426.783 88.4 426.007 88.4C425.551 88.4 425.143 88.5 424.783 88.7C424.431 88.9 424.155 89.184 423.955 89.552C423.763 89.912 423.667 90.328 423.667 90.8C423.667 91.272 423.763 91.692 423.955 92.06C424.155 92.42 424.431 92.7 424.783 92.9C425.143 93.1 425.551 93.2 426.007 93.2C426.783 93.2 427.443 92.872 427.987 92.216L429.499 93.584C429.091 94.096 428.579 94.488 427.963 94.76C427.347 95.032 426.655 95.168 425.887 95.168Z" fill="#2E2E2E"/>
<path opacity="0.5" d="M637.548 75.96C638.244 76.104 638.776 76.392 639.144 76.824C639.52 77.248 639.708 77.764 639.708 78.372C639.708 78.868 639.572 79.328 639.3 79.752C639.036 80.176 638.628 80.52 638.076 80.784C637.532 81.04 636.856 81.168 636.048 81.168C635.456 81.168 634.868 81.096 634.284 80.952C633.708 80.808 633.208 80.604 632.784 80.34L633.648 78.552C633.976 78.776 634.344 78.948 634.752 79.068C635.168 79.188 635.576 79.248 635.976 79.248C636.384 79.248 636.708 79.172 636.948 79.02C637.188 78.868 637.308 78.652 637.308 78.372C637.308 77.828 636.88 77.556 636.024 77.556H635.028V76.056L636.528 74.436H633.216V72.6H639.288V74.088L637.548 75.96ZM646.904 79.116V81H640.364V79.512L643.508 76.572C643.812 76.284 644.016 76.04 644.12 75.84C644.224 75.632 644.276 75.424 644.276 75.216C644.276 74.944 644.184 74.732 644 74.58C643.816 74.428 643.548 74.352 643.196 74.352C642.884 74.352 642.596 74.424 642.332 74.568C642.076 74.704 641.864 74.904 641.696 75.168L639.932 74.184C640.26 73.64 640.72 73.212 641.312 72.9C641.904 72.588 642.604 72.432 643.412 72.432C644.052 72.432 644.616 72.536 645.104 72.744C645.6 72.952 645.984 73.252 646.256 73.644C646.536 74.028 646.676 74.476 646.676 74.988C646.676 75.444 646.576 75.876 646.376 76.284C646.184 76.684 645.808 77.14 645.248 77.652L643.664 79.116H646.904ZM649.684 76.704C649.292 76.704 648.928 76.612 648.592 76.428C648.264 76.236 648 75.98 647.8 75.66C647.608 75.34 647.512 74.984 647.512 74.592C647.512 74.2 647.608 73.844 647.8 73.524C648 73.204 648.264 72.952 648.592 72.768C648.928 72.576 649.292 72.48 649.684 72.48C650.084 72.48 650.448 72.576 650.776 72.768C651.112 72.952 651.376 73.204 651.568 73.524C651.768 73.844 651.868 74.2 651.868 74.592C651.868 74.984 651.768 75.34 651.568 75.66C651.376 75.98 651.112 76.236 650.776 76.428C650.448 76.612 650.084 76.704 649.684 76.704ZM649.684 75.624C649.98 75.624 650.224 75.528 650.416 75.336C650.608 75.136 650.704 74.888 650.704 74.592C650.704 74.304 650.608 74.064 650.416 73.872C650.224 73.672 649.98 73.572 649.684 73.572C649.396 73.572 649.156 73.672 648.964 73.872C648.772 74.064 648.676 74.304 648.676 74.592C648.676 74.888 648.772 75.136 648.964 75.336C649.156 75.528 649.396 75.624 649.684 75.624ZM657.337 81.168C656.457 81.168 655.665 80.984 654.961 80.616C654.265 80.24 653.717 79.72 653.317 79.056C652.917 78.392 652.717 77.64 652.717 76.8C652.717 75.96 652.917 75.208 653.317 74.544C653.717 73.88 654.265 73.364 654.961 72.996C655.665 72.62 656.457 72.432 657.337 72.432C658.105 72.432 658.797 72.568 659.413 72.84C660.029 73.112 660.541 73.504 660.949 74.016L659.437 75.384C658.893 74.728 658.233 74.4 657.457 74.4C657.001 74.4 656.593 74.5 656.233 74.7C655.881 74.9 655.605 75.184 655.405 75.552C655.213 75.912 655.117 76.328 655.117 76.8C655.117 77.272 655.213 77.692 655.405 78.06C655.605 78.42 655.881 78.7 656.233 78.9C656.593 79.1 657.001 79.2 657.457 79.2C658.233 79.2 658.893 78.872 659.437 78.216L660.949 79.584C660.541 80.096 660.029 80.488 659.413 80.76C658.797 81.032 658.105 81.168 657.337 81.168Z" fill="#2E2E2E"/>
<path opacity="0.5" d="M696.679 81.96C697.375 82.104 697.907 82.392 698.275 82.824C698.651 83.248 698.839 83.764 698.839 84.372C698.839 84.868 698.703 85.328 698.431 85.752C698.167 86.176 697.759 86.52 697.207 86.784C696.663 87.04 695.987 87.168 695.179 87.168C694.587 87.168 693.999 87.096 693.415 86.952C692.839 86.808 692.339 86.604 691.915 86.34L692.779 84.552C693.107 84.776 693.475 84.948 693.883 85.068C694.299 85.188 694.707 85.248 695.107 85.248C695.515 85.248 695.839 85.172 696.079 85.02C696.319 84.868 696.439 84.652 696.439 84.372C696.439 83.828 696.011 83.556 695.155 83.556H694.159V82.056L695.659 80.436H692.347V78.6H698.419V80.088L696.679 81.96ZM703.201 78.6V87H700.825V80.436H699.265V78.6H703.201ZM706.553 82.704C706.161 82.704 705.797 82.612 705.461 82.428C705.133 82.236 704.869 81.98 704.669 81.66C704.477 81.34 704.381 80.984 704.381 80.592C704.381 80.2 704.477 79.844 704.669 79.524C704.869 79.204 705.133 78.952 705.461 78.768C705.797 78.576 706.161 78.48 706.553 78.48C706.953 78.48 707.317 78.576 707.645 78.768C707.981 78.952 708.245 79.204 708.437 79.524C708.637 79.844 708.737 80.2 708.737 80.592C708.737 80.984 708.637 81.34 708.437 81.66C708.245 81.98 707.981 82.236 707.645 82.428C707.317 82.612 706.953 82.704 706.553 82.704ZM706.553 81.624C706.849 81.624 707.093 81.528 707.285 81.336C707.477 81.136 707.573 80.888 707.573 80.592C707.573 80.304 707.477 80.064 707.285 79.872C707.093 79.672 706.849 79.572 706.553 79.572C706.265 79.572 706.025 79.672 705.833 79.872C705.641 80.064 705.545 80.304 705.545 80.592C705.545 80.888 705.641 81.136 705.833 81.336C706.025 81.528 706.265 81.624 706.553 81.624ZM714.206 87.168C713.326 87.168 712.534 86.984 711.83 86.616C711.134 86.24 710.586 85.72 710.186 85.056C709.786 84.392 709.586 83.64 709.586 82.8C709.586 81.96 709.786 81.208 710.186 80.544C710.586 79.88 711.134 79.364 711.83 78.996C712.534 78.62 713.326 78.432 714.206 78.432C714.974 78.432 715.666 78.568 716.282 78.84C716.898 79.112 717.41 79.504 717.818 80.016L716.306 81.384C715.762 80.728 715.102 80.4 714.326 80.4C713.87 80.4 713.462 80.5 713.102 80.7C712.75 80.9 712.474 81.184 712.274 81.552C712.082 81.912 711.986 82.328 711.986 82.8C711.986 83.272 712.082 83.692 712.274 84.06C712.474 84.42 712.75 84.7 713.102 84.9C713.462 85.1 713.87 85.2 714.326 85.2C715.102 85.2 715.762 84.872 716.306 84.216L717.818 85.584C717.41 86.096 716.898 86.488 716.282 86.76C715.666 87.032 714.974 87.168 714.206 87.168Z" fill="#2E2E2E"/>
<path opacity="0.5" d="M465.304 96.116V98H458.764V96.512L461.908 93.572C462.212 93.284 462.416 93.04 462.52 92.84C462.624 92.632 462.676 92.424 462.676 92.216C462.676 91.944 462.584 91.732 462.4 91.58C462.216 91.428 461.948 91.352 461.596 91.352C461.284 91.352 460.996 91.424 460.732 91.568C460.476 91.704 460.264 91.904 460.096 92.168L458.332 91.184C458.66 90.64 459.12 90.212 459.712 89.9C460.304 89.588 461.004 89.432 461.812 89.432C462.452 89.432 463.016 89.536 463.504 89.744C464 89.952 464.384 90.252 464.656 90.644C464.936 91.028 465.076 91.476 465.076 91.988C465.076 92.444 464.976 92.876 464.776 93.284C464.584 93.684 464.208 94.14 463.648 94.652L462.064 96.116H465.304ZM472.044 93.572C472.428 93.796 472.724 94.072 472.932 94.4C473.14 94.728 473.244 95.104 473.244 95.528C473.244 96.056 473.092 96.52 472.788 96.92C472.484 97.32 472.056 97.628 471.504 97.844C470.952 98.06 470.316 98.168 469.596 98.168C468.876 98.168 468.24 98.06 467.688 97.844C467.136 97.628 466.708 97.32 466.404 96.92C466.1 96.52 465.948 96.056 465.948 95.528C465.948 95.104 466.052 94.728 466.26 94.4C466.468 94.072 466.764 93.796 467.148 93.572C466.86 93.372 466.636 93.128 466.476 92.84C466.324 92.552 466.248 92.232 466.248 91.88C466.248 91.392 466.388 90.964 466.668 90.596C466.948 90.22 467.34 89.932 467.844 89.732C468.356 89.532 468.94 89.432 469.596 89.432C470.252 89.432 470.832 89.532 471.336 89.732C471.848 89.932 472.244 90.22 472.524 90.596C472.804 90.964 472.944 91.392 472.944 91.88C472.944 92.232 472.864 92.552 472.704 92.84C472.552 93.128 472.332 93.372 472.044 93.572ZM469.596 91.1C469.3 91.1 469.06 91.18 468.876 91.34C468.692 91.492 468.6 91.708 468.6 91.988C468.6 92.26 468.688 92.476 468.864 92.636C469.048 92.788 469.292 92.864 469.596 92.864C469.9 92.864 470.144 92.788 470.328 92.636C470.512 92.476 470.604 92.26 470.604 91.988C470.604 91.708 470.512 91.492 470.328 91.34C470.144 91.18 469.9 91.1 469.596 91.1ZM469.596 96.5C469.98 96.5 470.284 96.408 470.508 96.224C470.74 96.032 470.856 95.776 470.856 95.456C470.856 95.136 470.74 94.884 470.508 94.7C470.284 94.508 469.98 94.412 469.596 94.412C469.212 94.412 468.904 94.508 468.672 94.7C468.448 94.884 468.336 95.136 468.336 95.456C468.336 95.776 468.448 96.032 468.672 96.224C468.904 96.408 469.212 96.5 469.596 96.5ZM476.111 93.704C475.719 93.704 475.355 93.612 475.019 93.428C474.691 93.236 474.427 92.98 474.227 92.66C474.035 92.34 473.939 91.984 473.939 91.592C473.939 91.2 474.035 90.844 474.227 90.524C474.427 90.204 474.691 89.952 475.019 89.768C475.355 89.576 475.719 89.48 476.111 89.48C476.511 89.48 476.875 89.576 477.203 89.768C477.539 89.952 477.803 90.204 477.995 90.524C478.195 90.844 478.295 91.2 478.295 91.592C478.295 91.984 478.195 92.34 477.995 92.66C477.803 92.98 477.539 93.236 477.203 93.428C476.875 93.612 476.511 93.704 476.111 93.704ZM476.111 92.624C476.407 92.624 476.651 92.528 476.843 92.336C477.035 92.136 477.131 91.888 477.131 91.592C477.131 91.304 477.035 91.064 476.843 90.872C476.651 90.672 476.407 90.572 476.111 90.572C475.823 90.572 475.583 90.672 475.391 90.872C475.199 91.064 475.103 91.304 475.103 91.592C475.103 91.888 475.199 92.136 475.391 92.336C475.583 92.528 475.823 92.624 476.111 92.624ZM483.764 98.168C482.884 98.168 482.092 97.984 481.388 97.616C480.692 97.24 480.144 96.72 479.744 96.056C479.344 95.392 479.144 94.64 479.144 93.8C479.144 92.96 479.344 92.208 479.744 91.544C480.144 90.88 480.692 90.364 481.388 89.996C482.092 89.62 482.884 89.432 483.764 89.432C484.532 89.432 485.224 89.568 485.84 89.84C486.456 90.112 486.968 90.504 487.376 91.016L485.864 92.384C485.32 91.728 484.66 91.4 483.884 91.4C483.428 91.4 483.02 91.5 482.66 91.7C482.308 91.9 482.032 92.184 481.832 92.552C481.64 92.912 481.544 93.328 481.544 93.8C481.544 94.272 481.64 94.692 481.832 95.06C482.032 95.42 482.308 95.7 482.66 95.9C483.02 96.1 483.428 96.2 483.884 96.2C484.66 96.2 485.32 95.872 485.864 95.216L487.376 96.584C486.968 97.096 486.456 97.488 485.84 97.76C485.224 98.032 484.532 98.168 483.764 98.168Z" fill="#2E2E2E"/>
<path opacity="0.5" d="M523.457 110.116V112H516.917V110.512L520.061 107.572C520.365 107.284 520.569 107.04 520.673 106.84C520.777 106.632 520.829 106.424 520.829 106.216C520.829 105.944 520.737 105.732 520.553 105.58C520.369 105.428 520.101 105.352 519.749 105.352C519.437 105.352 519.149 105.424 518.885 105.568C518.629 105.704 518.417 105.904 518.249 106.168L516.485 105.184C516.813 104.64 517.273 104.212 517.865 103.9C518.457 103.588 519.157 103.432 519.965 103.432C520.605 103.432 521.169 103.536 521.657 103.744C522.153 103.952 522.537 104.252 522.809 104.644C523.089 105.028 523.229 105.476 523.229 105.988C523.229 106.444 523.129 106.876 522.929 107.284C522.737 107.684 522.361 108.14 521.801 108.652L520.217 110.116H523.457ZM530.965 103.6V105.088L528.001 112H525.409L528.241 105.484H526.033V106.78H524.005V103.6H530.965ZM533.959 107.704C533.567 107.704 533.203 107.612 532.867 107.428C532.539 107.236 532.275 106.98 532.075 106.66C531.883 106.34 531.787 105.984 531.787 105.592C531.787 105.2 531.883 104.844 532.075 104.524C532.275 104.204 532.539 103.952 532.867 103.768C533.203 103.576 533.567 103.48 533.959 103.48C534.359 103.48 534.723 103.576 535.051 103.768C535.387 103.952 535.651 104.204 535.843 104.524C536.043 104.844 536.143 105.2 536.143 105.592C536.143 105.984 536.043 106.34 535.843 106.66C535.651 106.98 535.387 107.236 535.051 107.428C534.723 107.612 534.359 107.704 533.959 107.704ZM533.959 106.624C534.255 106.624 534.499 106.528 534.691 106.336C534.883 106.136 534.979 105.888 534.979 105.592C534.979 105.304 534.883 105.064 534.691 104.872C534.499 104.672 534.255 104.572 533.959 104.572C533.671 104.572 533.431 104.672 533.239 104.872C533.047 105.064 532.951 105.304 532.951 105.592C532.951 105.888 533.047 106.136 533.239 106.336C533.431 106.528 533.671 106.624 533.959 106.624ZM541.612 112.168C540.732 112.168 539.94 111.984 539.236 111.616C538.54 111.24 537.992 110.72 537.592 110.056C537.192 109.392 536.992 108.64 536.992 107.8C536.992 106.96 537.192 106.208 537.592 105.544C537.992 104.88 538.54 104.364 539.236 103.996C539.94 103.62 540.732 103.432 541.612 103.432C542.38 103.432 543.072 103.568 543.688 103.84C544.304 104.112 544.816 104.504 545.224 105.016L543.712 106.384C543.168 105.728 542.508 105.4 541.732 105.4C541.276 105.4 540.868 105.5 540.508 105.7C540.156 105.9 539.88 106.184 539.68 106.552C539.488 106.912 539.392 107.328 539.392 107.8C539.392 108.272 539.488 108.692 539.68 109.06C539.88 109.42 540.156 109.7 540.508 109.9C540.868 110.1 541.276 110.2 541.732 110.2C542.508 110.2 543.168 109.872 543.712 109.216L545.224 110.584C544.816 111.096 544.304 111.488 543.688 111.76C543.072 112.032 542.38 112.168 541.612 112.168Z" fill="#2E2E2E"/>
<path opacity="0.5" d="M581.416 105.116V107H574.876V105.512L578.02 102.572C578.324 102.284 578.528 102.04 578.632 101.84C578.736 101.632 578.788 101.424 578.788 101.216C578.788 100.944 578.696 100.732 578.512 100.58C578.328 100.428 578.06 100.352 577.708 100.352C577.396 100.352 577.108 100.424 576.844 100.568C576.588 100.704 576.376 100.904 576.208 101.168L574.444 100.184C574.772 99.64 575.232 99.212 575.824 98.9C576.416 98.588 577.116 98.432 577.924 98.432C578.564 98.432 579.128 98.536 579.616 98.744C580.112 98.952 580.496 99.252 580.768 99.644C581.048 100.028 581.188 100.476 581.188 100.988C581.188 101.444 581.088 101.876 580.888 102.284C580.696 102.684 580.32 103.14 579.76 103.652L578.176 105.116H581.416ZM585.179 98.432C586.387 98.432 587.339 98.788 588.035 99.5C588.731 100.212 589.079 101.236 589.079 102.572C589.079 103.532 588.891 104.36 588.515 105.056C588.147 105.744 587.623 106.268 586.943 106.628C586.271 106.988 585.491 107.168 584.603 107.168C584.131 107.168 583.679 107.112 583.247 107C582.815 106.896 582.447 106.748 582.143 106.556L583.007 104.852C583.415 105.14 583.931 105.284 584.555 105.284C585.155 105.284 585.639 105.12 586.007 104.792C586.383 104.456 586.603 103.972 586.667 103.34C586.187 103.748 585.559 103.952 584.783 103.952C584.255 103.952 583.771 103.844 583.331 103.628C582.891 103.404 582.539 103.092 582.275 102.692C582.019 102.284 581.891 101.82 581.891 101.3C581.891 100.732 582.035 100.232 582.323 99.8C582.619 99.36 583.015 99.024 583.511 98.792C584.015 98.552 584.571 98.432 585.179 98.432ZM585.347 102.248C585.691 102.248 585.971 102.152 586.187 101.96C586.403 101.76 586.511 101.5 586.511 101.18C586.511 100.868 586.403 100.616 586.187 100.424C585.979 100.224 585.695 100.124 585.335 100.124C584.999 100.124 584.723 100.22 584.507 100.412C584.299 100.604 584.195 100.864 584.195 101.192C584.195 101.512 584.299 101.768 584.507 101.96C584.723 102.152 585.003 102.248 585.347 102.248ZM592 102.704C591.608 102.704 591.244 102.612 590.908 102.428C590.58 102.236 590.316 101.98 590.116 101.66C589.924 101.34 589.828 100.984 589.828 100.592C589.828 100.2 589.924 99.844 590.116 99.524C590.316 99.204 590.58 98.952 590.908 98.768C591.244 98.576 591.608 98.48 592 98.48C592.4 98.48 592.764 98.576 593.092 98.768C593.428 98.952 593.692 99.204 593.884 99.524C594.084 99.844 594.184 100.2 594.184 100.592C594.184 100.984 594.084 101.34 593.884 101.66C593.692 101.98 593.428 102.236 593.092 102.428C592.764 102.612 592.4 102.704 592 102.704ZM592 101.624C592.296 101.624 592.54 101.528 592.732 101.336C592.924 101.136 593.02 100.888 593.02 100.592C593.02 100.304 592.924 100.064 592.732 99.872C592.54 99.672 592.296 99.572 592 99.572C591.712 99.572 591.472 99.672 591.28 99.872C591.088 100.064 590.992 100.304 590.992 100.592C590.992 100.888 591.088 101.136 591.28 101.336C591.472 101.528 591.712 101.624 592 101.624ZM599.653 107.168C598.773 107.168 597.981 106.984 597.277 106.616C596.581 106.24 596.033 105.72 595.633 105.056C595.233 104.392 595.033 103.64 595.033 102.8C595.033 101.96 595.233 101.208 595.633 100.544C596.033 99.88 596.581 99.364 597.277 98.996C597.981 98.62 598.773 98.432 599.653 98.432C600.421 98.432 601.113 98.568 601.729 98.84C602.345 99.112 602.857 99.504 603.265 100.016L601.753 101.384C601.209 100.728 600.549 100.4 599.773 100.4C599.317 100.4 598.909 100.5 598.549 100.7C598.197 100.9 597.921 101.184 597.721 101.552C597.529 101.912 597.433 102.328 597.433 102.8C597.433 103.272 597.529 103.692 597.721 104.06C597.921 104.42 598.197 104.7 598.549 104.9C598.909 105.1 599.317 105.2 599.773 105.2C600.549 105.2 601.209 104.872 601.753 104.216L603.265 105.584C602.857 106.096 602.345 106.488 601.729 106.76C601.113 107.032 600.421 107.168 599.653 107.168Z" fill="#2E2E2E"/>
<defs>
<linearGradient id="paint0_linear_102_30" x1="385.5" y1="95" x2="385.5" y2="297" gradientUnits="userSpaceOnUse">
<stop stop-color="white"/>
<stop offset="1" stop-color="#E9EDC9"/>
</linearGradient>
<linearGradient id="paint1_linear_102_30" x1="55" y1="120" x2="55" y2="297" gradientUnits="userSpaceOnUse">
<stop stop-color="#CCD5AE" stop-opacity="0"/>
<stop offset="0.758333" stop-color="#CDD5AE"/>
</linearGradient>
</defs>
</svg>
