<svg width="252" height="104" viewBox="0 0 252 104" fill="none" xmlns="http://www.w3.org/2000/svg">
<path d="M3 64.112C3 66.032 3.46933 67.8027 4.408 69.424C5.34667 71.0453 6.62667 72.3253 8.248 73.264C9.86933 74.2027 11.6187 74.672 13.5173 74.672H36.6213C38.52 74.672 40.2907 74.2027 41.912 73.264C43.5333 72.3253 44.8347 71.0453 45.7733 69.424C46.712 67.8027 47.2027 66.032 47.2027 64.112C47.2027 62.704 46.904 61.2747 46.3067 59.8453C47.928 57.8827 48.7387 55.5147 48.7387 52.8053C48.7387 51.2907 48.44 49.84 47.864 48.4533C47.288 47.0667 46.4773 45.8933 45.4747 44.8907C44.472 43.888 43.2987 43.0773 41.912 42.5013C40.5253 41.904 39.0747 41.6267 37.56 41.6267C34.4027 41.6267 31.6507 42.864 29.2827 45.3387C27.64 44.4 25.72 43.9307 23.5227 43.9307C20.5147 43.9307 17.8693 44.8693 15.5653 46.7253C13.297 48.5162 11.7271 51.0447 11.128 53.872C8.73867 54.4267 6.79733 55.6427 5.28267 57.5627C3.768 59.4827 3 61.6587 3 64.112ZM6.648 64.112C6.648 62.32 7.24533 60.784 8.44 59.4827C9.63467 58.1813 11.128 57.4347 12.92 57.2213L13.9867 57.1573C14.2427 57.1573 14.392 57.0293 14.392 56.7733L14.5413 55.6213C14.84 53.3173 15.8427 51.376 17.5493 49.84C19.256 48.2827 21.2613 47.5147 23.544 47.5147C25.8907 47.5147 27.9387 48.304 29.6667 49.8613C31.3648 51.3279 32.4152 53.4057 32.5893 55.6427L32.7387 56.88C32.7813 57.1147 32.9307 57.2427 33.1867 57.2427H36.6213C38.4987 57.2427 40.12 57.9253 41.4853 59.2907C42.8507 60.656 43.5333 62.256 43.5333 64.1333C43.5333 66.0747 42.8507 67.7173 41.5067 69.0827C40.1627 70.448 38.52 71.1307 36.6427 71.1307H13.5173C11.64 71.1307 10.04 70.448 8.67467 69.0613C7.33067 67.6747 6.648 66.032 6.648 64.112ZM20.9413 37.936C20.9413 38.448 21.112 38.896 21.4533 39.28L22.8613 40.6453C23.3947 41.0507 23.8427 41.2213 24.2267 41.1787C24.6747 41.1787 25.0587 40.9867 25.4 40.624C25.7413 40.2613 25.912 39.8133 25.912 39.3013C25.912 38.7893 25.72 38.3627 25.3573 38.0427L24.0987 36.6347C23.7461 36.3043 23.2805 36.1211 22.7973 36.1227C22.2853 36.1227 21.8373 36.2933 21.4747 36.656C21.112 36.9973 20.9413 37.424 20.9413 37.936ZM32.3333 47.3867C33.8053 45.9573 35.5547 45.2533 37.56 45.2533C39.672 45.2533 41.464 45.9787 42.936 47.4507C44.408 48.9227 45.1547 50.6933 45.1547 52.8053C45.1547 54.128 44.792 55.4507 44.0667 56.7307C41.9973 54.6827 39.5227 53.6587 36.6213 53.6587H35.9387C35.4053 51.3333 34.2107 49.2427 32.3333 47.3867ZM35.8107 36.1227C35.8107 36.6773 35.9813 37.104 36.3013 37.4453C36.6213 37.7867 37.048 37.936 37.56 37.936C38.1147 37.936 38.5413 37.7653 38.8827 37.4453C39.224 37.104 39.3733 36.6773 39.3733 36.1227V31.7493C39.3733 31.2373 39.2027 30.832 38.8613 30.4907C38.52 30.1493 38.0933 30 37.56 30C37.048 30 36.6427 30.1707 36.3013 30.4907C35.96 30.8107 35.8107 31.2373 35.8107 31.7493V36.1227ZM47.5867 41.008C47.5867 41.5627 47.736 41.9893 48.056 42.3307C48.504 42.672 48.952 42.8427 49.3787 42.8427C49.7627 42.8427 50.1893 42.672 50.6373 42.3307L53.688 39.28C54.0293 38.896 54.2 38.448 54.2 37.9147C54.2 37.4027 54.0293 36.976 53.688 36.6347C53.5239 36.4684 53.3277 36.3373 53.1113 36.2492C52.8949 36.1612 52.6629 36.1181 52.4293 36.1227C51.9173 36.1227 51.512 36.2933 51.192 36.6347L48.056 39.6853C47.736 40.0907 47.5867 40.5173 47.5867 41.008ZM49.272 66.2667C49.272 66.7787 49.4427 67.2267 49.8053 67.6107L51.192 68.9547C51.512 69.296 51.9173 69.4667 52.4293 69.4667C52.9413 69.4667 53.368 69.296 53.7093 68.9333C53.8782 68.7579 54.0104 68.5506 54.0983 68.3235C54.1862 68.0964 54.228 67.8541 54.2213 67.6107C54.2213 67.1413 54.0507 66.7147 53.7093 66.3733L52.3227 64.9867C52.1657 64.8228 51.9768 64.6929 51.7677 64.6048C51.5585 64.5168 51.3336 64.4725 51.1067 64.4747C50.5947 64.4747 50.168 64.6453 49.8267 64.9867C49.464 65.328 49.272 65.7547 49.272 66.2667ZM52.408 52.8053C52.408 53.296 52.6 53.7013 52.9627 54.0427C53.304 54.384 53.752 54.5547 54.264 54.5547H58.616C59.1067 54.5547 59.512 54.384 59.8533 54.064C60.1947 53.744 60.344 53.3173 60.344 52.8053C60.344 52.2933 60.1733 51.8667 59.8533 51.5253C59.5333 51.184 59.1067 50.992 58.616 50.992H54.264C53.752 50.992 53.3253 51.1627 52.9627 51.5253C52.7842 51.6867 52.6424 51.8845 52.5467 52.1053C52.451 52.326 52.4037 52.5648 52.408 52.8053Z" fill="#131313"/>
<path d="M81.504 12.8H86.4C87.5947 12.8 88.656 13.0347 89.584 13.504C90.512 13.9627 91.232 14.6187 91.744 15.472C92.256 16.3147 92.512 17.2907 92.512 18.4C92.512 19.5093 92.256 20.4907 91.744 21.344C91.232 22.1867 90.512 22.8427 89.584 23.312C88.656 23.7707 87.5947 24 86.4 24H81.504V12.8ZM86.304 22.24C87.1253 22.24 87.8453 22.0853 88.464 21.776C89.0933 21.456 89.5733 21.008 89.904 20.432C90.2453 19.8453 90.416 19.168 90.416 18.4C90.416 17.632 90.2453 16.96 89.904 16.384C89.5733 15.7973 89.0933 15.3493 88.464 15.04C87.8453 14.72 87.1253 14.56 86.304 14.56H83.584V22.24H86.304ZM97.7948 15.36C99.0534 15.36 100.013 15.664 100.675 16.272C101.347 16.8693 101.683 17.776 101.683 18.992V24H99.7948V22.96C99.5494 23.3333 99.1974 23.6213 98.7388 23.824C98.2908 24.016 97.7468 24.112 97.1068 24.112C96.4668 24.112 95.9068 24.0053 95.4268 23.792C94.9468 23.568 94.5734 23.264 94.3068 22.88C94.0508 22.4853 93.9228 22.0427 93.9228 21.552C93.9228 20.784 94.2054 20.1707 94.7708 19.712C95.3468 19.2427 96.2481 19.008 97.4748 19.008H99.6828V18.88C99.6828 18.2827 99.5014 17.824 99.1388 17.504C98.7868 17.184 98.2588 17.024 97.5548 17.024C97.0748 17.024 96.6001 17.0987 96.1308 17.248C95.6721 17.3973 95.2828 17.6053 94.9628 17.872L94.1788 16.416C94.6268 16.0747 95.1654 15.8133 95.7948 15.632C96.4241 15.4507 97.0908 15.36 97.7948 15.36ZM97.5228 22.656C98.0241 22.656 98.4668 22.544 98.8508 22.32C99.2454 22.0853 99.5228 21.7547 99.6828 21.328V20.336H97.6188C96.4668 20.336 95.8908 20.7147 95.8908 21.472C95.8908 21.8347 96.0348 22.1227 96.3228 22.336C96.6108 22.5493 97.0108 22.656 97.5228 22.656ZM112.093 15.456L108.093 24.688C107.72 25.616 107.267 26.2667 106.733 26.64C106.2 27.024 105.555 27.216 104.797 27.216C104.371 27.216 103.949 27.1467 103.533 27.008C103.117 26.8693 102.776 26.6773 102.509 26.432L103.309 24.96C103.501 25.1413 103.725 25.2853 103.981 25.392C104.248 25.4987 104.515 25.552 104.781 25.552C105.133 25.552 105.421 25.4613 105.645 25.28C105.88 25.0987 106.093 24.7947 106.285 24.368L106.429 24.032L102.701 15.456H104.781L107.469 21.776L110.173 15.456H112.093Z" fill="black"/>
<path d="M81.26 39.6H82.46V46.956H87.008V48H81.26V39.6ZM90.5682 41.58C91.4482 41.58 92.1202 41.796 92.5842 42.228C93.0562 42.66 93.2922 43.304 93.2922 44.16V48H92.2002V47.16C92.0082 47.456 91.7322 47.684 91.3722 47.844C91.0202 47.996 90.6002 48.072 90.1122 48.072C89.4002 48.072 88.8282 47.9 88.3962 47.556C87.9722 47.212 87.7602 46.76 87.7602 46.2C87.7602 45.64 87.9642 45.192 88.3722 44.856C88.7802 44.512 89.4282 44.34 90.3162 44.34H92.1402V44.112C92.1402 43.616 91.9962 43.236 91.7082 42.972C91.4202 42.708 90.9962 42.576 90.4362 42.576C90.0602 42.576 89.6922 42.64 89.3322 42.768C88.9722 42.888 88.6682 43.052 88.4202 43.26L87.9402 42.396C88.2682 42.132 88.6602 41.932 89.1162 41.796C89.5722 41.652 90.0562 41.58 90.5682 41.58ZM90.3042 47.184C90.7442 47.184 91.1242 47.088 91.4442 46.896C91.7642 46.696 91.9962 46.416 92.1402 46.056V45.168H90.3642C89.3882 45.168 88.9002 45.496 88.9002 46.152C88.9002 46.472 89.0242 46.724 89.2722 46.908C89.5202 47.092 89.8642 47.184 90.3042 47.184ZM98.82 41.58C99.628 41.58 100.268 41.816 100.74 42.288C101.22 42.752 101.46 43.436 101.46 44.34V48H100.308V44.472C100.308 43.856 100.16 43.392 99.864 43.08C99.568 42.768 99.144 42.612 98.592 42.612C97.968 42.612 97.476 42.796 97.116 43.164C96.756 43.524 96.576 44.044 96.576 44.724V48H95.424V41.64H96.528V42.6C96.76 42.272 97.072 42.02 97.464 41.844C97.864 41.668 98.316 41.58 98.82 41.58ZM109.711 41.64V47.136C109.711 48.248 109.435 49.068 108.883 49.596C108.331 50.132 107.507 50.4 106.411 50.4C105.811 50.4 105.239 50.316 104.695 50.148C104.151 49.988 103.711 49.756 103.375 49.452L103.927 48.564C104.223 48.82 104.587 49.02 105.019 49.164C105.459 49.316 105.911 49.392 106.375 49.392C107.119 49.392 107.667 49.216 108.019 48.864C108.379 48.512 108.559 47.976 108.559 47.256V46.752C108.287 47.08 107.951 47.328 107.551 47.496C107.159 47.656 106.731 47.736 106.267 47.736C105.659 47.736 105.107 47.608 104.611 47.352C104.123 47.088 103.739 46.724 103.459 46.26C103.179 45.788 103.039 45.252 103.039 44.652C103.039 44.052 103.179 43.52 103.459 43.056C103.739 42.584 104.123 42.22 104.611 41.964C105.107 41.708 105.659 41.58 106.267 41.58C106.747 41.58 107.191 41.668 107.599 41.844C108.015 42.02 108.355 42.28 108.619 42.624V41.64H109.711ZM106.399 46.728C106.815 46.728 107.187 46.64 107.515 46.464C107.851 46.288 108.111 46.044 108.295 45.732C108.487 45.412 108.583 45.052 108.583 44.652C108.583 44.036 108.379 43.54 107.971 43.164C107.563 42.78 107.039 42.588 106.399 42.588C105.751 42.588 105.223 42.78 104.815 43.164C104.407 43.54 104.203 44.036 104.203 44.652C104.203 45.052 104.295 45.412 104.479 45.732C104.671 46.044 104.931 46.288 105.259 46.464C105.595 46.64 105.975 46.728 106.399 46.728ZM111.912 41.64H113.064V48H111.912V41.64ZM112.488 40.416C112.264 40.416 112.076 40.344 111.924 40.2C111.78 40.056 111.708 39.88 111.708 39.672C111.708 39.464 111.78 39.288 111.924 39.144C112.076 38.992 112.264 38.916 112.488 38.916C112.712 38.916 112.896 38.988 113.04 39.132C113.192 39.268 113.268 39.44 113.268 39.648C113.268 39.864 113.192 40.048 113.04 40.2C112.896 40.344 112.712 40.416 112.488 40.416ZM118.84 47.628C118.672 47.772 118.464 47.884 118.216 47.964C117.968 48.036 117.712 48.072 117.448 48.072C116.808 48.072 116.312 47.9 115.96 47.556C115.608 47.212 115.432 46.72 115.432 46.08V42.588H114.352V41.64H115.432V40.248H116.584V41.64H118.408V42.588H116.584V46.032C116.584 46.376 116.668 46.64 116.836 46.824C117.012 47.008 117.26 47.1 117.58 47.1C117.932 47.1 118.232 47 118.48 46.8L118.84 47.628ZM125.771 41.58C126.651 41.58 127.323 41.796 127.787 42.228C128.259 42.66 128.495 43.304 128.495 44.16V48H127.403V47.16C127.211 47.456 126.935 47.684 126.575 47.844C126.223 47.996 125.803 48.072 125.315 48.072C124.603 48.072 124.031 47.9 123.599 47.556C123.175 47.212 122.963 46.76 122.963 46.2C122.963 45.64 123.167 45.192 123.575 44.856C123.983 44.512 124.631 44.34 125.519 44.34H127.343V44.112C127.343 43.616 127.199 43.236 126.911 42.972C126.623 42.708 126.199 42.576 125.639 42.576C125.263 42.576 124.895 42.64 124.535 42.768C124.175 42.888 123.871 43.052 123.623 43.26L123.143 42.396C123.471 42.132 123.863 41.932 124.319 41.796C124.775 41.652 125.259 41.58 125.771 41.58ZM125.507 47.184C125.947 47.184 126.327 47.088 126.647 46.896C126.967 46.696 127.199 46.416 127.343 46.056V45.168H125.567C124.591 45.168 124.103 45.496 124.103 46.152C124.103 46.472 124.227 46.724 124.475 46.908C124.723 47.092 125.067 47.184 125.507 47.184ZM133.099 45.036L131.779 46.26V48H130.627V39.096H131.779V44.808L135.247 41.64H136.639L133.963 44.268L136.903 48H135.487L133.099 45.036ZM140.221 41.58C141.101 41.58 141.773 41.796 142.237 42.228C142.709 42.66 142.945 43.304 142.945 44.16V48H141.853V47.16C141.661 47.456 141.385 47.684 141.025 47.844C140.673 47.996 140.253 48.072 139.765 48.072C139.053 48.072 138.481 47.9 138.049 47.556C137.625 47.212 137.413 46.76 137.413 46.2C137.413 45.64 137.617 45.192 138.025 44.856C138.433 44.512 139.081 44.34 139.969 44.34H141.793V44.112C141.793 43.616 141.649 43.236 141.361 42.972C141.073 42.708 140.649 42.576 140.089 42.576C139.713 42.576 139.345 42.64 138.985 42.768C138.625 42.888 138.321 43.052 138.073 43.26L137.593 42.396C137.921 42.132 138.313 41.932 138.769 41.796C139.225 41.652 139.709 41.58 140.221 41.58ZM139.957 47.184C140.397 47.184 140.777 47.088 141.097 46.896C141.417 46.696 141.649 46.416 141.793 46.056V45.168H140.017C139.041 45.168 138.553 45.496 138.553 46.152C138.553 46.472 138.677 46.724 138.925 46.908C139.173 47.092 139.517 47.184 139.957 47.184ZM148.472 41.58C149.28 41.58 149.92 41.816 150.392 42.288C150.872 42.752 151.112 43.436 151.112 44.34V48H149.96V44.472C149.96 43.856 149.812 43.392 149.516 43.08C149.22 42.768 148.796 42.612 148.244 42.612C147.62 42.612 147.128 42.796 146.768 43.164C146.408 43.524 146.228 44.044 146.228 44.724V48H145.076V41.64H146.18V42.6C146.412 42.272 146.724 42.02 147.116 41.844C147.516 41.668 147.968 41.58 148.472 41.58ZM158.291 48.072C157.771 48.072 157.271 48.004 156.791 47.868C156.311 47.724 155.935 47.544 155.663 47.328L156.143 46.416C156.423 46.616 156.763 46.776 157.163 46.896C157.563 47.016 157.967 47.076 158.375 47.076C159.383 47.076 159.887 46.788 159.887 46.212C159.887 46.02 159.819 45.868 159.683 45.756C159.547 45.644 159.375 45.564 159.167 45.516C158.967 45.46 158.679 45.4 158.303 45.336C157.791 45.256 157.371 45.164 157.043 45.06C156.723 44.956 156.447 44.78 156.215 44.532C155.983 44.284 155.867 43.936 155.867 43.488C155.867 42.912 156.107 42.452 156.587 42.108C157.067 41.756 157.711 41.58 158.519 41.58C158.943 41.58 159.367 41.632 159.791 41.736C160.215 41.84 160.563 41.98 160.835 42.156L160.343 43.068C159.823 42.732 159.211 42.564 158.507 42.564C158.019 42.564 157.647 42.644 157.391 42.804C157.135 42.964 157.007 43.176 157.007 43.44C157.007 43.648 157.079 43.812 157.223 43.932C157.367 44.052 157.543 44.14 157.751 44.196C157.967 44.252 158.267 44.316 158.651 44.388C159.163 44.476 159.575 44.572 159.887 44.676C160.207 44.772 160.479 44.94 160.703 45.18C160.927 45.42 161.039 45.756 161.039 46.188C161.039 46.764 160.791 47.224 160.295 47.568C159.807 47.904 159.139 48.072 158.291 48.072ZM168.227 44.856C168.227 44.944 168.219 45.06 168.203 45.204H163.043C163.115 45.764 163.359 46.216 163.775 46.56C164.199 46.896 164.723 47.064 165.347 47.064C166.107 47.064 166.719 46.808 167.183 46.296L167.819 47.04C167.531 47.376 167.171 47.632 166.739 47.808C166.315 47.984 165.839 48.072 165.311 48.072C164.639 48.072 164.043 47.936 163.523 47.664C163.003 47.384 162.599 46.996 162.311 46.5C162.031 46.004 161.891 45.444 161.891 44.82C161.891 44.204 162.027 43.648 162.299 43.152C162.579 42.656 162.959 42.272 163.439 42C163.927 41.72 164.475 41.58 165.083 41.58C165.691 41.58 166.231 41.72 166.703 42C167.183 42.272 167.555 42.656 167.819 43.152C168.091 43.648 168.227 44.216 168.227 44.856ZM165.083 42.552C164.531 42.552 164.067 42.72 163.691 43.056C163.323 43.392 163.107 43.832 163.043 44.376H167.123C167.059 43.84 166.839 43.404 166.463 43.068C166.095 42.724 165.635 42.552 165.083 42.552ZM173.198 41.58C173.814 41.58 174.366 41.716 174.854 41.988C175.342 42.26 175.722 42.64 175.994 43.128C176.274 43.616 176.414 44.18 176.414 44.82C176.414 45.46 176.274 46.028 175.994 46.524C175.722 47.012 175.342 47.392 174.854 47.664C174.366 47.936 173.814 48.072 173.198 48.072C172.726 48.072 172.294 47.98 171.902 47.796C171.51 47.612 171.186 47.344 170.93 46.992V48H169.826V39.096H170.978V42.6C171.234 42.264 171.554 42.012 171.938 41.844C172.322 41.668 172.742 41.58 173.198 41.58ZM173.102 47.064C173.51 47.064 173.874 46.972 174.194 46.788C174.522 46.596 174.778 46.332 174.962 45.996C175.154 45.652 175.25 45.26 175.25 44.82C175.25 44.38 175.154 43.992 174.962 43.656C174.778 43.312 174.522 43.048 174.194 42.864C173.874 42.68 173.51 42.588 173.102 42.588C172.702 42.588 172.338 42.68 172.01 42.864C171.682 43.048 171.426 43.312 171.242 43.656C171.058 43.992 170.966 44.38 170.966 44.82C170.966 45.26 171.058 45.652 171.242 45.996C171.426 46.332 171.682 46.596 172.01 46.788C172.338 46.972 172.702 47.064 173.102 47.064ZM180.263 41.58C181.143 41.58 181.815 41.796 182.279 42.228C182.751 42.66 182.987 43.304 182.987 44.16V48H181.895V47.16C181.703 47.456 181.427 47.684 181.067 47.844C180.715 47.996 180.295 48.072 179.807 48.072C179.095 48.072 178.523 47.9 178.091 47.556C177.667 47.212 177.455 46.76 177.455 46.2C177.455 45.64 177.659 45.192 178.067 44.856C178.475 44.512 179.123 44.34 180.011 44.34H181.835V44.112C181.835 43.616 181.691 43.236 181.403 42.972C181.115 42.708 180.691 42.576 180.131 42.576C179.755 42.576 179.387 42.64 179.027 42.768C178.667 42.888 178.363 43.052 178.115 43.26L177.635 42.396C177.963 42.132 178.355 41.932 178.811 41.796C179.267 41.652 179.751 41.58 180.263 41.58ZM179.999 47.184C180.439 47.184 180.819 47.088 181.139 46.896C181.459 46.696 181.691 46.416 181.835 46.056V45.168H180.059C179.083 45.168 178.595 45.496 178.595 46.152C178.595 46.472 178.719 46.724 178.967 46.908C179.215 47.092 179.559 47.184 179.999 47.184ZM191.239 41.64V47.136C191.239 48.248 190.963 49.068 190.411 49.596C189.859 50.132 189.035 50.4 187.939 50.4C187.339 50.4 186.767 50.316 186.223 50.148C185.679 49.988 185.239 49.756 184.903 49.452L185.455 48.564C185.751 48.82 186.115 49.02 186.547 49.164C186.987 49.316 187.439 49.392 187.903 49.392C188.647 49.392 189.195 49.216 189.547 48.864C189.907 48.512 190.087 47.976 190.087 47.256V46.752C189.815 47.08 189.479 47.328 189.079 47.496C188.687 47.656 188.259 47.736 187.795 47.736C187.187 47.736 186.635 47.608 186.139 47.352C185.651 47.088 185.267 46.724 184.987 46.26C184.707 45.788 184.567 45.252 184.567 44.652C184.567 44.052 184.707 43.52 184.987 43.056C185.267 42.584 185.651 42.22 186.139 41.964C186.635 41.708 187.187 41.58 187.795 41.58C188.275 41.58 188.719 41.668 189.127 41.844C189.543 42.02 189.883 42.28 190.147 42.624V41.64H191.239ZM187.927 46.728C188.343 46.728 188.715 46.64 189.043 46.464C189.379 46.288 189.639 46.044 189.823 45.732C190.015 45.412 190.111 45.052 190.111 44.652C190.111 44.036 189.907 43.54 189.499 43.164C189.091 42.78 188.567 42.588 187.927 42.588C187.279 42.588 186.751 42.78 186.343 43.164C185.935 43.54 185.731 44.036 185.731 44.652C185.731 45.052 185.823 45.412 186.007 45.732C186.199 46.044 186.459 46.288 186.787 46.464C187.123 46.64 187.503 46.728 187.927 46.728ZM193.44 41.64H194.592V48H193.44V41.64ZM194.016 40.416C193.792 40.416 193.604 40.344 193.452 40.2C193.308 40.056 193.236 39.88 193.236 39.672C193.236 39.464 193.308 39.288 193.452 39.144C193.604 38.992 193.792 38.916 194.016 38.916C194.24 38.916 194.424 38.988 194.568 39.132C194.72 39.268 194.796 39.44 194.796 39.648C194.796 39.864 194.72 40.048 194.568 40.2C194.424 40.344 194.24 40.416 194.016 40.416ZM199.107 41.58C199.987 41.58 200.659 41.796 201.123 42.228C201.595 42.66 201.831 43.304 201.831 44.16V48H200.739V47.16C200.547 47.456 200.271 47.684 199.911 47.844C199.559 47.996 199.139 48.072 198.651 48.072C197.939 48.072 197.367 47.9 196.935 47.556C196.511 47.212 196.299 46.76 196.299 46.2C196.299 45.64 196.503 45.192 196.911 44.856C197.319 44.512 197.967 44.34 198.855 44.34H200.679V44.112C200.679 43.616 200.535 43.236 200.247 42.972C199.959 42.708 199.535 42.576 198.975 42.576C198.599 42.576 198.231 42.64 197.871 42.768C197.511 42.888 197.207 43.052 196.959 43.26L196.479 42.396C196.807 42.132 197.199 41.932 197.655 41.796C198.111 41.652 198.595 41.58 199.107 41.58ZM198.843 47.184C199.283 47.184 199.663 47.088 199.983 46.896C200.303 46.696 200.535 46.416 200.679 46.056V45.168H198.903C197.927 45.168 197.439 45.496 197.439 46.152C197.439 46.472 197.563 46.724 197.811 46.908C198.059 47.092 198.403 47.184 198.843 47.184ZM207.359 41.58C208.167 41.58 208.807 41.816 209.279 42.288C209.759 42.752 209.999 43.436 209.999 44.34V48H208.847V44.472C208.847 43.856 208.699 43.392 208.403 43.08C208.107 42.768 207.683 42.612 207.131 42.612C206.507 42.612 206.015 42.796 205.655 43.164C205.295 43.524 205.115 44.044 205.115 44.724V48H203.963V41.64H205.067V42.6C205.299 42.272 205.611 42.02 206.003 41.844C206.403 41.668 206.855 41.58 207.359 41.58ZM84.464 56.58C85.08 56.58 85.632 56.716 86.12 56.988C86.608 57.26 86.988 57.64 87.26 58.128C87.54 58.616 87.68 59.18 87.68 59.82C87.68 60.46 87.54 61.028 87.26 61.524C86.988 62.012 86.608 62.392 86.12 62.664C85.632 62.936 85.08 63.072 84.464 63.072C83.992 63.072 83.56 62.98 83.168 62.796C82.776 62.612 82.452 62.344 82.196 61.992V63H81.092V54.096H82.244V57.6C82.5 57.264 82.82 57.012 83.204 56.844C83.588 56.668 84.008 56.58 84.464 56.58ZM84.368 62.064C84.776 62.064 85.14 61.972 85.46 61.788C85.788 61.596 86.044 61.332 86.228 60.996C86.42 60.652 86.516 60.26 86.516 59.82C86.516 59.38 86.42 58.992 86.228 58.656C86.044 58.312 85.788 58.048 85.46 57.864C85.14 57.68 84.776 57.588 84.368 57.588C83.968 57.588 83.604 57.68 83.276 57.864C82.948 58.048 82.692 58.312 82.508 58.656C82.324 58.992 82.232 59.38 82.232 59.82C82.232 60.26 82.324 60.652 82.508 60.996C82.692 61.332 82.948 61.596 83.276 61.788C83.604 61.972 83.968 62.064 84.368 62.064ZM95.0197 59.856C95.0197 59.944 95.0117 60.06 94.9957 60.204H89.8357C89.9077 60.764 90.1517 61.216 90.5677 61.56C90.9917 61.896 91.5157 62.064 92.1397 62.064C92.8997 62.064 93.5117 61.808 93.9757 61.296L94.6117 62.04C94.3237 62.376 93.9637 62.632 93.5317 62.808C93.1077 62.984 92.6317 63.072 92.1037 63.072C91.4317 63.072 90.8357 62.936 90.3157 62.664C89.7957 62.384 89.3917 61.996 89.1037 61.5C88.8237 61.004 88.6837 60.444 88.6837 59.82C88.6837 59.204 88.8197 58.648 89.0917 58.152C89.3717 57.656 89.7517 57.272 90.2317 57C90.7197 56.72 91.2677 56.58 91.8757 56.58C92.4837 56.58 93.0237 56.72 93.4957 57C93.9757 57.272 94.3477 57.656 94.6117 58.152C94.8837 58.648 95.0197 59.216 95.0197 59.856ZM91.8757 57.552C91.3237 57.552 90.8597 57.72 90.4837 58.056C90.1157 58.392 89.8997 58.832 89.8357 59.376H93.9157C93.8517 58.84 93.6317 58.404 93.2557 58.068C92.8877 57.724 92.4277 57.552 91.8757 57.552ZM97.7233 57.708C97.9233 57.34 98.2193 57.06 98.6113 56.868C99.0033 56.676 99.4793 56.58 100.039 56.58V57.696C99.9753 57.688 99.8873 57.684 99.7753 57.684C99.1513 57.684 98.6593 57.872 98.2993 58.248C97.9473 58.616 97.7713 59.144 97.7713 59.832V63H96.6193V56.64H97.7233V57.708ZM103.763 56.58C104.643 56.58 105.315 56.796 105.779 57.228C106.251 57.66 106.487 58.304 106.487 59.16V63H105.395V62.16C105.203 62.456 104.927 62.684 104.567 62.844C104.215 62.996 103.795 63.072 103.307 63.072C102.595 63.072 102.023 62.9 101.591 62.556C101.167 62.212 100.955 61.76 100.955 61.2C100.955 60.64 101.159 60.192 101.567 59.856C101.975 59.512 102.623 59.34 103.511 59.34H105.335V59.112C105.335 58.616 105.191 58.236 104.903 57.972C104.615 57.708 104.191 57.576 103.631 57.576C103.255 57.576 102.887 57.64 102.527 57.768C102.167 57.888 101.863 58.052 101.615 58.26L101.135 57.396C101.463 57.132 101.855 56.932 102.311 56.796C102.767 56.652 103.251 56.58 103.763 56.58ZM103.499 62.184C103.939 62.184 104.319 62.088 104.639 61.896C104.959 61.696 105.191 61.416 105.335 61.056V60.168H103.559C102.583 60.168 102.095 60.496 102.095 61.152C102.095 61.472 102.219 61.724 102.467 61.908C102.715 62.092 103.059 62.184 103.499 62.184ZM118.126 56.64L115.75 63H114.646L112.81 58.176L110.95 63H109.846L107.482 56.64H108.574L110.422 61.704L112.342 56.64H113.314L115.198 61.728L117.094 56.64H118.126ZM121.412 56.58C122.292 56.58 122.964 56.796 123.428 57.228C123.9 57.66 124.136 58.304 124.136 59.16V63H123.044V62.16C122.852 62.456 122.576 62.684 122.216 62.844C121.864 62.996 121.444 63.072 120.956 63.072C120.244 63.072 119.672 62.9 119.24 62.556C118.816 62.212 118.604 61.76 118.604 61.2C118.604 60.64 118.808 60.192 119.216 59.856C119.624 59.512 120.272 59.34 121.16 59.34H122.984V59.112C122.984 58.616 122.84 58.236 122.552 57.972C122.264 57.708 121.84 57.576 121.28 57.576C120.904 57.576 120.536 57.64 120.176 57.768C119.816 57.888 119.512 58.052 119.264 58.26L118.784 57.396C119.112 57.132 119.504 56.932 119.96 56.796C120.416 56.652 120.9 56.58 121.412 56.58ZM121.148 62.184C121.588 62.184 121.968 62.088 122.288 61.896C122.608 61.696 122.84 61.416 122.984 61.056V60.168H121.208C120.232 60.168 119.744 60.496 119.744 61.152C119.744 61.472 119.868 61.724 120.116 61.908C120.364 62.092 120.708 62.184 121.148 62.184ZM129.664 56.58C130.472 56.58 131.112 56.816 131.584 57.288C132.064 57.752 132.304 58.436 132.304 59.34V63H131.152V59.472C131.152 58.856 131.004 58.392 130.708 58.08C130.412 57.768 129.988 57.612 129.436 57.612C128.812 57.612 128.32 57.796 127.96 58.164C127.6 58.524 127.42 59.044 127.42 59.724V63H126.268V56.64H127.372V57.6C127.604 57.272 127.916 57.02 128.308 56.844C128.708 56.668 129.16 56.58 129.664 56.58ZM134.712 63.072C134.488 63.072 134.296 62.996 134.136 62.844C133.976 62.684 133.896 62.484 133.896 62.244C133.896 62.012 133.976 61.82 134.136 61.668C134.296 61.508 134.488 61.428 134.712 61.428C134.936 61.428 135.124 61.504 135.276 61.656C135.428 61.808 135.504 62.004 135.504 62.244C135.504 62.484 135.424 62.684 135.264 62.844C135.112 62.996 134.928 63.072 134.712 63.072ZM83.708 93.096C83.076 93.096 82.464 93 81.872 92.808C81.288 92.608 80.828 92.352 80.492 92.04L80.936 91.104C81.256 91.392 81.664 91.628 82.16 91.812C82.664 91.988 83.18 92.076 83.708 92.076C84.404 92.076 84.924 91.96 85.268 91.728C85.612 91.488 85.784 91.172 85.784 90.78C85.784 90.492 85.688 90.26 85.496 90.084C85.312 89.9 85.08 89.76 84.8 89.664C84.528 89.568 84.14 89.46 83.636 89.34C83.004 89.188 82.492 89.036 82.1 88.884C81.716 88.732 81.384 88.5 81.104 88.188C80.832 87.868 80.696 87.44 80.696 86.904C80.696 86.456 80.812 86.052 81.044 85.692C81.284 85.332 81.644 85.044 82.124 84.828C82.604 84.612 83.2 84.504 83.912 84.504C84.408 84.504 84.896 84.568 85.376 84.696C85.856 84.824 86.268 85.008 86.612 85.248L86.216 86.208C85.864 85.984 85.488 85.816 85.088 85.704C84.688 85.584 84.296 85.524 83.912 85.524C83.232 85.524 82.72 85.648 82.376 85.896C82.04 86.144 81.872 86.464 81.872 86.856C81.872 87.144 81.968 87.38 82.16 87.564C82.352 87.74 82.588 87.88 82.868 87.984C83.156 88.08 83.544 88.184 84.032 88.296C84.664 88.448 85.172 88.6 85.556 88.752C85.94 88.904 86.268 89.136 86.54 89.448C86.82 89.76 86.96 90.18 86.96 90.708C86.96 91.148 86.84 91.552 86.6 91.92C86.36 92.28 85.996 92.568 85.508 92.784C85.02 92.992 84.42 93.096 83.708 93.096ZM94.4731 86.64V93H93.3811V92.04C93.1491 92.368 92.8411 92.624 92.4571 92.808C92.0811 92.984 91.6691 93.072 91.2211 93.072C90.3731 93.072 89.7051 92.84 89.2171 92.376C88.7291 91.904 88.4851 91.212 88.4851 90.3V86.64H89.6371V90.168C89.6371 90.784 89.7851 91.252 90.0811 91.572C90.3771 91.884 90.8011 92.04 91.3531 92.04C91.9611 92.04 92.4411 91.856 92.7931 91.488C93.1451 91.12 93.3211 90.6 93.3211 89.928V86.64H94.4731ZM100.062 86.58C100.87 86.58 101.51 86.816 101.982 87.288C102.462 87.752 102.702 88.436 102.702 89.34V93H101.55V89.472C101.55 88.856 101.402 88.392 101.106 88.08C100.81 87.768 100.386 87.612 99.8342 87.612C99.2102 87.612 98.7182 87.796 98.3582 88.164C97.9982 88.524 97.8182 89.044 97.8182 89.724V93H96.6662V84.096H97.8182V87.54C98.0582 87.236 98.3702 87 98.7542 86.832C99.1462 86.664 99.5822 86.58 100.062 86.58ZM110.762 86.64V93H109.67V92.04C109.438 92.368 109.13 92.624 108.746 92.808C108.37 92.984 107.958 93.072 107.51 93.072C106.662 93.072 105.994 92.84 105.506 92.376C105.018 91.904 104.774 91.212 104.774 90.3V86.64H105.926V90.168C105.926 90.784 106.074 91.252 106.37 91.572C106.666 91.884 107.09 92.04 107.642 92.04C108.25 92.04 108.73 91.856 109.082 91.488C109.434 91.12 109.61 90.6 109.61 89.928V86.64H110.762ZM118.494 86.58C119.374 86.58 120.046 86.796 120.51 87.228C120.982 87.66 121.218 88.304 121.218 89.16V93H120.126V92.16C119.934 92.456 119.658 92.684 119.298 92.844C118.946 92.996 118.526 93.072 118.038 93.072C117.326 93.072 116.754 92.9 116.322 92.556C115.898 92.212 115.686 91.76 115.686 91.2C115.686 90.64 115.89 90.192 116.298 89.856C116.706 89.512 117.354 89.34 118.242 89.34H120.066V89.112C120.066 88.616 119.922 88.236 119.634 87.972C119.346 87.708 118.922 87.576 118.362 87.576C117.986 87.576 117.618 87.64 117.258 87.768C116.898 87.888 116.594 88.052 116.346 88.26L115.866 87.396C116.194 87.132 116.586 86.932 117.042 86.796C117.498 86.652 117.982 86.58 118.494 86.58ZM118.23 92.184C118.67 92.184 119.05 92.088 119.37 91.896C119.69 91.696 119.922 91.416 120.066 91.056V90.168H118.29C117.314 90.168 116.826 90.496 116.826 91.152C116.826 91.472 116.95 91.724 117.198 91.908C117.446 92.092 117.79 92.184 118.23 92.184ZM125.822 90.036L124.502 91.26V93H123.35V84.096H124.502V89.808L127.97 86.64H129.362L126.686 89.268L129.626 93H128.21L125.822 90.036ZM132.943 86.58C133.823 86.58 134.495 86.796 134.959 87.228C135.431 87.66 135.667 88.304 135.667 89.16V93H134.575V92.16C134.383 92.456 134.107 92.684 133.747 92.844C133.395 92.996 132.975 93.072 132.487 93.072C131.775 93.072 131.203 92.9 130.771 92.556C130.347 92.212 130.135 91.76 130.135 91.2C130.135 90.64 130.339 90.192 130.747 89.856C131.155 89.512 131.803 89.34 132.691 89.34H134.515V89.112C134.515 88.616 134.371 88.236 134.083 87.972C133.795 87.708 133.371 87.576 132.811 87.576C132.435 87.576 132.067 87.64 131.707 87.768C131.347 87.888 131.043 88.052 130.795 88.26L130.315 87.396C130.643 87.132 131.035 86.932 131.491 86.796C131.947 86.652 132.431 86.58 132.943 86.58ZM132.679 92.184C133.119 92.184 133.499 92.088 133.819 91.896C134.139 91.696 134.371 91.416 134.515 91.056V90.168H132.739C131.763 90.168 131.275 90.496 131.275 91.152C131.275 91.472 131.399 91.724 131.647 91.908C131.895 92.092 132.239 92.184 132.679 92.184ZM141.195 86.58C142.003 86.58 142.643 86.816 143.115 87.288C143.595 87.752 143.835 88.436 143.835 89.34V93H142.683V89.472C142.683 88.856 142.535 88.392 142.239 88.08C141.943 87.768 141.519 87.612 140.967 87.612C140.343 87.612 139.851 87.796 139.491 88.164C139.131 88.524 138.951 89.044 138.951 89.724V93H137.799V86.64H138.903V87.6C139.135 87.272 139.447 87.02 139.839 86.844C140.239 86.668 140.691 86.58 141.195 86.58ZM150.294 87.708C150.494 87.34 150.79 87.06 151.182 86.868C151.574 86.676 152.05 86.58 152.61 86.58V87.696C152.546 87.688 152.458 87.684 152.346 87.684C151.722 87.684 151.23 87.872 150.87 88.248C150.518 88.616 150.342 89.144 150.342 89.832V93H149.19V86.64H150.294V87.708ZM159.719 89.856C159.719 89.944 159.711 90.06 159.695 90.204H154.535C154.607 90.764 154.851 91.216 155.267 91.56C155.691 91.896 156.215 92.064 156.839 92.064C157.599 92.064 158.211 91.808 158.675 91.296L159.311 92.04C159.023 92.376 158.663 92.632 158.231 92.808C157.807 92.984 157.331 93.072 156.803 93.072C156.131 93.072 155.535 92.936 155.015 92.664C154.495 92.384 154.091 91.996 153.803 91.5C153.523 91.004 153.383 90.444 153.383 89.82C153.383 89.204 153.519 88.648 153.791 88.152C154.071 87.656 154.451 87.272 154.931 87C155.419 86.72 155.967 86.58 156.575 86.58C157.183 86.58 157.723 86.72 158.195 87C158.675 87.272 159.047 87.656 159.311 88.152C159.583 88.648 159.719 89.216 159.719 89.856ZM156.575 87.552C156.023 87.552 155.559 87.72 155.183 88.056C154.815 88.392 154.599 88.832 154.535 89.376H158.615C158.551 88.84 158.331 88.404 157.955 88.068C157.587 87.724 157.127 87.552 156.575 87.552ZM164.715 86.58C165.523 86.58 166.163 86.816 166.635 87.288C167.115 87.752 167.355 88.436 167.355 89.34V93H166.203V89.472C166.203 88.856 166.055 88.392 165.759 88.08C165.463 87.768 165.039 87.612 164.487 87.612C163.863 87.612 163.371 87.796 163.011 88.164C162.651 88.524 162.471 89.044 162.471 89.724V93H161.319V86.64H162.423V87.6C162.655 87.272 162.967 87.02 163.359 86.844C163.759 86.668 164.211 86.58 164.715 86.58ZM175.522 84.096V93H174.418V91.992C174.162 92.344 173.838 92.612 173.446 92.796C173.054 92.98 172.622 93.072 172.15 93.072C171.534 93.072 170.982 92.936 170.494 92.664C170.006 92.392 169.622 92.012 169.342 91.524C169.07 91.028 168.934 90.46 168.934 89.82C168.934 89.18 169.07 88.616 169.342 88.128C169.622 87.64 170.006 87.26 170.494 86.988C170.982 86.716 171.534 86.58 172.15 86.58C172.606 86.58 173.026 86.668 173.41 86.844C173.794 87.012 174.114 87.264 174.37 87.6V84.096H175.522ZM172.246 92.064C172.646 92.064 173.01 91.972 173.338 91.788C173.666 91.596 173.922 91.332 174.106 90.996C174.29 90.652 174.382 90.26 174.382 89.82C174.382 89.38 174.29 88.992 174.106 88.656C173.922 88.312 173.666 88.048 173.338 87.864C173.01 87.68 172.646 87.588 172.246 87.588C171.838 87.588 171.47 87.68 171.142 87.864C170.822 88.048 170.566 88.312 170.374 88.656C170.19 88.992 170.098 89.38 170.098 89.82C170.098 90.26 170.19 90.652 170.374 90.996C170.566 91.332 170.822 91.596 171.142 91.788C171.47 91.972 171.838 92.064 172.246 92.064ZM180.017 86.58C180.897 86.58 181.569 86.796 182.033 87.228C182.505 87.66 182.741 88.304 182.741 89.16V93H181.649V92.16C181.457 92.456 181.181 92.684 180.821 92.844C180.469 92.996 180.049 93.072 179.561 93.072C178.849 93.072 178.277 92.9 177.845 92.556C177.421 92.212 177.209 91.76 177.209 91.2C177.209 90.64 177.413 90.192 177.821 89.856C178.229 89.512 178.877 89.34 179.765 89.34H181.589V89.112C181.589 88.616 181.445 88.236 181.157 87.972C180.869 87.708 180.445 87.576 179.885 87.576C179.509 87.576 179.141 87.64 178.781 87.768C178.421 87.888 178.117 88.052 177.869 88.26L177.389 87.396C177.717 87.132 178.109 86.932 178.565 86.796C179.021 86.652 179.505 86.58 180.017 86.58ZM179.753 92.184C180.193 92.184 180.573 92.088 180.893 91.896C181.213 91.696 181.445 91.416 181.589 91.056V90.168H179.813C178.837 90.168 178.349 90.496 178.349 91.152C178.349 91.472 178.473 91.724 178.721 91.908C178.969 92.092 179.313 92.184 179.753 92.184ZM188.269 86.58C189.077 86.58 189.717 86.816 190.189 87.288C190.669 87.752 190.909 88.436 190.909 89.34V93H189.757V89.472C189.757 88.856 189.609 88.392 189.313 88.08C189.017 87.768 188.593 87.612 188.041 87.612C187.417 87.612 186.925 87.796 186.565 88.164C186.205 88.524 186.025 89.044 186.025 89.724V93H184.873V84.096H186.025V87.54C186.265 87.236 186.577 87 186.961 86.832C187.353 86.664 187.789 86.58 188.269 86.58ZM201.652 91.956V93H195.616V92.184L199.036 88.884C199.452 88.484 199.732 88.14 199.876 87.852C200.02 87.556 200.092 87.26 200.092 86.964C200.092 86.524 199.936 86.184 199.624 85.944C199.32 85.696 198.88 85.572 198.304 85.572C197.376 85.572 196.66 85.876 196.156 86.484L195.34 85.776C195.668 85.376 196.096 85.064 196.624 84.84C197.16 84.616 197.756 84.504 198.412 84.504C199.292 84.504 199.992 84.716 200.512 85.14C201.032 85.556 201.292 86.124 201.292 86.844C201.292 87.292 201.196 87.716 201.004 88.116C200.812 88.516 200.448 88.972 199.912 89.484L197.344 91.956H201.652ZM206.035 93.096C205.371 93.096 204.779 92.928 204.259 92.592C203.747 92.248 203.343 91.752 203.047 91.104C202.751 90.456 202.603 89.688 202.603 88.8C202.603 87.912 202.751 87.144 203.047 86.496C203.343 85.848 203.747 85.356 204.259 85.02C204.779 84.676 205.371 84.504 206.035 84.504C206.691 84.504 207.275 84.676 207.787 85.02C208.307 85.356 208.715 85.848 209.011 86.496C209.307 87.144 209.455 87.912 209.455 88.8C209.455 89.688 209.307 90.456 209.011 91.104C208.715 91.752 208.307 92.248 207.787 92.592C207.275 92.928 206.691 93.096 206.035 93.096ZM206.035 92.028C206.707 92.028 207.243 91.752 207.643 91.2C208.051 90.648 208.255 89.848 208.255 88.8C208.255 87.752 208.051 86.952 207.643 86.4C207.243 85.848 206.707 85.572 206.035 85.572C205.355 85.572 204.811 85.848 204.403 86.4C204.003 86.952 203.803 87.752 203.803 88.8C203.803 89.848 204.003 90.648 204.403 91.2C204.811 91.752 205.355 92.028 206.035 92.028ZM212.574 88.428C212.214 88.428 211.882 88.344 211.578 88.176C211.282 88 211.046 87.764 210.87 87.468C210.694 87.164 210.606 86.832 210.606 86.472C210.606 86.12 210.694 85.796 210.87 85.5C211.046 85.196 211.282 84.96 211.578 84.792C211.882 84.616 212.214 84.528 212.574 84.528C212.934 84.528 213.266 84.616 213.57 84.792C213.874 84.96 214.114 85.196 214.29 85.5C214.466 85.796 214.554 86.12 214.554 86.472C214.554 86.832 214.466 87.164 214.29 87.468C214.114 87.764 213.874 88 213.57 88.176C213.266 88.344 212.934 88.428 212.574 88.428ZM212.574 87.78C212.942 87.78 213.25 87.656 213.498 87.408C213.746 87.152 213.87 86.84 213.87 86.472C213.87 86.104 213.746 85.796 213.498 85.548C213.25 85.292 212.942 85.164 212.574 85.164C212.206 85.164 211.898 85.288 211.65 85.536C211.402 85.784 211.278 86.096 211.278 86.472C211.278 86.848 211.402 87.16 211.65 87.408C211.898 87.656 212.206 87.78 212.574 87.78ZM220.227 93.096C219.387 93.096 218.627 92.912 217.947 92.544C217.275 92.168 216.747 91.656 216.363 91.008C215.979 90.352 215.787 89.616 215.787 88.8C215.787 87.984 215.979 87.252 216.363 86.604C216.747 85.948 217.279 85.436 217.959 85.068C218.639 84.692 219.399 84.504 220.239 84.504C220.895 84.504 221.495 84.616 222.039 84.84C222.583 85.056 223.047 85.38 223.431 85.812L222.651 86.568C222.019 85.904 221.231 85.572 220.287 85.572C219.663 85.572 219.099 85.712 218.595 85.992C218.091 86.272 217.695 86.66 217.407 87.156C217.127 87.644 216.987 88.192 216.987 88.8C216.987 89.408 217.127 89.96 217.407 90.456C217.695 90.944 218.091 91.328 218.595 91.608C219.099 91.888 219.663 92.028 220.287 92.028C221.223 92.028 222.011 91.692 222.651 91.02L223.431 91.776C223.047 92.208 222.579 92.536 222.027 92.76C221.483 92.984 220.883 93.096 220.227 93.096Z" fill="black"/>
</svg>
