<svg width="252" height="104" viewBox="0 0 252 104" fill="none" xmlns="http://www.w3.org/2000/svg">
<path d="M6.00042 59.1762C6.00042 61.3021 6.53499 63.2847 7.60413 65.1001C8.67327 66.9154 10.1069 68.3486 11.9536 69.3996C13.8003 70.4506 15.7928 71 17.9797 71H44.2465C46.4091 71 48.4259 70.4745 50.2726 69.3996C52.1192 68.3247 53.5772 66.8915 54.6463 65.1001C55.7154 63.2847 56.2743 61.3021 56.2743 59.1762C56.2743 57.6475 55.9341 56.071 55.2538 54.399C57.1005 52.1775 57.9995 49.55 57.9995 46.5165C58.0189 44.3234 57.4468 42.1645 56.3413 40.2595C55.2358 38.3546 53.6364 36.7717 51.7062 35.672C49.7623 34.5494 47.624 34 45.3156 34C41.6951 34 38.5606 35.3854 35.9121 38.1562C34.0654 37.1291 31.8785 36.6036 29.3757 36.6036C25.9496 36.6036 22.9366 37.6307 20.3123 39.7088C17.6881 41.787 16.0115 44.4383 15.2582 47.7108C12.5368 48.3079 10.3256 49.6695 8.60038 51.8192C6.89601 53.9031 5.97742 56.5024 6.00042 59.1762ZM10.1555 59.1762C10.1555 57.1937 10.8359 55.4739 12.1723 54.0168C13.533 52.5597 15.2339 51.7237 17.275 51.4848L18.9273 51.4132L19.0974 49.6934C19.4376 47.1136 20.5796 44.94 22.5235 43.2201C24.4674 41.4764 26.7515 40.6165 29.3514 40.6165C32 40.6165 34.3326 41.5003 36.3008 43.244C38.269 44.9877 39.3868 47.1375 39.654 49.7172L39.897 51.5087H44.2222C46.3605 51.5087 48.2072 52.2731 49.7623 53.7779C51.3174 55.2828 52.095 57.0981 52.095 59.1762C52.095 61.326 51.3174 63.1653 49.7866 64.7179C48.2558 66.2705 46.3848 67.0349 44.2465 67.0349H17.9797C15.8657 67.0349 14.0433 66.2705 12.4882 64.7179C10.933 63.1414 10.1555 61.3021 10.1555 59.1762ZM39.3868 40.4732C41.0634 38.8967 43.0316 38.1085 45.3156 38.1085C47.7212 38.1085 49.7623 38.9206 51.4389 40.5688C53.1155 42.193 53.9659 44.1995 53.9659 46.5642C53.9659 48.0452 53.5529 49.5023 52.7024 50.9593C50.3697 48.6424 47.5511 47.4958 44.2222 47.4958H43.4689C42.8129 44.8444 41.4521 42.5036 39.3868 40.4732Z" fill="black"/>
<path d="M91.456 12.8V24H89.744L83.568 16.416V24H81.504V12.8H83.216L89.392 20.384V12.8H91.456ZM94.2651 15.456H96.2651V24H94.2651V15.456ZM95.2731 14.048C94.9105 14.048 94.6065 13.936 94.3611 13.712C94.1158 13.4773 93.9931 13.1893 93.9931 12.848C93.9931 12.5067 94.1158 12.224 94.3611 12C94.6065 11.7653 94.9105 11.648 95.2731 11.648C95.6358 11.648 95.9398 11.76 96.1851 11.984C96.4305 12.1973 96.5531 12.4693 96.5531 12.8C96.5531 13.152 96.4305 13.4507 96.1851 13.696C95.9505 13.9307 95.6465 14.048 95.2731 14.048ZM107.37 15.456V22.704C107.37 25.712 105.834 27.216 102.762 27.216C101.941 27.216 101.162 27.1093 100.426 26.896C99.6901 26.6933 99.0821 26.3947 98.6021 26L99.4981 24.496C99.8715 24.8053 100.341 25.0507 100.906 25.232C101.482 25.424 102.063 25.52 102.65 25.52C103.589 25.52 104.277 25.3067 104.714 24.88C105.151 24.4533 105.37 23.8027 105.37 22.928V22.48C105.029 22.8533 104.613 23.136 104.122 23.328C103.631 23.52 103.093 23.616 102.506 23.616C101.695 23.616 100.959 23.4453 100.298 23.104C99.6475 22.752 99.1301 22.2613 98.7461 21.632C98.3728 21.0027 98.1861 20.2827 98.1861 19.472C98.1861 18.6613 98.3728 17.9467 98.7461 17.328C99.1301 16.6987 99.6475 16.2133 100.298 15.872C100.959 15.5307 101.695 15.36 102.506 15.36C103.125 15.36 103.685 15.4613 104.186 15.664C104.698 15.8667 105.125 16.176 105.466 16.592V15.456H107.37ZM102.81 21.92C103.567 21.92 104.186 21.696 104.666 21.248C105.157 20.7893 105.402 20.1973 105.402 19.472C105.402 18.7573 105.157 18.176 104.666 17.728C104.186 17.28 103.567 17.056 102.81 17.056C102.042 17.056 101.413 17.28 100.922 17.728C100.442 18.176 100.202 18.7573 100.202 19.472C100.202 20.1973 100.442 20.7893 100.922 21.248C101.413 21.696 102.042 21.92 102.81 21.92ZM114.848 15.36C115.925 15.36 116.789 15.6747 117.44 16.304C118.09 16.9333 118.416 17.8667 118.416 19.104V24H116.416V19.36C116.416 18.6133 116.24 18.0533 115.888 17.68C115.536 17.296 115.034 17.104 114.384 17.104C113.648 17.104 113.066 17.328 112.64 17.776C112.213 18.2133 112 18.848 112 19.68V24H110V12.128H112V16.448C112.33 16.096 112.736 15.8293 113.216 15.648C113.706 15.456 114.25 15.36 114.848 15.36ZM126.089 23.536C125.854 23.728 125.566 23.872 125.225 23.968C124.894 24.064 124.542 24.112 124.169 24.112C123.23 24.112 122.505 23.8667 121.993 23.376C121.481 22.8853 121.225 22.1707 121.225 21.232V17.12H119.817V15.52H121.225V13.568H123.225V15.52H125.513V17.12H123.225V21.184C123.225 21.6 123.326 21.92 123.529 22.144C123.731 22.3573 124.025 22.464 124.409 22.464C124.857 22.464 125.23 22.3467 125.529 22.112L126.089 23.536Z" fill="black"/>
<path d="M88.484 39.6V48H87.284V44.256H82.46V48H81.26V39.6H82.46V43.212H87.284V39.6H88.484ZM96.7583 41.64V48H95.6663V47.04C95.4343 47.368 95.1263 47.624 94.7423 47.808C94.3663 47.984 93.9543 48.072 93.5063 48.072C92.6583 48.072 91.9903 47.84 91.5023 47.376C91.0143 46.904 90.7703 46.212 90.7703 45.3V41.64H91.9223V45.168C91.9223 45.784 92.0703 46.252 92.3663 46.572C92.6623 46.884 93.0863 47.04 93.6383 47.04C94.2463 47.04 94.7263 46.856 95.0783 46.488C95.4303 46.12 95.6063 45.6 95.6063 44.928V41.64H96.7583ZM98.1354 50.4C97.8554 50.4 97.5954 50.368 97.3554 50.304C97.1154 50.24 96.9154 50.144 96.7554 50.016L97.1274 49.128C97.3674 49.328 97.6794 49.428 98.0634 49.428C98.3674 49.428 98.5994 49.332 98.7594 49.14C98.9274 48.956 99.0114 48.68 99.0114 48.312V41.64H100.163V48.288C100.163 48.944 99.9874 49.46 99.6354 49.836C99.2834 50.212 98.7834 50.4 98.1354 50.4ZM99.5874 40.416C99.3634 40.416 99.1754 40.344 99.0234 40.2C98.8794 40.056 98.8074 39.88 98.8074 39.672C98.8074 39.464 98.8794 39.288 99.0234 39.144C99.1754 38.992 99.3634 38.916 99.5874 38.916C99.8114 38.916 99.9954 38.988 100.139 39.132C100.291 39.268 100.367 39.44 100.367 39.648C100.367 39.864 100.291 40.048 100.139 40.2C99.9954 40.344 99.8114 40.416 99.5874 40.416ZM104.678 41.58C105.558 41.58 106.23 41.796 106.694 42.228C107.166 42.66 107.402 43.304 107.402 44.16V48H106.31V47.16C106.118 47.456 105.842 47.684 105.482 47.844C105.13 47.996 104.71 48.072 104.222 48.072C103.51 48.072 102.938 47.9 102.506 47.556C102.082 47.212 101.87 46.76 101.87 46.2C101.87 45.64 102.074 45.192 102.482 44.856C102.89 44.512 103.538 44.34 104.426 44.34H106.25V44.112C106.25 43.616 106.106 43.236 105.818 42.972C105.53 42.708 105.106 42.576 104.546 42.576C104.17 42.576 103.802 42.64 103.442 42.768C103.082 42.888 102.778 43.052 102.53 43.26L102.05 42.396C102.378 42.132 102.77 41.932 103.226 41.796C103.682 41.652 104.166 41.58 104.678 41.58ZM104.414 47.184C104.854 47.184 105.234 47.088 105.554 46.896C105.874 46.696 106.106 46.416 106.25 46.056V45.168H104.474C103.498 45.168 103.01 45.496 103.01 46.152C103.01 46.472 103.134 46.724 103.382 46.908C103.63 47.092 103.974 47.184 104.414 47.184ZM112.929 41.58C113.737 41.58 114.377 41.816 114.849 42.288C115.329 42.752 115.569 43.436 115.569 44.34V48H114.417V44.472C114.417 43.856 114.269 43.392 113.973 43.08C113.677 42.768 113.253 42.612 112.701 42.612C112.077 42.612 111.585 42.796 111.225 43.164C110.865 43.524 110.685 44.044 110.685 44.724V48H109.533V41.64H110.637V42.6C110.869 42.272 111.181 42.02 111.573 41.844C111.973 41.668 112.425 41.58 112.929 41.58ZM122.028 42.708C122.228 42.34 122.524 42.06 122.916 41.868C123.308 41.676 123.784 41.58 124.344 41.58V42.696C124.28 42.688 124.192 42.684 124.08 42.684C123.456 42.684 122.964 42.872 122.604 43.248C122.252 43.616 122.076 44.144 122.076 44.832V48H120.924V41.64H122.028V42.708ZM125.764 41.64H126.916V48H125.764V41.64ZM126.34 40.416C126.116 40.416 125.928 40.344 125.776 40.2C125.632 40.056 125.56 39.88 125.56 39.672C125.56 39.464 125.632 39.288 125.776 39.144C125.928 38.992 126.116 38.916 126.34 38.916C126.564 38.916 126.748 38.988 126.892 39.132C127.044 39.268 127.12 39.44 127.12 39.648C127.12 39.864 127.044 40.048 126.892 40.2C126.748 40.344 126.564 40.416 126.34 40.416ZM132.511 41.58C133.319 41.58 133.959 41.816 134.431 42.288C134.911 42.752 135.151 43.436 135.151 44.34V48H133.999V44.472C133.999 43.856 133.851 43.392 133.555 43.08C133.259 42.768 132.835 42.612 132.283 42.612C131.659 42.612 131.167 42.796 130.807 43.164C130.447 43.524 130.267 44.044 130.267 44.724V48H129.115V41.64H130.219V42.6C130.451 42.272 130.763 42.02 131.155 41.844C131.555 41.668 132.007 41.58 132.511 41.58ZM143.403 41.64V47.136C143.403 48.248 143.127 49.068 142.575 49.596C142.023 50.132 141.199 50.4 140.103 50.4C139.503 50.4 138.931 50.316 138.387 50.148C137.843 49.988 137.403 49.756 137.067 49.452L137.619 48.564C137.915 48.82 138.279 49.02 138.711 49.164C139.151 49.316 139.603 49.392 140.067 49.392C140.811 49.392 141.359 49.216 141.711 48.864C142.071 48.512 142.251 47.976 142.251 47.256V46.752C141.979 47.08 141.643 47.328 141.243 47.496C140.851 47.656 140.423 47.736 139.959 47.736C139.351 47.736 138.799 47.608 138.303 47.352C137.815 47.088 137.431 46.724 137.151 46.26C136.871 45.788 136.731 45.252 136.731 44.652C136.731 44.052 136.871 43.52 137.151 43.056C137.431 42.584 137.815 42.22 138.303 41.964C138.799 41.708 139.351 41.58 139.959 41.58C140.439 41.58 140.883 41.668 141.291 41.844C141.707 42.02 142.047 42.28 142.311 42.624V41.64H143.403ZM140.091 46.728C140.507 46.728 140.879 46.64 141.207 46.464C141.543 46.288 141.803 46.044 141.987 45.732C142.179 45.412 142.275 45.052 142.275 44.652C142.275 44.036 142.071 43.54 141.663 43.164C141.255 42.78 140.731 42.588 140.091 42.588C139.443 42.588 138.915 42.78 138.507 43.164C138.099 43.54 137.895 44.036 137.895 44.652C137.895 45.052 137.987 45.412 138.171 45.732C138.363 46.044 138.623 46.288 138.951 46.464C139.287 46.64 139.667 46.728 140.091 46.728ZM147.92 41.58C148.8 41.58 149.472 41.796 149.936 42.228C150.408 42.66 150.644 43.304 150.644 44.16V48H149.552V47.16C149.36 47.456 149.084 47.684 148.724 47.844C148.372 47.996 147.952 48.072 147.464 48.072C146.752 48.072 146.18 47.9 145.748 47.556C145.324 47.212 145.112 46.76 145.112 46.2C145.112 45.64 145.316 45.192 145.724 44.856C146.132 44.512 146.78 44.34 147.668 44.34H149.492V44.112C149.492 43.616 149.348 43.236 149.06 42.972C148.772 42.708 148.348 42.576 147.788 42.576C147.412 42.576 147.044 42.64 146.684 42.768C146.324 42.888 146.02 43.052 145.772 43.26L145.292 42.396C145.62 42.132 146.012 41.932 146.468 41.796C146.924 41.652 147.408 41.58 147.92 41.58ZM147.656 47.184C148.096 47.184 148.476 47.088 148.796 46.896C149.116 46.696 149.348 46.416 149.492 46.056V45.168H147.716C146.74 45.168 146.252 45.496 146.252 46.152C146.252 46.472 146.376 46.724 146.624 46.908C146.872 47.092 147.216 47.184 147.656 47.184ZM156.172 41.58C156.98 41.58 157.62 41.816 158.092 42.288C158.572 42.752 158.812 43.436 158.812 44.34V48H157.66V44.472C157.66 43.856 157.512 43.392 157.216 43.08C156.92 42.768 156.496 42.612 155.944 42.612C155.32 42.612 154.828 42.796 154.468 43.164C154.108 43.524 153.928 44.044 153.928 44.724V48H152.776V41.64H153.88V42.6C154.112 42.272 154.424 42.02 154.816 41.844C155.216 41.668 155.668 41.58 156.172 41.58ZM170.166 39.096V48H169.062V46.992C168.806 47.344 168.482 47.612 168.09 47.796C167.698 47.98 167.266 48.072 166.794 48.072C166.178 48.072 165.626 47.936 165.138 47.664C164.65 47.392 164.266 47.012 163.986 46.524C163.714 46.028 163.578 45.46 163.578 44.82C163.578 44.18 163.714 43.616 163.986 43.128C164.266 42.64 164.65 42.26 165.138 41.988C165.626 41.716 166.178 41.58 166.794 41.58C167.25 41.58 167.67 41.668 168.054 41.844C168.438 42.012 168.758 42.264 169.014 42.6V39.096H170.166ZM166.89 47.064C167.29 47.064 167.654 46.972 167.982 46.788C168.31 46.596 168.566 46.332 168.75 45.996C168.934 45.652 169.026 45.26 169.026 44.82C169.026 44.38 168.934 43.992 168.75 43.656C168.566 43.312 168.31 43.048 167.982 42.864C167.654 42.68 167.29 42.588 166.89 42.588C166.482 42.588 166.114 42.68 165.786 42.864C165.466 43.048 165.21 43.312 165.018 43.656C164.834 43.992 164.742 44.38 164.742 44.82C164.742 45.26 164.834 45.652 165.018 45.996C165.21 46.332 165.466 46.596 165.786 46.788C166.114 46.972 166.482 47.064 166.89 47.064ZM172.346 41.64H173.498V48H172.346V41.64ZM172.922 40.416C172.698 40.416 172.51 40.344 172.358 40.2C172.214 40.056 172.142 39.88 172.142 39.672C172.142 39.464 172.214 39.288 172.358 39.144C172.51 38.992 172.698 38.916 172.922 38.916C173.146 38.916 173.33 38.988 173.474 39.132C173.626 39.268 173.702 39.44 173.702 39.648C173.702 39.864 173.626 40.048 173.474 40.2C173.33 40.344 173.146 40.416 172.922 40.416ZM179.069 41.58C179.685 41.58 180.237 41.716 180.725 41.988C181.213 42.26 181.593 42.64 181.865 43.128C182.145 43.616 182.285 44.18 182.285 44.82C182.285 45.46 182.145 46.028 181.865 46.524C181.593 47.012 181.213 47.392 180.725 47.664C180.237 47.936 179.685 48.072 179.069 48.072C178.613 48.072 178.193 47.984 177.809 47.808C177.433 47.632 177.113 47.376 176.849 47.04V50.328H175.697V41.64H176.801V42.648C177.057 42.296 177.381 42.032 177.773 41.856C178.165 41.672 178.597 41.58 179.069 41.58ZM178.973 47.064C179.381 47.064 179.745 46.972 180.065 46.788C180.393 46.596 180.649 46.332 180.833 45.996C181.025 45.652 181.121 45.26 181.121 44.82C181.121 44.38 181.025 43.992 180.833 43.656C180.649 43.312 180.393 43.048 180.065 42.864C179.745 42.68 179.381 42.588 178.973 42.588C178.573 42.588 178.209 42.684 177.881 42.876C177.561 43.06 177.305 43.32 177.113 43.656C176.929 43.992 176.837 44.38 176.837 44.82C176.837 45.26 176.929 45.652 177.113 45.996C177.297 46.332 177.553 46.596 177.881 46.788C178.209 46.972 178.573 47.064 178.973 47.064ZM189.625 44.856C189.625 44.944 189.617 45.06 189.601 45.204H184.441C184.513 45.764 184.757 46.216 185.173 46.56C185.597 46.896 186.121 47.064 186.745 47.064C187.505 47.064 188.117 46.808 188.581 46.296L189.217 47.04C188.929 47.376 188.569 47.632 188.137 47.808C187.713 47.984 187.237 48.072 186.709 48.072C186.037 48.072 185.441 47.936 184.921 47.664C184.401 47.384 183.997 46.996 183.709 46.5C183.429 46.004 183.289 45.444 183.289 44.82C183.289 44.204 183.425 43.648 183.697 43.152C183.977 42.656 184.357 42.272 184.837 42C185.325 41.72 185.873 41.58 186.481 41.58C187.089 41.58 187.629 41.72 188.101 42C188.581 42.272 188.953 42.656 189.217 43.152C189.489 43.648 189.625 44.216 189.625 44.856ZM186.481 42.552C185.929 42.552 185.465 42.72 185.089 43.056C184.721 43.392 184.505 43.832 184.441 44.376H188.521C188.457 43.84 188.237 43.404 187.861 43.068C187.493 42.724 187.033 42.552 186.481 42.552ZM192.329 42.708C192.529 42.34 192.825 42.06 193.217 41.868C193.609 41.676 194.085 41.58 194.645 41.58V42.696C194.581 42.688 194.493 42.684 194.381 42.684C193.757 42.684 193.265 42.872 192.905 43.248C192.553 43.616 192.377 44.144 192.377 44.832V48H191.225V41.64H192.329V42.708ZM198.537 45.036L197.217 46.26V48H196.065V39.096H197.217V44.808L200.685 41.64H202.077L199.401 44.268L202.341 48H200.925L198.537 45.036ZM203.377 41.64H204.529V48H203.377V41.64ZM203.953 40.416C203.729 40.416 203.541 40.344 203.389 40.2C203.245 40.056 203.173 39.88 203.173 39.672C203.173 39.464 203.245 39.288 203.389 39.144C203.541 38.992 203.729 38.916 203.953 38.916C204.177 38.916 204.361 38.988 204.505 39.132C204.657 39.268 204.733 39.44 204.733 39.648C204.733 39.864 204.657 40.048 204.505 40.2C204.361 40.344 204.177 40.416 203.953 40.416ZM207.833 42.708C208.033 42.34 208.329 42.06 208.721 41.868C209.113 41.676 209.589 41.58 210.149 41.58V42.696C210.085 42.688 209.997 42.684 209.885 42.684C209.261 42.684 208.769 42.872 208.409 43.248C208.057 43.616 207.881 44.144 207.881 44.832V48H206.729V41.64H207.833V42.708ZM213.873 41.58C214.753 41.58 215.425 41.796 215.889 42.228C216.361 42.66 216.597 43.304 216.597 44.16V48H215.505V47.16C215.313 47.456 215.037 47.684 214.677 47.844C214.325 47.996 213.905 48.072 213.417 48.072C212.705 48.072 212.133 47.9 211.701 47.556C211.277 47.212 211.065 46.76 211.065 46.2C211.065 45.64 211.269 45.192 211.677 44.856C212.085 44.512 212.733 44.34 213.621 44.34H215.445V44.112C215.445 43.616 215.301 43.236 215.013 42.972C214.725 42.708 214.301 42.576 213.741 42.576C213.365 42.576 212.997 42.64 212.637 42.768C212.277 42.888 211.973 43.052 211.725 43.26L211.245 42.396C211.573 42.132 211.965 41.932 212.421 41.796C212.877 41.652 213.361 41.58 213.873 41.58ZM213.609 47.184C214.049 47.184 214.429 47.088 214.749 46.896C215.069 46.696 215.301 46.416 215.445 46.056V45.168H213.669C212.693 45.168 212.205 45.496 212.205 46.152C212.205 46.472 212.329 46.724 212.577 46.908C212.825 47.092 213.169 47.184 213.609 47.184ZM221.201 45.036L219.881 46.26V48H218.729V39.096H219.881V44.808L223.349 41.64H224.741L222.065 44.268L225.005 48H223.589L221.201 45.036ZM228.322 41.58C229.202 41.58 229.874 41.796 230.338 42.228C230.81 42.66 231.046 43.304 231.046 44.16V48H229.954V47.16C229.762 47.456 229.486 47.684 229.126 47.844C228.774 47.996 228.354 48.072 227.866 48.072C227.154 48.072 226.582 47.9 226.15 47.556C225.726 47.212 225.514 46.76 225.514 46.2C225.514 45.64 225.718 45.192 226.126 44.856C226.534 44.512 227.182 44.34 228.07 44.34H229.894V44.112C229.894 43.616 229.75 43.236 229.462 42.972C229.174 42.708 228.75 42.576 228.19 42.576C227.814 42.576 227.446 42.64 227.086 42.768C226.726 42.888 226.422 43.052 226.174 43.26L225.694 42.396C226.022 42.132 226.414 41.932 226.87 41.796C227.326 41.652 227.81 41.58 228.322 41.58ZM228.058 47.184C228.498 47.184 228.878 47.088 229.198 46.896C229.518 46.696 229.75 46.416 229.894 46.056V45.168H228.118C227.142 45.168 226.654 45.496 226.654 46.152C226.654 46.472 226.778 46.724 227.026 46.908C227.274 47.092 227.618 47.184 228.058 47.184ZM236.574 41.58C237.382 41.58 238.022 41.816 238.494 42.288C238.974 42.752 239.214 43.436 239.214 44.34V48H238.062V44.472C238.062 43.856 237.914 43.392 237.618 43.08C237.322 42.768 236.898 42.612 236.346 42.612C235.722 42.612 235.23 42.796 234.87 43.164C234.51 43.524 234.33 44.044 234.33 44.724V48H233.178V41.64H234.282V42.6C234.514 42.272 234.826 42.02 235.218 41.844C235.618 41.668 236.07 41.58 236.574 41.58ZM84.668 62.628C84.5 62.772 84.292 62.884 84.044 62.964C83.796 63.036 83.54 63.072 83.276 63.072C82.636 63.072 82.14 62.9 81.788 62.556C81.436 62.212 81.26 61.72 81.26 61.08V57.588H80.18V56.64H81.26V55.248H82.412V56.64H84.236V57.588H82.412V61.032C82.412 61.376 82.496 61.64 82.664 61.824C82.84 62.008 83.088 62.1 83.408 62.1C83.76 62.1 84.06 62 84.308 61.8L84.668 62.628ZM91.9888 56.64V63H90.8968V62.04C90.6648 62.368 90.3568 62.624 89.9728 62.808C89.5968 62.984 89.1848 63.072 88.7368 63.072C87.8888 63.072 87.2208 62.84 86.7327 62.376C86.2448 61.904 86.0008 61.212 86.0008 60.3V56.64H87.1528V60.168C87.1528 60.784 87.3008 61.252 87.5968 61.572C87.8928 61.884 88.3168 62.04 88.8688 62.04C89.4768 62.04 89.9568 61.856 90.3088 61.488C90.6608 61.12 90.8368 60.6 90.8368 59.928V56.64H91.9888ZM95.2858 57.708C95.4858 57.34 95.7818 57.06 96.1738 56.868C96.5658 56.676 97.0418 56.58 97.6018 56.58V57.696C97.5378 57.688 97.4498 57.684 97.3378 57.684C96.7138 57.684 96.2218 57.872 95.8618 58.248C95.5098 58.616 95.3338 59.144 95.3338 59.832V63H94.1818V56.64H95.2858V57.708ZM105.032 56.64V63H103.94V62.04C103.708 62.368 103.4 62.624 103.016 62.808C102.64 62.984 102.228 63.072 101.78 63.072C100.932 63.072 100.264 62.84 99.7757 62.376C99.2877 61.904 99.0437 61.212 99.0437 60.3V56.64H100.196V60.168C100.196 60.784 100.344 61.252 100.64 61.572C100.936 61.884 101.36 62.04 101.912 62.04C102.52 62.04 103 61.856 103.352 61.488C103.704 61.12 103.88 60.6 103.88 59.928V56.64H105.032ZM110.621 56.58C111.429 56.58 112.069 56.816 112.541 57.288C113.021 57.752 113.261 58.436 113.261 59.34V63H112.109V59.472C112.109 58.856 111.961 58.392 111.665 58.08C111.369 57.768 110.945 57.612 110.393 57.612C109.769 57.612 109.277 57.796 108.917 58.164C108.557 58.524 108.377 59.044 108.377 59.724V63H107.225V56.64H108.329V57.6C108.561 57.272 108.873 57.02 109.265 56.844C109.665 56.668 110.117 56.58 110.621 56.58ZM126.571 56.58C127.371 56.58 128.003 56.812 128.467 57.276C128.939 57.74 129.175 58.428 129.175 59.34V63H128.023V59.472C128.023 58.856 127.879 58.392 127.591 58.08C127.311 57.768 126.907 57.612 126.379 57.612C125.795 57.612 125.331 57.796 124.987 58.164C124.643 58.524 124.471 59.044 124.471 59.724V63H123.319V59.472C123.319 58.856 123.175 58.392 122.887 58.08C122.607 57.768 122.203 57.612 121.675 57.612C121.091 57.612 120.627 57.796 120.283 58.164C119.939 58.524 119.767 59.044 119.767 59.724V63H118.615V56.64H119.719V57.588C119.951 57.26 120.255 57.012 120.631 56.844C121.007 56.668 121.435 56.58 121.915 56.58C122.411 56.58 122.851 56.68 123.235 56.88C123.619 57.08 123.915 57.372 124.123 57.756C124.363 57.388 124.695 57.1 125.119 56.892C125.551 56.684 126.035 56.58 126.571 56.58ZM133.611 56.58C134.491 56.58 135.163 56.796 135.627 57.228C136.099 57.66 136.335 58.304 136.335 59.16V63H135.243V62.16C135.051 62.456 134.775 62.684 134.415 62.844C134.063 62.996 133.643 63.072 133.155 63.072C132.443 63.072 131.871 62.9 131.439 62.556C131.015 62.212 130.803 61.76 130.803 61.2C130.803 60.64 131.007 60.192 131.415 59.856C131.823 59.512 132.471 59.34 133.359 59.34H135.183V59.112C135.183 58.616 135.039 58.236 134.751 57.972C134.463 57.708 134.039 57.576 133.479 57.576C133.103 57.576 132.735 57.64 132.375 57.768C132.015 57.888 131.711 58.052 131.463 58.26L130.983 57.396C131.311 57.132 131.703 56.932 132.159 56.796C132.615 56.652 133.099 56.58 133.611 56.58ZM133.347 62.184C133.787 62.184 134.167 62.088 134.487 61.896C134.807 61.696 135.039 61.416 135.183 61.056V60.168H133.407C132.431 60.168 131.943 60.496 131.943 61.152C131.943 61.472 132.067 61.724 132.315 61.908C132.563 62.092 132.907 62.184 133.347 62.184ZM138.467 54.096H139.619V63H138.467V54.096ZM144.135 56.58C145.015 56.58 145.687 56.796 146.151 57.228C146.623 57.66 146.859 58.304 146.859 59.16V63H145.767V62.16C145.575 62.456 145.299 62.684 144.939 62.844C144.587 62.996 144.167 63.072 143.679 63.072C142.967 63.072 142.395 62.9 141.963 62.556C141.539 62.212 141.327 61.76 141.327 61.2C141.327 60.64 141.531 60.192 141.939 59.856C142.347 59.512 142.995 59.34 143.883 59.34H145.707V59.112C145.707 58.616 145.563 58.236 145.275 57.972C144.987 57.708 144.563 57.576 144.003 57.576C143.627 57.576 143.259 57.64 142.899 57.768C142.539 57.888 142.235 58.052 141.987 58.26L141.507 57.396C141.835 57.132 142.227 56.932 142.683 56.796C143.139 56.652 143.623 56.58 144.135 56.58ZM143.871 62.184C144.311 62.184 144.691 62.088 145.011 61.896C145.331 61.696 145.563 61.416 145.707 61.056V60.168H143.931C142.955 60.168 142.467 60.496 142.467 61.152C142.467 61.472 142.591 61.724 142.839 61.908C143.087 62.092 143.431 62.184 143.871 62.184ZM156.946 56.58C157.746 56.58 158.378 56.812 158.842 57.276C159.314 57.74 159.55 58.428 159.55 59.34V63H158.398V59.472C158.398 58.856 158.254 58.392 157.966 58.08C157.686 57.768 157.282 57.612 156.754 57.612C156.17 57.612 155.706 57.796 155.362 58.164C155.018 58.524 154.846 59.044 154.846 59.724V63H153.694V59.472C153.694 58.856 153.55 58.392 153.262 58.08C152.982 57.768 152.578 57.612 152.05 57.612C151.466 57.612 151.002 57.796 150.658 58.164C150.314 58.524 150.142 59.044 150.142 59.724V63H148.99V56.64H150.094V57.588C150.326 57.26 150.63 57.012 151.006 56.844C151.382 56.668 151.81 56.58 152.29 56.58C152.786 56.58 153.226 56.68 153.61 56.88C153.994 57.08 154.29 57.372 154.498 57.756C154.738 57.388 155.07 57.1 155.494 56.892C155.926 56.684 156.41 56.58 156.946 56.58ZM168.289 56.58C169.097 56.58 169.737 56.816 170.209 57.288C170.689 57.752 170.929 58.436 170.929 59.34V63H169.777V59.472C169.777 58.856 169.629 58.392 169.333 58.08C169.037 57.768 168.613 57.612 168.061 57.612C167.437 57.612 166.945 57.796 166.585 58.164C166.225 58.524 166.045 59.044 166.045 59.724V63H164.893V54.096H166.045V57.54C166.285 57.236 166.597 57 166.981 56.832C167.373 56.664 167.809 56.58 168.289 56.58ZM175.377 56.58C176.257 56.58 176.929 56.796 177.393 57.228C177.865 57.66 178.101 58.304 178.101 59.16V63H177.009V62.16C176.817 62.456 176.541 62.684 176.181 62.844C175.829 62.996 175.409 63.072 174.921 63.072C174.209 63.072 173.637 62.9 173.205 62.556C172.781 62.212 172.569 61.76 172.569 61.2C172.569 60.64 172.773 60.192 173.181 59.856C173.589 59.512 174.237 59.34 175.125 59.34H176.949V59.112C176.949 58.616 176.805 58.236 176.517 57.972C176.229 57.708 175.805 57.576 175.245 57.576C174.869 57.576 174.501 57.64 174.141 57.768C173.781 57.888 173.477 58.052 173.229 58.26L172.749 57.396C173.077 57.132 173.469 56.932 173.925 56.796C174.381 56.652 174.865 56.58 175.377 56.58ZM175.113 62.184C175.553 62.184 175.933 62.088 176.253 61.896C176.573 61.696 176.805 61.416 176.949 61.056V60.168H175.173C174.197 60.168 173.709 60.496 173.709 61.152C173.709 61.472 173.833 61.724 174.081 61.908C174.329 62.092 174.673 62.184 175.113 62.184ZM181.337 57.708C181.537 57.34 181.833 57.06 182.225 56.868C182.617 56.676 183.093 56.58 183.653 56.58V57.696C183.589 57.688 183.501 57.684 183.389 57.684C182.765 57.684 182.273 57.872 181.913 58.248C181.561 58.616 181.385 59.144 181.385 59.832V63H180.233V56.64H181.337V57.708ZM185.072 56.64H186.224V63H185.072V56.64ZM185.648 55.416C185.424 55.416 185.236 55.344 185.084 55.2C184.94 55.056 184.868 54.88 184.868 54.672C184.868 54.464 184.94 54.288 185.084 54.144C185.236 53.992 185.424 53.916 185.648 53.916C185.872 53.916 186.056 53.988 186.2 54.132C186.352 54.268 186.428 54.44 186.428 54.648C186.428 54.864 186.352 55.048 186.2 55.2C186.056 55.344 185.872 55.416 185.648 55.416ZM191.647 56.64H192.799V63H191.647V56.64ZM192.223 55.416C191.999 55.416 191.811 55.344 191.659 55.2C191.515 55.056 191.443 54.88 191.443 54.672C191.443 54.464 191.515 54.288 191.659 54.144C191.811 53.992 191.999 53.916 192.223 53.916C192.447 53.916 192.631 53.988 192.775 54.132C192.927 54.268 193.003 54.44 193.003 54.648C193.003 54.864 192.927 55.048 192.775 55.2C192.631 55.344 192.447 55.416 192.223 55.416ZM198.394 56.58C199.202 56.58 199.842 56.816 200.314 57.288C200.794 57.752 201.034 58.436 201.034 59.34V63H199.882V59.472C199.882 58.856 199.734 58.392 199.438 58.08C199.142 57.768 198.718 57.612 198.166 57.612C197.542 57.612 197.05 57.796 196.69 58.164C196.33 58.524 196.15 59.044 196.15 59.724V63H194.998V56.64H196.102V57.6C196.334 57.272 196.646 57.02 197.038 56.844C197.438 56.668 197.89 56.58 198.394 56.58ZM203.166 56.64H204.318V63H203.166V56.64ZM203.742 55.416C203.518 55.416 203.33 55.344 203.178 55.2C203.034 55.056 202.962 54.88 202.962 54.672C202.962 54.464 203.034 54.288 203.178 54.144C203.33 53.992 203.518 53.916 203.742 53.916C203.966 53.916 204.15 53.988 204.294 54.132C204.446 54.268 204.522 54.44 204.522 54.648C204.522 54.864 204.446 55.048 204.294 55.2C204.15 55.344 203.966 55.416 203.742 55.416ZM206.794 63.072C206.57 63.072 206.378 62.996 206.218 62.844C206.058 62.684 205.978 62.484 205.978 62.244C205.978 62.012 206.058 61.82 206.218 61.668C206.378 61.508 206.57 61.428 206.794 61.428C207.018 61.428 207.206 61.504 207.358 61.656C207.51 61.808 207.586 62.004 207.586 62.244C207.586 62.484 207.506 62.684 207.346 62.844C207.194 62.996 207.01 63.072 206.794 63.072ZM83.708 93.096C83.076 93.096 82.464 93 81.872 92.808C81.288 92.608 80.828 92.352 80.492 92.04L80.936 91.104C81.256 91.392 81.664 91.628 82.16 91.812C82.664 91.988 83.18 92.076 83.708 92.076C84.404 92.076 84.924 91.96 85.268 91.728C85.612 91.488 85.784 91.172 85.784 90.78C85.784 90.492 85.688 90.26 85.496 90.084C85.312 89.9 85.08 89.76 84.8 89.664C84.528 89.568 84.14 89.46 83.636 89.34C83.004 89.188 82.492 89.036 82.1 88.884C81.716 88.732 81.384 88.5 81.104 88.188C80.832 87.868 80.696 87.44 80.696 86.904C80.696 86.456 80.812 86.052 81.044 85.692C81.284 85.332 81.644 85.044 82.124 84.828C82.604 84.612 83.2 84.504 83.912 84.504C84.408 84.504 84.896 84.568 85.376 84.696C85.856 84.824 86.268 85.008 86.612 85.248L86.216 86.208C85.864 85.984 85.488 85.816 85.088 85.704C84.688 85.584 84.296 85.524 83.912 85.524C83.232 85.524 82.72 85.648 82.376 85.896C82.04 86.144 81.872 86.464 81.872 86.856C81.872 87.144 81.968 87.38 82.16 87.564C82.352 87.74 82.588 87.88 82.868 87.984C83.156 88.08 83.544 88.184 84.032 88.296C84.664 88.448 85.172 88.6 85.556 88.752C85.94 88.904 86.268 89.136 86.54 89.448C86.82 89.76 86.96 90.18 86.96 90.708C86.96 91.148 86.84 91.552 86.6 91.92C86.36 92.28 85.996 92.568 85.508 92.784C85.02 92.992 84.42 93.096 83.708 93.096ZM94.4731 86.64V93H93.3811V92.04C93.1491 92.368 92.8411 92.624 92.4571 92.808C92.0811 92.984 91.6691 93.072 91.2211 93.072C90.3731 93.072 89.7051 92.84 89.2171 92.376C88.7291 91.904 88.4851 91.212 88.4851 90.3V86.64H89.6371V90.168C89.6371 90.784 89.7851 91.252 90.0811 91.572C90.3771 91.884 90.8011 92.04 91.3531 92.04C91.9611 92.04 92.4411 91.856 92.7931 91.488C93.1451 91.12 93.3211 90.6 93.3211 89.928V86.64H94.4731ZM100.062 86.58C100.87 86.58 101.51 86.816 101.982 87.288C102.462 87.752 102.702 88.436 102.702 89.34V93H101.55V89.472C101.55 88.856 101.402 88.392 101.106 88.08C100.81 87.768 100.386 87.612 99.8342 87.612C99.2102 87.612 98.7182 87.796 98.3582 88.164C97.9982 88.524 97.8182 89.044 97.8182 89.724V93H96.6662V84.096H97.8182V87.54C98.0582 87.236 98.3702 87 98.7542 86.832C99.1462 86.664 99.5822 86.58 100.062 86.58ZM110.762 86.64V93H109.67V92.04C109.438 92.368 109.13 92.624 108.746 92.808C108.37 92.984 107.958 93.072 107.51 93.072C106.662 93.072 105.994 92.84 105.506 92.376C105.018 91.904 104.774 91.212 104.774 90.3V86.64H105.926V90.168C105.926 90.784 106.074 91.252 106.37 91.572C106.666 91.884 107.09 92.04 107.642 92.04C108.25 92.04 108.73 91.856 109.082 91.488C109.434 91.12 109.61 90.6 109.61 89.928V86.64H110.762ZM118.494 86.58C119.374 86.58 120.046 86.796 120.51 87.228C120.982 87.66 121.218 88.304 121.218 89.16V93H120.126V92.16C119.934 92.456 119.658 92.684 119.298 92.844C118.946 92.996 118.526 93.072 118.038 93.072C117.326 93.072 116.754 92.9 116.322 92.556C115.898 92.212 115.686 91.76 115.686 91.2C115.686 90.64 115.89 90.192 116.298 89.856C116.706 89.512 117.354 89.34 118.242 89.34H120.066V89.112C120.066 88.616 119.922 88.236 119.634 87.972C119.346 87.708 118.922 87.576 118.362 87.576C117.986 87.576 117.618 87.64 117.258 87.768C116.898 87.888 116.594 88.052 116.346 88.26L115.866 87.396C116.194 87.132 116.586 86.932 117.042 86.796C117.498 86.652 117.982 86.58 118.494 86.58ZM118.23 92.184C118.67 92.184 119.05 92.088 119.37 91.896C119.69 91.696 119.922 91.416 120.066 91.056V90.168H118.29C117.314 90.168 116.826 90.496 116.826 91.152C116.826 91.472 116.95 91.724 117.198 91.908C117.446 92.092 117.79 92.184 118.23 92.184ZM125.822 90.036L124.502 91.26V93H123.35V84.096H124.502V89.808L127.97 86.64H129.362L126.686 89.268L129.626 93H128.21L125.822 90.036ZM132.943 86.58C133.823 86.58 134.495 86.796 134.959 87.228C135.431 87.66 135.667 88.304 135.667 89.16V93H134.575V92.16C134.383 92.456 134.107 92.684 133.747 92.844C133.395 92.996 132.975 93.072 132.487 93.072C131.775 93.072 131.203 92.9 130.771 92.556C130.347 92.212 130.135 91.76 130.135 91.2C130.135 90.64 130.339 90.192 130.747 89.856C131.155 89.512 131.803 89.34 132.691 89.34H134.515V89.112C134.515 88.616 134.371 88.236 134.083 87.972C133.795 87.708 133.371 87.576 132.811 87.576C132.435 87.576 132.067 87.64 131.707 87.768C131.347 87.888 131.043 88.052 130.795 88.26L130.315 87.396C130.643 87.132 131.035 86.932 131.491 86.796C131.947 86.652 132.431 86.58 132.943 86.58ZM132.679 92.184C133.119 92.184 133.499 92.088 133.819 91.896C134.139 91.696 134.371 91.416 134.515 91.056V90.168H132.739C131.763 90.168 131.275 90.496 131.275 91.152C131.275 91.472 131.399 91.724 131.647 91.908C131.895 92.092 132.239 92.184 132.679 92.184ZM141.195 86.58C142.003 86.58 142.643 86.816 143.115 87.288C143.595 87.752 143.835 88.436 143.835 89.34V93H142.683V89.472C142.683 88.856 142.535 88.392 142.239 88.08C141.943 87.768 141.519 87.612 140.967 87.612C140.343 87.612 139.851 87.796 139.491 88.164C139.131 88.524 138.951 89.044 138.951 89.724V93H137.799V86.64H138.903V87.6C139.135 87.272 139.447 87.02 139.839 86.844C140.239 86.668 140.691 86.58 141.195 86.58ZM152.766 92.628C152.598 92.772 152.39 92.884 152.142 92.964C151.894 93.036 151.638 93.072 151.374 93.072C150.734 93.072 150.238 92.9 149.886 92.556C149.534 92.212 149.358 91.72 149.358 91.08V87.588H148.278V86.64H149.358V85.248H150.51V86.64H152.334V87.588H150.51V91.032C150.51 91.376 150.594 91.64 150.762 91.824C150.938 92.008 151.186 92.1 151.506 92.1C151.858 92.1 152.158 92 152.406 91.8L152.766 92.628ZM154.158 86.64H155.31V93H154.158V86.64ZM154.734 85.416C154.51 85.416 154.322 85.344 154.17 85.2C154.026 85.056 153.954 84.88 153.954 84.672C153.954 84.464 154.026 84.288 154.17 84.144C154.322 83.992 154.51 83.916 154.734 83.916C154.958 83.916 155.142 83.988 155.286 84.132C155.438 84.268 155.514 84.44 155.514 84.648C155.514 84.864 155.438 85.048 155.286 85.2C155.142 85.344 154.958 85.416 154.734 85.416ZM160.906 86.58C161.714 86.58 162.354 86.816 162.826 87.288C163.306 87.752 163.546 88.436 163.546 89.34V93H162.394V89.472C162.394 88.856 162.246 88.392 161.95 88.08C161.654 87.768 161.23 87.612 160.678 87.612C160.054 87.612 159.562 87.796 159.202 88.164C158.842 88.524 158.662 89.044 158.662 89.724V93H157.51V86.64H158.614V87.6C158.846 87.272 159.158 87.02 159.55 86.844C159.95 86.668 160.402 86.58 160.906 86.58ZM171.797 86.64V92.136C171.797 93.248 171.521 94.068 170.969 94.596C170.417 95.132 169.593 95.4 168.497 95.4C167.897 95.4 167.325 95.316 166.781 95.148C166.237 94.988 165.797 94.756 165.461 94.452L166.013 93.564C166.309 93.82 166.673 94.02 167.105 94.164C167.545 94.316 167.997 94.392 168.461 94.392C169.205 94.392 169.753 94.216 170.105 93.864C170.465 93.512 170.645 92.976 170.645 92.256V91.752C170.373 92.08 170.037 92.328 169.637 92.496C169.245 92.656 168.817 92.736 168.353 92.736C167.745 92.736 167.193 92.608 166.697 92.352C166.209 92.088 165.825 91.724 165.545 91.26C165.265 90.788 165.125 90.252 165.125 89.652C165.125 89.052 165.265 88.52 165.545 88.056C165.825 87.584 166.209 87.22 166.697 86.964C167.193 86.708 167.745 86.58 168.353 86.58C168.833 86.58 169.277 86.668 169.685 86.844C170.101 87.02 170.441 87.28 170.705 87.624V86.64H171.797ZM168.485 91.728C168.901 91.728 169.273 91.64 169.601 91.464C169.937 91.288 170.197 91.044 170.381 90.732C170.573 90.412 170.669 90.052 170.669 89.652C170.669 89.036 170.465 88.54 170.057 88.164C169.649 87.78 169.125 87.588 168.485 87.588C167.837 87.588 167.309 87.78 166.901 88.164C166.493 88.54 166.289 89.036 166.289 89.652C166.289 90.052 166.381 90.412 166.565 90.732C166.757 91.044 167.017 91.288 167.345 91.464C167.681 91.64 168.061 91.728 168.485 91.728ZM180.082 86.64V92.136C180.082 93.248 179.806 94.068 179.254 94.596C178.702 95.132 177.878 95.4 176.782 95.4C176.182 95.4 175.61 95.316 175.066 95.148C174.522 94.988 174.082 94.756 173.746 94.452L174.298 93.564C174.594 93.82 174.958 94.02 175.39 94.164C175.83 94.316 176.282 94.392 176.746 94.392C177.49 94.392 178.038 94.216 178.39 93.864C178.75 93.512 178.93 92.976 178.93 92.256V91.752C178.658 92.08 178.322 92.328 177.922 92.496C177.53 92.656 177.102 92.736 176.638 92.736C176.03 92.736 175.478 92.608 174.982 92.352C174.494 92.088 174.11 91.724 173.83 91.26C173.55 90.788 173.41 90.252 173.41 89.652C173.41 89.052 173.55 88.52 173.83 88.056C174.11 87.584 174.494 87.22 174.982 86.964C175.478 86.708 176.03 86.58 176.638 86.58C177.118 86.58 177.562 86.668 177.97 86.844C178.386 87.02 178.726 87.28 178.99 87.624V86.64H180.082ZM176.77 91.728C177.186 91.728 177.558 91.64 177.886 91.464C178.222 91.288 178.482 91.044 178.666 90.732C178.858 90.412 178.954 90.052 178.954 89.652C178.954 89.036 178.75 88.54 178.342 88.164C177.934 87.78 177.41 87.588 176.77 87.588C176.122 87.588 175.594 87.78 175.186 88.164C174.778 88.54 174.574 89.036 174.574 89.652C174.574 90.052 174.666 90.412 174.85 90.732C175.042 91.044 175.302 91.288 175.63 91.464C175.966 91.64 176.346 91.728 176.77 91.728ZM182.283 86.64H183.435V93H182.283V86.64ZM182.859 85.416C182.635 85.416 182.447 85.344 182.295 85.2C182.151 85.056 182.079 84.88 182.079 84.672C182.079 84.464 182.151 84.288 182.295 84.144C182.447 83.992 182.635 83.916 182.859 83.916C183.083 83.916 183.267 83.988 183.411 84.132C183.563 84.268 183.639 84.44 183.639 84.648C183.639 84.864 183.563 85.048 183.411 85.2C183.267 85.344 183.083 85.416 182.859 85.416ZM191.558 88.128C192.382 88.208 193.01 88.464 193.442 88.896C193.874 89.32 194.09 89.864 194.09 90.528C194.09 91.008 193.97 91.444 193.73 91.836C193.49 92.22 193.13 92.528 192.65 92.76C192.178 92.984 191.598 93.096 190.91 93.096C190.31 93.096 189.734 93.008 189.182 92.832C188.63 92.648 188.178 92.396 187.826 92.076L188.378 91.128C188.666 91.4 189.034 91.62 189.482 91.788C189.93 91.948 190.406 92.028 190.91 92.028C191.534 92.028 192.018 91.896 192.362 91.632C192.714 91.368 192.89 91.004 192.89 90.54C192.89 90.076 192.718 89.716 192.374 89.46C192.03 89.204 191.51 89.076 190.814 89.076H190.142V88.236L192.254 85.644H188.21V84.6H193.754V85.416L191.558 88.128ZM198.641 93.096C197.977 93.096 197.385 92.928 196.865 92.592C196.353 92.248 195.949 91.752 195.653 91.104C195.357 90.456 195.209 89.688 195.209 88.8C195.209 87.912 195.357 87.144 195.653 86.496C195.949 85.848 196.353 85.356 196.865 85.02C197.385 84.676 197.977 84.504 198.641 84.504C199.297 84.504 199.881 84.676 200.393 85.02C200.913 85.356 201.321 85.848 201.617 86.496C201.913 87.144 202.061 87.912 202.061 88.8C202.061 89.688 201.913 90.456 201.617 91.104C201.321 91.752 200.913 92.248 200.393 92.592C199.881 92.928 199.297 93.096 198.641 93.096ZM198.641 92.028C199.313 92.028 199.849 91.752 200.249 91.2C200.657 90.648 200.861 89.848 200.861 88.8C200.861 87.752 200.657 86.952 200.249 86.4C199.849 85.848 199.313 85.572 198.641 85.572C197.961 85.572 197.417 85.848 197.009 86.4C196.609 86.952 196.409 87.752 196.409 88.8C196.409 89.848 196.609 90.648 197.009 91.2C197.417 91.752 197.961 92.028 198.641 92.028ZM205.18 88.428C204.82 88.428 204.488 88.344 204.184 88.176C203.888 88 203.652 87.764 203.476 87.468C203.3 87.164 203.212 86.832 203.212 86.472C203.212 86.12 203.3 85.796 203.476 85.5C203.652 85.196 203.888 84.96 204.184 84.792C204.488 84.616 204.82 84.528 205.18 84.528C205.54 84.528 205.872 84.616 206.176 84.792C206.48 84.96 206.72 85.196 206.896 85.5C207.072 85.796 207.16 86.12 207.16 86.472C207.16 86.832 207.072 87.164 206.896 87.468C206.72 87.764 206.48 88 206.176 88.176C205.872 88.344 205.54 88.428 205.18 88.428ZM205.18 87.78C205.548 87.78 205.856 87.656 206.104 87.408C206.352 87.152 206.476 86.84 206.476 86.472C206.476 86.104 206.352 85.796 206.104 85.548C205.856 85.292 205.548 85.164 205.18 85.164C204.812 85.164 204.504 85.288 204.256 85.536C204.008 85.784 203.884 86.096 203.884 86.472C203.884 86.848 204.008 87.16 204.256 87.408C204.504 87.656 204.812 87.78 205.18 87.78ZM212.832 93.096C211.992 93.096 211.232 92.912 210.552 92.544C209.88 92.168 209.352 91.656 208.968 91.008C208.584 90.352 208.392 89.616 208.392 88.8C208.392 87.984 208.584 87.252 208.968 86.604C209.352 85.948 209.884 85.436 210.564 85.068C211.244 84.692 212.004 84.504 212.844 84.504C213.5 84.504 214.1 84.616 214.644 84.84C215.188 85.056 215.652 85.38 216.036 85.812L215.256 86.568C214.624 85.904 213.836 85.572 212.892 85.572C212.268 85.572 211.704 85.712 211.2 85.992C210.696 86.272 210.3 86.66 210.012 87.156C209.732 87.644 209.592 88.192 209.592 88.8C209.592 89.408 209.732 89.96 210.012 90.456C210.3 90.944 210.696 91.328 211.2 91.608C211.704 91.888 212.268 92.028 212.892 92.028C213.828 92.028 214.616 91.692 215.256 91.02L216.036 91.776C215.652 92.208 215.184 92.536 214.632 92.76C214.088 92.984 213.488 93.096 212.832 93.096Z" fill="black"/>
</svg>
