<svg width="29" height="28" viewBox="0 0 29 28" fill="none" xmlns="http://www.w3.org/2000/svg">
<g clip-path="url(#clip0_93_31)">
<path d="M18.5833 16.3333H17.6617L17.335 16.0183C18.0641 15.1713 18.597 14.1735 18.8955 13.0965C19.194 12.0195 19.2507 10.8898 19.0617 9.7883C18.5133 6.54497 15.8067 3.95497 12.54 3.5583C11.3916 3.41301 10.2251 3.53237 9.12986 3.90724C8.03464 4.28211 7.03969 4.90256 6.22114 5.72111C5.40259 6.53966 4.78214 7.53461 4.40727 8.62983C4.0324 9.72506 3.91304 10.8915 4.05833 12.04C4.455 15.3066 7.045 18.0133 10.2883 18.5616C11.3898 18.7507 12.5195 18.6939 13.5965 18.3954C14.6736 18.0969 15.6713 17.5641 16.5183 16.835L16.8333 17.1616V18.0833L21.7917 23.0416C22.27 23.52 23.0517 23.52 23.53 23.0416C24.0083 22.5633 24.0083 21.7816 23.53 21.3033L18.5833 16.3333ZM11.5833 16.3333C8.67833 16.3333 6.33333 13.9883 6.33333 11.0833C6.33333 8.1783 8.67833 5.8333 11.5833 5.8333C14.4883 5.8333 16.8333 8.1783 16.8333 11.0833C16.8333 13.9883 14.4883 16.3333 11.5833 16.3333Z" fill="#131313"/>
</g>
<defs>
<clipPath id="clip0_93_31">
<rect width="28" height="28" fill="white" transform="translate(0.5)"/>
</clipPath>
</defs>
</svg>
