<svg width="52" height="52" viewBox="0 0 52 52" fill="none" xmlns="http://www.w3.org/2000/svg">
<path d="M26 12.077L24.8126 13.1863C24.9647 13.349 25.1485 13.4788 25.3528 13.5674C25.557 13.6561 25.7773 13.7019 26 13.7019C26.2227 13.7019 26.4429 13.6561 26.6472 13.5674C26.8514 13.4788 27.0353 13.349 27.1873 13.1863L26 12.077ZM20.4403 40.7247C17.2986 38.1767 13.6326 34.8335 10.764 31.174C7.86281 27.4755 5.95831 23.6773 5.95831 20.189H2.70831C2.70831 24.7758 5.15665 29.2933 8.20515 33.1803C11.2861 37.1085 15.1601 40.625 18.3928 43.2488L20.4403 40.7247ZM5.95831 20.189C5.95831 13.8948 8.70565 10.0057 12.103 8.67318C15.4938 7.34501 20.2366 8.29401 24.8126 13.1863L27.1873 10.9677C22.0133 5.43401 15.9228 3.68768 10.9178 5.64634C5.91931 7.60501 2.70831 12.9827 2.70831 20.189H5.95831ZM33.605 43.2467C36.8398 40.6228 40.7138 37.1063 43.7948 33.1782C46.8433 29.2912 49.2916 24.7737 49.2916 20.1847H46.0416C46.0416 23.6773 44.135 27.4733 41.236 31.1718C38.3673 34.8313 34.7013 38.1745 31.5596 40.7225L33.605 43.2467ZM49.2916 20.1847C49.2916 12.9805 46.0806 7.60284 41.08 5.64634C36.075 3.68551 29.9866 5.42968 24.8126 10.9655L27.1873 13.1863C31.7633 8.29401 36.5061 7.34284 39.897 8.67101C43.2943 10.0013 46.0416 13.8927 46.0416 20.1847H49.2916ZM18.3928 43.2488C21.1445 45.4848 23.0576 47.125 26 47.125V43.875C24.4335 43.875 23.4585 43.173 20.4403 40.7247L18.3928 43.2488ZM31.5596 40.7225C28.5415 43.1708 27.5665 43.875 26 43.875V47.125C28.9423 47.125 30.8555 45.4848 33.6071 43.2488L31.5596 40.7225Z" fill="#131313"/>
<path d="M40.0833 19.5001H35.75M35.75 19.5001H31.4166M35.75 19.5001V15.1667M35.75 19.5001V23.8334" stroke="#131313" stroke-width="3" stroke-linecap="round"/>
</svg>
