<svg width="70" height="70" viewBox="0 0 70 70" fill="none" xmlns="http://www.w3.org/2000/svg">
<path d="M35 16.5253L33.4245 17.9973C33.6262 18.2132 33.8702 18.3853 34.1412 18.503C34.4122 18.6207 34.7045 18.6814 35 18.6814C35.2955 18.6814 35.5878 18.6207 35.8588 18.503C36.1298 18.3853 36.3738 18.2132 36.5755 17.9973L35 16.5253ZM27.6228 54.5386C23.454 51.1576 18.5895 46.7214 14.783 41.8656C10.9334 36.9579 8.40625 31.9181 8.40625 27.2893H4.09375C4.09375 33.3757 7.3425 39.3701 11.3876 44.5278C15.4759 49.7402 20.6164 54.4063 24.9059 57.8879L27.6228 54.5386ZM8.40625 27.2893C8.40625 18.9374 12.0518 13.7768 16.5598 12.0087C21.0591 10.2463 27.3525 11.5056 33.4245 17.9973L36.5755 15.0533C29.71 7.71056 21.6284 5.39331 14.9871 7.99231C8.3545 10.5913 4.09375 17.7271 4.09375 27.2893H8.40625ZM45.0913 57.8851C49.3836 54.4034 54.5241 49.7373 58.6124 44.5249C62.6575 39.3672 65.9063 33.3728 65.9063 27.2836H61.5938C61.5938 31.9181 59.0638 36.9551 55.217 41.8627C51.4105 46.7186 46.546 51.1547 42.3773 54.5357L45.0913 57.8851ZM65.9063 27.2836C65.9063 17.7242 61.6455 10.5884 55.01 7.99231C48.3688 5.39044 40.29 7.70481 33.4245 15.0504L36.5755 17.9973C42.6475 11.5056 48.9409 10.2434 53.4403 12.0058C57.9483 13.7711 61.5938 18.9346 61.5938 27.2836H65.9063ZM24.9059 57.8879C28.5571 60.8549 31.0958 63.0313 35 63.0313V58.7188C32.9214 58.7188 31.6276 57.7873 27.6228 54.5386L24.9059 57.8879ZM42.3773 54.5357C38.3724 57.7844 37.0786 58.7188 35 58.7188V63.0313C38.9043 63.0313 41.4429 60.8549 45.0941 57.8879L42.3773 54.5357Z" fill="#555555"/>
<path d="M53.6875 26.375H47.9375M47.9375 26.375H42.1875M47.9375 26.375V20.625M47.9375 26.375V32.125" stroke="#555555" stroke-width="4" stroke-linecap="round"/>
</svg>
