<svg width="42" height="42" viewBox="0 0 42 42" fill="none" xmlns="http://www.w3.org/2000/svg">
<g filter="url(#filter0_d_124_56)">
<rect x="5" y="3" width="32" height="32" rx="4" fill="white"/>
<path d="M29.75 18.893C29.6073 17.257 29.0089 15.6937 28.0226 14.3806C27.0364 13.0675 25.7018 12.0572 24.1703 11.4643C22.6388 10.8714 20.9719 10.7197 19.3585 11.0263C17.7452 11.333 16.2501 12.0858 15.043 13.1992C13.4315 14.6797 12.4358 16.7122 12.2539 18.893C12.2391 19.0656 12.2603 19.2394 12.3162 19.4033C12.3721 19.5673 12.4614 19.7178 12.5786 19.8454C12.6958 19.973 12.8382 20.0749 12.9968 20.1445C13.1554 20.2142 13.3268 20.2501 13.5 20.25H20.375V24.625C20.375 25.288 20.6384 25.9239 21.1072 26.3928C21.5761 26.8616 22.212 27.125 22.875 27.125C23.5381 27.125 24.1739 26.8616 24.6428 26.3928C25.1116 25.9239 25.375 25.288 25.375 24.625C25.375 24.4592 25.3092 24.3003 25.192 24.1831C25.0747 24.0658 24.9158 24 24.75 24C24.5843 24 24.4253 24.0658 24.3081 24.1831C24.1909 24.3003 24.125 24.4592 24.125 24.625C24.125 24.9565 23.9933 25.2745 23.7589 25.5089C23.5245 25.7433 23.2065 25.875 22.875 25.875C22.5435 25.875 22.2256 25.7433 21.9911 25.5089C21.7567 25.2745 21.625 24.9565 21.625 24.625V20.25H28.5C28.6736 20.2506 28.8454 20.2151 29.0044 20.1457C29.1635 20.0763 29.3064 19.9745 29.424 19.8469C29.5416 19.7192 29.6313 19.5685 29.6874 19.4043C29.7436 19.24 29.7649 19.0659 29.75 18.893ZM13.5 19C13.6385 17.39 14.2926 15.8676 15.365 14.6587C16.4374 13.4499 17.8711 12.6192 19.4531 12.2898C18.5375 13.5312 17.3945 15.7273 17.2633 19H13.5ZM18.5117 19C18.6203 16.5961 19.3344 14.8742 19.9414 13.825C20.2407 13.3038 20.5957 12.8166 21 12.3719C21.4036 12.8166 21.7578 13.3039 22.0563 13.825C23.0938 15.6172 23.4219 17.5375 23.486 19H18.5117ZM24.7344 19C24.6031 15.7273 23.4602 13.5312 22.5469 12.2859C24.13 12.6146 25.5646 13.4456 26.6373 14.6554C27.71 15.8651 28.3633 17.389 28.5 19H24.7344Z" fill="black"/>
</g>
<defs>
<filter id="filter0_d_124_56" x="0" y="0" width="42" height="42" filterUnits="userSpaceOnUse" color-interpolation-filters="sRGB">
<feFlood flood-opacity="0" result="BackgroundImageFix"/>
<feColorMatrix in="SourceAlpha" type="matrix" values="0 0 0 0 0 0 0 0 0 0 0 0 0 0 0 0 0 0 127 0" result="hardAlpha"/>
<feMorphology radius="1" operator="dilate" in="SourceAlpha" result="effect1_dropShadow_124_56"/>
<feOffset dy="2"/>
<feGaussianBlur stdDeviation="2"/>
<feComposite in2="hardAlpha" operator="out"/>
<feColorMatrix type="matrix" values="0 0 0 0 0 0 0 0 0 0 0 0 0 0 0 0 0 0 0.25 0"/>
<feBlend mode="normal" in2="BackgroundImageFix" result="effect1_dropShadow_124_56"/>
<feBlend mode="normal" in="SourceGraphic" in2="effect1_dropShadow_124_56" result="shape"/>
</filter>
</defs>
</svg>
