<svg width="42" height="42" viewBox="0 0 42 42" fill="none" xmlns="http://www.w3.org/2000/svg">
<g filter="url(#filter0_d_124_85)">
<rect x="5" y="3" width="32" height="32" rx="4" fill="white"/>
<path d="M21 12.3333V10.6667M21 25.6667V27.3333M16.345 14.345L15.1667 13.1667M25.7733 23.7733L26.9517 24.9517M14.3333 19H12.6667M27.6667 19H29.3333M25.7742 14.345L26.9525 13.1667M16.3458 23.7733L15.1667 24.9517M21 23.1667C19.8949 23.1667 18.8351 22.7277 18.0537 21.9463C17.2723 21.1649 16.8333 20.1051 16.8333 19C16.8333 17.8949 17.2723 16.8351 18.0537 16.0537C18.8351 15.2723 19.8949 14.8333 21 14.8333C22.1051 14.8333 23.1649 15.2723 23.9463 16.0537C24.7277 16.8351 25.1667 17.8949 25.1667 19C25.1667 20.1051 24.7277 21.1649 23.9463 21.9463C23.1649 22.7277 22.1051 23.1667 21 23.1667Z" stroke="black" stroke-linecap="round" stroke-linejoin="round"/>
</g>
<defs>
<filter id="filter0_d_124_85" x="0" y="0" width="42" height="42" filterUnits="userSpaceOnUse" color-interpolation-filters="sRGB">
<feFlood flood-opacity="0" result="BackgroundImageFix"/>
<feColorMatrix in="SourceAlpha" type="matrix" values="0 0 0 0 0 0 0 0 0 0 0 0 0 0 0 0 0 0 127 0" result="hardAlpha"/>
<feMorphology radius="1" operator="dilate" in="SourceAlpha" result="effect1_dropShadow_124_85"/>
<feOffset dy="2"/>
<feGaussianBlur stdDeviation="2"/>
<feComposite in2="hardAlpha" operator="out"/>
<feColorMatrix type="matrix" values="0 0 0 0 0 0 0 0 0 0 0 0 0 0 0 0 0 0 0.25 0"/>
<feBlend mode="normal" in2="BackgroundImageFix" result="effect1_dropShadow_124_85"/>
<feBlend mode="normal" in="SourceGraphic" in2="effect1_dropShadow_124_85" result="shape"/>
</filter>
</defs>
</svg>
